M48
; DRILL file {KiCad (5.99.0-7511-ga134567838)} date 01/29/21 23:07:15
; FORMAT={-:-/ absolute / inch / decimal}
; #@! TF.CreationDate,2021-01-29T23:07:15-08:00
; #@! TF.GenerationSoftware,Kicad,Pcbnew,(5.99.0-7511-ga134567838)
; #@! TF.FileFunction,Plated,1,2,PTH
FMAT,2
INCH
T1C0.0157
T2C0.0300
T3C0.0335
T4C0.0354
T5C0.0390
T6C0.1181
%
G90
G05
T1
X0.6921Y-2.069
X0.7704Y-4.9847
X0.7943Y-0.6865
X0.8279Y-1.8707
X0.8649Y-2.7308
X0.9621Y-3.478
X0.975Y-2.0178
X1.0956Y-4.2757
X1.1149Y-1.5276
X1.1859Y-0.8203
X1.6353Y-1.9807
X1.7114Y-0.6422
X1.8086Y-2.7304
X1.9362Y-3.4823
X2.0464Y-5.0233
X2.1232Y-2.069
X2.3102Y-4.275
X2.4609Y-0.6422
X2.4991Y-2.819
X2.5247Y-0.0788
X2.5385Y-0.8327
X2.5547Y-0.0978
X2.5781Y-0.1297
X2.6641Y-4.9839
X2.6842Y-3.5237
X2.8748Y-1.9807
X2.9677Y-0.5625
X2.9677Y-2.1339
X3.0602Y-4.2757
X3.1642Y-3.6277
X3.2114Y-0.6422
X3.2491Y-2.7737
X3.4368Y-3.525
X3.6232Y-2.0257
X3.8102Y-4.2757
X3.9609Y-0.6422
X3.9952Y-2.7737
X4.125Y-4.7344
X4.1868Y-3.525
X4.2188Y-4.8281
X4.2452Y-0.8682
X4.3732Y-2.0257
X4.5602Y-4.2757
X4.5759Y-5.0867
X4.7472Y-2.7757
X4.922Y-0.6422
X4.9362Y-3.5257
X5.1232Y-2.0257
X5.3108Y-4.275
X5.3438Y0.3047
X5.4968Y-5.0249
X5.4978Y-2.775
X5.672Y-0.6422
X5.6868Y-3.525
X5.7491Y-0.8918
X5.8732Y-2.0237
X5.8828Y0.1645
X5.9063Y0.1326
X5.9297Y0.1011
X6.0602Y-4.2757
X6.2472Y-2.7737
X6.4219Y-0.6422
X6.4362Y-3.5257
X6.4991Y-1.3532
X6.6232Y-2.0257
X6.8121Y-4.2737
X6.8906Y0.0061
X6.9375Y0.0061
X6.9978Y-2.775
X7.0078Y0.1172
X7.1719Y-0.6422
X7.1842Y-3.5257
X7.2452Y-1.3564
X7.3732Y-2.0237
X7.4598Y-0.9154
X7.4755Y-0.0965
X7.5621Y-4.2757
X7.6875Y0.0
X7.7112Y-0.0266
X7.7491Y-2.7757
X7.9362Y-3.5237
X8.0156Y-0.0561
X8.0907Y-0.0266
X8.1232Y-2.0257
X8.1328Y-0.6422
X8.151Y-0.0012
X8.1708Y-4.9804
X8.3102Y-4.2737
X8.4998Y-2.775
X8.6862Y-3.5257
X8.8712Y-2.0257
X8.8732Y-4.9804
X8.8828Y-0.6422
X8.9578Y-0.9627
X9.0602Y-4.2304
X9.0759Y-5.1654
X9.0759Y-5.3426
X9.2472Y-2.7757
X9.4362Y-3.5257
X9.6232Y-5.0257
X9.6328Y-0.642
X9.6707Y-4.9807
X9.6885Y-2.0245
X9.9027Y-0.1556
X9.9972Y-2.7757
X10.0385Y-4.819
X10.0917Y-4.2757
X10.3828Y-0.6422
X10.4063Y-0.75
X10.4297Y-0.7734
X10.4531Y-0.7969
X10.4766Y-0.8203
X10.5Y-0.8438
X10.5234Y-0.3047
X10.5234Y-0.8672
X10.5938Y-0.1641
X10.6586Y-3.5237
X10.6614Y-0.0701
X10.6665Y-4.7717
X10.6665Y-5.2934
X10.7058Y-4.4292
X10.7344Y-0.0949
X10.7344Y-0.375
X10.7344Y-2.25
X10.7883Y-5.1085
X10.7885Y-5.2363
X10.8047Y-0.7734
X10.875Y-0.1875
X10.9362Y-2.7304
X10.9641Y-1.88
X10.9688Y-0.8426
X10.9842Y-0.0264
X11.1316Y-0.7222
X11.1796Y-0.3364
X11.1797Y-0.0635
X11.1797Y-0.1641
X11.1797Y-0.3047
X11.2314Y-3.7953
X11.3069Y-2.775
X11.3146Y-0.076
X11.3438Y-0.375
X11.3672Y-0.0938
X11.3753Y-0.375
X11.4068Y-0.375
X11.4609Y-0.0703
X11.4832Y-1.9453
X11.5385Y-5.1162
X11.5385Y-5.3426
X11.5547Y0.1875
X11.5793Y-2.0391
X11.6212Y-0.4804
X11.673Y-1.275
X11.7432Y-4.2737
X11.7452Y-2.025
X11.7452Y-3.5257
X11.7478Y-2.775
X11.8125Y-0.7266
X12.1724Y-0.8308
X12.2944Y-3.7934
X12.3121Y-4.7658
X12.4932Y-0.5257
X12.4952Y-1.2757
X12.4952Y-4.2757
X12.4959Y-5.025
X12.4959Y-3.525
X12.4959Y-2.775
X12.4972Y-2.0237
X13.0444Y-0.8131
X13.0444Y-4.4531
X13.1114Y-0.5237
X13.2472Y-1.2737
X13.2472Y-4.2737
X13.2472Y-5.025
X13.2478Y-2.025
X13.2491Y-2.7737
X13.2491Y-3.5237
X13.7944Y-0.7992
X13.8594Y-0.5237
X13.9302Y-2.025
X13.9362Y-1.275
X13.946Y-2.7737
X13.9539Y-3.5237
X14.5425Y-0.819
T2
X9.6144Y0.2578
X9.7344Y0.2578
X9.8544Y0.2578
X9.9744Y0.2578
T3
X3.6902Y-4.775
X3.6902Y-4.875
X3.6902Y-4.975
X3.7902Y-4.775
X3.7902Y-4.875
X3.7902Y-4.975
T4
X10.6844Y-0.5859
X10.7844Y-0.5859
X10.9656Y-0.5859
X11.0656Y-0.5859
X11.2469Y-0.5859
X11.3469Y-0.5859
T5
X0.6063Y-3.575
X0.7063Y-3.575
X11.9969Y-2.075
X12.0969Y-2.075
X14.2469Y-1.325
X14.3469Y-1.325
T6
G00X10.1929Y0.1913
M15
G01X10.1929Y0.2306
M16
G05
T0
M30
