G04 #@! TF.GenerationSoftware,KiCad,Pcbnew,(5.99.0-7511-ga134567838)*
G04 #@! TF.CreationDate,2021-01-29T23:07:13-08:00*
G04 #@! TF.ProjectId,gh80-1800,67683830-2d31-4383-9030-2e6b69636164,rev?*
G04 #@! TF.SameCoordinates,Original*
G04 #@! TF.FileFunction,Profile,NP*
%FSLAX46Y46*%
G04 Gerber Fmt 4.6, Leading zero omitted, Abs format (unit mm)*
G04 Created by KiCad (PCBNEW (5.99.0-7511-ga134567838)) date 2021-01-29 23:07:13*
%MOMM*%
%LPD*%
G01*
G04 APERTURE LIST*
G04 #@! TA.AperFunction,Profile*
%ADD10C,0.100000*%
G04 #@! TD*
G04 APERTURE END LIST*
D10*
X126206356Y10120321D02*
G75*
G03*
X125015730Y8929695I0J-1190626D01*
G01*
X375047190Y8929695D02*
X136921990Y8929695D01*
X-4167191Y-136326677D02*
G75*
G03*
X-2381252Y-138112616I1785939J0D01*
G01*
X135731364Y10120321D02*
X136921990Y8929695D01*
X125015730Y8929695D02*
X125015730Y-595313D01*
X-2381252Y8929695D02*
G75*
G03*
X-4167191Y7143756I0J-1785939D01*
G01*
X80367255Y10120320D02*
X70842188Y10120313D01*
X123825104Y-1785939D02*
X82748507Y-1785939D01*
X-4167191Y7143756D02*
X-4167191Y-136326677D01*
X81557881Y8929694D02*
X81557881Y-595313D01*
X376833129Y-136326677D02*
X376833129Y7143756D01*
X81557881Y8929694D02*
G75*
G03*
X80367255Y10120320I-1190626J0D01*
G01*
X376833129Y7143756D02*
G75*
G03*
X375047190Y8929695I-1785939J0D01*
G01*
X-2381252Y-138112616D02*
X375047190Y-138112616D01*
X70842188Y10120313D02*
X69651563Y8929688D01*
X126206356Y10120321D02*
X135731364Y10120321D01*
X375047190Y-138112616D02*
G75*
G03*
X376833129Y-136326677I0J1785939D01*
G01*
X69651563Y8929688D02*
X-2381250Y8929688D01*
X81557881Y-595313D02*
G75*
G03*
X82748507Y-1785939I1190626J0D01*
G01*
X123825104Y-1785939D02*
G75*
G03*
X125015730Y-595313I0J1190626D01*
G01*
M02*
