M48
; DRILL file {KiCad (5.99.0-7511-ga134567838)} date 01/29/21 23:07:15
; FORMAT={-:-/ absolute / inch / decimal}
; #@! TF.CreationDate,2021-01-29T23:07:15-08:00
; #@! TF.GenerationSoftware,Kicad,Pcbnew,(5.99.0-7511-ga134567838)
; #@! TF.FileFunction,NonPlated,1,2,NPTH
FMAT,2
INCH
T1C0.0394
T2C0.0670
T3C0.1181
T4C0.1200
T5C0.1570
T6C0.1575
T7C0.1772
T8C0.2362
%
G90
G05
T1
X3.0234Y0.2507
X3.0234Y0.0774
X5.1094Y0.2507
X5.1094Y0.0774
X7.2024Y0.1875
X7.3757Y0.1875
T2
X0.175Y-0.375
X0.175Y-1.875
X0.2677Y-4.8749
X0.3625Y-2.625
X0.4563Y-3.375
X0.575Y-0.375
X0.575Y-1.875
X0.6438Y-4.125
X0.6677Y-4.8749
X0.7625Y-2.625
X0.8563Y-3.375
X0.925Y-1.875
X1.0438Y-4.125
X1.1359Y-0.375
X1.2047Y-4.8749
X1.3Y-2.625
X1.325Y-1.875
X1.4875Y-3.375
X1.5359Y-0.375
X1.6047Y-4.8749
X1.675Y-1.875
X1.7Y-2.625
X1.8625Y-4.125
X1.8859Y-0.375
X1.8875Y-3.375
X2.05Y-2.625
X2.075Y-1.875
X2.1425Y-4.8749
X2.2375Y-3.375
X2.2625Y-4.125
X2.2859Y-0.375
X2.425Y-1.875
X2.45Y-2.625
X2.5425Y-4.8749
X2.6125Y-4.125
X2.6359Y-0.375
X2.6375Y-3.375
X2.8Y-2.625
X2.825Y-1.875
X2.9875Y-3.375
X3.0125Y-4.125
X3.0359Y-0.375
X3.175Y-1.875
X3.2Y-2.625
X3.3625Y-4.125
X3.3859Y-0.375
X3.3875Y-3.375
X3.55Y-2.625
X3.575Y-1.875
X3.7375Y-3.375
X3.7625Y-4.125
X3.7859Y-0.375
X3.925Y-1.875
X3.95Y-2.625
X4.1125Y-4.125
X4.1375Y-3.375
X4.3Y-2.625
X4.325Y-1.875
X4.3469Y-0.375
X4.4875Y-3.375
X4.5125Y-4.125
X4.675Y-1.875
X4.7Y-2.625
X4.7469Y-0.375
X4.8625Y-4.125
X4.8875Y-3.375
X4.9547Y-4.8749
X5.05Y-2.625
X5.075Y-1.875
X5.0969Y-0.375
X5.2375Y-3.375
X5.2625Y-4.125
X5.3547Y-4.8749
X5.425Y-1.875
X5.45Y-2.625
X5.4969Y-0.375
X5.6125Y-4.125
X5.6375Y-3.375
X5.8Y-2.625
X5.825Y-1.875
X5.8469Y-0.375
X5.9875Y-3.375
X6.0125Y-4.125
X6.175Y-1.875
X6.2Y-2.625
X6.2469Y-0.375
X6.3625Y-4.125
X6.3875Y-3.375
X6.55Y-2.625
X6.575Y-1.875
X6.5969Y-0.375
X6.7375Y-3.375
X6.7625Y-4.125
X6.925Y-1.875
X6.95Y-2.625
X6.9969Y-0.375
X7.1125Y-4.125
X7.1375Y-3.375
X7.3Y-2.625
X7.325Y-1.875
X7.4875Y-3.375
X7.5125Y-4.125
X7.5578Y-0.375
X7.675Y-1.875
X7.6751Y-4.875
X7.7Y-2.625
X7.8621Y-4.1249
X7.8875Y-3.375
X7.9578Y-0.375
X8.05Y-2.625
X8.075Y-1.875
X8.0751Y-4.875
X8.2375Y-3.375
X8.2621Y-4.1249
X8.3078Y-0.375
X8.425Y-1.875
X8.425Y-4.875
X8.45Y-2.625
X8.6125Y-4.125
X8.6375Y-3.375
X8.7078Y-0.375
X8.8Y-2.625
X8.825Y-1.875
X8.825Y-4.875
X8.9875Y-3.375
X9.0125Y-4.125
X9.0578Y-0.375
X9.175Y-1.875
X9.175Y-4.875
X9.2Y-2.625
X9.3875Y-3.375
X9.4578Y-0.375
X9.55Y-2.625
X9.575Y-1.875
X9.575Y-4.875
X9.6438Y-4.125
X9.8078Y-0.375
X9.95Y-2.625
X10.0438Y-4.125
X10.1359Y-5.0859
X10.2063Y-3.375
X10.2078Y-0.375
X10.3Y-1.875
X10.4875Y-2.625
X10.5359Y-5.0859
X10.6063Y-3.375
X10.7Y-1.875
X10.8859Y-4.3359
X10.8859Y-5.0859
X10.8875Y-2.625
X11.2859Y-4.3359
X11.2859Y-5.0859
X11.6359Y-5.0859
X11.8469Y-0.375
X11.8469Y-1.125
X11.8469Y-1.875
X11.8469Y-2.625
X11.8469Y-3.375
X11.8469Y-4.125
X12.0359Y-5.0859
X12.2469Y-0.375
X12.2469Y-1.125
X12.2469Y-1.875
X12.2469Y-2.625
X12.2469Y-3.375
X12.2469Y-4.125
X12.5969Y-0.375
X12.5969Y-1.125
X12.5969Y-1.875
X12.5969Y-2.625
X12.5969Y-3.375
X12.5969Y-4.125
X12.5969Y-4.875
X12.9969Y-0.375
X12.9969Y-1.125
X12.9969Y-1.875
X12.9969Y-2.625
X12.9969Y-3.375
X12.9969Y-4.125
X12.9969Y-4.875
X13.3469Y-0.375
X13.3469Y-1.125
X13.3469Y-1.875
X13.3469Y-2.625
X13.3469Y-3.375
X13.3469Y-4.125
X13.3469Y-4.875
X13.7469Y-0.375
X13.7469Y-1.125
X13.7469Y-1.875
X13.7469Y-2.625
X13.7469Y-3.375
X13.7469Y-4.125
X13.7469Y-4.875
X14.0969Y-0.375
X14.0969Y-1.125
X14.0969Y-1.875
X14.0969Y-2.625
X14.0969Y-3.375
X14.2969Y-4.3
X14.2969Y-4.7
X14.4969Y-0.375
X14.4969Y-1.125
X14.4969Y-1.875
X14.4969Y-2.625
X14.4969Y-3.375
T3
X0.225Y-0.275
X0.225Y-1.775
X0.3177Y-4.7749
X0.4125Y-2.525
X0.475Y-0.175
X0.475Y-1.675
X0.5063Y-3.275
X0.5677Y-4.6749
X0.6625Y-2.425
X0.6938Y-4.025
X0.7563Y-3.175
X0.9438Y-3.925
X0.975Y-1.775
X1.1859Y-0.275
X1.225Y-1.675
X1.2547Y-4.7749
X1.35Y-2.525
X1.4359Y-0.175
X1.5047Y-4.6749
X1.5375Y-3.275
X1.6Y-2.425
X1.725Y-1.775
X1.7875Y-3.175
X1.9125Y-4.025
X1.9359Y-0.275
X1.975Y-1.675
X2.1Y-2.525
X2.1625Y-3.925
X2.1859Y-0.175
X2.1925Y-4.7749
X2.2875Y-3.275
X2.35Y-2.425
X2.4425Y-4.6749
X2.475Y-1.775
X2.5375Y-3.175
X2.6625Y-4.025
X2.6859Y-0.275
X2.725Y-1.675
X2.85Y-2.525
X2.9125Y-3.925
X2.9359Y-0.175
X3.0375Y-3.275
X3.1Y-2.425
X3.225Y-1.775
X3.2875Y-3.175
X3.4125Y-4.025
X3.4359Y-0.275
X3.475Y-1.675
X3.6Y-2.525
X3.6625Y-3.925
X3.6859Y-0.175
X3.7875Y-3.275
X3.85Y-2.425
X3.975Y-1.775
X4.0375Y-3.175
X4.1625Y-4.025
X4.225Y-1.675
X4.35Y-2.525
X4.3969Y-0.275
X4.4125Y-3.925
X4.5375Y-3.275
X4.6Y-2.425
X4.6469Y-0.175
X4.725Y-1.775
X4.7875Y-3.175
X4.9125Y-4.025
X4.975Y-1.675
X5.0047Y-4.7749
X5.1Y-2.525
X5.1469Y-0.275
X5.1625Y-3.925
X5.2547Y-4.6749
X5.2875Y-3.275
X5.35Y-2.425
X5.3969Y-0.175
X5.475Y-1.775
X5.5375Y-3.175
X5.6625Y-4.025
X5.725Y-1.675
X5.85Y-2.525
X5.8969Y-0.275
X5.9125Y-3.925
X6.0375Y-3.275
X6.1Y-2.425
X6.1469Y-0.175
X6.225Y-1.775
X6.2875Y-3.175
X6.4125Y-4.025
X6.475Y-1.675
X6.6Y-2.525
X6.6469Y-0.275
X6.6625Y-3.925
X6.7875Y-3.275
X6.85Y-2.425
X6.8969Y-0.175
X6.975Y-1.775
X7.0375Y-3.175
X7.1625Y-4.025
X7.225Y-1.675
X7.35Y-2.525
X7.4125Y-3.925
X7.5375Y-3.275
X7.6Y-2.425
X7.6078Y-0.275
X7.725Y-1.775
X7.7251Y-4.775
X7.7875Y-3.175
X7.8578Y-0.175
X7.9121Y-4.0249
X7.975Y-1.675
X7.9751Y-4.675
X8.1Y-2.525
X8.1621Y-3.9249
X8.2875Y-3.275
X8.35Y-2.425
X8.3578Y-0.275
X8.475Y-1.775
X8.475Y-4.775
X8.5375Y-3.175
X8.6078Y-0.175
X8.6625Y-4.025
X8.725Y-1.675
X8.725Y-4.675
X8.85Y-2.525
X8.9125Y-3.925
X9.0375Y-3.275
X9.1Y-2.425
X9.1078Y-0.275
X9.225Y-1.775
X9.225Y-4.775
X9.2875Y-3.175
X9.3578Y-0.175
X9.475Y-1.675
X9.475Y-4.675
X9.6Y-2.525
X9.6938Y-4.025
X9.85Y-2.425
X9.8578Y-0.275
X9.9438Y-3.925
X10.1078Y-0.175
X10.1859Y-4.9859
X10.2563Y-3.275
X10.35Y-1.775
X10.4359Y-4.8859
X10.5063Y-3.175
X10.5375Y-2.525
X10.6Y-1.675
X10.7875Y-2.425
X10.9359Y-4.2359
X10.9359Y-4.9859
X11.1859Y-4.1359
X11.1859Y-4.8859
X11.6859Y-4.9859
X11.8969Y-0.275
X11.8969Y-1.025
X11.8969Y-1.775
X11.8969Y-2.525
X11.8969Y-3.275
X11.8969Y-4.025
X11.9359Y-4.8859
X12.1469Y-0.175
X12.1469Y-0.925
X12.1469Y-1.675
X12.1469Y-2.425
X12.1469Y-3.175
X12.1469Y-3.925
X12.6469Y-0.275
X12.6469Y-1.025
X12.6469Y-1.775
X12.6469Y-2.525
X12.6469Y-3.275
X12.6469Y-4.025
X12.6469Y-4.775
X12.8969Y-0.175
X12.8969Y-0.925
X12.8969Y-1.675
X12.8969Y-2.425
X12.8969Y-3.175
X12.8969Y-3.925
X12.8969Y-4.675
X13.3969Y-0.275
X13.3969Y-1.025
X13.3969Y-1.775
X13.3969Y-2.525
X13.3969Y-3.275
X13.3969Y-4.025
X13.3969Y-4.775
X13.6469Y-0.175
X13.6469Y-0.925
X13.6469Y-1.675
X13.6469Y-2.425
X13.6469Y-3.175
X13.6469Y-3.925
X13.6469Y-4.675
X14.1469Y-0.275
X14.1469Y-1.025
X14.1469Y-1.775
X14.1469Y-2.525
X14.1469Y-3.275
X14.3969Y-0.175
X14.3969Y-0.925
X14.3969Y-1.675
X14.3969Y-2.425
X14.3969Y-3.175
X14.3969Y-4.35
X14.4969Y-4.6
T4
X0.3735Y-3.8502
X1.3135Y-3.8502
X3.185Y-4.6001
X7.1243Y-4.6001
X9.936Y-3.1002
X10.0298Y-1.6002
X10.876Y-3.1002
X10.9698Y-1.6002
X14.5717Y-4.0298
X14.5717Y-4.9698
T5
X0.3735Y-4.4502
X0.375Y-0.375
X0.375Y-1.875
X0.4677Y-4.8749
X0.5625Y-2.625
X0.6563Y-3.375
X0.8438Y-4.125
X1.125Y-1.875
X1.3135Y-4.4502
X1.3359Y-0.375
X1.4047Y-4.8749
X1.5Y-2.625
X1.6875Y-3.375
X1.875Y-1.875
X2.0625Y-4.125
X2.0859Y-0.375
X2.25Y-2.625
X2.3425Y-4.8749
X2.4375Y-3.375
X2.625Y-1.875
X2.8125Y-4.125
X2.8359Y-0.375
X3.0Y-2.625
X3.185Y-5.2001
X3.1875Y-3.375
X3.375Y-1.875
X3.5625Y-4.125
X3.5859Y-0.375
X3.75Y-2.625
X3.9375Y-3.375
X4.125Y-1.875
X4.3125Y-4.125
X4.5Y-2.625
X4.5469Y-0.375
X4.6875Y-3.375
X4.875Y-1.875
X5.0625Y-4.125
X5.1547Y-4.8749
X5.25Y-2.625
X5.2969Y-0.375
X5.4375Y-3.375
X5.625Y-1.875
X5.8125Y-4.125
X6.0Y-2.625
X6.0469Y-0.375
X6.1875Y-3.375
X6.375Y-1.875
X6.5625Y-4.125
X6.75Y-2.625
X6.7969Y-0.375
X6.9375Y-3.375
X7.1243Y-5.2001
X7.125Y-1.875
X7.3125Y-4.125
X7.5Y-2.625
X7.6875Y-3.375
X7.7578Y-0.375
X7.875Y-1.875
X7.8751Y-4.875
X8.0621Y-4.1249
X8.25Y-2.625
X8.4375Y-3.375
X8.5078Y-0.375
X8.625Y-1.875
X8.625Y-4.875
X8.8125Y-4.125
X9.0Y-2.625
X9.1875Y-3.375
X9.2578Y-0.375
X9.375Y-1.875
X9.375Y-4.875
X9.75Y-2.625
X9.8438Y-4.125
X9.936Y-3.7002
X10.0078Y-0.375
X10.0298Y-2.2002
X10.3359Y-5.0859
X10.4063Y-3.375
X10.5Y-1.875
X10.6875Y-2.625
X10.876Y-3.7002
X10.9698Y-2.2002
X11.0859Y-4.3359
X11.0859Y-5.0859
X11.8359Y-5.0859
X12.0469Y-0.375
X12.0469Y-1.125
X12.0469Y-1.875
X12.0469Y-2.625
X12.0469Y-3.375
X12.0469Y-4.125
X12.7969Y-0.375
X12.7969Y-1.125
X12.7969Y-1.875
X12.7969Y-2.625
X12.7969Y-3.375
X12.7969Y-4.125
X12.7969Y-4.875
X13.5469Y-0.375
X13.5469Y-1.125
X13.5469Y-1.875
X13.5469Y-2.625
X13.5469Y-3.375
X13.5469Y-4.125
X13.5469Y-4.875
X13.9717Y-4.0298
X13.9717Y-4.9698
X14.2969Y-0.375
X14.2969Y-1.125
X14.2969Y-1.875
X14.2969Y-2.625
X14.2969Y-3.375
X14.2969Y-4.5
T6
X1.3359Y-1.125
X1.8047Y-1.3359
X2.3203Y-5.25
X7.3359Y-1.125
X10.1953Y-1.3359
X11.3203Y-1.125
X12.3516Y-5.25
T7
X0.1172Y-5.2265
T8
X2.3203Y-1.125
T3
G00X14.5387Y0.0703
M15
G01X14.6175Y0.0703
M16
G05
T6
G00X3.4453Y-5.5162
M15
G01X3.4453Y-5.3587
M16
G05
G00X12.5625Y-5.5162
M15
G01X12.5625Y-5.3587
M16
G05
T8
G00X9.7884Y-1.125
M15
G01X9.9459Y-1.125
M16
G05
T0
M30
