G04 #@! TF.GenerationSoftware,KiCad,Pcbnew,(5.99.0-7511-ga134567838)*
G04 #@! TF.CreationDate,2021-01-29T23:07:12-08:00*
G04 #@! TF.ProjectId,gh80-1800,67683830-2d31-4383-9030-2e6b69636164,rev?*
G04 #@! TF.SameCoordinates,Original*
G04 #@! TF.FileFunction,Soldermask,Top*
G04 #@! TF.FilePolarity,Negative*
%FSLAX46Y46*%
G04 Gerber Fmt 4.6, Leading zero omitted, Abs format (unit mm)*
G04 Created by KiCad (PCBNEW (5.99.0-7511-ga134567838)) date 2021-01-29 23:07:12*
%MOMM*%
%LPD*%
G01*
G04 APERTURE LIST*
%ADD10R,1.000000X1.700000*%
%ADD11R,1.800000X1.800000*%
%ADD12C,1.800000*%
%ADD13O,10.000000X6.000000*%
%ADD14C,6.000000*%
%ADD15O,5.000000X3.000000*%
%ADD16C,4.000000*%
%ADD17C,4.500000*%
%ADD18O,4.000000X8.000000*%
%ADD19R,1.700000X1.700000*%
%ADD20O,1.700000X1.700000*%
%ADD21C,3.000000*%
%ADD22C,1.701800*%
%ADD23C,3.987800*%
%ADD24C,3.048000*%
%ADD25R,2.000000X3.000000*%
%ADD26R,1.778000X1.778000*%
%ADD27C,1.778000*%
%ADD28C,1.000000*%
%ADD29O,4.000000X5.000000*%
G04 APERTURE END LIST*
D10*
X106900000Y-126975000D03*
X106900000Y-120675000D03*
X103100000Y-120675000D03*
X103100000Y-126975000D03*
D11*
X271383000Y-14882800D03*
D12*
X273923000Y-14882800D03*
D11*
X278527000Y-14882800D03*
D12*
X281067000Y-14882800D03*
D11*
X285671000Y-14882800D03*
D12*
X288211000Y-14882800D03*
D13*
X250626000Y-28575000D03*
D14*
X58936000Y-28575000D03*
D15*
X370284000Y1785900D03*
D16*
X33932800Y-28575000D03*
X45839100Y-33932800D03*
X258961000Y-33932800D03*
X287536000Y-28575000D03*
D17*
X2976500Y-132754000D03*
D16*
X58936000Y-133350000D03*
D18*
X87511000Y-138112000D03*
X319087000Y-138112000D03*
D16*
X313730000Y-133350000D03*
X186333000Y-28575000D03*
D19*
X93730000Y-121285000D03*
D20*
X96270000Y-121285000D03*
X93730000Y-123825000D03*
X96270000Y-123825000D03*
X93730000Y-126365000D03*
X96270000Y-126365000D03*
D21*
X346630914Y-99695088D03*
D22*
X349170914Y-104775088D03*
X339010914Y-104775088D03*
D23*
X344090914Y-104775088D03*
D21*
X340280914Y-102235088D03*
X193040160Y-61595056D03*
D22*
X195580160Y-66675056D03*
X185420160Y-66675056D03*
D21*
X186690160Y-64135056D03*
D23*
X190500160Y-66675056D03*
D21*
X327580898Y-99695088D03*
D22*
X330120898Y-104775088D03*
D21*
X321230898Y-102235088D03*
D23*
X325040898Y-104775088D03*
D22*
X319960898Y-104775088D03*
X300910882Y-104775088D03*
D23*
X305990882Y-104775088D03*
D22*
X311070882Y-104775088D03*
D21*
X308530882Y-99695088D03*
X302180882Y-102235088D03*
X274002728Y-61595056D03*
D22*
X266382728Y-66675056D03*
D21*
X267652728Y-64135056D03*
D22*
X276542728Y-66675056D03*
D23*
X271462728Y-66675056D03*
D21*
X231140192Y-61595056D03*
D23*
X228600192Y-66675056D03*
D21*
X224790192Y-64135056D03*
D22*
X233680192Y-66675056D03*
X223520192Y-66675056D03*
D23*
X133350112Y-66675056D03*
D21*
X135890112Y-61595056D03*
D22*
X128270112Y-66675056D03*
X138430112Y-66675056D03*
D21*
X129540112Y-64135056D03*
D22*
X368220930Y-85725072D03*
X358060930Y-85725072D03*
D23*
X363140930Y-85725072D03*
D21*
X365680930Y-80645072D03*
X359330930Y-83185072D03*
X183515152Y-42545040D03*
X177165152Y-45085040D03*
D23*
X180975152Y-47625040D03*
D22*
X175895152Y-47625040D03*
X186055152Y-47625040D03*
D21*
X321230898Y-83185072D03*
X327580898Y-80645072D03*
D23*
X325040898Y-85725072D03*
D22*
X319960898Y-85725072D03*
X330120898Y-85725072D03*
X166370144Y-66675056D03*
D21*
X173990144Y-61595056D03*
D23*
X171450144Y-66675056D03*
D21*
X167640144Y-64135056D03*
D22*
X176530144Y-66675056D03*
D21*
X69215056Y-42545040D03*
X62865056Y-45085040D03*
D22*
X71755056Y-47625040D03*
D23*
X66675056Y-47625040D03*
D22*
X61595056Y-47625040D03*
X358060930Y-47625040D03*
D21*
X359330930Y-45085040D03*
X365680930Y-42545040D03*
D22*
X368220930Y-47625040D03*
D23*
X363140930Y-47625040D03*
D22*
X319960898Y-66675056D03*
D23*
X325040898Y-66675056D03*
D22*
X330120898Y-66675056D03*
D21*
X327580898Y-61595056D03*
X321230898Y-64135056D03*
D22*
X300910882Y-66675056D03*
D21*
X302180882Y-64135056D03*
D23*
X305990882Y-66675056D03*
D21*
X308530882Y-61595056D03*
D22*
X311070882Y-66675056D03*
D23*
X219075184Y-47625040D03*
D21*
X221615184Y-42545040D03*
X215265184Y-45085040D03*
D22*
X213995184Y-47625040D03*
X224155184Y-47625040D03*
D21*
X116840096Y-61595056D03*
D22*
X119380096Y-66675056D03*
D21*
X110490096Y-64135056D03*
D23*
X114300096Y-66675056D03*
D22*
X109220096Y-66675056D03*
X71120064Y-66675056D03*
D21*
X78740064Y-61595056D03*
D22*
X81280064Y-66675056D03*
D21*
X72390064Y-64135056D03*
D23*
X76200064Y-66675056D03*
D22*
X52070048Y-66675056D03*
D21*
X53340048Y-64135056D03*
D22*
X62230048Y-66675056D03*
D23*
X57150048Y-66675056D03*
D21*
X59690048Y-61595056D03*
D22*
X311070882Y-85725072D03*
X300910882Y-85725072D03*
D21*
X302180882Y-83185072D03*
X308530882Y-80645072D03*
D23*
X305990882Y-85725072D03*
D21*
X16827512Y-61595056D03*
X10477512Y-64135056D03*
D22*
X9207512Y-66675056D03*
X19367512Y-66675056D03*
D23*
X14287512Y-66675056D03*
D21*
X107315088Y-42545040D03*
D22*
X109855088Y-47625040D03*
X99695088Y-47625040D03*
D21*
X100965088Y-45085040D03*
D23*
X104775088Y-47625040D03*
D22*
X43180032Y-66675056D03*
X33020032Y-66675056D03*
D21*
X40640032Y-61595056D03*
X34290032Y-64135056D03*
D23*
X38100032Y-66675056D03*
D22*
X349170914Y-85725072D03*
D23*
X344090914Y-85725072D03*
D22*
X339010914Y-85725072D03*
D21*
X340280914Y-83185072D03*
X346630914Y-80645072D03*
D22*
X358060930Y-66675056D03*
D21*
X365680930Y-61595056D03*
D23*
X363140930Y-66675056D03*
D21*
X359330930Y-64135056D03*
D22*
X368220930Y-66675056D03*
D21*
X250190208Y-61595056D03*
D22*
X252730208Y-66675056D03*
D23*
X247650208Y-66675056D03*
D21*
X243840208Y-64135056D03*
D22*
X242570208Y-66675056D03*
X214630176Y-66675056D03*
D21*
X212090176Y-61595056D03*
D22*
X204470176Y-66675056D03*
D23*
X209550176Y-66675056D03*
D21*
X205740176Y-64135056D03*
D22*
X90170080Y-66675056D03*
D21*
X97790080Y-61595056D03*
X91440080Y-64135056D03*
D23*
X95250080Y-66675056D03*
D22*
X100330080Y-66675056D03*
D21*
X346630914Y-61595056D03*
X340280914Y-64135056D03*
D22*
X339010914Y-66675056D03*
X349170914Y-66675056D03*
D23*
X344090914Y-66675056D03*
D22*
X137795120Y-47625040D03*
X147955120Y-47625040D03*
D23*
X142875120Y-47625040D03*
D21*
X139065120Y-45085040D03*
X145415120Y-42545040D03*
X24765024Y-45085040D03*
X31115024Y-42545040D03*
D22*
X23495024Y-47625040D03*
D23*
X28575024Y-47625040D03*
D22*
X33655024Y-47625040D03*
D21*
X302180882Y-45085040D03*
X308530882Y-42545040D03*
D22*
X300910882Y-47625040D03*
X311070882Y-47625040D03*
D23*
X305990882Y-47625040D03*
D21*
X202565168Y-42545040D03*
D23*
X200025168Y-47625040D03*
D22*
X194945168Y-47625040D03*
X205105168Y-47625040D03*
D21*
X196215168Y-45085040D03*
X126365104Y-42545040D03*
D22*
X118745104Y-47625040D03*
X128905104Y-47625040D03*
D23*
X123825104Y-47625040D03*
D21*
X120015104Y-45085040D03*
D22*
X191968603Y-9525008D03*
D21*
X199588603Y-4445008D03*
D22*
X202128603Y-9525008D03*
D21*
X193238603Y-6985008D03*
D23*
X197048603Y-9525008D03*
D21*
X88265072Y-42545040D03*
D22*
X90805072Y-47625040D03*
X80645072Y-47625040D03*
D23*
X85725072Y-47625040D03*
D21*
X81915072Y-45085040D03*
D22*
X42545040Y-47625040D03*
D23*
X47625040Y-47625040D03*
D21*
X43815040Y-45085040D03*
X50165040Y-42545040D03*
D22*
X52705040Y-47625040D03*
X349170914Y-28575024D03*
D21*
X346630914Y-23495024D03*
D23*
X344090914Y-28575024D03*
D22*
X339010914Y-28575024D03*
D21*
X340280914Y-26035024D03*
D22*
X249118651Y-9525008D03*
D23*
X254198651Y-9525008D03*
D21*
X250388651Y-6985008D03*
X256738651Y-4445008D03*
D22*
X259278651Y-9525008D03*
D23*
X266700224Y-47625040D03*
D21*
X269240224Y-42545040D03*
D24*
X278632324Y-40645040D03*
D21*
X262890224Y-45085040D03*
D22*
X271780224Y-47625040D03*
D23*
X254756324Y-55885040D03*
D22*
X261620224Y-47625040D03*
D24*
X254756324Y-40645040D03*
D23*
X278632324Y-55885040D03*
D22*
X300910882Y-28575024D03*
D21*
X302180882Y-26035024D03*
D22*
X311070882Y-28575024D03*
D23*
X305990882Y-28575024D03*
D21*
X308530882Y-23495024D03*
X237688635Y-4445008D03*
X231338635Y-6985008D03*
D22*
X240228635Y-9525008D03*
X230068635Y-9525008D03*
D23*
X235148635Y-9525008D03*
D21*
X365680930Y-4445008D03*
D23*
X363140930Y-9525008D03*
D21*
X359330930Y-6985008D03*
D22*
X368220930Y-9525008D03*
X358060930Y-9525008D03*
D23*
X115490722Y-9525008D03*
D22*
X110410722Y-9525008D03*
D21*
X111680722Y-6985008D03*
X118030722Y-4445008D03*
D22*
X120570722Y-9525008D03*
D21*
X218638619Y-4445008D03*
X212288619Y-6985008D03*
D23*
X216098619Y-9525008D03*
D22*
X211018619Y-9525008D03*
X221178619Y-9525008D03*
D21*
X93622889Y-4445008D03*
D22*
X96162889Y-9525008D03*
D23*
X91082889Y-9525008D03*
D22*
X86002889Y-9525008D03*
D21*
X87272889Y-6985008D03*
X175180770Y-4445008D03*
D22*
X167560770Y-9525008D03*
X177720770Y-9525008D03*
D23*
X172640770Y-9525008D03*
D21*
X168830770Y-6985008D03*
D23*
X134540738Y-9525008D03*
D21*
X137080738Y-4445008D03*
D22*
X129460738Y-9525008D03*
D21*
X130730738Y-6985008D03*
D22*
X139620738Y-9525008D03*
X330120898Y-9525008D03*
D23*
X325040898Y-9525008D03*
D22*
X319960898Y-9525008D03*
D21*
X321230898Y-6985008D03*
X327580898Y-4445008D03*
X346630914Y-4445008D03*
D23*
X344090914Y-9525008D03*
D22*
X339010914Y-9525008D03*
D21*
X340280914Y-6985008D03*
D22*
X349170914Y-9525008D03*
X300910882Y-9525008D03*
D23*
X305990882Y-9525008D03*
D21*
X308530882Y-4445008D03*
X302180882Y-6985008D03*
D22*
X311070882Y-9525008D03*
D21*
X5715008Y-45085040D03*
X12065008Y-42545040D03*
D22*
X14605008Y-47625040D03*
X4445008Y-47625040D03*
D23*
X9525008Y-47625040D03*
D22*
X349170914Y-47625040D03*
D23*
X344090914Y-47625040D03*
D21*
X346630914Y-42545040D03*
D22*
X339010914Y-47625040D03*
D21*
X340280914Y-45085040D03*
X327580898Y-23495024D03*
X321230898Y-26035024D03*
D22*
X330120898Y-28575024D03*
X319960898Y-28575024D03*
D23*
X325040898Y-28575024D03*
D22*
X47902857Y-9525008D03*
D21*
X49172857Y-6985008D03*
X55522857Y-4445008D03*
D23*
X52982857Y-9525008D03*
D22*
X58062857Y-9525008D03*
D23*
X281583049Y-129182921D03*
D21*
X284123049Y-124102921D03*
D22*
X276503049Y-129182921D03*
X286663049Y-129182921D03*
D21*
X277773049Y-126642921D03*
D22*
X276503049Y-110132905D03*
D23*
X281583049Y-110132905D03*
D21*
X277773049Y-107592905D03*
X284123049Y-105052905D03*
D22*
X286663049Y-110132905D03*
X114617592Y-104775088D03*
D21*
X112077592Y-99695088D03*
D23*
X109537592Y-104775088D03*
D22*
X104457592Y-104775088D03*
D21*
X105727592Y-102235088D03*
D23*
X204778314Y-104771557D03*
D22*
X209858314Y-104771557D03*
X199698314Y-104771557D03*
D21*
X200968314Y-102231557D03*
X207318314Y-99691557D03*
D22*
X57467544Y-104775088D03*
D21*
X48577544Y-102235088D03*
D22*
X47307544Y-104775088D03*
D21*
X54927544Y-99695088D03*
D23*
X52387544Y-104775088D03*
D22*
X152082632Y-85725072D03*
D21*
X153352632Y-83185072D03*
X159702632Y-80645072D03*
D23*
X157162632Y-85725072D03*
D22*
X162242632Y-85725072D03*
D21*
X77152568Y-83185072D03*
D22*
X86042568Y-85725072D03*
D23*
X80962568Y-85725072D03*
D21*
X83502568Y-80645072D03*
D22*
X75882568Y-85725072D03*
D23*
X344090914Y-123825104D03*
D22*
X339010914Y-123825104D03*
X349170914Y-123825104D03*
D21*
X346630914Y-118745104D03*
X340280914Y-121285104D03*
X368220930Y-116840096D03*
D23*
X354880930Y-126232196D03*
X354880930Y-102356196D03*
X363140930Y-114300096D03*
D22*
X363140930Y-109220096D03*
D24*
X370120930Y-102356196D03*
D21*
X365680930Y-110490096D03*
D24*
X370120930Y-126232196D03*
D22*
X363140930Y-119380096D03*
D21*
X64452552Y-80645072D03*
X58102552Y-83185072D03*
D22*
X66992552Y-85725072D03*
D23*
X61912552Y-85725072D03*
D22*
X56832552Y-85725072D03*
X161607640Y-104775088D03*
D23*
X166687640Y-104775088D03*
D21*
X162877640Y-102235088D03*
X169227640Y-99695088D03*
D22*
X171767640Y-104775088D03*
X37782536Y-85725072D03*
D21*
X39052536Y-83185072D03*
D23*
X42862536Y-85725072D03*
D22*
X47942536Y-85725072D03*
D21*
X45402536Y-80645072D03*
D22*
X133667608Y-104775088D03*
D23*
X128587608Y-104775088D03*
D21*
X124777608Y-102235088D03*
D22*
X123507608Y-104775088D03*
D21*
X131127608Y-99695088D03*
D22*
X95567576Y-104775088D03*
X85407576Y-104775088D03*
D21*
X86677576Y-102235088D03*
X93027576Y-99695088D03*
D23*
X90487576Y-104775088D03*
D22*
X238442696Y-85725072D03*
X228282696Y-85725072D03*
D21*
X235902696Y-80645072D03*
D23*
X233362696Y-85725072D03*
D21*
X229552696Y-83185072D03*
X191452664Y-83185072D03*
X197802664Y-80645072D03*
D23*
X195262664Y-85725072D03*
D22*
X190182664Y-85725072D03*
X200342664Y-85725072D03*
D21*
X327580898Y-118745104D03*
D22*
X319960898Y-123825104D03*
X330120898Y-123825104D03*
D21*
X321230898Y-121285104D03*
D23*
X325040898Y-123825104D03*
D22*
X219392680Y-85725072D03*
D21*
X210502680Y-83185072D03*
X216852680Y-80645072D03*
D23*
X214312680Y-85725072D03*
D22*
X209232680Y-85725072D03*
X171132648Y-85725072D03*
D21*
X178752648Y-80645072D03*
X172402648Y-83185072D03*
D22*
X181292648Y-85725072D03*
D23*
X176212648Y-85725072D03*
X276251072Y-93985072D03*
D24*
X252375072Y-78745072D03*
D21*
X266858972Y-80645072D03*
D24*
X276251072Y-78745072D03*
D23*
X252375072Y-93985072D03*
D21*
X260508972Y-83185072D03*
D22*
X269398972Y-85725072D03*
D23*
X264318972Y-85725072D03*
D22*
X259238972Y-85725072D03*
X94932584Y-85725072D03*
D21*
X96202584Y-83185072D03*
X102552584Y-80645072D03*
D23*
X100012584Y-85725072D03*
D22*
X105092584Y-85725072D03*
D21*
X55688314Y-121281557D03*
D22*
X54418314Y-123821557D03*
D23*
X59498314Y-123821557D03*
D21*
X62038314Y-118741557D03*
D22*
X64578314Y-123821557D03*
X255111460Y-104775088D03*
D21*
X246221460Y-102235088D03*
D23*
X250031460Y-104775088D03*
D21*
X252571460Y-99695088D03*
D22*
X244951460Y-104775088D03*
D23*
X262533033Y-129182921D03*
D22*
X267613033Y-129182921D03*
X257453033Y-129182921D03*
D21*
X258723033Y-126642921D03*
X265073033Y-124102921D03*
D23*
X223837688Y-104775088D03*
D21*
X226377688Y-99695088D03*
D22*
X218757688Y-104775088D03*
X228917688Y-104775088D03*
D21*
X220027688Y-102235088D03*
X14418314Y-118741557D03*
D22*
X6798314Y-123821557D03*
D23*
X11878314Y-123821557D03*
D22*
X16958314Y-123821557D03*
D21*
X8068314Y-121281557D03*
X143827624Y-102235088D03*
X150177624Y-99695088D03*
D22*
X152717624Y-104775088D03*
D23*
X147637624Y-104775088D03*
D22*
X142557624Y-104775088D03*
D23*
X21431268Y-104775088D03*
D24*
X9487368Y-97795088D03*
D21*
X23971268Y-99695088D03*
D23*
X9487368Y-113035088D03*
D22*
X26511268Y-104775088D03*
D23*
X33363368Y-113035088D03*
D21*
X17621268Y-102235088D03*
D24*
X33363368Y-97795088D03*
D22*
X16351268Y-104775088D03*
X295553065Y-129182921D03*
D21*
X296823065Y-126642921D03*
X303173065Y-124102921D03*
D22*
X305713065Y-129182921D03*
D23*
X300633065Y-129182921D03*
D22*
X30598314Y-123821557D03*
D21*
X38218314Y-118741557D03*
X31868314Y-121281557D03*
D23*
X35678314Y-123821557D03*
D22*
X40758314Y-123821557D03*
X76517560Y-104775088D03*
X66357560Y-104775088D03*
D23*
X71437560Y-104775088D03*
D21*
X67627560Y-102235088D03*
X73977560Y-99695088D03*
X133468314Y-118741557D03*
D22*
X125848314Y-123821557D03*
D24*
X180958314Y-116841557D03*
D23*
X80898314Y-132081557D03*
X130928314Y-123821557D03*
D21*
X127118314Y-121281557D03*
D24*
X80898314Y-116841557D03*
D23*
X180958314Y-132081557D03*
D22*
X136008314Y-123821557D03*
D21*
X196218314Y-121285104D03*
X202568314Y-118745104D03*
D22*
X194948314Y-123825104D03*
X205108314Y-123825104D03*
D23*
X200028314Y-123825104D03*
D21*
X221615184Y-118745104D03*
D22*
X213995184Y-123825104D03*
D23*
X219075184Y-123825104D03*
D22*
X224155184Y-123825104D03*
D21*
X215265184Y-121285104D03*
D22*
X143192616Y-85725072D03*
D21*
X140652616Y-80645072D03*
D23*
X138112616Y-85725072D03*
D22*
X133032616Y-85725072D03*
D21*
X134302616Y-83185072D03*
D22*
X113982600Y-85725072D03*
X124142600Y-85725072D03*
D21*
X121602600Y-80645072D03*
X115252600Y-83185072D03*
D23*
X119062600Y-85725072D03*
D22*
X4445008Y-9525008D03*
D23*
X9525008Y-9525008D03*
D21*
X12065008Y-4445008D03*
D22*
X14605008Y-9525008D03*
D21*
X5715008Y-6985008D03*
D22*
X39012841Y-9525008D03*
X28852841Y-9525008D03*
D21*
X30122841Y-6985008D03*
D23*
X33932841Y-9525008D03*
D21*
X36472841Y-4445008D03*
D22*
X77112873Y-9525008D03*
X66952873Y-9525008D03*
D23*
X72032873Y-9525008D03*
D21*
X68222873Y-6985008D03*
X74572873Y-4445008D03*
X149780754Y-6985008D03*
X156130754Y-4445008D03*
D22*
X148510754Y-9525008D03*
X158670754Y-9525008D03*
D23*
X153590754Y-9525008D03*
D22*
X330120898Y-47625040D03*
D21*
X327580898Y-42545040D03*
X321230898Y-45085040D03*
D22*
X319960898Y-47625040D03*
D23*
X325040898Y-47625040D03*
D21*
X164465136Y-42545040D03*
D22*
X167005136Y-47625040D03*
D21*
X158115136Y-45085040D03*
D23*
X161925136Y-47625040D03*
D22*
X156845136Y-47625040D03*
X233045200Y-47625040D03*
X243205200Y-47625040D03*
D23*
X238125200Y-47625040D03*
D21*
X240665200Y-42545040D03*
X234315200Y-45085040D03*
D22*
X147320128Y-66675056D03*
D21*
X154940128Y-61595056D03*
D23*
X152400128Y-66675056D03*
D22*
X157480128Y-66675056D03*
D21*
X148590128Y-64135056D03*
X188277656Y-99695088D03*
D23*
X185737656Y-104775088D03*
D22*
X180657656Y-104775088D03*
X190817656Y-104775088D03*
D21*
X181927656Y-102235088D03*
D22*
X243205200Y-123825104D03*
D23*
X238125200Y-123825104D03*
D22*
X233045200Y-123825104D03*
D21*
X234315200Y-121285104D03*
X240665200Y-118745104D03*
D25*
X253350314Y6548443D03*
X250302314Y6548443D03*
X247254314Y6548443D03*
X244206314Y6548443D03*
D26*
X307260882Y-52705040D03*
D27*
X304720882Y-52705040D03*
D26*
X364410930Y-33655024D03*
D27*
X361870930Y-33655024D03*
D26*
X17938764Y-90805072D03*
D27*
X15398764Y-90805072D03*
D21*
X19208764Y-80645072D03*
X12858764Y-83185072D03*
D23*
X16668764Y-85725072D03*
D22*
X11588764Y-85725072D03*
X21748764Y-85725072D03*
X368220930Y-28575024D03*
D21*
X359330930Y-26035024D03*
X365680930Y-23495024D03*
D23*
X363140930Y-28575024D03*
D22*
X358060930Y-28575024D03*
D28*
X187342000Y4762500D03*
X182942000Y4762500D03*
X129778000Y1967200D03*
X129778000Y6367200D03*
X76795300Y1967200D03*
X76795300Y6367200D03*
D29*
X258898635Y5357817D03*
M02*
