G04 #@! TF.GenerationSoftware,KiCad,Pcbnew,(5.99.0-7511-ga134567838)*
G04 #@! TF.CreationDate,2021-01-29T23:07:13-08:00*
G04 #@! TF.ProjectId,gh80-1800,67683830-2d31-4383-9030-2e6b69636164,rev?*
G04 #@! TF.SameCoordinates,Original*
G04 #@! TF.FileFunction,Soldermask,Bot*
G04 #@! TF.FilePolarity,Negative*
%FSLAX46Y46*%
G04 Gerber Fmt 4.6, Leading zero omitted, Abs format (unit mm)*
G04 Created by KiCad (PCBNEW (5.99.0-7511-ga134567838)) date 2021-01-29 23:07:13*
%MOMM*%
%LPD*%
G01*
G04 APERTURE LIST*
G04 Aperture macros list*
%AMRoundRect*
0 Rectangle with rounded corners*
0 $1 Rounding radius*
0 $2 $3 $4 $5 $6 $7 $8 $9 X,Y pos of 4 corners*
0 Add a 4 corners polygon primitive as box body*
4,1,4,$2,$3,$4,$5,$6,$7,$8,$9,$2,$3,0*
0 Add four circle primitives for the rounded corners*
1,1,$1+$1,$2,$3,0*
1,1,$1+$1,$4,$5,0*
1,1,$1+$1,$6,$7,0*
1,1,$1+$1,$8,$9,0*
0 Add four rect primitives between the rounded corners*
20,1,$1+$1,$2,$3,$4,$5,0*
20,1,$1+$1,$4,$5,$6,$7,0*
20,1,$1+$1,$6,$7,$8,$9,0*
20,1,$1+$1,$8,$9,$2,$3,0*%
G04 Aperture macros list end*
%ADD10R,1.800000X1.800000*%
%ADD11C,1.800000*%
%ADD12O,10.000000X6.000000*%
%ADD13C,6.000000*%
%ADD14O,5.000000X3.000000*%
%ADD15C,4.000000*%
%ADD16C,4.500000*%
%ADD17O,4.000000X8.000000*%
%ADD18R,1.700000X1.700000*%
%ADD19O,1.700000X1.700000*%
%ADD20C,3.000000*%
%ADD21C,1.701800*%
%ADD22C,3.987800*%
%ADD23R,2.550000X2.500000*%
%ADD24C,3.048000*%
%ADD25R,2.500000X2.550000*%
%ADD26R,2.000000X3.000000*%
%ADD27R,1.778000X1.778000*%
%ADD28C,1.778000*%
%ADD29R,1.000000X1.250000*%
%ADD30R,1.000000X1.300000*%
%ADD31R,0.550000X1.500000*%
%ADD32R,1.500000X0.550000*%
%ADD33R,3.200000X0.400000*%
%ADD34C,1.000000*%
%ADD35R,0.500000X2.750000*%
%ADD36R,2.000000X2.500000*%
%ADD37R,2.750000X0.500000*%
%ADD38R,2.500000X2.000000*%
%ADD39RoundRect,0.243750X0.456250X-0.243750X0.456250X0.243750X-0.456250X0.243750X-0.456250X-0.243750X0*%
%ADD40O,4.000000X5.000000*%
G04 APERTURE END LIST*
D10*
X271383000Y-14882800D03*
D11*
X273923000Y-14882800D03*
D10*
X278527000Y-14882800D03*
D11*
X281067000Y-14882800D03*
D10*
X285671000Y-14882800D03*
D11*
X288211000Y-14882800D03*
D12*
X250626000Y-28575000D03*
D13*
X58936000Y-28575000D03*
D14*
X370284000Y1785900D03*
D15*
X33932800Y-28575000D03*
X45839100Y-33932800D03*
X258961000Y-33932800D03*
X287536000Y-28575000D03*
D16*
X2976500Y-132754000D03*
D15*
X58936000Y-133350000D03*
D17*
X87511000Y-138112000D03*
X319087000Y-138112000D03*
D15*
X313730000Y-133350000D03*
X186333000Y-28575000D03*
D18*
X93730000Y-121285000D03*
D19*
X96270000Y-121285000D03*
X93730000Y-123825000D03*
X96270000Y-123825000D03*
X93730000Y-126365000D03*
X96270000Y-126365000D03*
D20*
X346630914Y-99695088D03*
D21*
X349170914Y-104775088D03*
X339010914Y-104775088D03*
D22*
X344090914Y-104775088D03*
D20*
X340280914Y-102235088D03*
D23*
X336530914Y-102235088D03*
X350380914Y-99695088D03*
D20*
X193040160Y-61595056D03*
D21*
X195580160Y-66675056D03*
X185420160Y-66675056D03*
D20*
X186690160Y-64135056D03*
D22*
X190500160Y-66675056D03*
D23*
X182940160Y-64135056D03*
X196790160Y-61595056D03*
D20*
X327580898Y-99695088D03*
D21*
X330120898Y-104775088D03*
D20*
X321230898Y-102235088D03*
D22*
X325040898Y-104775088D03*
D21*
X319960898Y-104775088D03*
D23*
X317480898Y-102235088D03*
X331330898Y-99695088D03*
D21*
X300910882Y-104775088D03*
D22*
X305990882Y-104775088D03*
D21*
X311070882Y-104775088D03*
D20*
X308530882Y-99695088D03*
X302180882Y-102235088D03*
D23*
X298430882Y-102235088D03*
X312280882Y-99695088D03*
D20*
X274002728Y-61595056D03*
D21*
X266382728Y-66675056D03*
D20*
X267652728Y-64135056D03*
D21*
X276542728Y-66675056D03*
D22*
X271462728Y-66675056D03*
D23*
X263902728Y-64135056D03*
X277752728Y-61595056D03*
D20*
X231140192Y-61595056D03*
D22*
X228600192Y-66675056D03*
D20*
X224790192Y-64135056D03*
D21*
X233680192Y-66675056D03*
X223520192Y-66675056D03*
D23*
X221040192Y-64135056D03*
X234890192Y-61595056D03*
D22*
X133350112Y-66675056D03*
D20*
X135890112Y-61595056D03*
D21*
X128270112Y-66675056D03*
X138430112Y-66675056D03*
D20*
X129540112Y-64135056D03*
D23*
X125790112Y-64135056D03*
X139640112Y-61595056D03*
D21*
X368220930Y-85725072D03*
X358060930Y-85725072D03*
D22*
X363140930Y-85725072D03*
D20*
X365680930Y-80645072D03*
X359330930Y-83185072D03*
D23*
X355580930Y-83185072D03*
X369430930Y-80645072D03*
D20*
X183515152Y-42545040D03*
X177165152Y-45085040D03*
D22*
X180975152Y-47625040D03*
D21*
X175895152Y-47625040D03*
X186055152Y-47625040D03*
D23*
X173415152Y-45085040D03*
X187265152Y-42545040D03*
D20*
X321230898Y-83185072D03*
X327580898Y-80645072D03*
D22*
X325040898Y-85725072D03*
D21*
X319960898Y-85725072D03*
X330120898Y-85725072D03*
D23*
X317480898Y-83185072D03*
X331330898Y-80645072D03*
D21*
X166370144Y-66675056D03*
D20*
X173990144Y-61595056D03*
D22*
X171450144Y-66675056D03*
D20*
X167640144Y-64135056D03*
D21*
X176530144Y-66675056D03*
D23*
X163890144Y-64135056D03*
X177740144Y-61595056D03*
D20*
X69215056Y-42545040D03*
X62865056Y-45085040D03*
D21*
X71755056Y-47625040D03*
D22*
X66675056Y-47625040D03*
D21*
X61595056Y-47625040D03*
D23*
X59115056Y-45085040D03*
X72965056Y-42545040D03*
D21*
X358060930Y-47625040D03*
D20*
X359330930Y-45085040D03*
X365680930Y-42545040D03*
D21*
X368220930Y-47625040D03*
D22*
X363140930Y-47625040D03*
D23*
X355580930Y-45085040D03*
X369430930Y-42545040D03*
D21*
X319960898Y-66675056D03*
D22*
X325040898Y-66675056D03*
D21*
X330120898Y-66675056D03*
D20*
X327580898Y-61595056D03*
X321230898Y-64135056D03*
D23*
X317480898Y-64135056D03*
X331330898Y-61595056D03*
D21*
X300910882Y-66675056D03*
D20*
X302180882Y-64135056D03*
D22*
X305990882Y-66675056D03*
D20*
X308530882Y-61595056D03*
D21*
X311070882Y-66675056D03*
D23*
X298430882Y-64135056D03*
X312280882Y-61595056D03*
D22*
X219075184Y-47625040D03*
D20*
X221615184Y-42545040D03*
X215265184Y-45085040D03*
D21*
X213995184Y-47625040D03*
X224155184Y-47625040D03*
D23*
X211515184Y-45085040D03*
X225365184Y-42545040D03*
D20*
X116840096Y-61595056D03*
D21*
X119380096Y-66675056D03*
D20*
X110490096Y-64135056D03*
D22*
X114300096Y-66675056D03*
D21*
X109220096Y-66675056D03*
D23*
X106740096Y-64135056D03*
X120590096Y-61595056D03*
D21*
X71120064Y-66675056D03*
D20*
X78740064Y-61595056D03*
D21*
X81280064Y-66675056D03*
D20*
X72390064Y-64135056D03*
D22*
X76200064Y-66675056D03*
D23*
X68640064Y-64135056D03*
X82490064Y-61595056D03*
D21*
X52070048Y-66675056D03*
D20*
X53340048Y-64135056D03*
D21*
X62230048Y-66675056D03*
D22*
X57150048Y-66675056D03*
D20*
X59690048Y-61595056D03*
D23*
X49590048Y-64135056D03*
X63440048Y-61595056D03*
D21*
X311070882Y-85725072D03*
X300910882Y-85725072D03*
D20*
X302180882Y-83185072D03*
X308530882Y-80645072D03*
D22*
X305990882Y-85725072D03*
D23*
X298430882Y-83185072D03*
X312280882Y-80645072D03*
D20*
X16827512Y-61595056D03*
X10477512Y-64135056D03*
D21*
X9207512Y-66675056D03*
X19367512Y-66675056D03*
D22*
X14287512Y-66675056D03*
D23*
X6727512Y-64135056D03*
X20577512Y-61595056D03*
D20*
X107315088Y-42545040D03*
D21*
X109855088Y-47625040D03*
X99695088Y-47625040D03*
D20*
X100965088Y-45085040D03*
D22*
X104775088Y-47625040D03*
D23*
X97215088Y-45085040D03*
X111065088Y-42545040D03*
D21*
X43180032Y-66675056D03*
X33020032Y-66675056D03*
D20*
X40640032Y-61595056D03*
X34290032Y-64135056D03*
D22*
X38100032Y-66675056D03*
D23*
X30540032Y-64135056D03*
X44390032Y-61595056D03*
D21*
X349170914Y-85725072D03*
D22*
X344090914Y-85725072D03*
D21*
X339010914Y-85725072D03*
D20*
X340280914Y-83185072D03*
X346630914Y-80645072D03*
D23*
X336530914Y-83185072D03*
X350380914Y-80645072D03*
D21*
X358060930Y-66675056D03*
D20*
X365680930Y-61595056D03*
D22*
X363140930Y-66675056D03*
D20*
X359330930Y-64135056D03*
D21*
X368220930Y-66675056D03*
D23*
X355580930Y-64135056D03*
X369430930Y-61595056D03*
D20*
X250190208Y-61595056D03*
D21*
X252730208Y-66675056D03*
D22*
X247650208Y-66675056D03*
D20*
X243840208Y-64135056D03*
D21*
X242570208Y-66675056D03*
D23*
X240090208Y-64135056D03*
X253940208Y-61595056D03*
D21*
X214630176Y-66675056D03*
D20*
X212090176Y-61595056D03*
D21*
X204470176Y-66675056D03*
D22*
X209550176Y-66675056D03*
D20*
X205740176Y-64135056D03*
D23*
X201990176Y-64135056D03*
X215840176Y-61595056D03*
D21*
X90170080Y-66675056D03*
D20*
X97790080Y-61595056D03*
X91440080Y-64135056D03*
D22*
X95250080Y-66675056D03*
D21*
X100330080Y-66675056D03*
D23*
X87690080Y-64135056D03*
X101540080Y-61595056D03*
D20*
X346630914Y-61595056D03*
X340280914Y-64135056D03*
D21*
X339010914Y-66675056D03*
X349170914Y-66675056D03*
D22*
X344090914Y-66675056D03*
D23*
X336530914Y-64135056D03*
X350380914Y-61595056D03*
D21*
X137795120Y-47625040D03*
X147955120Y-47625040D03*
D22*
X142875120Y-47625040D03*
D20*
X139065120Y-45085040D03*
X145415120Y-42545040D03*
D23*
X135315120Y-45085040D03*
X149165120Y-42545040D03*
D20*
X24765024Y-45085040D03*
X31115024Y-42545040D03*
D21*
X23495024Y-47625040D03*
D22*
X28575024Y-47625040D03*
D21*
X33655024Y-47625040D03*
D23*
X21015024Y-45085040D03*
X34865024Y-42545040D03*
D20*
X302180882Y-45085040D03*
X308530882Y-42545040D03*
D21*
X300910882Y-47625040D03*
X311070882Y-47625040D03*
D22*
X305990882Y-47625040D03*
D23*
X298430882Y-45085040D03*
X312280882Y-42545040D03*
D20*
X202565168Y-42545040D03*
D22*
X200025168Y-47625040D03*
D21*
X194945168Y-47625040D03*
X205105168Y-47625040D03*
D20*
X196215168Y-45085040D03*
D23*
X192465168Y-45085040D03*
X206315168Y-42545040D03*
D20*
X126365104Y-42545040D03*
D21*
X118745104Y-47625040D03*
X128905104Y-47625040D03*
D22*
X123825104Y-47625040D03*
D20*
X120015104Y-45085040D03*
D23*
X116265104Y-45085040D03*
X130115104Y-42545040D03*
D21*
X191968603Y-9525008D03*
D20*
X199588603Y-4445008D03*
D21*
X202128603Y-9525008D03*
D20*
X193238603Y-6985008D03*
D22*
X197048603Y-9525008D03*
D23*
X189488603Y-6985008D03*
X203338603Y-4445008D03*
D20*
X88265072Y-42545040D03*
D21*
X90805072Y-47625040D03*
X80645072Y-47625040D03*
D22*
X85725072Y-47625040D03*
D20*
X81915072Y-45085040D03*
D23*
X78165072Y-45085040D03*
X92015072Y-42545040D03*
D21*
X42545040Y-47625040D03*
D22*
X47625040Y-47625040D03*
D20*
X43815040Y-45085040D03*
X50165040Y-42545040D03*
D21*
X52705040Y-47625040D03*
D23*
X40065040Y-45085040D03*
X53915040Y-42545040D03*
D21*
X349170914Y-28575024D03*
D20*
X346630914Y-23495024D03*
D22*
X344090914Y-28575024D03*
D21*
X339010914Y-28575024D03*
D20*
X340280914Y-26035024D03*
D23*
X336530914Y-26035024D03*
X350380914Y-23495024D03*
D21*
X249118651Y-9525008D03*
D22*
X254198651Y-9525008D03*
D20*
X250388651Y-6985008D03*
X256738651Y-4445008D03*
D21*
X259278651Y-9525008D03*
D23*
X246638651Y-6985008D03*
X260488651Y-4445008D03*
D22*
X266700224Y-47625040D03*
D20*
X269240224Y-42545040D03*
D24*
X278632324Y-40645040D03*
D20*
X262890224Y-45085040D03*
D21*
X271780224Y-47625040D03*
D22*
X254756324Y-55885040D03*
D21*
X261620224Y-47625040D03*
D24*
X254756324Y-40645040D03*
D22*
X278632324Y-55885040D03*
D23*
X259140224Y-45085040D03*
X272990224Y-42545040D03*
D21*
X300910882Y-28575024D03*
D20*
X302180882Y-26035024D03*
D21*
X311070882Y-28575024D03*
D22*
X305990882Y-28575024D03*
D20*
X308530882Y-23495024D03*
D23*
X298430882Y-26035024D03*
X312280882Y-23495024D03*
D20*
X237688635Y-4445008D03*
X231338635Y-6985008D03*
D21*
X240228635Y-9525008D03*
X230068635Y-9525008D03*
D22*
X235148635Y-9525008D03*
D23*
X227588635Y-6985008D03*
X241438635Y-4445008D03*
D20*
X365680930Y-4445008D03*
D22*
X363140930Y-9525008D03*
D20*
X359330930Y-6985008D03*
D21*
X368220930Y-9525008D03*
X358060930Y-9525008D03*
D23*
X355580930Y-6985008D03*
X369430930Y-4445008D03*
D22*
X115490722Y-9525008D03*
D21*
X110410722Y-9525008D03*
D20*
X111680722Y-6985008D03*
X118030722Y-4445008D03*
D21*
X120570722Y-9525008D03*
D23*
X107930722Y-6985008D03*
X121780722Y-4445008D03*
D20*
X218638619Y-4445008D03*
X212288619Y-6985008D03*
D22*
X216098619Y-9525008D03*
D21*
X211018619Y-9525008D03*
X221178619Y-9525008D03*
D23*
X208538619Y-6985008D03*
X222388619Y-4445008D03*
D20*
X93622889Y-4445008D03*
D21*
X96162889Y-9525008D03*
D22*
X91082889Y-9525008D03*
D21*
X86002889Y-9525008D03*
D20*
X87272889Y-6985008D03*
D23*
X83522889Y-6985008D03*
X97372889Y-4445008D03*
D20*
X175180770Y-4445008D03*
D21*
X167560770Y-9525008D03*
X177720770Y-9525008D03*
D22*
X172640770Y-9525008D03*
D20*
X168830770Y-6985008D03*
D23*
X165080770Y-6985008D03*
X178930770Y-4445008D03*
D22*
X134540738Y-9525008D03*
D20*
X137080738Y-4445008D03*
D21*
X129460738Y-9525008D03*
D20*
X130730738Y-6985008D03*
D21*
X139620738Y-9525008D03*
D23*
X126980738Y-6985008D03*
X140830738Y-4445008D03*
D21*
X330120898Y-9525008D03*
D22*
X325040898Y-9525008D03*
D21*
X319960898Y-9525008D03*
D20*
X321230898Y-6985008D03*
X327580898Y-4445008D03*
D23*
X317480898Y-6985008D03*
X331330898Y-4445008D03*
D20*
X346630914Y-4445008D03*
D22*
X344090914Y-9525008D03*
D21*
X339010914Y-9525008D03*
D20*
X340280914Y-6985008D03*
D21*
X349170914Y-9525008D03*
D23*
X336530914Y-6985008D03*
X350380914Y-4445008D03*
D21*
X300910882Y-9525008D03*
D22*
X305990882Y-9525008D03*
D20*
X308530882Y-4445008D03*
X302180882Y-6985008D03*
D21*
X311070882Y-9525008D03*
D23*
X298430882Y-6985008D03*
X312280882Y-4445008D03*
D20*
X5715008Y-45085040D03*
X12065008Y-42545040D03*
D21*
X14605008Y-47625040D03*
X4445008Y-47625040D03*
D22*
X9525008Y-47625040D03*
D23*
X1965008Y-45085040D03*
X15815008Y-42545040D03*
D21*
X349170914Y-47625040D03*
D22*
X344090914Y-47625040D03*
D20*
X346630914Y-42545040D03*
D21*
X339010914Y-47625040D03*
D20*
X340280914Y-45085040D03*
D23*
X336530914Y-45085040D03*
X350380914Y-42545040D03*
D20*
X327580898Y-23495024D03*
X321230898Y-26035024D03*
D21*
X330120898Y-28575024D03*
X319960898Y-28575024D03*
D22*
X325040898Y-28575024D03*
D23*
X317480898Y-26035024D03*
X331330898Y-23495024D03*
D21*
X47902857Y-9525008D03*
D20*
X49172857Y-6985008D03*
X55522857Y-4445008D03*
D22*
X52982857Y-9525008D03*
D21*
X58062857Y-9525008D03*
D23*
X45422857Y-6985008D03*
X59272857Y-4445008D03*
D22*
X281583049Y-129182921D03*
D20*
X284123049Y-124102921D03*
D21*
X276503049Y-129182921D03*
X286663049Y-129182921D03*
D20*
X277773049Y-126642921D03*
D23*
X274023049Y-126642921D03*
X287873049Y-124102921D03*
D21*
X276503049Y-110132905D03*
D22*
X281583049Y-110132905D03*
D20*
X277773049Y-107592905D03*
X284123049Y-105052905D03*
D21*
X286663049Y-110132905D03*
D23*
X274023049Y-107592905D03*
X287873049Y-105052905D03*
D21*
X114617592Y-104775088D03*
D20*
X112077592Y-99695088D03*
D22*
X109537592Y-104775088D03*
D21*
X104457592Y-104775088D03*
D20*
X105727592Y-102235088D03*
D23*
X101977592Y-102235088D03*
X115827592Y-99695088D03*
D22*
X204778314Y-104771557D03*
D21*
X209858314Y-104771557D03*
X199698314Y-104771557D03*
D20*
X200968314Y-102231557D03*
X207318314Y-99691557D03*
D23*
X197218314Y-102231557D03*
X211068314Y-99691557D03*
D21*
X57467544Y-104775088D03*
D20*
X48577544Y-102235088D03*
D21*
X47307544Y-104775088D03*
D20*
X54927544Y-99695088D03*
D22*
X52387544Y-104775088D03*
D23*
X44827544Y-102235088D03*
X58677544Y-99695088D03*
D21*
X152082632Y-85725072D03*
D20*
X153352632Y-83185072D03*
X159702632Y-80645072D03*
D22*
X157162632Y-85725072D03*
D21*
X162242632Y-85725072D03*
D23*
X149602632Y-83185072D03*
X163452632Y-80645072D03*
D20*
X77152568Y-83185072D03*
D21*
X86042568Y-85725072D03*
D22*
X80962568Y-85725072D03*
D20*
X83502568Y-80645072D03*
D21*
X75882568Y-85725072D03*
D23*
X73402568Y-83185072D03*
X87252568Y-80645072D03*
D22*
X344090914Y-123825104D03*
D21*
X339010914Y-123825104D03*
X349170914Y-123825104D03*
D20*
X346630914Y-118745104D03*
X340280914Y-121285104D03*
D23*
X336530914Y-121285104D03*
X350380914Y-118745104D03*
D20*
X368220930Y-116840096D03*
D22*
X354880930Y-126232196D03*
X354880930Y-102356196D03*
X363140930Y-114300096D03*
D21*
X363140930Y-109220096D03*
D24*
X370120930Y-102356196D03*
D20*
X365680930Y-110490096D03*
D24*
X370120930Y-126232196D03*
D21*
X363140930Y-119380096D03*
D25*
X365680930Y-106740096D03*
X368220930Y-120590096D03*
D20*
X64452552Y-80645072D03*
X58102552Y-83185072D03*
D21*
X66992552Y-85725072D03*
D22*
X61912552Y-85725072D03*
D21*
X56832552Y-85725072D03*
D23*
X54352552Y-83185072D03*
X68202552Y-80645072D03*
D21*
X161607640Y-104775088D03*
D22*
X166687640Y-104775088D03*
D20*
X162877640Y-102235088D03*
X169227640Y-99695088D03*
D21*
X171767640Y-104775088D03*
D23*
X159127640Y-102235088D03*
X172977640Y-99695088D03*
D21*
X37782536Y-85725072D03*
D20*
X39052536Y-83185072D03*
D22*
X42862536Y-85725072D03*
D21*
X47942536Y-85725072D03*
D20*
X45402536Y-80645072D03*
D23*
X35302536Y-83185072D03*
X49152536Y-80645072D03*
D21*
X133667608Y-104775088D03*
D22*
X128587608Y-104775088D03*
D20*
X124777608Y-102235088D03*
D21*
X123507608Y-104775088D03*
D20*
X131127608Y-99695088D03*
D23*
X121027608Y-102235088D03*
X134877608Y-99695088D03*
D21*
X95567576Y-104775088D03*
X85407576Y-104775088D03*
D20*
X86677576Y-102235088D03*
X93027576Y-99695088D03*
D22*
X90487576Y-104775088D03*
D23*
X82927576Y-102235088D03*
X96777576Y-99695088D03*
D21*
X238442696Y-85725072D03*
X228282696Y-85725072D03*
D20*
X235902696Y-80645072D03*
D22*
X233362696Y-85725072D03*
D20*
X229552696Y-83185072D03*
D23*
X225802696Y-83185072D03*
X239652696Y-80645072D03*
D20*
X191452664Y-83185072D03*
X197802664Y-80645072D03*
D22*
X195262664Y-85725072D03*
D21*
X190182664Y-85725072D03*
X200342664Y-85725072D03*
D23*
X187702664Y-83185072D03*
X201552664Y-80645072D03*
D20*
X327580898Y-118745104D03*
D21*
X319960898Y-123825104D03*
X330120898Y-123825104D03*
D20*
X321230898Y-121285104D03*
D22*
X325040898Y-123825104D03*
D23*
X317480898Y-121285104D03*
X331330898Y-118745104D03*
D21*
X219392680Y-85725072D03*
D20*
X210502680Y-83185072D03*
X216852680Y-80645072D03*
D22*
X214312680Y-85725072D03*
D21*
X209232680Y-85725072D03*
D23*
X206752680Y-83185072D03*
X220602680Y-80645072D03*
D21*
X171132648Y-85725072D03*
D20*
X178752648Y-80645072D03*
X172402648Y-83185072D03*
D21*
X181292648Y-85725072D03*
D22*
X176212648Y-85725072D03*
D23*
X168652648Y-83185072D03*
X182502648Y-80645072D03*
D22*
X276251072Y-93985072D03*
D24*
X252375072Y-78745072D03*
D20*
X266858972Y-80645072D03*
D24*
X276251072Y-78745072D03*
D22*
X252375072Y-93985072D03*
D20*
X260508972Y-83185072D03*
D21*
X269398972Y-85725072D03*
D22*
X264318972Y-85725072D03*
D21*
X259238972Y-85725072D03*
D23*
X256758972Y-83185072D03*
X270608972Y-80645072D03*
D21*
X94932584Y-85725072D03*
D20*
X96202584Y-83185072D03*
X102552584Y-80645072D03*
D22*
X100012584Y-85725072D03*
D21*
X105092584Y-85725072D03*
D23*
X92452584Y-83185072D03*
X106302584Y-80645072D03*
D20*
X55688314Y-121281557D03*
D21*
X54418314Y-123821557D03*
D22*
X59498314Y-123821557D03*
D20*
X62038314Y-118741557D03*
D21*
X64578314Y-123821557D03*
D23*
X51938314Y-121281557D03*
X65788314Y-118741557D03*
D21*
X255111460Y-104775088D03*
D20*
X246221460Y-102235088D03*
D22*
X250031460Y-104775088D03*
D20*
X252571460Y-99695088D03*
D21*
X244951460Y-104775088D03*
D23*
X242471460Y-102235088D03*
X256321460Y-99695088D03*
D22*
X262533033Y-129182921D03*
D21*
X267613033Y-129182921D03*
X257453033Y-129182921D03*
D20*
X258723033Y-126642921D03*
X265073033Y-124102921D03*
D23*
X254973033Y-126642921D03*
X268823033Y-124102921D03*
D22*
X223837688Y-104775088D03*
D20*
X226377688Y-99695088D03*
D21*
X218757688Y-104775088D03*
X228917688Y-104775088D03*
D20*
X220027688Y-102235088D03*
D23*
X216277688Y-102235088D03*
X230127688Y-99695088D03*
D20*
X14418314Y-118741557D03*
D21*
X6798314Y-123821557D03*
D22*
X11878314Y-123821557D03*
D21*
X16958314Y-123821557D03*
D20*
X8068314Y-121281557D03*
D23*
X4318314Y-121281557D03*
X18168314Y-118741557D03*
D20*
X143827624Y-102235088D03*
X150177624Y-99695088D03*
D21*
X152717624Y-104775088D03*
D22*
X147637624Y-104775088D03*
D21*
X142557624Y-104775088D03*
D23*
X140077624Y-102235088D03*
X153927624Y-99695088D03*
D22*
X21431268Y-104775088D03*
D24*
X9487368Y-97795088D03*
D20*
X23971268Y-99695088D03*
D22*
X9487368Y-113035088D03*
D21*
X26511268Y-104775088D03*
D22*
X33363368Y-113035088D03*
D20*
X17621268Y-102235088D03*
D24*
X33363368Y-97795088D03*
D21*
X16351268Y-104775088D03*
D23*
X13871268Y-102235088D03*
X27721268Y-99695088D03*
D21*
X295553065Y-129182921D03*
D20*
X296823065Y-126642921D03*
X303173065Y-124102921D03*
D21*
X305713065Y-129182921D03*
D22*
X300633065Y-129182921D03*
D23*
X293073065Y-126642921D03*
X306923065Y-124102921D03*
D21*
X30598314Y-123821557D03*
D20*
X38218314Y-118741557D03*
X31868314Y-121281557D03*
D22*
X35678314Y-123821557D03*
D21*
X40758314Y-123821557D03*
D23*
X28118314Y-121281557D03*
X41968314Y-118741557D03*
D21*
X76517560Y-104775088D03*
X66357560Y-104775088D03*
D22*
X71437560Y-104775088D03*
D20*
X67627560Y-102235088D03*
X73977560Y-99695088D03*
D23*
X63877560Y-102235088D03*
X77727560Y-99695088D03*
D20*
X133468314Y-118741557D03*
D21*
X125848314Y-123821557D03*
D24*
X180958314Y-116841557D03*
D22*
X80898314Y-132081557D03*
X130928314Y-123821557D03*
D20*
X127118314Y-121281557D03*
D24*
X80898314Y-116841557D03*
D22*
X180958314Y-132081557D03*
D21*
X136008314Y-123821557D03*
D23*
X123368314Y-121281557D03*
X137218314Y-118741557D03*
D20*
X196218314Y-121285104D03*
X202568314Y-118745104D03*
D21*
X194948314Y-123825104D03*
X205108314Y-123825104D03*
D22*
X200028314Y-123825104D03*
D23*
X192468314Y-121285104D03*
X206318314Y-118745104D03*
D20*
X221615184Y-118745104D03*
D21*
X213995184Y-123825104D03*
D22*
X219075184Y-123825104D03*
D21*
X224155184Y-123825104D03*
D20*
X215265184Y-121285104D03*
D23*
X211515184Y-121285104D03*
X225365184Y-118745104D03*
D21*
X143192616Y-85725072D03*
D20*
X140652616Y-80645072D03*
D22*
X138112616Y-85725072D03*
D21*
X133032616Y-85725072D03*
D20*
X134302616Y-83185072D03*
D23*
X130552616Y-83185072D03*
X144402616Y-80645072D03*
D21*
X113982600Y-85725072D03*
X124142600Y-85725072D03*
D20*
X121602600Y-80645072D03*
X115252600Y-83185072D03*
D22*
X119062600Y-85725072D03*
D23*
X111502600Y-83185072D03*
X125352600Y-80645072D03*
D21*
X4445008Y-9525008D03*
D22*
X9525008Y-9525008D03*
D20*
X12065008Y-4445008D03*
D21*
X14605008Y-9525008D03*
D20*
X5715008Y-6985008D03*
D23*
X1965008Y-6985008D03*
X15815008Y-4445008D03*
D21*
X39012841Y-9525008D03*
X28852841Y-9525008D03*
D20*
X30122841Y-6985008D03*
D22*
X33932841Y-9525008D03*
D20*
X36472841Y-4445008D03*
D23*
X26372841Y-6985008D03*
X40222841Y-4445008D03*
D21*
X77112873Y-9525008D03*
X66952873Y-9525008D03*
D22*
X72032873Y-9525008D03*
D20*
X68222873Y-6985008D03*
X74572873Y-4445008D03*
D23*
X64472873Y-6985008D03*
X78322873Y-4445008D03*
D20*
X149780754Y-6985008D03*
X156130754Y-4445008D03*
D21*
X148510754Y-9525008D03*
X158670754Y-9525008D03*
D22*
X153590754Y-9525008D03*
D23*
X146030754Y-6985008D03*
X159880754Y-4445008D03*
D21*
X330120898Y-47625040D03*
D20*
X327580898Y-42545040D03*
X321230898Y-45085040D03*
D21*
X319960898Y-47625040D03*
D22*
X325040898Y-47625040D03*
D23*
X317480898Y-45085040D03*
X331330898Y-42545040D03*
D20*
X164465136Y-42545040D03*
D21*
X167005136Y-47625040D03*
D20*
X158115136Y-45085040D03*
D22*
X161925136Y-47625040D03*
D21*
X156845136Y-47625040D03*
D23*
X154365136Y-45085040D03*
X168215136Y-42545040D03*
D21*
X233045200Y-47625040D03*
X243205200Y-47625040D03*
D22*
X238125200Y-47625040D03*
D20*
X240665200Y-42545040D03*
X234315200Y-45085040D03*
D23*
X230565200Y-45085040D03*
X244415200Y-42545040D03*
D21*
X147320128Y-66675056D03*
D20*
X154940128Y-61595056D03*
D22*
X152400128Y-66675056D03*
D21*
X157480128Y-66675056D03*
D20*
X148590128Y-64135056D03*
D23*
X144840128Y-64135056D03*
X158690128Y-61595056D03*
D20*
X188277656Y-99695088D03*
D22*
X185737656Y-104775088D03*
D21*
X180657656Y-104775088D03*
X190817656Y-104775088D03*
D20*
X181927656Y-102235088D03*
D23*
X178177656Y-102235088D03*
X192027656Y-99695088D03*
D21*
X243205200Y-123825104D03*
D22*
X238125200Y-123825104D03*
D21*
X233045200Y-123825104D03*
D20*
X234315200Y-121285104D03*
X240665200Y-118745104D03*
D23*
X230565200Y-121285104D03*
X244415200Y-118745104D03*
D26*
X253350314Y6548443D03*
X250302314Y6548443D03*
X247254314Y6548443D03*
X244206314Y6548443D03*
D27*
X307260882Y-52705040D03*
D28*
X304720882Y-52705040D03*
D27*
X364410930Y-33655024D03*
D28*
X361870930Y-33655024D03*
D27*
X17938764Y-90805072D03*
D28*
X15398764Y-90805072D03*
D20*
X19208764Y-80645072D03*
X12858764Y-83185072D03*
D22*
X16668764Y-85725072D03*
D21*
X11588764Y-85725072D03*
X21748764Y-85725072D03*
D23*
X9108764Y-83185072D03*
X22958764Y-80645072D03*
D21*
X368220930Y-28575024D03*
D20*
X359330930Y-26035024D03*
X365680930Y-23495024D03*
D22*
X363140930Y-28575024D03*
D21*
X358060930Y-28575024D03*
D23*
X355580930Y-26035024D03*
X369430930Y-23495024D03*
D29*
X267700224Y-1190626D03*
X265700224Y-1190626D03*
X267700224Y-4167191D03*
X265700224Y-4167191D03*
X288917431Y4762504D03*
X290917431Y4762504D03*
D30*
X265600224Y-6548443D03*
X267800224Y-6548443D03*
X273158041Y-11310947D03*
X270958041Y-11310947D03*
D31*
X275797000Y937500D03*
X276597000Y937500D03*
X277397000Y937500D03*
X278197000Y937500D03*
X278997000Y937500D03*
X279797000Y937500D03*
X280597000Y937500D03*
X281397000Y937500D03*
X282197000Y937500D03*
X282997000Y937500D03*
X283797000Y937500D03*
D32*
X285497000Y-762500D03*
X285497000Y-1562500D03*
X285497000Y-2362500D03*
X285497000Y-3162500D03*
X285497000Y-3962500D03*
X285497000Y-4762500D03*
X285497000Y-5562500D03*
X285497000Y-6362500D03*
X285497000Y-7162500D03*
X285497000Y-7962500D03*
X285497000Y-8762500D03*
D31*
X283797000Y-10462500D03*
X282997000Y-10462500D03*
X282197000Y-10462500D03*
X281397000Y-10462500D03*
X280597000Y-10462500D03*
X279797000Y-10462500D03*
X278997000Y-10462500D03*
X278197000Y-10462500D03*
X277397000Y-10462500D03*
X276597000Y-10462500D03*
X275797000Y-10462500D03*
D32*
X274097000Y-8762500D03*
X274097000Y-7962500D03*
X274097000Y-7162500D03*
X274097000Y-6362500D03*
X274097000Y-5562500D03*
X274097000Y-4762500D03*
X274097000Y-3962500D03*
X274097000Y-3162500D03*
X274097000Y-2362500D03*
X274097000Y-1562500D03*
X274097000Y-762500D03*
D33*
X292298683Y-5367191D03*
X292298683Y-4167191D03*
X292298683Y-2967191D03*
D30*
X273753000Y-18454700D03*
X271553000Y-18454700D03*
X280897000Y-18454700D03*
X278697000Y-18454700D03*
X285841000Y-18454700D03*
X288041000Y-18454700D03*
D34*
X187342000Y4762500D03*
X182942000Y4762500D03*
D35*
X183542000Y1932500D03*
X184342000Y1932500D03*
X185152000Y1932500D03*
X185942000Y1932500D03*
X186742000Y1932500D03*
D36*
X180692000Y2182500D03*
X180692000Y7632500D03*
X189592000Y7632500D03*
X189592000Y2182500D03*
D34*
X129778000Y1967200D03*
X129778000Y6367200D03*
D37*
X132608000Y2567200D03*
X132608000Y3367200D03*
X132608000Y4177200D03*
X132608000Y4967200D03*
X132608000Y5767200D03*
D38*
X132358000Y-282800D03*
X132358000Y8617200D03*
X126908000Y-282800D03*
X126908000Y8617200D03*
D34*
X76795300Y1967200D03*
X76795300Y6367200D03*
D37*
X73965300Y5767200D03*
X73965300Y4967200D03*
X73965300Y4157200D03*
X73965300Y3367200D03*
X73965300Y2567200D03*
D38*
X74215300Y-282800D03*
X79665300Y-282800D03*
X79665300Y8617200D03*
X74215300Y8617200D03*
D39*
X188808314Y-48009057D03*
X188808314Y-46134057D03*
X298378314Y-68989057D03*
X298378314Y-67114057D03*
X317378314Y-68939057D03*
X317378314Y-67064057D03*
X179218314Y-67119057D03*
X179218314Y-65244057D03*
X112408314Y-48129057D03*
X112408314Y-46254057D03*
X141428314Y-67159057D03*
X141428314Y-65284057D03*
X103008314Y-67089057D03*
X103008314Y-65214057D03*
X64988314Y-67049057D03*
X64988314Y-65174057D03*
X246088314Y-48179057D03*
X246088314Y-46304057D03*
X21958314Y-67429057D03*
X21958314Y-65554057D03*
X150868314Y-48049057D03*
X150868314Y-46174057D03*
X226488314Y-48019057D03*
X226488314Y-46144057D03*
X255378314Y-67109057D03*
X255378314Y-65234057D03*
X336528314Y-68889057D03*
X336528314Y-67014057D03*
X217488314Y-67109057D03*
X217488314Y-65234057D03*
X160448314Y-67119057D03*
X160448314Y-65244057D03*
X122098314Y-67119057D03*
X122098314Y-65244057D03*
X317378314Y-87889057D03*
X317378314Y-86014057D03*
X336528314Y-87939057D03*
X336528314Y-86064057D03*
X298278314Y-106939057D03*
X298278314Y-105064057D03*
X279388314Y-66689057D03*
X279388314Y-64814057D03*
X84278314Y-67049057D03*
X84278314Y-65174057D03*
X45918314Y-67509057D03*
X45918314Y-65634057D03*
X355578314Y-87989057D03*
X355578314Y-86114057D03*
X298328314Y-87939057D03*
X298328314Y-86064057D03*
X236368314Y-67159057D03*
X236368314Y-65284057D03*
X198398314Y-67119057D03*
X198398314Y-65244057D03*
X155278314Y-105079057D03*
X155278314Y-103204057D03*
X117008314Y-105129057D03*
X117008314Y-103254057D03*
X78708314Y-105399057D03*
X78708314Y-103524057D03*
X317378314Y-125989057D03*
X317378314Y-124114057D03*
X271828314Y-86169057D03*
X271828314Y-84294057D03*
X317378314Y-107089057D03*
X317378314Y-105214057D03*
X145698314Y-86099057D03*
X145698314Y-84224057D03*
X221708314Y-86029057D03*
X221708314Y-84154057D03*
X107628314Y-86129057D03*
X107628314Y-84254057D03*
X24418314Y-86169057D03*
X24418314Y-84294057D03*
X69448314Y-86099057D03*
X69448314Y-84224057D03*
X336478314Y-106889057D03*
X336478314Y-105014057D03*
X183548314Y-86099057D03*
X183548314Y-84224057D03*
X308028314Y-129079057D03*
X308028314Y-127204057D03*
X288748314Y-110199057D03*
X288748314Y-108324057D03*
X193318314Y-105169057D03*
X193318314Y-103294057D03*
X288798314Y-129089057D03*
X288798314Y-127214057D03*
X333028314Y-10462508D03*
X333028314Y-8587508D03*
X73958314Y-48579057D03*
X73958314Y-46704057D03*
X36428314Y-50149057D03*
X36428314Y-48274057D03*
X355528314Y-49789057D03*
X355528314Y-47914057D03*
X317428314Y-49889057D03*
X317428314Y-48014057D03*
X298328314Y-49939057D03*
X298328314Y-48064057D03*
X336478314Y-30739057D03*
X336478314Y-28864057D03*
X275628314Y-47779057D03*
X275628314Y-45904057D03*
X225623627Y-13439073D03*
X225623627Y-11564073D03*
X17518314Y-49889057D03*
X17518314Y-48014057D03*
X298428314Y-11939057D03*
X298428314Y-10064057D03*
X317378314Y-30689057D03*
X317378314Y-28814057D03*
X355528314Y-30789057D03*
X355528314Y-28914057D03*
X317328314Y-11739057D03*
X317328314Y-9864057D03*
X207768314Y-48139057D03*
X207768314Y-46264057D03*
X169408314Y-48549057D03*
X169408314Y-46674057D03*
X298428314Y-30889057D03*
X298428314Y-29014057D03*
X336478314Y-49839057D03*
X336478314Y-47964057D03*
X352028314Y-10462508D03*
X352028314Y-8587508D03*
X131828314Y-48129057D03*
X131828314Y-46254057D03*
X93588314Y-48539057D03*
X93588314Y-46664057D03*
X182165778Y-13439073D03*
X182165778Y-11564073D03*
X244673643Y-13439073D03*
X244673643Y-11564073D03*
X206573611Y-13439073D03*
X206573611Y-11564073D03*
X263723659Y-13439073D03*
X263723659Y-11564073D03*
X136218314Y-105149057D03*
X136218314Y-103274057D03*
X207528314Y-124569057D03*
X207528314Y-122694057D03*
X67678314Y-124789057D03*
X67678314Y-122914057D03*
X98168314Y-105099057D03*
X98168314Y-103224057D03*
X59978314Y-105169057D03*
X59978314Y-103294057D03*
X29238314Y-105609057D03*
X29238314Y-103734057D03*
X164508314Y-86099057D03*
X164508314Y-84224057D03*
X126628314Y-86109057D03*
X126628314Y-84234057D03*
X88668314Y-86099057D03*
X88668314Y-84224057D03*
X50218314Y-86099057D03*
X50218314Y-84224057D03*
X355478314Y-117039057D03*
X355478314Y-115164057D03*
X240898314Y-86039057D03*
X240898314Y-84164057D03*
X202878314Y-86129057D03*
X202878314Y-84254057D03*
X336478314Y-125989057D03*
X336478314Y-124114057D03*
X43748314Y-124629057D03*
X43748314Y-122754057D03*
X139628314Y-125969057D03*
X139628314Y-124094057D03*
X257348314Y-105059057D03*
X257348314Y-103184057D03*
X212408314Y-105149057D03*
X212408314Y-103274057D03*
X174268314Y-105149057D03*
X174268314Y-103274057D03*
X246098314Y-124179057D03*
X246098314Y-122304057D03*
X269868314Y-129159057D03*
X269868314Y-127284057D03*
X226968314Y-124269057D03*
X226968314Y-122394057D03*
X19568314Y-124659057D03*
X19568314Y-122784057D03*
X231248314Y-105179057D03*
X231248314Y-103304057D03*
D29*
X267700224Y1785939D03*
X265700224Y1785939D03*
D39*
X19050016Y-13439073D03*
X19050016Y-11564073D03*
X43457849Y-13439073D03*
X43457849Y-11564073D03*
X62507865Y-13439073D03*
X62507865Y-11564073D03*
X81557881Y-13439073D03*
X81557881Y-11564073D03*
X100607897Y-13439073D03*
X100607897Y-11564073D03*
X125015730Y-13439073D03*
X125015730Y-11564073D03*
X144065746Y-13439073D03*
X144065746Y-11564073D03*
X163115762Y-13439073D03*
X163115762Y-11564073D03*
D30*
X211426741Y0D03*
X213626741Y0D03*
X211426741Y1785939D03*
X213626741Y1785939D03*
D39*
X55548314Y-49049057D03*
X55548314Y-47174057D03*
D29*
X280797110Y4762504D03*
X278797110Y4762504D03*
X294870561Y4762504D03*
X296870561Y4762504D03*
D40*
X258898635Y5357817D03*
D39*
X355578314Y-68889057D03*
X355578314Y-67014057D03*
M02*
