M48
; DRILL file {KiCad (5.99.0-7511-ga134567838)} date 12/30/20 19:04:21
; FORMAT={-:-/ absolute / inch / decimal}
; #@! TF.CreationDate,2020-12-30T19:04:21-08:00
; #@! TF.GenerationSoftware,Kicad,Pcbnew,(5.99.0-7511-ga134567838)
; #@! TF.FileFunction,NonPlated,1,2,NPTH
FMAT,2
INCH
T1C0.0394
T2C0.1181
T3C0.1200
T4C0.1570
T5C0.1575
T6C0.1772
T7C0.2362
%
G90
G05
T1
X3.0234Y0.2507
X3.0234Y0.0774
X5.1094Y0.2507
X5.1094Y0.0774
X7.2024Y0.1875
X7.3757Y0.1875
T2
X0.225Y-0.275
X0.225Y-1.775
X0.225Y-4.775
X0.4125Y-2.525
X0.475Y-0.175
X0.475Y-1.675
X0.475Y-4.675
X0.5063Y-3.275
X0.6625Y-2.425
X0.6938Y-4.025
X0.7563Y-3.175
X0.9438Y-3.925
X0.975Y-1.775
X0.975Y-4.775
X1.1859Y-0.275
X1.225Y-1.675
X1.225Y-4.675
X1.35Y-2.525
X1.4359Y-0.175
X1.5375Y-3.275
X1.6Y-2.425
X1.725Y-1.775
X1.725Y-4.775
X1.7875Y-3.175
X1.9125Y-4.025
X1.9359Y-0.275
X1.975Y-1.675
X1.975Y-4.675
X2.1Y-2.525
X2.1625Y-3.925
X2.1859Y-0.175
X2.2875Y-3.275
X2.35Y-2.425
X2.475Y-1.775
X2.5375Y-3.175
X2.6625Y-4.025
X2.6859Y-0.275
X2.725Y-1.675
X2.85Y-2.525
X2.9125Y-3.925
X2.9359Y-0.175
X3.0375Y-3.275
X3.1Y-2.425
X3.225Y-1.775
X3.2875Y-3.175
X3.4125Y-4.025
X3.4359Y-0.275
X3.475Y-1.675
X3.6Y-2.525
X3.6625Y-3.925
X3.6859Y-0.175
X3.7875Y-3.275
X3.85Y-2.425
X3.975Y-1.775
X4.0375Y-3.175
X4.1625Y-4.025
X4.225Y-1.675
X4.35Y-2.525
X4.3969Y-0.275
X4.4125Y-3.925
X4.5375Y-3.275
X4.6Y-2.425
X4.6469Y-0.175
X4.725Y-4.775
X4.725Y-1.775
X4.7875Y-3.175
X4.9125Y-4.025
X4.975Y-4.675
X4.975Y-1.675
X5.1Y-2.525
X5.1469Y-0.275
X5.1625Y-3.925
X5.2875Y-3.275
X5.35Y-2.425
X5.3969Y-0.175
X5.475Y-1.775
X5.5375Y-3.175
X5.6625Y-4.025
X5.725Y-1.675
X5.85Y-2.525
X5.8969Y-0.275
X5.9125Y-3.925
X6.0375Y-3.275
X6.1Y-2.425
X6.1469Y-0.175
X6.225Y-1.775
X6.2875Y-3.175
X6.4125Y-4.025
X6.475Y-1.675
X6.6Y-2.525
X6.6469Y-0.275
X6.6625Y-3.925
X6.7875Y-3.275
X6.85Y-2.425
X6.8969Y-0.175
X6.975Y-1.775
X6.975Y-4.775
X7.0375Y-3.175
X7.1625Y-4.025
X7.225Y-1.675
X7.225Y-4.675
X7.35Y-2.525
X7.4125Y-3.925
X7.5375Y-3.275
X7.6Y-2.425
X7.6078Y-0.275
X7.725Y-1.775
X7.725Y-4.775
X7.7875Y-3.175
X7.8578Y-0.175
X7.9125Y-4.025
X7.975Y-1.675
X7.975Y-4.675
X8.1Y-2.525
X8.1625Y-3.925
X8.2875Y-3.275
X8.35Y-2.425
X8.3578Y-0.275
X8.475Y-1.775
X8.475Y-4.775
X8.5375Y-3.175
X8.6078Y-0.175
X8.6625Y-4.025
X8.725Y-1.675
X8.725Y-4.675
X8.85Y-2.525
X8.9125Y-3.925
X9.0375Y-3.275
X9.1Y-2.425
X9.1078Y-0.275
X9.225Y-1.775
X9.225Y-4.775
X9.2875Y-3.175
X9.3578Y-0.175
X9.475Y-1.675
X9.475Y-4.675
X9.6Y-2.525
X9.6938Y-4.025
X9.85Y-2.425
X9.8578Y-0.275
X9.9438Y-3.925
X10.1078Y-0.175
X10.1859Y-4.9859
X10.2563Y-3.275
X10.35Y-1.775
X10.4359Y-4.8859
X10.5063Y-3.175
X10.5375Y-2.525
X10.6Y-1.675
X10.7875Y-2.425
X10.9359Y-4.2359
X10.9359Y-4.9859
X11.1859Y-4.1359
X11.1859Y-4.8859
X11.6859Y-4.9859
X11.8969Y-0.275
X11.8969Y-1.025
X11.8969Y-1.775
X11.8969Y-2.525
X11.8969Y-3.275
X11.8969Y-4.025
X11.9359Y-4.8859
X12.1469Y-0.175
X12.1469Y-0.925
X12.1469Y-1.675
X12.1469Y-2.425
X12.1469Y-3.175
X12.1469Y-3.925
X12.6469Y-0.275
X12.6469Y-1.025
X12.6469Y-1.775
X12.6469Y-2.525
X12.6469Y-3.275
X12.6469Y-4.025
X12.6469Y-4.775
X12.8969Y-0.175
X12.8969Y-0.925
X12.8969Y-1.675
X12.8969Y-2.425
X12.8969Y-3.175
X12.8969Y-3.925
X12.8969Y-4.675
X13.3969Y-0.275
X13.3969Y-1.025
X13.3969Y-1.775
X13.3969Y-2.525
X13.3969Y-3.275
X13.3969Y-4.025
X13.3969Y-4.775
X13.6469Y-0.175
X13.6469Y-0.925
X13.6469Y-1.675
X13.6469Y-2.425
X13.6469Y-3.175
X13.6469Y-3.925
X13.6469Y-4.675
X14.1469Y-0.275
X14.1469Y-1.025
X14.1469Y-1.775
X14.1469Y-2.525
X14.1469Y-3.275
X14.1469Y-4.4
X14.3969Y-0.175
X14.3969Y-0.925
X14.3969Y-1.675
X14.3969Y-2.425
X14.3969Y-3.175
X14.3969Y-4.3
T3
X0.3738Y-3.85
X1.3138Y-3.85
X2.625Y-4.6
X6.375Y-4.6
X9.9363Y-3.1
X10.03Y-1.6
X10.8763Y-3.1
X10.97Y-1.6
X14.5719Y-4.03
X14.5719Y-4.97
T4
X0.3738Y-4.45
X0.375Y-0.375
X0.375Y-1.875
X0.375Y-4.875
X0.5625Y-2.625
X0.6563Y-3.375
X0.8438Y-4.125
X1.125Y-1.875
X1.125Y-4.875
X1.3138Y-4.45
X1.3359Y-0.375
X1.5Y-2.625
X1.6875Y-3.375
X1.875Y-1.875
X1.875Y-4.875
X2.0625Y-4.125
X2.0859Y-0.375
X2.25Y-2.625
X2.4375Y-3.375
X2.625Y-1.875
X2.625Y-5.2
X2.8125Y-4.125
X2.8359Y-0.375
X3.0Y-2.625
X3.1875Y-3.375
X3.375Y-1.875
X3.5625Y-4.125
X3.5859Y-0.375
X3.75Y-2.625
X3.9375Y-3.375
X4.125Y-1.875
X4.3125Y-4.125
X4.5Y-2.625
X4.5469Y-0.375
X4.6875Y-3.375
X4.875Y-4.875
X4.875Y-4.875
X4.875Y-1.875
X5.0625Y-4.125
X5.25Y-2.625
X5.2969Y-0.375
X5.4375Y-3.375
X5.625Y-1.875
X5.8125Y-4.125
X6.0Y-2.625
X6.0469Y-0.375
X6.1875Y-3.375
X6.375Y-5.2
X6.375Y-1.875
X6.5625Y-4.125
X6.75Y-2.625
X6.7969Y-0.375
X6.9375Y-3.375
X7.125Y-1.875
X7.125Y-4.875
X7.3125Y-4.125
X7.5Y-2.625
X7.6875Y-3.375
X7.7578Y-0.375
X7.875Y-1.875
X7.875Y-4.875
X8.0625Y-4.125
X8.25Y-2.625
X8.4375Y-3.375
X8.5078Y-0.375
X8.625Y-1.875
X8.625Y-4.875
X8.8125Y-4.125
X9.0Y-2.625
X9.1875Y-3.375
X9.2578Y-0.375
X9.375Y-1.875
X9.375Y-4.875
X9.75Y-2.625
X9.8438Y-4.125
X9.9363Y-3.7
X10.0078Y-0.375
X10.03Y-2.2
X10.3359Y-5.0859
X10.4063Y-3.375
X10.5Y-1.875
X10.6875Y-2.625
X10.8763Y-3.7
X10.97Y-2.2
X11.0859Y-4.3359
X11.0859Y-5.0859
X11.8359Y-5.0859
X12.0469Y-0.375
X12.0469Y-1.125
X12.0469Y-1.875
X12.0469Y-2.625
X12.0469Y-3.375
X12.0469Y-4.125
X12.7969Y-0.375
X12.7969Y-1.125
X12.7969Y-1.875
X12.7969Y-2.625
X12.7969Y-3.375
X12.7969Y-4.125
X12.7969Y-4.875
X13.5469Y-0.375
X13.5469Y-1.125
X13.5469Y-1.875
X13.5469Y-2.625
X13.5469Y-3.375
X13.5469Y-4.125
X13.5469Y-4.875
X13.9719Y-4.03
X13.9719Y-4.97
X14.2969Y-0.375
X14.2969Y-1.125
X14.2969Y-1.875
X14.2969Y-2.625
X14.2969Y-3.375
X14.2969Y-4.5
T5
X1.3359Y-1.125
X1.8047Y-1.3359
X2.3203Y-5.25
X7.3359Y-1.125
X10.1953Y-1.3359
X11.3203Y-1.125
X12.3516Y-5.25
T6
X0.1172Y-5.2265
T7
X2.3203Y-1.125
T2
G00X14.5387Y0.0703
M15
G01X14.6175Y0.0703
M16
G05
T5
G00X3.4453Y-5.5162
M15
G01X3.4453Y-5.3587
M16
G05
G00X12.5625Y-5.5162
M15
G01X12.5625Y-5.3587
M16
G05
T7
G00X9.7884Y-1.125
M15
G01X9.9459Y-1.125
M16
G05
T0
M30
