G04 #@! TF.GenerationSoftware,KiCad,Pcbnew,(5.99.0-7511-ga134567838)*
G04 #@! TF.CreationDate,2020-12-30T19:04:15-08:00*
G04 #@! TF.ProjectId,gh80-1800,67683830-2d31-4383-9030-2e6b69636164,rev?*
G04 #@! TF.SameCoordinates,Original*
G04 #@! TF.FileFunction,Soldermask,Bot*
G04 #@! TF.FilePolarity,Negative*
%FSLAX46Y46*%
G04 Gerber Fmt 4.6, Leading zero omitted, Abs format (unit mm)*
G04 Created by KiCad (PCBNEW (5.99.0-7511-ga134567838)) date 2020-12-30 19:04:15*
%MOMM*%
%LPD*%
G01*
G04 APERTURE LIST*
G04 Aperture macros list*
%AMRoundRect*
0 Rectangle with rounded corners*
0 $1 Rounding radius*
0 $2 $3 $4 $5 $6 $7 $8 $9 X,Y pos of 4 corners*
0 Add a 4 corners polygon primitive as box body*
4,1,4,$2,$3,$4,$5,$6,$7,$8,$9,$2,$3,0*
0 Add four circle primitives for the rounded corners*
1,1,$1+$1,$2,$3,0*
1,1,$1+$1,$4,$5,0*
1,1,$1+$1,$6,$7,0*
1,1,$1+$1,$8,$9,0*
0 Add four rect primitives between the rounded corners*
20,1,$1+$1,$2,$3,$4,$5,0*
20,1,$1+$1,$4,$5,$6,$7,0*
20,1,$1+$1,$6,$7,$8,$9,0*
20,1,$1+$1,$8,$9,$2,$3,0*%
G04 Aperture macros list end*
%ADD10C,3.000000*%
%ADD11C,3.987800*%
%ADD12R,2.550000X2.500000*%
%ADD13RoundRect,0.250000X0.450000X-0.325000X0.450000X0.325000X-0.450000X0.325000X-0.450000X-0.325000X0*%
%ADD14R,1.800000X1.800000*%
%ADD15C,1.800000*%
%ADD16O,10.000000X6.000000*%
%ADD17C,6.000000*%
%ADD18O,5.000000X3.000000*%
%ADD19C,4.000000*%
%ADD20C,4.500000*%
%ADD21O,4.000000X8.000000*%
%ADD22R,1.700000X1.700000*%
%ADD23O,1.700000X1.700000*%
%ADD24C,3.048000*%
%ADD25R,2.000000X3.000000*%
%ADD26R,1.778000X1.778000*%
%ADD27C,1.778000*%
%ADD28R,1.000000X1.250000*%
%ADD29R,1.000000X1.300000*%
%ADD30R,0.550000X1.500000*%
%ADD31R,1.500000X0.550000*%
%ADD32R,2.000000X0.400000*%
%ADD33C,1.000000*%
%ADD34R,0.500000X2.750000*%
%ADD35R,2.000000X2.500000*%
%ADD36R,2.750000X0.500000*%
%ADD37R,2.500000X2.000000*%
%ADD38O,4.000000X5.000000*%
G04 APERTURE END LIST*
D10*
X10477512Y-64135056D03*
X16827512Y-61595056D03*
D11*
X14287512Y-66675056D03*
D12*
X20577512Y-61595056D03*
X6727512Y-64135056D03*
D11*
X363140930Y-47625040D03*
D10*
X359330930Y-45085040D03*
X365680930Y-42545040D03*
D12*
X369430930Y-42545040D03*
X355580930Y-45085040D03*
D11*
X28575024Y-47625040D03*
D10*
X24765024Y-45085040D03*
X31115024Y-42545040D03*
D12*
X34865024Y-42545040D03*
X21015024Y-45085040D03*
D10*
X69215056Y-42545040D03*
D11*
X66675056Y-47625040D03*
D10*
X62865056Y-45085040D03*
D12*
X72965056Y-42545040D03*
X59115056Y-45085040D03*
D10*
X100965088Y-45085040D03*
D11*
X104775088Y-47625040D03*
D10*
X107315088Y-42545040D03*
D12*
X111065088Y-42545040D03*
X97215088Y-45085040D03*
D10*
X139065120Y-45085040D03*
D11*
X142875120Y-47625040D03*
D10*
X145415120Y-42545040D03*
D12*
X149165120Y-42545040D03*
X135315120Y-45085040D03*
D11*
X180975152Y-47625040D03*
D10*
X183515152Y-42545040D03*
X177165152Y-45085040D03*
D12*
X187265152Y-42545040D03*
X173415152Y-45085040D03*
D11*
X219075184Y-47625040D03*
D10*
X215265184Y-45085040D03*
X221615184Y-42545040D03*
D12*
X225365184Y-42545040D03*
X211515184Y-45085040D03*
D10*
X240665200Y-42545040D03*
X234315200Y-45085040D03*
D11*
X238125200Y-47625040D03*
D12*
X244415200Y-42545040D03*
X230565200Y-45085040D03*
D10*
X302180882Y-64135056D03*
X308530882Y-61595056D03*
D11*
X305990882Y-66675056D03*
D12*
X312280882Y-61595056D03*
X298430882Y-64135056D03*
D10*
X321230898Y-64135056D03*
X327580898Y-61595056D03*
D11*
X325040898Y-66675056D03*
D12*
X331330898Y-61595056D03*
X317480898Y-64135056D03*
D10*
X346630914Y-61595056D03*
X340280914Y-64135056D03*
D11*
X344090914Y-66675056D03*
D12*
X350380914Y-61595056D03*
X336530914Y-64135056D03*
D10*
X365680930Y-61595056D03*
X359330930Y-64135056D03*
D11*
X363140930Y-66675056D03*
D12*
X369430930Y-61595056D03*
X355580930Y-64135056D03*
D10*
X346630914Y-42545040D03*
X340280914Y-45085040D03*
D11*
X344090914Y-47625040D03*
D12*
X350380914Y-42545040D03*
X336530914Y-45085040D03*
D10*
X59690048Y-61595056D03*
X53340048Y-64135056D03*
D11*
X57150048Y-66675056D03*
D12*
X63440048Y-61595056D03*
X49590048Y-64135056D03*
D11*
X95250080Y-66675056D03*
D10*
X91440080Y-64135056D03*
X97790080Y-61595056D03*
D12*
X101540080Y-61595056D03*
X87690080Y-64135056D03*
D10*
X135890112Y-61595056D03*
X129540112Y-64135056D03*
D11*
X133350112Y-66675056D03*
D12*
X139640112Y-61595056D03*
X125790112Y-64135056D03*
D10*
X167640144Y-64135056D03*
X173990144Y-61595056D03*
D11*
X171450144Y-66675056D03*
D12*
X177740144Y-61595056D03*
X163890144Y-64135056D03*
D11*
X209550176Y-66675056D03*
D10*
X212090176Y-61595056D03*
X205740176Y-64135056D03*
D12*
X215840176Y-61595056D03*
X201990176Y-64135056D03*
D10*
X243840208Y-64135056D03*
D11*
X247650208Y-66675056D03*
D10*
X250190208Y-61595056D03*
D12*
X253940208Y-61595056D03*
X240090208Y-64135056D03*
D11*
X305990882Y-85725072D03*
D10*
X308530882Y-80645072D03*
X302180882Y-83185072D03*
D12*
X312280882Y-80645072D03*
X298430882Y-83185072D03*
D10*
X321230898Y-83185072D03*
X327580898Y-80645072D03*
D11*
X325040898Y-85725072D03*
D12*
X331330898Y-80645072D03*
X317480898Y-83185072D03*
D10*
X340280914Y-83185072D03*
D11*
X344090914Y-85725072D03*
D10*
X346630914Y-80645072D03*
D12*
X350380914Y-80645072D03*
X336530914Y-83185072D03*
D10*
X359330930Y-83185072D03*
X365680930Y-80645072D03*
D11*
X363140930Y-85725072D03*
D12*
X369430930Y-80645072D03*
X355580930Y-83185072D03*
D11*
X38100032Y-66675056D03*
D10*
X34290032Y-64135056D03*
X40640032Y-61595056D03*
D12*
X44390032Y-61595056D03*
X30540032Y-64135056D03*
D11*
X76200064Y-66675056D03*
D10*
X78740064Y-61595056D03*
X72390064Y-64135056D03*
D12*
X82490064Y-61595056D03*
X68640064Y-64135056D03*
D11*
X235148635Y-9525008D03*
D10*
X237688635Y-4445008D03*
X231338635Y-6985008D03*
D12*
X241438635Y-4445008D03*
X227588635Y-6985008D03*
D11*
X172640770Y-9525008D03*
D10*
X168830770Y-6985008D03*
X175180770Y-4445008D03*
D12*
X178930770Y-4445008D03*
X165080770Y-6985008D03*
D10*
X218638619Y-4445008D03*
X212288619Y-6985008D03*
D11*
X216098619Y-9525008D03*
D12*
X222388619Y-4445008D03*
X208538619Y-6985008D03*
D10*
X250388651Y-6985008D03*
X256738651Y-4445008D03*
D11*
X254198651Y-9525008D03*
D12*
X260488651Y-4445008D03*
X246638651Y-6985008D03*
D10*
X302180882Y-6985008D03*
X308530882Y-4445008D03*
D11*
X305990882Y-9525008D03*
D12*
X312280882Y-4445008D03*
X298430882Y-6985008D03*
D10*
X327580898Y-4445008D03*
X321230898Y-6985008D03*
D11*
X325040898Y-9525008D03*
D12*
X331330898Y-4445008D03*
X317480898Y-6985008D03*
D10*
X346630914Y-4445008D03*
X340280914Y-6985008D03*
D11*
X344090914Y-9525008D03*
D12*
X350380914Y-4445008D03*
X336530914Y-6985008D03*
D10*
X365680930Y-4445008D03*
D11*
X363140930Y-9525008D03*
D10*
X359330930Y-6985008D03*
D12*
X369430930Y-4445008D03*
X355580930Y-6985008D03*
D11*
X33932841Y-9525008D03*
D10*
X36472841Y-4445008D03*
X30122841Y-6985008D03*
D12*
X40222841Y-4445008D03*
X26372841Y-6985008D03*
D10*
X68222873Y-6985008D03*
X74572873Y-4445008D03*
D11*
X72032873Y-9525008D03*
D12*
X78322873Y-4445008D03*
X64472873Y-6985008D03*
D11*
X115490722Y-9525008D03*
D10*
X111680722Y-6985008D03*
X118030722Y-4445008D03*
D12*
X121780722Y-4445008D03*
X107930722Y-6985008D03*
D11*
X153590754Y-9525008D03*
D10*
X156130754Y-4445008D03*
X149780754Y-6985008D03*
D12*
X159880754Y-4445008D03*
X146030754Y-6985008D03*
D11*
X197048603Y-9525008D03*
D10*
X193238603Y-6985008D03*
X199588603Y-4445008D03*
D12*
X203338603Y-4445008D03*
X189488603Y-6985008D03*
D10*
X110490096Y-64135056D03*
X116840096Y-61595056D03*
D11*
X114300096Y-66675056D03*
D12*
X120590096Y-61595056D03*
X106740096Y-64135056D03*
D11*
X305990882Y-28575024D03*
D10*
X302180882Y-26035024D03*
X308530882Y-23495024D03*
D12*
X312280882Y-23495024D03*
X298430882Y-26035024D03*
D10*
X321230898Y-26035024D03*
X327580898Y-23495024D03*
D11*
X325040898Y-28575024D03*
D12*
X331330898Y-23495024D03*
X317480898Y-26035024D03*
D10*
X346630914Y-23495024D03*
D11*
X344090914Y-28575024D03*
D10*
X340280914Y-26035024D03*
D12*
X350380914Y-23495024D03*
X336530914Y-26035024D03*
D10*
X359330930Y-26035024D03*
X365680930Y-23495024D03*
D11*
X363140930Y-28575024D03*
D12*
X369430930Y-23495024D03*
X355580930Y-26035024D03*
D10*
X12065008Y-42545040D03*
X5715008Y-45085040D03*
D11*
X9525008Y-47625040D03*
D12*
X15815008Y-42545040D03*
X1965008Y-45085040D03*
D11*
X47625040Y-47625040D03*
D10*
X43815040Y-45085040D03*
X50165040Y-42545040D03*
D12*
X53915040Y-42545040D03*
X40065040Y-45085040D03*
D10*
X88265072Y-42545040D03*
X81915072Y-45085040D03*
D11*
X85725072Y-47625040D03*
D12*
X92015072Y-42545040D03*
X78165072Y-45085040D03*
D11*
X123825104Y-47625040D03*
D10*
X126365104Y-42545040D03*
X120015104Y-45085040D03*
D12*
X130115104Y-42545040D03*
X116265104Y-45085040D03*
D11*
X161925136Y-47625040D03*
D10*
X158115136Y-45085040D03*
X164465136Y-42545040D03*
D12*
X168215136Y-42545040D03*
X154365136Y-45085040D03*
D10*
X202565168Y-42545040D03*
D11*
X200025168Y-47625040D03*
D10*
X196215168Y-45085040D03*
D12*
X206315168Y-42545040D03*
X192465168Y-45085040D03*
D10*
X308530882Y-42545040D03*
X302180882Y-45085040D03*
D11*
X305990882Y-47625040D03*
D12*
X312280882Y-42545040D03*
X298430882Y-45085040D03*
D11*
X325040898Y-47625040D03*
D10*
X327580898Y-42545040D03*
X321230898Y-45085040D03*
D12*
X331330898Y-42545040D03*
X317480898Y-45085040D03*
D10*
X105727592Y-102235088D03*
D11*
X109537592Y-104775088D03*
D10*
X112077592Y-99695088D03*
D12*
X115827592Y-99695088D03*
X101977592Y-102235088D03*
D10*
X50165040Y-118745104D03*
X43815040Y-121285104D03*
D11*
X47625040Y-123825104D03*
D12*
X53915040Y-118745104D03*
X40065040Y-121285104D03*
D11*
X219075184Y-123825104D03*
D10*
X221615184Y-118745104D03*
X215265184Y-121285104D03*
D12*
X225365184Y-118745104D03*
X211515184Y-121285104D03*
D10*
X54927544Y-99695088D03*
D11*
X52387544Y-104775088D03*
D10*
X48577544Y-102235088D03*
D12*
X58677544Y-99695088D03*
X44827544Y-102235088D03*
D11*
X90487576Y-104775088D03*
D10*
X93027576Y-99695088D03*
X86677576Y-102235088D03*
D12*
X96777576Y-99695088D03*
X82927576Y-102235088D03*
D10*
X131127608Y-99695088D03*
D11*
X128587608Y-104775088D03*
D10*
X124777608Y-102235088D03*
D12*
X134877608Y-99695088D03*
X121027608Y-102235088D03*
D11*
X166687640Y-104775088D03*
D10*
X162877640Y-102235088D03*
X169227640Y-99695088D03*
D12*
X172977640Y-99695088D03*
X159127640Y-102235088D03*
D11*
X204787672Y-104775088D03*
D10*
X207327672Y-99695088D03*
X200977672Y-102235088D03*
D12*
X211077672Y-99695088D03*
X197227672Y-102235088D03*
D10*
X252571460Y-99695088D03*
X246221460Y-102235088D03*
D11*
X250031460Y-104775088D03*
D12*
X256321460Y-99695088D03*
X242471460Y-102235088D03*
D10*
X31115024Y-118745104D03*
X24765024Y-121285104D03*
D11*
X28575024Y-123825104D03*
D12*
X34865024Y-118745104D03*
X21015024Y-121285104D03*
D10*
X196215168Y-121285104D03*
X202565168Y-118745104D03*
D11*
X200025168Y-123825104D03*
D12*
X206315168Y-118745104D03*
X192465168Y-121285104D03*
D10*
X234315200Y-121285104D03*
D11*
X238125200Y-123825104D03*
D10*
X240665200Y-118745104D03*
D12*
X244415200Y-118745104D03*
X230565200Y-121285104D03*
D10*
X73977560Y-99695088D03*
X67627560Y-102235088D03*
D11*
X71437560Y-104775088D03*
D12*
X77727560Y-99695088D03*
X63877560Y-102235088D03*
D10*
X177165152Y-121285104D03*
X183515152Y-118745104D03*
D11*
X180975152Y-123825104D03*
D12*
X187265152Y-118745104D03*
X173415152Y-121285104D03*
D10*
X143827624Y-102235088D03*
D11*
X147637624Y-104775088D03*
D10*
X150177624Y-99695088D03*
D12*
X153927624Y-99695088D03*
X140077624Y-102235088D03*
D10*
X181927656Y-102235088D03*
X188277656Y-99695088D03*
D11*
X185737656Y-104775088D03*
D12*
X192027656Y-99695088D03*
X178177656Y-102235088D03*
D10*
X220027688Y-102235088D03*
D11*
X223837688Y-104775088D03*
D10*
X226377688Y-99695088D03*
D12*
X230127688Y-99695088D03*
X216277688Y-102235088D03*
D10*
X284123049Y-105052905D03*
X277773049Y-107592905D03*
D11*
X281583049Y-110132905D03*
D12*
X287873049Y-105052905D03*
X274023049Y-107592905D03*
D10*
X258723033Y-126642921D03*
X265073033Y-124102921D03*
D11*
X262533033Y-129182921D03*
D12*
X268823033Y-124102921D03*
X254973033Y-126642921D03*
D10*
X277773049Y-126642921D03*
X284123049Y-124102921D03*
D11*
X281583049Y-129182921D03*
D12*
X287873049Y-124102921D03*
X274023049Y-126642921D03*
D10*
X296823065Y-126642921D03*
X303173065Y-124102921D03*
D11*
X300633065Y-129182921D03*
D12*
X306923065Y-124102921D03*
X293073065Y-126642921D03*
D10*
X137080738Y-4445008D03*
X130730738Y-6985008D03*
D11*
X134540738Y-9525008D03*
D12*
X140830738Y-4445008D03*
X126980738Y-6985008D03*
D10*
X93622889Y-4445008D03*
X87272889Y-6985008D03*
D11*
X91082889Y-9525008D03*
D12*
X97372889Y-4445008D03*
X83522889Y-6985008D03*
D11*
X52982857Y-9525008D03*
D10*
X49172857Y-6985008D03*
X55522857Y-4445008D03*
D12*
X59272857Y-4445008D03*
X45422857Y-6985008D03*
D11*
X9525008Y-9525008D03*
D10*
X5715008Y-6985008D03*
X12065008Y-4445008D03*
D12*
X15815008Y-4445008D03*
X1965008Y-6985008D03*
D11*
X152400128Y-66675056D03*
D10*
X154940128Y-61595056D03*
X148590128Y-64135056D03*
D12*
X158690128Y-61595056D03*
X144840128Y-64135056D03*
D10*
X193040160Y-61595056D03*
X186690160Y-64135056D03*
D11*
X190500160Y-66675056D03*
D12*
X196790160Y-61595056D03*
X182940160Y-64135056D03*
D11*
X228600192Y-66675056D03*
D10*
X224790192Y-64135056D03*
X231140192Y-61595056D03*
D12*
X234890192Y-61595056D03*
X221040192Y-64135056D03*
D11*
X271462728Y-66675056D03*
D10*
X274002728Y-61595056D03*
X267652728Y-64135056D03*
D12*
X277752728Y-61595056D03*
X263902728Y-64135056D03*
D11*
X305990882Y-104775088D03*
D10*
X302180882Y-102235088D03*
X308530882Y-99695088D03*
D12*
X312280882Y-99695088D03*
X298430882Y-102235088D03*
D10*
X327580898Y-99695088D03*
D11*
X325040898Y-104775088D03*
D10*
X321230898Y-102235088D03*
D12*
X331330898Y-99695088D03*
X317480898Y-102235088D03*
D11*
X344090914Y-104775088D03*
D10*
X340280914Y-102235088D03*
X346630914Y-99695088D03*
D12*
X350380914Y-99695088D03*
X336530914Y-102235088D03*
D11*
X16668764Y-85725072D03*
D10*
X19208764Y-80645072D03*
X12858764Y-83185072D03*
D12*
X22958764Y-80645072D03*
X9108764Y-83185072D03*
D10*
X64452552Y-80645072D03*
X58102552Y-83185072D03*
D11*
X61912552Y-85725072D03*
D12*
X68202552Y-80645072D03*
X54352552Y-83185072D03*
D11*
X100012584Y-85725072D03*
D10*
X102552584Y-80645072D03*
X96202584Y-83185072D03*
D12*
X106302584Y-80645072D03*
X92452584Y-83185072D03*
D10*
X140652616Y-80645072D03*
D11*
X138112616Y-85725072D03*
D10*
X134302616Y-83185072D03*
D12*
X144402616Y-80645072D03*
X130552616Y-83185072D03*
D10*
X172402648Y-83185072D03*
X178752648Y-80645072D03*
D11*
X176212648Y-85725072D03*
D12*
X182502648Y-80645072D03*
X168652648Y-83185072D03*
D10*
X216852680Y-80645072D03*
X210502680Y-83185072D03*
D11*
X214312680Y-85725072D03*
D12*
X220602680Y-80645072D03*
X206752680Y-83185072D03*
D10*
X5715008Y-121285104D03*
X12065008Y-118745104D03*
D11*
X9525008Y-123825104D03*
D12*
X15815008Y-118745104D03*
X1965008Y-121285104D03*
D10*
X321230898Y-121285104D03*
D11*
X325040898Y-123825104D03*
D10*
X327580898Y-118745104D03*
D12*
X331330898Y-118745104D03*
X317480898Y-121285104D03*
D11*
X344090914Y-123825104D03*
D10*
X340280914Y-121285104D03*
X346630914Y-118745104D03*
D12*
X350380914Y-118745104D03*
X336530914Y-121285104D03*
D10*
X39052536Y-83185072D03*
D11*
X42862536Y-85725072D03*
D10*
X45402536Y-80645072D03*
D12*
X49152536Y-80645072D03*
X35302536Y-83185072D03*
D10*
X77152568Y-83185072D03*
D11*
X80962568Y-85725072D03*
D10*
X83502568Y-80645072D03*
D12*
X87252568Y-80645072D03*
X73402568Y-83185072D03*
D10*
X121602600Y-80645072D03*
D11*
X119062600Y-85725072D03*
D10*
X115252600Y-83185072D03*
D12*
X125352600Y-80645072D03*
X111502600Y-83185072D03*
D10*
X159702632Y-80645072D03*
X153352632Y-83185072D03*
D11*
X157162632Y-85725072D03*
D12*
X163452632Y-80645072D03*
X149602632Y-83185072D03*
D10*
X197802664Y-80645072D03*
D11*
X195262664Y-85725072D03*
D10*
X191452664Y-83185072D03*
D12*
X201552664Y-80645072D03*
X187702664Y-83185072D03*
D11*
X233362696Y-85725072D03*
D10*
X235902696Y-80645072D03*
X229552696Y-83185072D03*
D12*
X239652696Y-80645072D03*
X225802696Y-83185072D03*
D13*
X15828314Y-48076557D03*
X15828314Y-50126557D03*
X306928314Y-127126557D03*
X306928314Y-129176557D03*
X53928314Y-47126557D03*
X53928314Y-49176557D03*
X92028314Y-46600040D03*
X92028314Y-48650040D03*
X130128314Y-46176557D03*
X130128314Y-48226557D03*
X168228314Y-46576557D03*
X168228314Y-48626557D03*
X206328314Y-46176557D03*
X206328314Y-48226557D03*
X298328314Y-47976557D03*
X298328314Y-50026557D03*
X317428314Y-47926557D03*
X317428314Y-49976557D03*
X336478314Y-47876557D03*
X336478314Y-49926557D03*
X355528314Y-47826557D03*
X355528314Y-49876557D03*
X38128314Y-48276557D03*
X38128314Y-50326557D03*
X72978314Y-46600040D03*
X72978314Y-48650040D03*
X111078314Y-46126557D03*
X111078314Y-48176557D03*
X149178314Y-46076557D03*
X149178314Y-48126557D03*
X187278314Y-46076557D03*
X187278314Y-48126557D03*
X225328314Y-46076557D03*
X225328314Y-48126557D03*
X244428314Y-46126557D03*
X244428314Y-48176557D03*
X298378314Y-67026557D03*
X298378314Y-69076557D03*
X317378314Y-66976557D03*
X317378314Y-69026557D03*
X336528314Y-66926557D03*
X336528314Y-68976557D03*
X355578314Y-66926557D03*
X355578314Y-68976557D03*
X352028314Y-8500008D03*
X352028314Y-10550008D03*
X19050016Y-11476573D03*
X19050016Y-13526573D03*
X62507865Y-11476573D03*
X62507865Y-13526573D03*
X100607897Y-11476573D03*
X100607897Y-13526573D03*
X144065746Y-11476573D03*
X144065746Y-13526573D03*
X182165778Y-11476573D03*
X182165778Y-13526573D03*
X225623627Y-11476573D03*
X225623627Y-13526573D03*
X263723659Y-11476573D03*
X263723659Y-13526573D03*
X298428314Y-9976557D03*
X298428314Y-12026557D03*
X317328314Y-9776557D03*
X317328314Y-11826557D03*
X333028314Y-8500008D03*
X333028314Y-10550008D03*
X355528314Y-28826557D03*
X355528314Y-30876557D03*
X43457849Y-11476573D03*
X43457849Y-13526573D03*
X81557881Y-11476573D03*
X81557881Y-13526573D03*
X125015730Y-11476573D03*
X125015730Y-13526573D03*
X163115762Y-11476573D03*
X163115762Y-13526573D03*
X206573611Y-11476573D03*
X206573611Y-13526573D03*
X244673643Y-11476573D03*
X244673643Y-13526573D03*
X273028314Y-45776557D03*
X273028314Y-47826557D03*
X298428314Y-28926557D03*
X298428314Y-30976557D03*
X317378314Y-28726557D03*
X317378314Y-30776557D03*
X336478314Y-28776557D03*
X336478314Y-30826557D03*
X173028314Y-103176557D03*
X173028314Y-105226557D03*
X49178314Y-84126557D03*
X49178314Y-86176557D03*
X87278314Y-84076557D03*
X87278314Y-86126557D03*
X125378314Y-84126557D03*
X125378314Y-86176557D03*
X163478314Y-84126557D03*
X163478314Y-86176557D03*
X201578314Y-84126557D03*
X201578314Y-86176557D03*
X239678314Y-84076557D03*
X239678314Y-86126557D03*
X15828314Y-122676557D03*
X15828314Y-124726557D03*
X53878314Y-122676557D03*
X53878314Y-124726557D03*
X187278314Y-122201557D03*
X187278314Y-124251557D03*
X225378314Y-122226557D03*
X225378314Y-124276557D03*
X27828314Y-103626557D03*
X27828314Y-105676557D03*
X58678314Y-103176557D03*
X58678314Y-105226557D03*
X96778314Y-103126557D03*
X96778314Y-105176557D03*
X134878314Y-103176557D03*
X134878314Y-105226557D03*
X355478314Y-115076557D03*
X355478314Y-117126557D03*
X211078314Y-103176557D03*
X211078314Y-105226557D03*
X256328314Y-103126557D03*
X256328314Y-105176557D03*
X34828314Y-122226557D03*
X34828314Y-124276557D03*
X130128314Y-122176557D03*
X130128314Y-124226557D03*
X206328314Y-122176557D03*
X206328314Y-124226557D03*
X244428314Y-122226557D03*
X244428314Y-124276557D03*
X77728314Y-103426557D03*
X77728314Y-105476557D03*
X115828314Y-103176557D03*
X115828314Y-105226557D03*
X153928314Y-103126557D03*
X153928314Y-105176557D03*
X192078314Y-103176557D03*
X192078314Y-105226557D03*
X230128314Y-103176557D03*
X230128314Y-105226557D03*
X287878314Y-108251557D03*
X287878314Y-110301557D03*
X268828314Y-127176557D03*
X268828314Y-129226557D03*
X287878314Y-127126557D03*
X287878314Y-129176557D03*
X196828314Y-65076557D03*
X196828314Y-67126557D03*
X63478314Y-65026557D03*
X63478314Y-67076557D03*
X101478314Y-65126557D03*
X101478314Y-67176557D03*
X139628314Y-65126557D03*
X139628314Y-67176557D03*
X177728314Y-65126557D03*
X177728314Y-67176557D03*
X215878314Y-65126557D03*
X215878314Y-67176557D03*
X253928314Y-65126557D03*
X253928314Y-67176557D03*
X298328314Y-85976557D03*
X298328314Y-88026557D03*
X317378314Y-85926557D03*
X317378314Y-87976557D03*
X336528314Y-85976557D03*
X336528314Y-88026557D03*
X355578314Y-86026557D03*
X355578314Y-88076557D03*
X44428314Y-65526557D03*
X44428314Y-67576557D03*
X82528314Y-65026557D03*
X82528314Y-67076557D03*
X120578314Y-65126557D03*
X120578314Y-67176557D03*
X158678314Y-65126557D03*
X158678314Y-67176557D03*
X20578314Y-65426557D03*
X20578314Y-67476557D03*
X234878314Y-65126557D03*
X234878314Y-67176557D03*
X277778314Y-64726557D03*
X277778314Y-66776557D03*
X298278314Y-104976557D03*
X298278314Y-107026557D03*
X317378314Y-105126557D03*
X317378314Y-107176557D03*
X336478314Y-104926557D03*
X336478314Y-106976557D03*
X22928314Y-84126557D03*
X22928314Y-86176557D03*
X68178314Y-84126557D03*
X68178314Y-86176557D03*
X106328314Y-84126557D03*
X106328314Y-86176557D03*
X144428314Y-84126557D03*
X144428314Y-86176557D03*
X182478314Y-84126557D03*
X182478314Y-86176557D03*
X220628314Y-84076557D03*
X220628314Y-86126557D03*
X270728314Y-84226557D03*
X270728314Y-86276557D03*
X317378314Y-124026557D03*
X317378314Y-126076557D03*
X336478314Y-124026557D03*
X336478314Y-126076557D03*
D14*
X271383000Y-14882800D03*
D15*
X273923000Y-14882800D03*
D14*
X278527000Y-14882800D03*
D15*
X281067000Y-14882800D03*
D14*
X285671000Y-14882800D03*
D15*
X288211000Y-14882800D03*
D16*
X250626000Y-28575000D03*
D17*
X58936000Y-28575000D03*
D18*
X370284000Y1785900D03*
D19*
X33932800Y-28575000D03*
X45839100Y-33932800D03*
X258961000Y-33932800D03*
X287536000Y-28575000D03*
D20*
X2976500Y-132754000D03*
D19*
X58936000Y-133350000D03*
D21*
X87511000Y-138112000D03*
X319087000Y-138112000D03*
D19*
X313730000Y-133350000D03*
X186333000Y-28575000D03*
D22*
X93730000Y-121285000D03*
D23*
X96270000Y-121285000D03*
X93730000Y-123825000D03*
X96270000Y-123825000D03*
X93730000Y-126365000D03*
X96270000Y-126365000D03*
D10*
X262890224Y-45085040D03*
D11*
X278638224Y-55880040D03*
D24*
X254762224Y-40640040D03*
D11*
X254762224Y-55880040D03*
X266700224Y-47625040D03*
D10*
X269240224Y-42545040D03*
D24*
X278638224Y-40640040D03*
D12*
X272990224Y-42545040D03*
X259140224Y-45085040D03*
D10*
X359330930Y-111760096D03*
X365680930Y-109220096D03*
D11*
X363140930Y-114300096D03*
D12*
X369430930Y-109220096D03*
X355580930Y-111760096D03*
D11*
X354885930Y-126238096D03*
X354885930Y-102362096D03*
D24*
X370125930Y-126238096D03*
X370125930Y-102362096D03*
D10*
X260508972Y-83185072D03*
X266858972Y-80645072D03*
D11*
X264318972Y-85725072D03*
D12*
X270608972Y-80645072D03*
X256758972Y-83185072D03*
D11*
X252380972Y-93980072D03*
D24*
X276256972Y-78740072D03*
D11*
X276256972Y-93980072D03*
D24*
X252380972Y-78740072D03*
D10*
X17621268Y-102235088D03*
D11*
X21431268Y-104775088D03*
D10*
X23971268Y-99695088D03*
D12*
X27721268Y-99695088D03*
X13871268Y-102235088D03*
D11*
X33369268Y-113030088D03*
D24*
X33369268Y-97790088D03*
D11*
X9493268Y-113030088D03*
D24*
X9493268Y-97790088D03*
X161925096Y-116840104D03*
D11*
X123825096Y-123825104D03*
X66675096Y-132080104D03*
D10*
X120015096Y-121285104D03*
X126365096Y-118745104D03*
D24*
X66675096Y-116840104D03*
D11*
X161925096Y-132080104D03*
D12*
X130115096Y-118745104D03*
X116265096Y-121285104D03*
D11*
X123825096Y-123825104D03*
D25*
X253350314Y6548443D03*
X250302314Y6548443D03*
X247254314Y6548443D03*
X244206314Y6548443D03*
D26*
X307260882Y-52705040D03*
D27*
X304720882Y-52705040D03*
D26*
X364410930Y-33655024D03*
D27*
X361870930Y-33655024D03*
D26*
X17938764Y-90805072D03*
D27*
X15398764Y-90805072D03*
D28*
X267700224Y-1190626D03*
X265700224Y-1190626D03*
X267700224Y-4167191D03*
X265700224Y-4167191D03*
X288917431Y4762504D03*
X290917431Y4762504D03*
D29*
X265600224Y-6548443D03*
X267800224Y-6548443D03*
X273158041Y-11310947D03*
X270958041Y-11310947D03*
D30*
X275797000Y937500D03*
X276597000Y937500D03*
X277397000Y937500D03*
X278197000Y937500D03*
X278997000Y937500D03*
X279797000Y937500D03*
X280597000Y937500D03*
X281397000Y937500D03*
X282197000Y937500D03*
X282997000Y937500D03*
X283797000Y937500D03*
D31*
X285497000Y-762500D03*
X285497000Y-1562500D03*
X285497000Y-2362500D03*
X285497000Y-3162500D03*
X285497000Y-3962500D03*
X285497000Y-4762500D03*
X285497000Y-5562500D03*
X285497000Y-6362500D03*
X285497000Y-7162500D03*
X285497000Y-7962500D03*
X285497000Y-8762500D03*
D30*
X283797000Y-10462500D03*
X282997000Y-10462500D03*
X282197000Y-10462500D03*
X281397000Y-10462500D03*
X280597000Y-10462500D03*
X279797000Y-10462500D03*
X278997000Y-10462500D03*
X278197000Y-10462500D03*
X277397000Y-10462500D03*
X276597000Y-10462500D03*
X275797000Y-10462500D03*
D31*
X274097000Y-8762500D03*
X274097000Y-7962500D03*
X274097000Y-7162500D03*
X274097000Y-6362500D03*
X274097000Y-5562500D03*
X274097000Y-4762500D03*
X274097000Y-3962500D03*
X274097000Y-3162500D03*
X274097000Y-2362500D03*
X274097000Y-1562500D03*
X274097000Y-762500D03*
D32*
X292298683Y-5367191D03*
X292298683Y-2967191D03*
X292298683Y-4167191D03*
D29*
X273753000Y-18454700D03*
X271553000Y-18454700D03*
X280897000Y-18454700D03*
X278697000Y-18454700D03*
X285841000Y-18454700D03*
X288041000Y-18454700D03*
D33*
X187342000Y4762500D03*
X182942000Y4762500D03*
D34*
X183542000Y1932500D03*
X184342000Y1932500D03*
X185152000Y1932500D03*
X185942000Y1932500D03*
X186742000Y1932500D03*
D35*
X180692000Y2182500D03*
X180692000Y7632500D03*
X189592000Y7632500D03*
X189592000Y2182500D03*
D33*
X129778000Y1967200D03*
X129778000Y6367200D03*
D36*
X132608000Y2567200D03*
X132608000Y3367200D03*
X132608000Y4177200D03*
X132608000Y4967200D03*
X132608000Y5767200D03*
D37*
X132358000Y-282800D03*
X132358000Y8617200D03*
X126908000Y-282800D03*
X126908000Y8617200D03*
D33*
X76795300Y1967200D03*
X76795300Y6367200D03*
D36*
X73965300Y5767200D03*
X73965300Y4967200D03*
X73965300Y4157200D03*
X73965300Y3367200D03*
X73965300Y2567200D03*
D37*
X74215300Y-282800D03*
X79665300Y-282800D03*
X79665300Y8617200D03*
X74215300Y8617200D03*
D28*
X267700224Y1785939D03*
X265700224Y1785939D03*
D29*
X211426741Y0D03*
X213626741Y0D03*
X211426741Y1785939D03*
X213626741Y1785939D03*
D28*
X280797110Y4762504D03*
X278797110Y4762504D03*
X294870561Y4762504D03*
X296870561Y4762504D03*
D38*
X258898635Y5357817D03*
M02*
