G04 #@! TF.GenerationSoftware,KiCad,Pcbnew,(5.99.0-7511-ga134567838)*
G04 #@! TF.CreationDate,2020-12-30T19:04:14-08:00*
G04 #@! TF.ProjectId,gh80-1800,67683830-2d31-4383-9030-2e6b69636164,rev?*
G04 #@! TF.SameCoordinates,Original*
G04 #@! TF.FileFunction,Legend,Top*
G04 #@! TF.FilePolarity,Positive*
%FSLAX46Y46*%
G04 Gerber Fmt 4.6, Leading zero omitted, Abs format (unit mm)*
G04 Created by KiCad (PCBNEW (5.99.0-7511-ga134567838)) date 2020-12-30 19:04:14*
%MOMM*%
%LPD*%
G01*
G04 APERTURE LIST*
%ADD10C,0.500000*%
%ADD11C,0.200000*%
%ADD12C,0.150000*%
%ADD13C,0.300000*%
%ADD14C,0.120000*%
G04 APERTURE END LIST*
D10*
X277916409Y-134856318D02*
X277916409Y-132856318D01*
X278392599Y-132856318D01*
X278678314Y-132951557D01*
X278868790Y-133142033D01*
X278964028Y-133332509D01*
X279059266Y-133713461D01*
X279059266Y-133999176D01*
X278964028Y-134380128D01*
X278868790Y-134570604D01*
X278678314Y-134761080D01*
X278392599Y-134856318D01*
X277916409Y-134856318D01*
X280297361Y-132856318D02*
X280678314Y-132856318D01*
X280868790Y-132951557D01*
X281059266Y-133142033D01*
X281154504Y-133522985D01*
X281154504Y-134189652D01*
X281059266Y-134570604D01*
X280868790Y-134761080D01*
X280678314Y-134856318D01*
X280297361Y-134856318D01*
X280106885Y-134761080D01*
X279916409Y-134570604D01*
X279821171Y-134189652D01*
X279821171Y-133522985D01*
X279916409Y-133142033D01*
X280106885Y-132951557D01*
X280297361Y-132856318D01*
X281821171Y-132856318D02*
X282297361Y-134856318D01*
X282678314Y-133427747D01*
X283059266Y-134856318D01*
X283535456Y-132856318D01*
X284297361Y-134856318D02*
X284297361Y-132856318D01*
X285440218Y-134856318D01*
X285440218Y-132856318D01*
X354318790Y-38961080D02*
X354604504Y-39056318D01*
X355080694Y-39056318D01*
X355271171Y-38961080D01*
X355366409Y-38865842D01*
X355461647Y-38675366D01*
X355461647Y-38484890D01*
X355366409Y-38294414D01*
X355271171Y-38199176D01*
X355080694Y-38103937D01*
X354699742Y-38008699D01*
X354509266Y-37913461D01*
X354414028Y-37818223D01*
X354318790Y-37627747D01*
X354318790Y-37437271D01*
X354414028Y-37246795D01*
X354509266Y-37151557D01*
X354699742Y-37056318D01*
X355175933Y-37056318D01*
X355461647Y-37151557D01*
X357461647Y-38865842D02*
X357366409Y-38961080D01*
X357080694Y-39056318D01*
X356890218Y-39056318D01*
X356604504Y-38961080D01*
X356414028Y-38770604D01*
X356318790Y-38580128D01*
X356223552Y-38199176D01*
X356223552Y-37913461D01*
X356318790Y-37532509D01*
X356414028Y-37342033D01*
X356604504Y-37151557D01*
X356890218Y-37056318D01*
X357080694Y-37056318D01*
X357366409Y-37151557D01*
X357461647Y-37246795D01*
X359461647Y-39056318D02*
X358794980Y-38103937D01*
X358318790Y-39056318D02*
X358318790Y-37056318D01*
X359080694Y-37056318D01*
X359271171Y-37151557D01*
X359366409Y-37246795D01*
X359461647Y-37437271D01*
X359461647Y-37722985D01*
X359366409Y-37913461D01*
X359271171Y-38008699D01*
X359080694Y-38103937D01*
X358318790Y-38103937D01*
X360699742Y-37056318D02*
X361080694Y-37056318D01*
X361271171Y-37151557D01*
X361461647Y-37342033D01*
X361556885Y-37722985D01*
X361556885Y-38389652D01*
X361461647Y-38770604D01*
X361271171Y-38961080D01*
X361080694Y-39056318D01*
X360699742Y-39056318D01*
X360509266Y-38961080D01*
X360318790Y-38770604D01*
X360223552Y-38389652D01*
X360223552Y-37722985D01*
X360318790Y-37342033D01*
X360509266Y-37151557D01*
X360699742Y-37056318D01*
X363366409Y-39056318D02*
X362414028Y-39056318D01*
X362414028Y-37056318D01*
X364985456Y-39056318D02*
X364033075Y-39056318D01*
X364033075Y-37056318D01*
X368128314Y-39056318D02*
X367175933Y-39056318D01*
X367175933Y-37056318D01*
X369937837Y-38865842D02*
X369842599Y-38961080D01*
X369556885Y-39056318D01*
X369366409Y-39056318D01*
X369080694Y-38961080D01*
X368890218Y-38770604D01*
X368794980Y-38580128D01*
X368699742Y-38199176D01*
X368699742Y-37913461D01*
X368794980Y-37532509D01*
X368890218Y-37342033D01*
X369080694Y-37151557D01*
X369366409Y-37056318D01*
X369556885Y-37056318D01*
X369842599Y-37151557D01*
X369937837Y-37246795D01*
X370794980Y-39056318D02*
X370794980Y-37056318D01*
X371937837Y-39056318D02*
X371080694Y-37913461D01*
X371937837Y-37056318D02*
X370794980Y-38199176D01*
X340556885Y-39056318D02*
X340556885Y-37056318D01*
X341318790Y-37056318D01*
X341509266Y-37151557D01*
X341604504Y-37246795D01*
X341699742Y-37437271D01*
X341699742Y-37722985D01*
X341604504Y-37913461D01*
X341509266Y-38008699D01*
X341318790Y-38103937D01*
X340556885Y-38103937D01*
X343604504Y-37151557D02*
X343414028Y-37056318D01*
X343128314Y-37056318D01*
X342842599Y-37151557D01*
X342652123Y-37342033D01*
X342556885Y-37532509D01*
X342461647Y-37913461D01*
X342461647Y-38199176D01*
X342556885Y-38580128D01*
X342652123Y-38770604D01*
X342842599Y-38961080D01*
X343128314Y-39056318D01*
X343318790Y-39056318D01*
X343604504Y-38961080D01*
X343699742Y-38865842D01*
X343699742Y-38199176D01*
X343318790Y-38199176D01*
X344556885Y-39056318D02*
X344556885Y-37056318D01*
X345033075Y-37056318D01*
X345318790Y-37151557D01*
X345509266Y-37342033D01*
X345604504Y-37532509D01*
X345699742Y-37913461D01*
X345699742Y-38199176D01*
X345604504Y-38580128D01*
X345509266Y-38770604D01*
X345318790Y-38961080D01*
X345033075Y-39056318D01*
X344556885Y-39056318D01*
X346556885Y-39056318D02*
X346556885Y-37056318D01*
X347699742Y-39056318D01*
X347699742Y-37056318D01*
X322552123Y-38008699D02*
X323218790Y-38008699D01*
X323504504Y-39056318D02*
X322552123Y-39056318D01*
X322552123Y-37056318D01*
X323504504Y-37056318D01*
X324361647Y-39056318D02*
X324361647Y-37056318D01*
X325504504Y-39056318D01*
X325504504Y-37056318D01*
X326456885Y-39056318D02*
X326456885Y-37056318D01*
X326933075Y-37056318D01*
X327218790Y-37151557D01*
X327409266Y-37342033D01*
X327504504Y-37532509D01*
X327599742Y-37913461D01*
X327599742Y-38199176D01*
X327504504Y-38580128D01*
X327409266Y-38770604D01*
X327218790Y-38961080D01*
X326933075Y-39056318D01*
X326456885Y-39056318D01*
X303790218Y-39056318D02*
X303790218Y-37056318D01*
X304266409Y-37056318D01*
X304552123Y-37151557D01*
X304742599Y-37342033D01*
X304837837Y-37532509D01*
X304933075Y-37913461D01*
X304933075Y-38199176D01*
X304837837Y-38580128D01*
X304742599Y-38770604D01*
X304552123Y-38961080D01*
X304266409Y-39056318D01*
X303790218Y-39056318D01*
X305790218Y-38008699D02*
X306456885Y-38008699D01*
X306742599Y-39056318D02*
X305790218Y-39056318D01*
X305790218Y-37056318D01*
X306742599Y-37056318D01*
X308552123Y-39056318D02*
X307599742Y-39056318D01*
X307599742Y-37056318D01*
X358942599Y-58106318D02*
X358942599Y-56106318D01*
X359704504Y-56106318D01*
X359894980Y-56201557D01*
X359990218Y-56296795D01*
X360085456Y-56487271D01*
X360085456Y-56772985D01*
X359990218Y-56963461D01*
X359894980Y-57058699D01*
X359704504Y-57153937D01*
X358942599Y-57153937D01*
X360847361Y-57534890D02*
X361799742Y-57534890D01*
X360656885Y-58106318D02*
X361323552Y-56106318D01*
X361990218Y-58106318D01*
X362656885Y-56106318D02*
X362656885Y-57725366D01*
X362752123Y-57915842D01*
X362847361Y-58011080D01*
X363037837Y-58106318D01*
X363418790Y-58106318D01*
X363609266Y-58011080D01*
X363704504Y-57915842D01*
X363799742Y-57725366D01*
X363799742Y-56106318D01*
X364656885Y-58011080D02*
X364942599Y-58106318D01*
X365418790Y-58106318D01*
X365609266Y-58011080D01*
X365704504Y-57915842D01*
X365799742Y-57725366D01*
X365799742Y-57534890D01*
X365704504Y-57344414D01*
X365609266Y-57249176D01*
X365418790Y-57153937D01*
X365037837Y-57058699D01*
X364847361Y-56963461D01*
X364752123Y-56868223D01*
X364656885Y-56677747D01*
X364656885Y-56487271D01*
X364752123Y-56296795D01*
X364847361Y-56201557D01*
X365037837Y-56106318D01*
X365514028Y-56106318D01*
X365799742Y-56201557D01*
X366656885Y-57058699D02*
X367323552Y-57058699D01*
X367609266Y-58106318D02*
X366656885Y-58106318D01*
X366656885Y-56106318D01*
X367609266Y-56106318D01*
X344178314Y-56106318D02*
X344178314Y-56582509D01*
X343702123Y-56392033D02*
X344178314Y-56582509D01*
X344654504Y-56392033D01*
X343892599Y-56963461D02*
X344178314Y-56582509D01*
X344464028Y-56963461D01*
X325935456Y-56011080D02*
X324221171Y-58582509D01*
X299594980Y-58106318D02*
X299594980Y-56106318D01*
X300737837Y-58106318D01*
X300737837Y-56106318D01*
X301690218Y-56106318D02*
X301690218Y-57725366D01*
X301785456Y-57915842D01*
X301880694Y-58011080D01*
X302071171Y-58106318D01*
X302452123Y-58106318D01*
X302642599Y-58011080D01*
X302737837Y-57915842D01*
X302833075Y-57725366D01*
X302833075Y-56106318D01*
X303785456Y-58106318D02*
X303785456Y-56106318D01*
X304452123Y-57534890D01*
X305118790Y-56106318D01*
X305118790Y-58106318D01*
X308547361Y-58106318D02*
X307594980Y-58106318D01*
X307594980Y-56106318D01*
X310356885Y-57915842D02*
X310261647Y-58011080D01*
X309975933Y-58106318D01*
X309785456Y-58106318D01*
X309499742Y-58011080D01*
X309309266Y-57820604D01*
X309214028Y-57630128D01*
X309118790Y-57249176D01*
X309118790Y-56963461D01*
X309214028Y-56582509D01*
X309309266Y-56392033D01*
X309499742Y-56201557D01*
X309785456Y-56106318D01*
X309975933Y-56106318D01*
X310261647Y-56201557D01*
X310356885Y-56296795D01*
X311214028Y-58106318D02*
X311214028Y-56106318D01*
X312356885Y-58106318D02*
X311499742Y-56963461D01*
X312356885Y-56106318D02*
X311214028Y-57249176D01*
X362316409Y-76344414D02*
X363840218Y-76344414D01*
X343697361Y-77106318D02*
X344078314Y-77106318D01*
X344268790Y-77011080D01*
X344364028Y-76915842D01*
X344554504Y-76630128D01*
X344649742Y-76249176D01*
X344649742Y-75487271D01*
X344554504Y-75296795D01*
X344459266Y-75201557D01*
X344268790Y-75106318D01*
X343887837Y-75106318D01*
X343697361Y-75201557D01*
X343602123Y-75296795D01*
X343506885Y-75487271D01*
X343506885Y-75963461D01*
X343602123Y-76153937D01*
X343697361Y-76249176D01*
X343887837Y-76344414D01*
X344268790Y-76344414D01*
X344459266Y-76249176D01*
X344554504Y-76153937D01*
X344649742Y-75963461D01*
X324837837Y-75963461D02*
X324647361Y-75868223D01*
X324552123Y-75772985D01*
X324456885Y-75582509D01*
X324456885Y-75487271D01*
X324552123Y-75296795D01*
X324647361Y-75201557D01*
X324837837Y-75106318D01*
X325218790Y-75106318D01*
X325409266Y-75201557D01*
X325504504Y-75296795D01*
X325599742Y-75487271D01*
X325599742Y-75582509D01*
X325504504Y-75772985D01*
X325409266Y-75868223D01*
X325218790Y-75963461D01*
X324837837Y-75963461D01*
X324647361Y-76058699D01*
X324552123Y-76153937D01*
X324456885Y-76344414D01*
X324456885Y-76725366D01*
X324552123Y-76915842D01*
X324647361Y-77011080D01*
X324837837Y-77106318D01*
X325218790Y-77106318D01*
X325409266Y-77011080D01*
X325504504Y-76915842D01*
X325599742Y-76725366D01*
X325599742Y-76344414D01*
X325504504Y-76153937D01*
X325409266Y-76058699D01*
X325218790Y-75963461D01*
X305261647Y-75106318D02*
X306594980Y-75106318D01*
X305737837Y-77106318D01*
X362366409Y-95444414D02*
X363890218Y-95444414D01*
X363128314Y-96206318D02*
X363128314Y-94682509D01*
X344509266Y-94206318D02*
X344128314Y-94206318D01*
X343937837Y-94301557D01*
X343842599Y-94396795D01*
X343652123Y-94682509D01*
X343556885Y-95063461D01*
X343556885Y-95825366D01*
X343652123Y-96015842D01*
X343747361Y-96111080D01*
X343937837Y-96206318D01*
X344318790Y-96206318D01*
X344509266Y-96111080D01*
X344604504Y-96015842D01*
X344699742Y-95825366D01*
X344699742Y-95349176D01*
X344604504Y-95158699D01*
X344509266Y-95063461D01*
X344318790Y-94968223D01*
X343937837Y-94968223D01*
X343747361Y-95063461D01*
X343652123Y-95158699D01*
X343556885Y-95349176D01*
X325404504Y-94206318D02*
X324452123Y-94206318D01*
X324356885Y-95158699D01*
X324452123Y-95063461D01*
X324642599Y-94968223D01*
X325118790Y-94968223D01*
X325309266Y-95063461D01*
X325404504Y-95158699D01*
X325499742Y-95349176D01*
X325499742Y-95825366D01*
X325404504Y-96015842D01*
X325309266Y-96111080D01*
X325118790Y-96206318D01*
X324642599Y-96206318D01*
X324452123Y-96111080D01*
X324356885Y-96015842D01*
X306309266Y-94872985D02*
X306309266Y-96206318D01*
X305833075Y-94111080D02*
X305356885Y-95539652D01*
X306594980Y-95539652D01*
X359035456Y-133208699D02*
X359702123Y-133208699D01*
X359987837Y-134256318D02*
X359035456Y-134256318D01*
X359035456Y-132256318D01*
X359987837Y-132256318D01*
X360844980Y-134256318D02*
X360844980Y-132256318D01*
X361987837Y-134256318D01*
X361987837Y-132256318D01*
X362654504Y-132256318D02*
X363797361Y-132256318D01*
X363225933Y-134256318D02*
X363225933Y-132256318D01*
X364464028Y-133208699D02*
X365130694Y-133208699D01*
X365416409Y-134256318D02*
X364464028Y-134256318D01*
X364464028Y-132256318D01*
X365416409Y-132256318D01*
X367416409Y-134256318D02*
X366749742Y-133303937D01*
X366273552Y-134256318D02*
X366273552Y-132256318D01*
X367035456Y-132256318D01*
X367225933Y-132351557D01*
X367321171Y-132446795D01*
X367416409Y-132637271D01*
X367416409Y-132922985D01*
X367321171Y-133113461D01*
X367225933Y-133208699D01*
X367035456Y-133303937D01*
X366273552Y-133303937D01*
X344078314Y-134115842D02*
X344173552Y-134211080D01*
X344078314Y-134306318D01*
X343983075Y-134211080D01*
X344078314Y-134115842D01*
X344078314Y-134306318D01*
X324933075Y-132306318D02*
X325123552Y-132306318D01*
X325314028Y-132401557D01*
X325409266Y-132496795D01*
X325504504Y-132687271D01*
X325599742Y-133068223D01*
X325599742Y-133544414D01*
X325504504Y-133925366D01*
X325409266Y-134115842D01*
X325314028Y-134211080D01*
X325123552Y-134306318D01*
X324933075Y-134306318D01*
X324742599Y-134211080D01*
X324647361Y-134115842D01*
X324552123Y-133925366D01*
X324456885Y-133544414D01*
X324456885Y-133068223D01*
X324552123Y-132687271D01*
X324647361Y-132496795D01*
X324742599Y-132401557D01*
X324933075Y-132306318D01*
X343511647Y-113306318D02*
X344749742Y-113306318D01*
X344083075Y-114068223D01*
X344368790Y-114068223D01*
X344559266Y-114163461D01*
X344654504Y-114258699D01*
X344749742Y-114449176D01*
X344749742Y-114925366D01*
X344654504Y-115115842D01*
X344559266Y-115211080D01*
X344368790Y-115306318D01*
X343797361Y-115306318D01*
X343606885Y-115211080D01*
X343511647Y-115115842D01*
X324506885Y-113496795D02*
X324602123Y-113401557D01*
X324792599Y-113306318D01*
X325268790Y-113306318D01*
X325459266Y-113401557D01*
X325554504Y-113496795D01*
X325649742Y-113687271D01*
X325649742Y-113877747D01*
X325554504Y-114163461D01*
X324411647Y-115306318D01*
X325649742Y-115306318D01*
X306599742Y-115306318D02*
X305456885Y-115306318D01*
X306028314Y-115306318D02*
X306028314Y-113306318D01*
X305837837Y-113592033D01*
X305647361Y-113782509D01*
X305456885Y-113877747D01*
X249223552Y-130606318D02*
X248271171Y-130606318D01*
X248271171Y-128606318D01*
X249890218Y-129558699D02*
X250556885Y-129558699D01*
X250842599Y-130606318D02*
X249890218Y-130606318D01*
X249890218Y-128606318D01*
X250842599Y-128606318D01*
X252366409Y-129558699D02*
X251699742Y-129558699D01*
X251699742Y-130606318D02*
X251699742Y-128606318D01*
X252652123Y-128606318D01*
X253128314Y-128606318D02*
X254271171Y-128606318D01*
X253699742Y-130606318D02*
X253699742Y-128606318D01*
X309961647Y-130606318D02*
X309294980Y-129653937D01*
X308818790Y-130606318D02*
X308818790Y-128606318D01*
X309580694Y-128606318D01*
X309771171Y-128701557D01*
X309866409Y-128796795D01*
X309961647Y-128987271D01*
X309961647Y-129272985D01*
X309866409Y-129463461D01*
X309771171Y-129558699D01*
X309580694Y-129653937D01*
X308818790Y-129653937D01*
X310818790Y-130606318D02*
X310818790Y-128606318D01*
X312818790Y-128701557D02*
X312628314Y-128606318D01*
X312342599Y-128606318D01*
X312056885Y-128701557D01*
X311866409Y-128892033D01*
X311771171Y-129082509D01*
X311675933Y-129463461D01*
X311675933Y-129749176D01*
X311771171Y-130130128D01*
X311866409Y-130320604D01*
X312056885Y-130511080D01*
X312342599Y-130606318D01*
X312533075Y-130606318D01*
X312818790Y-130511080D01*
X312914028Y-130415842D01*
X312914028Y-129749176D01*
X312533075Y-129749176D01*
X313771171Y-130606318D02*
X313771171Y-128606318D01*
X313771171Y-129558699D02*
X314914028Y-129558699D01*
X314914028Y-130606318D02*
X314914028Y-128606318D01*
X315580694Y-128606318D02*
X316723552Y-128606318D01*
X316152123Y-130606318D02*
X316152123Y-128606318D01*
X280106885Y-118606318D02*
X280106885Y-120225366D01*
X280202123Y-120415842D01*
X280297361Y-120511080D01*
X280487837Y-120606318D01*
X280868790Y-120606318D01*
X281059266Y-120511080D01*
X281154504Y-120415842D01*
X281249742Y-120225366D01*
X281249742Y-118606318D01*
X282202123Y-120606318D02*
X282202123Y-118606318D01*
X282964028Y-118606318D01*
X283154504Y-118701557D01*
X283249742Y-118796795D01*
X283344980Y-118987271D01*
X283344980Y-119272985D01*
X283249742Y-119463461D01*
X283154504Y-119558699D01*
X282964028Y-119653937D01*
X282202123Y-119653937D01*
X236275933Y-134115842D02*
X236180694Y-134211080D01*
X235894980Y-134306318D01*
X235704504Y-134306318D01*
X235418790Y-134211080D01*
X235228314Y-134020604D01*
X235133075Y-133830128D01*
X235037837Y-133449176D01*
X235037837Y-133163461D01*
X235133075Y-132782509D01*
X235228314Y-132592033D01*
X235418790Y-132401557D01*
X235704504Y-132306318D01*
X235894980Y-132306318D01*
X236180694Y-132401557D01*
X236275933Y-132496795D01*
X236847361Y-132306318D02*
X237990218Y-132306318D01*
X237418790Y-134306318D02*
X237418790Y-132306318D01*
X239799742Y-134306318D02*
X239133075Y-133353937D01*
X238656885Y-134306318D02*
X238656885Y-132306318D01*
X239418790Y-132306318D01*
X239609266Y-132401557D01*
X239704504Y-132496795D01*
X239799742Y-132687271D01*
X239799742Y-132972985D01*
X239704504Y-133163461D01*
X239609266Y-133258699D01*
X239418790Y-133353937D01*
X238656885Y-133353937D01*
X241609266Y-134306318D02*
X240656885Y-134306318D01*
X240656885Y-132306318D01*
X215506885Y-133258699D02*
X214840218Y-133258699D01*
X214840218Y-134306318D02*
X214840218Y-132306318D01*
X215792599Y-132306318D01*
X216554504Y-134306318D02*
X216554504Y-132306318D01*
X217697361Y-134306318D01*
X217697361Y-132306318D01*
X219792599Y-134115842D02*
X219697361Y-134211080D01*
X219411647Y-134306318D01*
X219221171Y-134306318D01*
X218935456Y-134211080D01*
X218744980Y-134020604D01*
X218649742Y-133830128D01*
X218554504Y-133449176D01*
X218554504Y-133163461D01*
X218649742Y-132782509D01*
X218744980Y-132592033D01*
X218935456Y-132401557D01*
X219221171Y-132306318D01*
X219411647Y-132306318D01*
X219697361Y-132401557D01*
X219792599Y-132496795D01*
X220364028Y-132306318D02*
X221506885Y-132306318D01*
X220935456Y-134306318D02*
X220935456Y-132306318D01*
X222173552Y-134306318D02*
X222173552Y-132306318D01*
X223316409Y-134306318D01*
X223316409Y-132306318D01*
X197597361Y-134211080D02*
X197883075Y-134306318D01*
X198359266Y-134306318D01*
X198549742Y-134211080D01*
X198644980Y-134115842D01*
X198740218Y-133925366D01*
X198740218Y-133734890D01*
X198644980Y-133544414D01*
X198549742Y-133449176D01*
X198359266Y-133353937D01*
X197978314Y-133258699D01*
X197787837Y-133163461D01*
X197692599Y-133068223D01*
X197597361Y-132877747D01*
X197597361Y-132687271D01*
X197692599Y-132496795D01*
X197787837Y-132401557D01*
X197978314Y-132306318D01*
X198454504Y-132306318D01*
X198740218Y-132401557D01*
X199978314Y-133353937D02*
X199978314Y-134306318D01*
X199311647Y-132306318D02*
X199978314Y-133353937D01*
X200644980Y-132306318D01*
X201216409Y-134211080D02*
X201502123Y-134306318D01*
X201978314Y-134306318D01*
X202168790Y-134211080D01*
X202264028Y-134115842D01*
X202359266Y-133925366D01*
X202359266Y-133734890D01*
X202264028Y-133544414D01*
X202168790Y-133449176D01*
X201978314Y-133353937D01*
X201597361Y-133258699D01*
X201406885Y-133163461D01*
X201311647Y-133068223D01*
X201216409Y-132877747D01*
X201216409Y-132687271D01*
X201311647Y-132496795D01*
X201406885Y-132401557D01*
X201597361Y-132306318D01*
X202073552Y-132306318D01*
X202359266Y-132401557D01*
X178406885Y-134306318D02*
X177740218Y-133353937D01*
X177264028Y-134306318D02*
X177264028Y-132306318D01*
X178025933Y-132306318D01*
X178216409Y-132401557D01*
X178311647Y-132496795D01*
X178406885Y-132687271D01*
X178406885Y-132972985D01*
X178311647Y-133163461D01*
X178216409Y-133258699D01*
X178025933Y-133353937D01*
X177264028Y-133353937D01*
X180692599Y-133734890D02*
X181644980Y-133734890D01*
X180502123Y-134306318D02*
X181168790Y-132306318D01*
X181835456Y-134306318D01*
X183454504Y-134306318D02*
X182502123Y-134306318D01*
X182502123Y-132306318D01*
X183835456Y-132306318D02*
X184978314Y-132306318D01*
X184406885Y-134306318D02*
X184406885Y-132306318D01*
X117585456Y-132306318D02*
X117204504Y-132306318D01*
X117014028Y-132401557D01*
X116918790Y-132496795D01*
X116728314Y-132782509D01*
X116633075Y-133163461D01*
X116633075Y-133925366D01*
X116728314Y-134115842D01*
X116823552Y-134211080D01*
X117014028Y-134306318D01*
X117394980Y-134306318D01*
X117585456Y-134211080D01*
X117680694Y-134115842D01*
X117775933Y-133925366D01*
X117775933Y-133449176D01*
X117680694Y-133258699D01*
X117585456Y-133163461D01*
X117394980Y-133068223D01*
X117014028Y-133068223D01*
X116823552Y-133163461D01*
X116728314Y-133258699D01*
X116633075Y-133449176D01*
X118633075Y-132306318D02*
X118633075Y-133925366D01*
X118728314Y-134115842D01*
X118823552Y-134211080D01*
X119014028Y-134306318D01*
X119394980Y-134306318D01*
X119585456Y-134211080D01*
X119680694Y-134115842D01*
X119775933Y-133925366D01*
X119775933Y-132306318D01*
X122156885Y-134211080D02*
X122442599Y-134306318D01*
X122918790Y-134306318D01*
X123109266Y-134211080D01*
X123204504Y-134115842D01*
X123299742Y-133925366D01*
X123299742Y-133734890D01*
X123204504Y-133544414D01*
X123109266Y-133449176D01*
X122918790Y-133353937D01*
X122537837Y-133258699D01*
X122347361Y-133163461D01*
X122252123Y-133068223D01*
X122156885Y-132877747D01*
X122156885Y-132687271D01*
X122252123Y-132496795D01*
X122347361Y-132401557D01*
X122537837Y-132306318D01*
X123014028Y-132306318D01*
X123299742Y-132401557D01*
X124156885Y-134306318D02*
X124156885Y-132306318D01*
X124918790Y-132306318D01*
X125109266Y-132401557D01*
X125204504Y-132496795D01*
X125299742Y-132687271D01*
X125299742Y-132972985D01*
X125204504Y-133163461D01*
X125109266Y-133258699D01*
X124918790Y-133353937D01*
X124156885Y-133353937D01*
X126061647Y-133734890D02*
X127014028Y-133734890D01*
X125871171Y-134306318D02*
X126537837Y-132306318D01*
X127204504Y-134306318D01*
X129014028Y-134115842D02*
X128918790Y-134211080D01*
X128633075Y-134306318D01*
X128442599Y-134306318D01*
X128156885Y-134211080D01*
X127966409Y-134020604D01*
X127871171Y-133830128D01*
X127775933Y-133449176D01*
X127775933Y-133163461D01*
X127871171Y-132782509D01*
X127966409Y-132592033D01*
X128156885Y-132401557D01*
X128442599Y-132306318D01*
X128633075Y-132306318D01*
X128918790Y-132401557D01*
X129014028Y-132496795D01*
X129871171Y-133258699D02*
X130537837Y-133258699D01*
X130823552Y-134306318D02*
X129871171Y-134306318D01*
X129871171Y-132306318D01*
X130823552Y-132306318D01*
X45106885Y-134306318D02*
X44154504Y-134306318D01*
X44154504Y-132306318D01*
X47202123Y-133734890D02*
X48154504Y-133734890D01*
X47011647Y-134306318D02*
X47678314Y-132306318D01*
X48344980Y-134306318D01*
X49964028Y-134306318D02*
X49011647Y-134306318D01*
X49011647Y-132306318D01*
X50344980Y-132306318D02*
X51487837Y-132306318D01*
X50916409Y-134306318D02*
X50916409Y-132306318D01*
X26247361Y-134211080D02*
X26533075Y-134306318D01*
X27009266Y-134306318D01*
X27199742Y-134211080D01*
X27294980Y-134115842D01*
X27390218Y-133925366D01*
X27390218Y-133734890D01*
X27294980Y-133544414D01*
X27199742Y-133449176D01*
X27009266Y-133353937D01*
X26628314Y-133258699D01*
X26437837Y-133163461D01*
X26342599Y-133068223D01*
X26247361Y-132877747D01*
X26247361Y-132687271D01*
X26342599Y-132496795D01*
X26437837Y-132401557D01*
X26628314Y-132306318D01*
X27104504Y-132306318D01*
X27390218Y-132401557D01*
X28628314Y-133353937D02*
X28628314Y-134306318D01*
X27961647Y-132306318D02*
X28628314Y-133353937D01*
X29294980Y-132306318D01*
X29866409Y-134211080D02*
X30152123Y-134306318D01*
X30628314Y-134306318D01*
X30818790Y-134211080D01*
X30914028Y-134115842D01*
X31009266Y-133925366D01*
X31009266Y-133734890D01*
X30914028Y-133544414D01*
X30818790Y-133449176D01*
X30628314Y-133353937D01*
X30247361Y-133258699D01*
X30056885Y-133163461D01*
X29961647Y-133068223D01*
X29866409Y-132877747D01*
X29866409Y-132687271D01*
X29961647Y-132496795D01*
X30056885Y-132401557D01*
X30247361Y-132306318D01*
X30723552Y-132306318D01*
X31009266Y-132401557D01*
X7575933Y-134115842D02*
X7480694Y-134211080D01*
X7194980Y-134306318D01*
X7004504Y-134306318D01*
X6718790Y-134211080D01*
X6528314Y-134020604D01*
X6433075Y-133830128D01*
X6337837Y-133449176D01*
X6337837Y-133163461D01*
X6433075Y-132782509D01*
X6528314Y-132592033D01*
X6718790Y-132401557D01*
X7004504Y-132306318D01*
X7194980Y-132306318D01*
X7480694Y-132401557D01*
X7575933Y-132496795D01*
X8147361Y-132306318D02*
X9290218Y-132306318D01*
X8718790Y-134306318D02*
X8718790Y-132306318D01*
X11099742Y-134306318D02*
X10433075Y-133353937D01*
X9956885Y-134306318D02*
X9956885Y-132306318D01*
X10718790Y-132306318D01*
X10909266Y-132401557D01*
X11004504Y-132496795D01*
X11099742Y-132687271D01*
X11099742Y-132972985D01*
X11004504Y-133163461D01*
X10909266Y-133258699D01*
X10718790Y-133353937D01*
X9956885Y-133353937D01*
X12909266Y-134306318D02*
X11956885Y-134306318D01*
X11956885Y-132306318D01*
X245840218Y-115306318D02*
X245173552Y-114353937D01*
X244697361Y-115306318D02*
X244697361Y-113306318D01*
X245459266Y-113306318D01*
X245649742Y-113401557D01*
X245744980Y-113496795D01*
X245840218Y-113687271D01*
X245840218Y-113972985D01*
X245744980Y-114163461D01*
X245649742Y-114258699D01*
X245459266Y-114353937D01*
X244697361Y-114353937D01*
X248125933Y-115211080D02*
X248411647Y-115306318D01*
X248887837Y-115306318D01*
X249078314Y-115211080D01*
X249173552Y-115115842D01*
X249268790Y-114925366D01*
X249268790Y-114734890D01*
X249173552Y-114544414D01*
X249078314Y-114449176D01*
X248887837Y-114353937D01*
X248506885Y-114258699D01*
X248316409Y-114163461D01*
X248221171Y-114068223D01*
X248125933Y-113877747D01*
X248125933Y-113687271D01*
X248221171Y-113496795D01*
X248316409Y-113401557D01*
X248506885Y-113306318D01*
X248983075Y-113306318D01*
X249268790Y-113401557D01*
X250125933Y-115306318D02*
X250125933Y-113306318D01*
X250125933Y-114258699D02*
X251268790Y-114258699D01*
X251268790Y-115306318D02*
X251268790Y-113306318D01*
X252221171Y-115306318D02*
X252221171Y-113306318D01*
X253840218Y-114258699D02*
X253173552Y-114258699D01*
X253173552Y-115306318D02*
X253173552Y-113306318D01*
X254125933Y-113306318D01*
X254602123Y-113306318D02*
X255744980Y-113306318D01*
X255173552Y-115306318D02*
X255173552Y-113306318D01*
X224685456Y-113211080D02*
X222971171Y-115782509D01*
X204016409Y-113972985D02*
X205540218Y-114544414D01*
X204016409Y-115115842D01*
X186540218Y-113972985D02*
X185016409Y-114544414D01*
X186540218Y-115115842D01*
X166061647Y-115306318D02*
X166061647Y-113306318D01*
X166728314Y-114734890D01*
X167394980Y-113306318D01*
X167394980Y-115306318D01*
X147106885Y-115306318D02*
X147106885Y-113306318D01*
X148249742Y-115306318D01*
X148249742Y-113306318D01*
X128821171Y-114258699D02*
X129106885Y-114353937D01*
X129202123Y-114449176D01*
X129297361Y-114639652D01*
X129297361Y-114925366D01*
X129202123Y-115115842D01*
X129106885Y-115211080D01*
X128916409Y-115306318D01*
X128154504Y-115306318D01*
X128154504Y-113306318D01*
X128821171Y-113306318D01*
X129011647Y-113401557D01*
X129106885Y-113496795D01*
X129202123Y-113687271D01*
X129202123Y-113877747D01*
X129106885Y-114068223D01*
X129011647Y-114163461D01*
X128821171Y-114258699D01*
X128154504Y-114258699D01*
X108861647Y-113306318D02*
X109528314Y-115306318D01*
X110194980Y-113306318D01*
X91097361Y-115115842D02*
X91002123Y-115211080D01*
X90716409Y-115306318D01*
X90525933Y-115306318D01*
X90240218Y-115211080D01*
X90049742Y-115020604D01*
X89954504Y-114830128D01*
X89859266Y-114449176D01*
X89859266Y-114163461D01*
X89954504Y-113782509D01*
X90049742Y-113592033D01*
X90240218Y-113401557D01*
X90525933Y-113306318D01*
X90716409Y-113306318D01*
X91002123Y-113401557D01*
X91097361Y-113496795D01*
X70711647Y-113306318D02*
X72044980Y-115306318D01*
X72044980Y-113306318D02*
X70711647Y-115306318D01*
X51611647Y-113306318D02*
X52944980Y-113306318D01*
X51611647Y-115306318D01*
X52944980Y-115306318D01*
X17090218Y-115306318D02*
X16137837Y-115306318D01*
X16137837Y-113306318D01*
X19185456Y-115211080D02*
X19471171Y-115306318D01*
X19947361Y-115306318D01*
X20137837Y-115211080D01*
X20233075Y-115115842D01*
X20328314Y-114925366D01*
X20328314Y-114734890D01*
X20233075Y-114544414D01*
X20137837Y-114449176D01*
X19947361Y-114353937D01*
X19566409Y-114258699D01*
X19375933Y-114163461D01*
X19280694Y-114068223D01*
X19185456Y-113877747D01*
X19185456Y-113687271D01*
X19280694Y-113496795D01*
X19375933Y-113401557D01*
X19566409Y-113306318D01*
X20042599Y-113306318D01*
X20328314Y-113401557D01*
X21185456Y-115306318D02*
X21185456Y-113306318D01*
X21185456Y-114258699D02*
X22328314Y-114258699D01*
X22328314Y-115306318D02*
X22328314Y-113306318D01*
X23280694Y-115306318D02*
X23280694Y-113306318D01*
X24899742Y-114258699D02*
X24233075Y-114258699D01*
X24233075Y-115306318D02*
X24233075Y-113306318D01*
X25185456Y-113306318D01*
X25661647Y-113306318D02*
X26804504Y-113306318D01*
X26233075Y-115306318D02*
X26233075Y-113306318D01*
X260185456Y-96206318D02*
X259518790Y-95253937D01*
X259042599Y-96206318D02*
X259042599Y-94206318D01*
X259804504Y-94206318D01*
X259994980Y-94301557D01*
X260090218Y-94396795D01*
X260185456Y-94587271D01*
X260185456Y-94872985D01*
X260090218Y-95063461D01*
X259994980Y-95158699D01*
X259804504Y-95253937D01*
X259042599Y-95253937D01*
X261042599Y-95158699D02*
X261709266Y-95158699D01*
X261994980Y-96206318D02*
X261042599Y-96206318D01*
X261042599Y-94206318D01*
X261994980Y-94206318D01*
X262566409Y-94206318D02*
X263709266Y-94206318D01*
X263137837Y-96206318D02*
X263137837Y-94206318D01*
X264375933Y-94206318D02*
X264375933Y-95825366D01*
X264471171Y-96015842D01*
X264566409Y-96111080D01*
X264756885Y-96206318D01*
X265137837Y-96206318D01*
X265328313Y-96111080D01*
X265423552Y-96015842D01*
X265518790Y-95825366D01*
X265518790Y-94206318D01*
X267614028Y-96206318D02*
X266947361Y-95253937D01*
X266471171Y-96206318D02*
X266471171Y-94206318D01*
X267233075Y-94206318D01*
X267423552Y-94301557D01*
X267518790Y-94396795D01*
X267614028Y-94587271D01*
X267614028Y-94872985D01*
X267518790Y-95063461D01*
X267423552Y-95158699D01*
X267233075Y-95253937D01*
X266471171Y-95253937D01*
X268471171Y-96206318D02*
X268471171Y-94206318D01*
X269614028Y-96206318D01*
X269614028Y-94206318D01*
X233047361Y-94206318D02*
X233047361Y-94587271D01*
X233809266Y-94206318D02*
X233809266Y-94587271D01*
X214378314Y-96015842D02*
X214473552Y-96111080D01*
X214378314Y-96206318D01*
X214283075Y-96111080D01*
X214378314Y-96015842D01*
X214378314Y-96206318D01*
X214378314Y-94968223D02*
X214473552Y-95063461D01*
X214378314Y-95158699D01*
X214283075Y-95063461D01*
X214378314Y-94968223D01*
X214378314Y-95158699D01*
X195847361Y-96206318D02*
X194894980Y-96206318D01*
X194894980Y-94206318D01*
X175654504Y-96206318D02*
X175654504Y-94206318D01*
X176797361Y-96206318D02*
X175940218Y-95063461D01*
X176797361Y-94206318D02*
X175654504Y-95349176D01*
X157464028Y-94206318D02*
X157464028Y-95634890D01*
X157368790Y-95920604D01*
X157178314Y-96111080D01*
X156892599Y-96206318D01*
X156702123Y-96206318D01*
X137456885Y-96206318D02*
X137456885Y-94206318D01*
X137456885Y-95158699D02*
X138599742Y-95158699D01*
X138599742Y-96206318D02*
X138599742Y-94206318D01*
X119502123Y-94301557D02*
X119311647Y-94206318D01*
X119025933Y-94206318D01*
X118740218Y-94301557D01*
X118549742Y-94492033D01*
X118454504Y-94682509D01*
X118359266Y-95063461D01*
X118359266Y-95349176D01*
X118454504Y-95730128D01*
X118549742Y-95920604D01*
X118740218Y-96111080D01*
X119025933Y-96206318D01*
X119216409Y-96206318D01*
X119502123Y-96111080D01*
X119597361Y-96015842D01*
X119597361Y-95349176D01*
X119216409Y-95349176D01*
X100414028Y-95158699D02*
X99747361Y-95158699D01*
X99747361Y-96206318D02*
X99747361Y-94206318D01*
X100699742Y-94206318D01*
X80404504Y-96206318D02*
X80404504Y-94206318D01*
X80880694Y-94206318D01*
X81166409Y-94301557D01*
X81356885Y-94492033D01*
X81452123Y-94682509D01*
X81547361Y-95063461D01*
X81547361Y-95349176D01*
X81452123Y-95730128D01*
X81356885Y-95920604D01*
X81166409Y-96111080D01*
X80880694Y-96206318D01*
X80404504Y-96206318D01*
X61306885Y-96111080D02*
X61592599Y-96206318D01*
X62068790Y-96206318D01*
X62259266Y-96111080D01*
X62354504Y-96015842D01*
X62449742Y-95825366D01*
X62449742Y-95634890D01*
X62354504Y-95444414D01*
X62259266Y-95349176D01*
X62068790Y-95253937D01*
X61687837Y-95158699D01*
X61497361Y-95063461D01*
X61402123Y-94968223D01*
X61306885Y-94777747D01*
X61306885Y-94587271D01*
X61402123Y-94396795D01*
X61497361Y-94301557D01*
X61687837Y-94206318D01*
X62164028Y-94206318D01*
X62449742Y-94301557D01*
X42202123Y-95634890D02*
X43154504Y-95634890D01*
X42011647Y-96206318D02*
X42678314Y-94206318D01*
X43344980Y-96206318D01*
X14487837Y-96015842D02*
X14392599Y-96111080D01*
X14106885Y-96206318D01*
X13916409Y-96206318D01*
X13630694Y-96111080D01*
X13440218Y-95920604D01*
X13344980Y-95730128D01*
X13249742Y-95349176D01*
X13249742Y-95063461D01*
X13344980Y-94682509D01*
X13440218Y-94492033D01*
X13630694Y-94301557D01*
X13916409Y-94206318D01*
X14106885Y-94206318D01*
X14392599Y-94301557D01*
X14487837Y-94396795D01*
X15249742Y-95634890D02*
X16202123Y-95634890D01*
X15059266Y-96206318D02*
X15725933Y-94206318D01*
X16392599Y-96206318D01*
X17059266Y-96206318D02*
X17059266Y-94206318D01*
X17821171Y-94206318D01*
X18011647Y-94301557D01*
X18106885Y-94396795D01*
X18202123Y-94587271D01*
X18202123Y-94872985D01*
X18106885Y-95063461D01*
X18011647Y-95158699D01*
X17821171Y-95253937D01*
X17059266Y-95253937D01*
X18964028Y-96111080D02*
X19249742Y-96206318D01*
X19725933Y-96206318D01*
X19916409Y-96111080D01*
X20011647Y-96015842D01*
X20106885Y-95825366D01*
X20106885Y-95634890D01*
X20011647Y-95444414D01*
X19916409Y-95349176D01*
X19725933Y-95253937D01*
X19344980Y-95158699D01*
X19154504Y-95063461D01*
X19059266Y-94968223D01*
X18964028Y-94777747D01*
X18964028Y-94587271D01*
X19059266Y-94396795D01*
X19154504Y-94301557D01*
X19344980Y-94206318D01*
X19821171Y-94206318D01*
X20106885Y-94301557D01*
X270571171Y-74915842D02*
X272285456Y-77487271D01*
X247247361Y-77672985D02*
X247723552Y-77672985D01*
X247723552Y-74815842D01*
X247247361Y-74815842D01*
X229059266Y-77672985D02*
X228583075Y-77672985D01*
X228583075Y-74815842D01*
X229059266Y-74815842D01*
X209054504Y-77106318D02*
X209054504Y-75106318D01*
X209816409Y-75106318D01*
X210006885Y-75201557D01*
X210102123Y-75296795D01*
X210197361Y-75487271D01*
X210197361Y-75772985D01*
X210102123Y-75963461D01*
X210006885Y-76058699D01*
X209816409Y-76153937D01*
X209054504Y-76153937D01*
X190387837Y-75106318D02*
X190768790Y-75106318D01*
X190959266Y-75201557D01*
X191149742Y-75392033D01*
X191244980Y-75772985D01*
X191244980Y-76439652D01*
X191149742Y-76820604D01*
X190959266Y-77011080D01*
X190768790Y-77106318D01*
X190387837Y-77106318D01*
X190197361Y-77011080D01*
X190006885Y-76820604D01*
X189911647Y-76439652D01*
X189911647Y-75772985D01*
X190006885Y-75392033D01*
X190197361Y-75201557D01*
X190387837Y-75106318D01*
X171528314Y-77106318D02*
X171528314Y-75106318D01*
X151906885Y-75106318D02*
X151906885Y-76725366D01*
X152002123Y-76915842D01*
X152097361Y-77011080D01*
X152287837Y-77106318D01*
X152668790Y-77106318D01*
X152859266Y-77011080D01*
X152954504Y-76915842D01*
X153049742Y-76725366D01*
X153049742Y-75106318D01*
X133478314Y-76153937D02*
X133478314Y-77106318D01*
X132811647Y-75106318D02*
X133478314Y-76153937D01*
X134144980Y-75106318D01*
X113806885Y-75106318D02*
X114949742Y-75106318D01*
X114378314Y-77106318D02*
X114378314Y-75106318D01*
X95897361Y-77106318D02*
X95230694Y-76153937D01*
X94754504Y-77106318D02*
X94754504Y-75106318D01*
X95516409Y-75106318D01*
X95706885Y-75201557D01*
X95802123Y-75296795D01*
X95897361Y-75487271D01*
X95897361Y-75772985D01*
X95802123Y-75963461D01*
X95706885Y-76058699D01*
X95516409Y-76153937D01*
X94754504Y-76153937D01*
X75699742Y-76058699D02*
X76366409Y-76058699D01*
X76652123Y-77106318D02*
X75699742Y-77106318D01*
X75699742Y-75106318D01*
X76652123Y-75106318D01*
X56371171Y-75156318D02*
X56847361Y-77156318D01*
X57228314Y-75727747D01*
X57609266Y-77156318D01*
X58085456Y-75156318D01*
X39040218Y-77346795D02*
X38849742Y-77251557D01*
X38659266Y-77061080D01*
X38373552Y-76775366D01*
X38183075Y-76680128D01*
X37992599Y-76680128D01*
X38087837Y-77156318D02*
X37897361Y-77061080D01*
X37706885Y-76870604D01*
X37611647Y-76489652D01*
X37611647Y-75822985D01*
X37706885Y-75442033D01*
X37897361Y-75251557D01*
X38087837Y-75156318D01*
X38468790Y-75156318D01*
X38659266Y-75251557D01*
X38849742Y-75442033D01*
X38944980Y-75822985D01*
X38944980Y-76489652D01*
X38849742Y-76870604D01*
X38659266Y-77061080D01*
X38468790Y-77156318D01*
X38087837Y-77156318D01*
X11799742Y-75156318D02*
X12942599Y-75156318D01*
X12371171Y-77156318D02*
X12371171Y-75156318D01*
X13514028Y-76584890D02*
X14466409Y-76584890D01*
X13323552Y-77156318D02*
X13990218Y-75156318D01*
X14656885Y-77156318D01*
X15990218Y-76108699D02*
X16275933Y-76203937D01*
X16371171Y-76299176D01*
X16466409Y-76489652D01*
X16466409Y-76775366D01*
X16371171Y-76965842D01*
X16275933Y-77061080D01*
X16085456Y-77156318D01*
X15323552Y-77156318D01*
X15323552Y-75156318D01*
X15990218Y-75156318D01*
X16180694Y-75251557D01*
X16275933Y-75346795D01*
X16371171Y-75537271D01*
X16371171Y-75727747D01*
X16275933Y-75918223D01*
X16180694Y-76013461D01*
X15990218Y-76108699D01*
X15323552Y-76108699D01*
X259249742Y-57108699D02*
X259535456Y-57203937D01*
X259630694Y-57299176D01*
X259725933Y-57489652D01*
X259725933Y-57775366D01*
X259630694Y-57965842D01*
X259535456Y-58061080D01*
X259344980Y-58156318D01*
X258583075Y-58156318D01*
X258583075Y-56156318D01*
X259249742Y-56156318D01*
X259440218Y-56251557D01*
X259535456Y-56346795D01*
X259630694Y-56537271D01*
X259630694Y-56727747D01*
X259535456Y-56918223D01*
X259440218Y-57013461D01*
X259249742Y-57108699D01*
X258583075Y-57108699D01*
X260487837Y-57584890D02*
X261440218Y-57584890D01*
X260297361Y-58156318D02*
X260964028Y-56156318D01*
X261630694Y-58156318D01*
X263440218Y-57965842D02*
X263344980Y-58061080D01*
X263059266Y-58156318D01*
X262868790Y-58156318D01*
X262583075Y-58061080D01*
X262392599Y-57870604D01*
X262297361Y-57680128D01*
X262202123Y-57299176D01*
X262202123Y-57013461D01*
X262297361Y-56632509D01*
X262392599Y-56442033D01*
X262583075Y-56251557D01*
X262868790Y-56156318D01*
X263059266Y-56156318D01*
X263344980Y-56251557D01*
X263440218Y-56346795D01*
X264297361Y-58156318D02*
X264297361Y-56156318D01*
X265440218Y-58156318D02*
X264583075Y-57013461D01*
X265440218Y-56156318D02*
X264297361Y-57299176D01*
X266202123Y-58061080D02*
X266487837Y-58156318D01*
X266964028Y-58156318D01*
X267154504Y-58061080D01*
X267249742Y-57965842D01*
X267344980Y-57775366D01*
X267344980Y-57584890D01*
X267249742Y-57394414D01*
X267154504Y-57299176D01*
X266964028Y-57203937D01*
X266583075Y-57108699D01*
X266392599Y-57013461D01*
X266297361Y-56918223D01*
X266202123Y-56727747D01*
X266202123Y-56537271D01*
X266297361Y-56346795D01*
X266392599Y-56251557D01*
X266583075Y-56156318D01*
X267059266Y-56156318D01*
X267344980Y-56251557D01*
X268202123Y-58156318D02*
X268202123Y-56156318D01*
X268964028Y-56156318D01*
X269154504Y-56251557D01*
X269249742Y-56346795D01*
X269344980Y-56537271D01*
X269344980Y-56822985D01*
X269249742Y-57013461D01*
X269154504Y-57108699D01*
X268964028Y-57203937D01*
X268202123Y-57203937D01*
X270106885Y-57584890D02*
X271059266Y-57584890D01*
X269916409Y-58156318D02*
X270583075Y-56156318D01*
X271249742Y-58156318D01*
X273059266Y-57965842D02*
X272964028Y-58061080D01*
X272678314Y-58156318D01*
X272487837Y-58156318D01*
X272202123Y-58061080D01*
X272011647Y-57870604D01*
X271916409Y-57680128D01*
X271821171Y-57299176D01*
X271821171Y-57013461D01*
X271916409Y-56632509D01*
X272011647Y-56442033D01*
X272202123Y-56251557D01*
X272487837Y-56156318D01*
X272678314Y-56156318D01*
X272964028Y-56251557D01*
X273059266Y-56346795D01*
X273916409Y-57108699D02*
X274583075Y-57108699D01*
X274868790Y-58156318D02*
X273916409Y-58156318D01*
X273916409Y-56156318D01*
X274868790Y-56156318D01*
X237466409Y-56958699D02*
X238990218Y-56958699D01*
X238990218Y-57530128D02*
X237466409Y-57530128D01*
X218316409Y-57344414D02*
X219840218Y-57344414D01*
X199883075Y-56106318D02*
X200073552Y-56106318D01*
X200264028Y-56201557D01*
X200359266Y-56296795D01*
X200454504Y-56487271D01*
X200549742Y-56868223D01*
X200549742Y-57344414D01*
X200454504Y-57725366D01*
X200359266Y-57915842D01*
X200264028Y-58011080D01*
X200073552Y-58106318D01*
X199883075Y-58106318D01*
X199692599Y-58011080D01*
X199597361Y-57915842D01*
X199502123Y-57725366D01*
X199406885Y-57344414D01*
X199406885Y-56868223D01*
X199502123Y-56487271D01*
X199597361Y-56296795D01*
X199692599Y-56201557D01*
X199883075Y-56106318D01*
X180597361Y-58106318D02*
X180978314Y-58106318D01*
X181168790Y-58011080D01*
X181264028Y-57915842D01*
X181454504Y-57630128D01*
X181549742Y-57249176D01*
X181549742Y-56487271D01*
X181454504Y-56296795D01*
X181359266Y-56201557D01*
X181168790Y-56106318D01*
X180787837Y-56106318D01*
X180597361Y-56201557D01*
X180502123Y-56296795D01*
X180406885Y-56487271D01*
X180406885Y-56963461D01*
X180502123Y-57153937D01*
X180597361Y-57249176D01*
X180787837Y-57344414D01*
X181168790Y-57344414D01*
X181359266Y-57249176D01*
X181454504Y-57153937D01*
X181549742Y-56963461D01*
X161787837Y-56963461D02*
X161597361Y-56868223D01*
X161502123Y-56772985D01*
X161406885Y-56582509D01*
X161406885Y-56487271D01*
X161502123Y-56296795D01*
X161597361Y-56201557D01*
X161787837Y-56106318D01*
X162168790Y-56106318D01*
X162359266Y-56201557D01*
X162454504Y-56296795D01*
X162549742Y-56487271D01*
X162549742Y-56582509D01*
X162454504Y-56772985D01*
X162359266Y-56868223D01*
X162168790Y-56963461D01*
X161787837Y-56963461D01*
X161597361Y-57058699D01*
X161502123Y-57153937D01*
X161406885Y-57344414D01*
X161406885Y-57725366D01*
X161502123Y-57915842D01*
X161597361Y-58011080D01*
X161787837Y-58106318D01*
X162168790Y-58106318D01*
X162359266Y-58011080D01*
X162454504Y-57915842D01*
X162549742Y-57725366D01*
X162549742Y-57344414D01*
X162454504Y-57153937D01*
X162359266Y-57058699D01*
X162168790Y-56963461D01*
X142261647Y-56106318D02*
X143594980Y-56106318D01*
X142737837Y-58106318D01*
X124309266Y-56106318D02*
X123928314Y-56106318D01*
X123737837Y-56201557D01*
X123642599Y-56296795D01*
X123452123Y-56582509D01*
X123356885Y-56963461D01*
X123356885Y-57725366D01*
X123452123Y-57915842D01*
X123547361Y-58011080D01*
X123737837Y-58106318D01*
X124118790Y-58106318D01*
X124309266Y-58011080D01*
X124404504Y-57915842D01*
X124499742Y-57725366D01*
X124499742Y-57249176D01*
X124404504Y-57058699D01*
X124309266Y-56963461D01*
X124118790Y-56868223D01*
X123737837Y-56868223D01*
X123547361Y-56963461D01*
X123452123Y-57058699D01*
X123356885Y-57249176D01*
X105154504Y-56106318D02*
X104202123Y-56106318D01*
X104106885Y-57058699D01*
X104202123Y-56963461D01*
X104392599Y-56868223D01*
X104868790Y-56868223D01*
X105059266Y-56963461D01*
X105154504Y-57058699D01*
X105249742Y-57249176D01*
X105249742Y-57725366D01*
X105154504Y-57915842D01*
X105059266Y-58011080D01*
X104868790Y-58106318D01*
X104392599Y-58106318D01*
X104202123Y-58011080D01*
X104106885Y-57915842D01*
X86159266Y-56772985D02*
X86159266Y-58106318D01*
X85683075Y-56011080D02*
X85206885Y-57439652D01*
X86444980Y-57439652D01*
X66061647Y-56106318D02*
X67299742Y-56106318D01*
X66633075Y-56868223D01*
X66918790Y-56868223D01*
X67109266Y-56963461D01*
X67204504Y-57058699D01*
X67299742Y-57249176D01*
X67299742Y-57725366D01*
X67204504Y-57915842D01*
X67109266Y-58011080D01*
X66918790Y-58106318D01*
X66347361Y-58106318D01*
X66156885Y-58011080D01*
X66061647Y-57915842D01*
X47206885Y-56296795D02*
X47302123Y-56201557D01*
X47492599Y-56106318D01*
X47968790Y-56106318D01*
X48159266Y-56201557D01*
X48254504Y-56296795D01*
X48349742Y-56487271D01*
X48349742Y-56677747D01*
X48254504Y-56963461D01*
X47111647Y-58106318D01*
X48349742Y-58106318D01*
X29249742Y-58106318D02*
X28106885Y-58106318D01*
X28678314Y-58106318D02*
X28678314Y-56106318D01*
X28487837Y-56392033D01*
X28297361Y-56582509D01*
X28106885Y-56677747D01*
X5766409Y-56106318D02*
X6909266Y-56106318D01*
X6337837Y-58106318D02*
X6337837Y-56106318D01*
X7575933Y-58106318D02*
X7575933Y-56106318D01*
X9480694Y-58106318D02*
X8528314Y-58106318D01*
X8528314Y-56106318D01*
X10147361Y-58106318D02*
X10147361Y-56106318D01*
X10623552Y-56106318D01*
X10909266Y-56201557D01*
X11099742Y-56392033D01*
X11194980Y-56582509D01*
X11290218Y-56963461D01*
X11290218Y-57249176D01*
X11194980Y-57630128D01*
X11099742Y-57820604D01*
X10909266Y-58011080D01*
X10623552Y-58106318D01*
X10147361Y-58106318D01*
X12147361Y-57058699D02*
X12814028Y-57058699D01*
X13099742Y-58106318D02*
X12147361Y-58106318D01*
X12147361Y-56106318D01*
X13099742Y-56106318D01*
X358990218Y-20156318D02*
X358990218Y-18156318D01*
X359752123Y-18156318D01*
X359942599Y-18251557D01*
X360037837Y-18346795D01*
X360133075Y-18537271D01*
X360133075Y-18822985D01*
X360037837Y-19013461D01*
X359942599Y-19108699D01*
X359752123Y-19203937D01*
X358990218Y-19203937D01*
X362133075Y-20156318D02*
X361466409Y-19203937D01*
X360990218Y-20156318D02*
X360990218Y-18156318D01*
X361752123Y-18156318D01*
X361942599Y-18251557D01*
X362037837Y-18346795D01*
X362133075Y-18537271D01*
X362133075Y-18822985D01*
X362037837Y-19013461D01*
X361942599Y-19108699D01*
X361752123Y-19203937D01*
X360990218Y-19203937D01*
X362704504Y-18156318D02*
X363847361Y-18156318D01*
X363275933Y-20156318D02*
X363275933Y-18156318D01*
X364418790Y-20061080D02*
X364704504Y-20156318D01*
X365180694Y-20156318D01*
X365371171Y-20061080D01*
X365466409Y-19965842D01*
X365561647Y-19775366D01*
X365561647Y-19584890D01*
X365466409Y-19394414D01*
X365371171Y-19299176D01*
X365180694Y-19203937D01*
X364799742Y-19108699D01*
X364609266Y-19013461D01*
X364514028Y-18918223D01*
X364418790Y-18727747D01*
X364418790Y-18537271D01*
X364514028Y-18346795D01*
X364609266Y-18251557D01*
X364799742Y-18156318D01*
X365275933Y-18156318D01*
X365561647Y-18251557D01*
X367561647Y-19965842D02*
X367466409Y-20061080D01*
X367180694Y-20156318D01*
X366990218Y-20156318D01*
X366704504Y-20061080D01*
X366514028Y-19870604D01*
X366418790Y-19680128D01*
X366323552Y-19299176D01*
X366323552Y-19013461D01*
X366418790Y-18632509D01*
X366514028Y-18442033D01*
X366704504Y-18251557D01*
X366990218Y-18156318D01*
X367180694Y-18156318D01*
X367466409Y-18251557D01*
X367561647Y-18346795D01*
X340456885Y-20156318D02*
X340456885Y-18156318D01*
X341218790Y-18156318D01*
X341409266Y-18251557D01*
X341504504Y-18346795D01*
X341599742Y-18537271D01*
X341599742Y-18822985D01*
X341504504Y-19013461D01*
X341409266Y-19108699D01*
X341218790Y-19203937D01*
X340456885Y-19203937D01*
X343504504Y-18251557D02*
X343314028Y-18156318D01*
X343028314Y-18156318D01*
X342742599Y-18251557D01*
X342552123Y-18442033D01*
X342456885Y-18632509D01*
X342361647Y-19013461D01*
X342361647Y-19299176D01*
X342456885Y-19680128D01*
X342552123Y-19870604D01*
X342742599Y-20061080D01*
X343028314Y-20156318D01*
X343218790Y-20156318D01*
X343504504Y-20061080D01*
X343599742Y-19965842D01*
X343599742Y-19299176D01*
X343218790Y-19299176D01*
X344456885Y-18156318D02*
X344456885Y-19775366D01*
X344552123Y-19965842D01*
X344647361Y-20061080D01*
X344837837Y-20156318D01*
X345218790Y-20156318D01*
X345409266Y-20061080D01*
X345504504Y-19965842D01*
X345599742Y-19775366D01*
X345599742Y-18156318D01*
X346552123Y-20156318D02*
X346552123Y-18156318D01*
X347314028Y-18156318D01*
X347504504Y-18251557D01*
X347599742Y-18346795D01*
X347694980Y-18537271D01*
X347694980Y-18822985D01*
X347599742Y-19013461D01*
X347504504Y-19108699D01*
X347314028Y-19203937D01*
X346552123Y-19203937D01*
X321361647Y-20156318D02*
X321361647Y-18156318D01*
X321361647Y-19108699D02*
X322504504Y-19108699D01*
X322504504Y-20156318D02*
X322504504Y-18156318D01*
X323837837Y-18156318D02*
X324218790Y-18156318D01*
X324409266Y-18251557D01*
X324599742Y-18442033D01*
X324694980Y-18822985D01*
X324694980Y-19489652D01*
X324599742Y-19870604D01*
X324409266Y-20061080D01*
X324218790Y-20156318D01*
X323837837Y-20156318D01*
X323647361Y-20061080D01*
X323456885Y-19870604D01*
X323361647Y-19489652D01*
X323361647Y-18822985D01*
X323456885Y-18442033D01*
X323647361Y-18251557D01*
X323837837Y-18156318D01*
X325552123Y-20156318D02*
X325552123Y-18156318D01*
X326218790Y-19584890D01*
X326885456Y-18156318D01*
X326885456Y-20156318D01*
X327837837Y-19108699D02*
X328504504Y-19108699D01*
X328790218Y-20156318D02*
X327837837Y-20156318D01*
X327837837Y-18156318D01*
X328790218Y-18156318D01*
X303928314Y-20156318D02*
X303928314Y-18156318D01*
X304880694Y-20156318D02*
X304880694Y-18156318D01*
X306023552Y-20156318D01*
X306023552Y-18156318D01*
X306880694Y-20061080D02*
X307166409Y-20156318D01*
X307642599Y-20156318D01*
X307833075Y-20061080D01*
X307928314Y-19965842D01*
X308023552Y-19775366D01*
X308023552Y-19584890D01*
X307928314Y-19394414D01*
X307833075Y-19299176D01*
X307642599Y-19203937D01*
X307261647Y-19108699D01*
X307071171Y-19013461D01*
X306975933Y-18918223D01*
X306880694Y-18727747D01*
X306880694Y-18537271D01*
X306975933Y-18346795D01*
X307071171Y-18251557D01*
X307261647Y-18156318D01*
X307737837Y-18156318D01*
X308023552Y-18251557D01*
X252609266Y-20058699D02*
X251942599Y-20058699D01*
X251942599Y-21106318D02*
X251942599Y-19106318D01*
X252894980Y-19106318D01*
X254704504Y-21106318D02*
X253561647Y-21106318D01*
X254133075Y-21106318D02*
X254133075Y-19106318D01*
X253942599Y-19392033D01*
X253752123Y-19582509D01*
X253561647Y-19677747D01*
X255466409Y-19296795D02*
X255561647Y-19201557D01*
X255752123Y-19106318D01*
X256228314Y-19106318D01*
X256418790Y-19201557D01*
X256514028Y-19296795D01*
X256609266Y-19487271D01*
X256609266Y-19677747D01*
X256514028Y-19963461D01*
X255371171Y-21106318D01*
X256609266Y-21106318D01*
X233609266Y-20058699D02*
X232942599Y-20058699D01*
X232942599Y-21106318D02*
X232942599Y-19106318D01*
X233894980Y-19106318D01*
X235704504Y-21106318D02*
X234561647Y-21106318D01*
X235133075Y-21106318D02*
X235133075Y-19106318D01*
X234942599Y-19392033D01*
X234752123Y-19582509D01*
X234561647Y-19677747D01*
X237609266Y-21106318D02*
X236466409Y-21106318D01*
X237037837Y-21106318D02*
X237037837Y-19106318D01*
X236847361Y-19392033D01*
X236656885Y-19582509D01*
X236466409Y-19677747D01*
X214459266Y-20058699D02*
X213792599Y-20058699D01*
X213792599Y-21106318D02*
X213792599Y-19106318D01*
X214744980Y-19106318D01*
X216554504Y-21106318D02*
X215411647Y-21106318D01*
X215983075Y-21106318D02*
X215983075Y-19106318D01*
X215792599Y-19392033D01*
X215602123Y-19582509D01*
X215411647Y-19677747D01*
X217792599Y-19106318D02*
X217983075Y-19106318D01*
X218173552Y-19201557D01*
X218268790Y-19296795D01*
X218364028Y-19487271D01*
X218459266Y-19868223D01*
X218459266Y-20344414D01*
X218364028Y-20725366D01*
X218268790Y-20915842D01*
X218173552Y-21011080D01*
X217983075Y-21106318D01*
X217792599Y-21106318D01*
X217602123Y-21011080D01*
X217506885Y-20915842D01*
X217411647Y-20725366D01*
X217316409Y-20344414D01*
X217316409Y-19868223D01*
X217411647Y-19487271D01*
X217506885Y-19296795D01*
X217602123Y-19201557D01*
X217792599Y-19106318D01*
X196361647Y-20058699D02*
X195694980Y-20058699D01*
X195694980Y-21106318D02*
X195694980Y-19106318D01*
X196647361Y-19106318D01*
X197504504Y-21106318D02*
X197885456Y-21106318D01*
X198075933Y-21011080D01*
X198171171Y-20915842D01*
X198361647Y-20630128D01*
X198456885Y-20249176D01*
X198456885Y-19487271D01*
X198361647Y-19296795D01*
X198266409Y-19201557D01*
X198075933Y-19106318D01*
X197694980Y-19106318D01*
X197504504Y-19201557D01*
X197409266Y-19296795D01*
X197314028Y-19487271D01*
X197314028Y-19963461D01*
X197409266Y-20153937D01*
X197504504Y-20249176D01*
X197694980Y-20344414D01*
X198075933Y-20344414D01*
X198266409Y-20249176D01*
X198361647Y-20153937D01*
X198456885Y-19963461D01*
X172061647Y-20058699D02*
X171394980Y-20058699D01*
X171394980Y-21106318D02*
X171394980Y-19106318D01*
X172347361Y-19106318D01*
X173394980Y-19963461D02*
X173204504Y-19868223D01*
X173109266Y-19772985D01*
X173014028Y-19582509D01*
X173014028Y-19487271D01*
X173109266Y-19296795D01*
X173204504Y-19201557D01*
X173394980Y-19106318D01*
X173775933Y-19106318D01*
X173966409Y-19201557D01*
X174061647Y-19296795D01*
X174156885Y-19487271D01*
X174156885Y-19582509D01*
X174061647Y-19772985D01*
X173966409Y-19868223D01*
X173775933Y-19963461D01*
X173394980Y-19963461D01*
X173204504Y-20058699D01*
X173109266Y-20153937D01*
X173014028Y-20344414D01*
X173014028Y-20725366D01*
X173109266Y-20915842D01*
X173204504Y-21011080D01*
X173394980Y-21106318D01*
X173775933Y-21106318D01*
X173966409Y-21011080D01*
X174061647Y-20915842D01*
X174156885Y-20725366D01*
X174156885Y-20344414D01*
X174061647Y-20153937D01*
X173966409Y-20058699D01*
X173775933Y-19963461D01*
X152911647Y-20058699D02*
X152244980Y-20058699D01*
X152244980Y-21106318D02*
X152244980Y-19106318D01*
X153197361Y-19106318D01*
X153768790Y-19106318D02*
X155102123Y-19106318D01*
X154244980Y-21106318D01*
X133861647Y-20058699D02*
X133194980Y-20058699D01*
X133194980Y-21106318D02*
X133194980Y-19106318D01*
X134147361Y-19106318D01*
X135766409Y-19106318D02*
X135385456Y-19106318D01*
X135194980Y-19201557D01*
X135099742Y-19296795D01*
X134909266Y-19582509D01*
X134814028Y-19963461D01*
X134814028Y-20725366D01*
X134909266Y-20915842D01*
X135004504Y-21011080D01*
X135194980Y-21106318D01*
X135575933Y-21106318D01*
X135766409Y-21011080D01*
X135861647Y-20915842D01*
X135956885Y-20725366D01*
X135956885Y-20249176D01*
X135861647Y-20058699D01*
X135766409Y-19963461D01*
X135575933Y-19868223D01*
X135194980Y-19868223D01*
X135004504Y-19963461D01*
X134909266Y-20058699D01*
X134814028Y-20249176D01*
X114911647Y-20058699D02*
X114244980Y-20058699D01*
X114244980Y-21106318D02*
X114244980Y-19106318D01*
X115197361Y-19106318D01*
X116911647Y-19106318D02*
X115959266Y-19106318D01*
X115864028Y-20058699D01*
X115959266Y-19963461D01*
X116149742Y-19868223D01*
X116625933Y-19868223D01*
X116816409Y-19963461D01*
X116911647Y-20058699D01*
X117006885Y-20249176D01*
X117006885Y-20725366D01*
X116911647Y-20915842D01*
X116816409Y-21011080D01*
X116625933Y-21106318D01*
X116149742Y-21106318D01*
X115959266Y-21011080D01*
X115864028Y-20915842D01*
X90561647Y-20058699D02*
X89894980Y-20058699D01*
X89894980Y-21106318D02*
X89894980Y-19106318D01*
X90847361Y-19106318D01*
X92466409Y-19772985D02*
X92466409Y-21106318D01*
X91990218Y-19011080D02*
X91514028Y-20439652D01*
X92752123Y-20439652D01*
X71411647Y-20058699D02*
X70744980Y-20058699D01*
X70744980Y-21106318D02*
X70744980Y-19106318D01*
X71697361Y-19106318D01*
X72268790Y-19106318D02*
X73506885Y-19106318D01*
X72840218Y-19868223D01*
X73125933Y-19868223D01*
X73316409Y-19963461D01*
X73411647Y-20058699D01*
X73506885Y-20249176D01*
X73506885Y-20725366D01*
X73411647Y-20915842D01*
X73316409Y-21011080D01*
X73125933Y-21106318D01*
X72554504Y-21106318D01*
X72364028Y-21011080D01*
X72268790Y-20915842D01*
X52311647Y-20058699D02*
X51644980Y-20058699D01*
X51644980Y-21106318D02*
X51644980Y-19106318D01*
X52597361Y-19106318D01*
X53264028Y-19296795D02*
X53359266Y-19201557D01*
X53549742Y-19106318D01*
X54025933Y-19106318D01*
X54216409Y-19201557D01*
X54311647Y-19296795D01*
X54406885Y-19487271D01*
X54406885Y-19677747D01*
X54311647Y-19963461D01*
X53168790Y-21106318D01*
X54406885Y-21106318D01*
X33261647Y-20058699D02*
X32594980Y-20058699D01*
X32594980Y-21106318D02*
X32594980Y-19106318D01*
X33547361Y-19106318D01*
X35356885Y-21106318D02*
X34214028Y-21106318D01*
X34785456Y-21106318D02*
X34785456Y-19106318D01*
X34594980Y-19392033D01*
X34404504Y-19582509D01*
X34214028Y-19677747D01*
X7247361Y-20008699D02*
X7914028Y-20008699D01*
X8199742Y-21056318D02*
X7247361Y-21056318D01*
X7247361Y-19056318D01*
X8199742Y-19056318D01*
X8961647Y-20961080D02*
X9247361Y-21056318D01*
X9723552Y-21056318D01*
X9914028Y-20961080D01*
X10009266Y-20865842D01*
X10104504Y-20675366D01*
X10104504Y-20484890D01*
X10009266Y-20294414D01*
X9914028Y-20199176D01*
X9723552Y-20103937D01*
X9342599Y-20008699D01*
X9152123Y-19913461D01*
X9056885Y-19818223D01*
X8961647Y-19627747D01*
X8961647Y-19437271D01*
X9056885Y-19246795D01*
X9152123Y-19151557D01*
X9342599Y-19056318D01*
X9818790Y-19056318D01*
X10104504Y-19151557D01*
X12104504Y-20865842D02*
X12009266Y-20961080D01*
X11723552Y-21056318D01*
X11533075Y-21056318D01*
X11247361Y-20961080D01*
X11056885Y-20770604D01*
X10961647Y-20580128D01*
X10866409Y-20199176D01*
X10866409Y-19913461D01*
X10961647Y-19532509D01*
X11056885Y-19342033D01*
X11247361Y-19151557D01*
X11533075Y-19056318D01*
X11723552Y-19056318D01*
X12009266Y-19151557D01*
X12104504Y-19246795D01*
D11*
X292298683Y-9525008D02*
X267295537Y-9525008D01*
X267295536Y-20240642D02*
X267295536Y-9525008D01*
X292298682Y-9525008D02*
X292298682Y-20240642D01*
X267295537Y-20240642D02*
X292298683Y-20240642D01*
D12*
X252850314Y2133228D02*
X252802694Y2037990D01*
X252802694Y1895133D01*
X252850314Y1752276D01*
X252945552Y1657038D01*
X253040790Y1609419D01*
X253231266Y1561800D01*
X253374123Y1561800D01*
X253564599Y1609419D01*
X253659837Y1657038D01*
X253755075Y1752276D01*
X253802694Y1895133D01*
X253802694Y1990371D01*
X253755075Y2133228D01*
X253707456Y2180847D01*
X253374123Y2180847D01*
X253374123Y1990371D01*
X253802694Y2609419D02*
X252802694Y2609419D01*
X253802694Y3180847D01*
X252802694Y3180847D01*
X253802694Y3657038D02*
X252802694Y3657038D01*
X252802694Y3895133D01*
X252850314Y4037990D01*
X252945552Y4133228D01*
X253040790Y4180847D01*
X253231266Y4228466D01*
X253374123Y4228466D01*
X253564599Y4180847D01*
X253659837Y4133228D01*
X253755075Y4037990D01*
X253802694Y3895133D01*
X253802694Y3657038D01*
X250754694Y2418943D02*
X249754694Y2418943D01*
X249754694Y2657038D01*
X249802314Y2799895D01*
X249897552Y2895133D01*
X249992790Y2942752D01*
X250183266Y2990371D01*
X250326123Y2990371D01*
X250516599Y2942752D01*
X250611837Y2895133D01*
X250707075Y2799895D01*
X250754694Y2657038D01*
X250754694Y2418943D01*
X250373742Y3418943D02*
X250373742Y4180847D01*
X250754694Y3799895D02*
X249992790Y3799895D01*
D13*
X283940866Y-19061845D02*
X284155151Y-19133274D01*
X284512294Y-19133274D01*
X284655151Y-19061845D01*
X284726580Y-18990417D01*
X284798008Y-18847560D01*
X284798008Y-18704703D01*
X284726580Y-18561845D01*
X284655151Y-18490417D01*
X284512294Y-18418988D01*
X284226580Y-18347560D01*
X284083723Y-18276131D01*
X284012294Y-18204703D01*
X283940866Y-18061845D01*
X283940866Y-17918988D01*
X284012294Y-17776131D01*
X284083723Y-17704703D01*
X284226580Y-17633274D01*
X284583723Y-17633274D01*
X284798008Y-17704703D01*
X286083723Y-19061845D02*
X285940866Y-19133274D01*
X285655151Y-19133274D01*
X285512294Y-19061845D01*
X285440866Y-18990417D01*
X285369437Y-18847560D01*
X285369437Y-18418988D01*
X285440866Y-18276131D01*
X285512294Y-18204703D01*
X285655151Y-18133274D01*
X285940866Y-18133274D01*
X286083723Y-18204703D01*
X286726580Y-19133274D02*
X286726580Y-18133274D01*
X286726580Y-18418988D02*
X286798008Y-18276131D01*
X286869437Y-18204703D01*
X287012294Y-18133274D01*
X287155151Y-18133274D01*
X287869437Y-19133274D02*
X287726580Y-19061845D01*
X287655151Y-18990417D01*
X287583723Y-18847560D01*
X287583723Y-18418988D01*
X287655151Y-18276131D01*
X287726580Y-18204703D01*
X287869437Y-18133274D01*
X288083723Y-18133274D01*
X288226580Y-18204703D01*
X288298008Y-18276131D01*
X288369437Y-18418988D01*
X288369437Y-18847560D01*
X288298008Y-18990417D01*
X288226580Y-19061845D01*
X288083723Y-19133274D01*
X287869437Y-19133274D01*
X289226580Y-19133274D02*
X289083723Y-19061845D01*
X289012294Y-18918988D01*
X289012294Y-17633274D01*
X290012294Y-19133274D02*
X289869437Y-19061845D01*
X289798008Y-18918988D01*
X289798008Y-17633274D01*
D12*
X247706694Y2418943D02*
X246706694Y2418943D01*
X246706694Y2657038D01*
X246754314Y2799895D01*
X246849552Y2895133D01*
X246944790Y2942752D01*
X247135266Y2990371D01*
X247278123Y2990371D01*
X247468599Y2942752D01*
X247563837Y2895133D01*
X247659075Y2799895D01*
X247706694Y2657038D01*
X247706694Y2418943D01*
X247325742Y3418943D02*
X247325742Y4180847D01*
D13*
X270546211Y-19133274D02*
X270546211Y-17633274D01*
X271403354Y-19133274D01*
X271403354Y-17633274D01*
X272760496Y-18133274D02*
X272760496Y-19133274D01*
X272117639Y-18133274D02*
X272117639Y-18918988D01*
X272189068Y-19061845D01*
X272331925Y-19133274D01*
X272546211Y-19133274D01*
X272689068Y-19061845D01*
X272760496Y-18990417D01*
X273474782Y-19133274D02*
X273474782Y-18133274D01*
X273474782Y-18276131D02*
X273546211Y-18204703D01*
X273689068Y-18133274D01*
X273903354Y-18133274D01*
X274046211Y-18204703D01*
X274117639Y-18347560D01*
X274117639Y-19133274D01*
X274117639Y-18347560D02*
X274189068Y-18204703D01*
X274331925Y-18133274D01*
X274546211Y-18133274D01*
X274689068Y-18204703D01*
X274760496Y-18347560D01*
X274760496Y-19133274D01*
D12*
X243658694Y1657038D02*
X244658694Y1990371D01*
X243658694Y2323704D01*
X244563456Y3228466D02*
X244611075Y3180847D01*
X244658694Y3037990D01*
X244658694Y2942752D01*
X244611075Y2799895D01*
X244515837Y2704657D01*
X244420599Y2657038D01*
X244230123Y2609419D01*
X244087266Y2609419D01*
X243896790Y2657038D01*
X243801552Y2704657D01*
X243706314Y2799895D01*
X243658694Y2942752D01*
X243658694Y3037990D01*
X243706314Y3180847D01*
X243753933Y3228466D01*
X244563456Y4228466D02*
X244611075Y4180847D01*
X244658694Y4037990D01*
X244658694Y3942752D01*
X244611075Y3799895D01*
X244515837Y3704657D01*
X244420599Y3657038D01*
X244230123Y3609419D01*
X244087266Y3609419D01*
X243896790Y3657038D01*
X243801552Y3704657D01*
X243706314Y3799895D01*
X243658694Y3942752D01*
X243658694Y4037990D01*
X243706314Y4180847D01*
X243753933Y4228466D01*
D13*
X278297110Y-18990417D02*
X278225681Y-19061845D01*
X278011395Y-19133274D01*
X277868538Y-19133274D01*
X277654252Y-19061845D01*
X277511395Y-18918988D01*
X277439967Y-18776131D01*
X277368538Y-18490417D01*
X277368538Y-18276131D01*
X277439967Y-17990417D01*
X277511395Y-17847560D01*
X277654252Y-17704703D01*
X277868538Y-17633274D01*
X278011395Y-17633274D01*
X278225681Y-17704703D01*
X278297110Y-17776131D01*
X279582824Y-19133274D02*
X279582824Y-18347560D01*
X279511395Y-18204703D01*
X279368538Y-18133274D01*
X279082824Y-18133274D01*
X278939967Y-18204703D01*
X279582824Y-19061845D02*
X279439967Y-19133274D01*
X279082824Y-19133274D01*
X278939967Y-19061845D01*
X278868538Y-18918988D01*
X278868538Y-18776131D01*
X278939967Y-18633274D01*
X279082824Y-18561845D01*
X279439967Y-18561845D01*
X279582824Y-18490417D01*
X280297110Y-18133274D02*
X280297110Y-19633274D01*
X280297110Y-18204703D02*
X280439967Y-18133274D01*
X280725681Y-18133274D01*
X280868538Y-18204703D01*
X280939967Y-18276131D01*
X281011395Y-18418988D01*
X281011395Y-18847560D01*
X280939967Y-18990417D01*
X280868538Y-19061845D01*
X280725681Y-19133274D01*
X280439967Y-19133274D01*
X280297110Y-19061845D01*
X281582824Y-19061845D02*
X281725681Y-19133274D01*
X282011395Y-19133274D01*
X282154252Y-19061845D01*
X282225681Y-18918988D01*
X282225681Y-18847560D01*
X282154252Y-18704703D01*
X282011395Y-18633274D01*
X281797110Y-18633274D01*
X281654252Y-18561845D01*
X281582824Y-18418988D01*
X281582824Y-18347560D01*
X281654252Y-18204703D01*
X281797110Y-18133274D01*
X282011395Y-18133274D01*
X282154252Y-18204703D01*
D12*
X94023809Y-129147380D02*
X94023809Y-128147380D01*
X94452380Y-129099761D02*
X94595238Y-129147380D01*
X94833333Y-129147380D01*
X94928571Y-129099761D01*
X94976190Y-129052142D01*
X95023809Y-128956904D01*
X95023809Y-128861666D01*
X94976190Y-128766428D01*
X94928571Y-128718809D01*
X94833333Y-128671190D01*
X94642857Y-128623571D01*
X94547619Y-128575952D01*
X94500000Y-128528333D01*
X94452380Y-128433095D01*
X94452380Y-128337857D01*
X94500000Y-128242619D01*
X94547619Y-128195000D01*
X94642857Y-128147380D01*
X94880952Y-128147380D01*
X95023809Y-128195000D01*
X95452380Y-129147380D02*
X95452380Y-128147380D01*
X95833333Y-128147380D01*
X95928571Y-128195000D01*
X95976190Y-128242619D01*
X96023809Y-128337857D01*
X96023809Y-128480714D01*
X95976190Y-128575952D01*
X95928571Y-128623571D01*
X95833333Y-128671190D01*
X95452380Y-128671190D01*
X94015714Y-119197380D02*
X93444285Y-119197380D01*
X93730000Y-119197380D02*
X93730000Y-118197380D01*
X93634761Y-118340238D01*
X93539523Y-118435476D01*
X93444285Y-118483095D01*
G36*
X143529754Y-34872447D02*
G01*
X143631337Y-35117739D01*
X143522507Y-35391902D01*
X143256729Y-35575698D01*
X143004624Y-35545428D01*
X142883669Y-35390144D01*
X142861670Y-35052444D01*
X143040136Y-34821337D01*
X143247879Y-34768949D01*
X143529754Y-34872447D01*
G37*
G36*
X144386121Y-34793778D02*
G01*
X144633344Y-34913607D01*
X144697336Y-35181189D01*
X144603174Y-35476984D01*
X144379761Y-35571966D01*
X144115706Y-35434914D01*
X144082513Y-35397823D01*
X143966193Y-35108005D01*
X144066047Y-34875219D01*
X144337051Y-34789040D01*
X144386121Y-34793778D01*
G37*
G36*
X145876493Y-34872447D02*
G01*
X145978076Y-35117739D01*
X145869246Y-35391902D01*
X145603468Y-35575698D01*
X145351364Y-35545428D01*
X145230408Y-35390144D01*
X145208409Y-35052444D01*
X145386876Y-34821337D01*
X145594618Y-34768949D01*
X145876493Y-34872447D01*
G37*
G36*
X146980965Y-33627603D02*
G01*
X147093027Y-33873636D01*
X147088268Y-33974582D01*
X146952404Y-34223684D01*
X146705106Y-34338928D01*
X146455725Y-34295343D01*
X146334364Y-34146731D01*
X146352316Y-33872806D01*
X146462320Y-33704042D01*
X146740526Y-33558017D01*
X146980965Y-33627603D01*
G37*
G36*
X128147175Y-32461724D02*
G01*
X128379782Y-32600049D01*
X128454889Y-32750777D01*
X128405045Y-33020223D01*
X128204510Y-33196683D01*
X127950384Y-33242570D01*
X127739767Y-33120300D01*
X127698886Y-33043405D01*
X127674452Y-32734124D01*
X127702602Y-32619593D01*
X127880978Y-32461181D01*
X128147175Y-32461724D01*
G37*
G36*
X129219525Y-32449422D02*
G01*
X129454958Y-32576389D01*
X129512553Y-32834450D01*
X129418557Y-33128039D01*
X129197284Y-33228051D01*
X128939804Y-33099319D01*
X128910792Y-33066822D01*
X128807850Y-32785834D01*
X128909097Y-32544899D01*
X129164022Y-32445031D01*
X129219525Y-32449422D01*
G37*
G36*
X130691710Y-32525708D02*
G01*
X130793293Y-32771000D01*
X130684464Y-33045163D01*
X130418685Y-33228959D01*
X130166581Y-33198689D01*
X130045625Y-33043405D01*
X130023627Y-32705705D01*
X130202093Y-32474598D01*
X130409836Y-32422210D01*
X130691710Y-32525708D01*
G37*
G36*
X131548077Y-32447039D02*
G01*
X131795300Y-32566868D01*
X131859292Y-32834450D01*
X131765131Y-33130245D01*
X131541718Y-33225227D01*
X131277662Y-33088175D01*
X131244469Y-33051084D01*
X131128150Y-32761266D01*
X131228003Y-32528480D01*
X131499007Y-32442301D01*
X131548077Y-32447039D01*
G37*
G36*
X133038450Y-32525708D02*
G01*
X133140032Y-32771000D01*
X133031203Y-33045163D01*
X132765424Y-33228959D01*
X132513320Y-33198689D01*
X132392365Y-33043405D01*
X132370366Y-32705705D01*
X132548832Y-32474598D01*
X132756575Y-32422210D01*
X133038450Y-32525708D01*
G37*
G36*
X135349742Y-32530852D02*
G01*
X135459582Y-32781612D01*
X135364880Y-33060902D01*
X135104031Y-33233057D01*
X134853030Y-33192930D01*
X134739104Y-33043405D01*
X134716426Y-32709735D01*
X134885457Y-32476515D01*
X135084212Y-32422210D01*
X135349742Y-32530852D01*
G37*
G36*
X136522644Y-32596698D02*
G01*
X136604314Y-32854538D01*
X136508855Y-33092360D01*
X136462820Y-33128283D01*
X136137852Y-33241292D01*
X135919624Y-33099897D01*
X135858143Y-32960488D01*
X135854065Y-32630369D01*
X136055367Y-32450837D01*
X136294946Y-32445360D01*
X136522644Y-32596698D01*
G37*
G36*
X137655379Y-32506043D02*
G01*
X137782774Y-32646772D01*
X137780868Y-32928057D01*
X137612473Y-33151692D01*
X137364511Y-33249757D01*
X137127952Y-33158441D01*
X137055317Y-32960915D01*
X137035923Y-32744311D01*
X137102423Y-32493785D01*
X137349280Y-32422325D01*
X137366262Y-32422210D01*
X137655379Y-32506043D01*
G37*
G36*
X138856621Y-32584104D02*
G01*
X138945713Y-32750777D01*
X138885565Y-33028728D01*
X138669468Y-33222289D01*
X138554401Y-33246243D01*
X138391759Y-33182070D01*
X138299242Y-33128283D01*
X138147041Y-32912442D01*
X138200060Y-32672904D01*
X138417560Y-32511379D01*
X138554401Y-32491231D01*
X138856621Y-32584104D01*
G37*
G36*
X140037450Y-32513443D02*
G01*
X140127666Y-32760957D01*
X140049369Y-33008894D01*
X139823525Y-33225374D01*
X139545919Y-33190690D01*
X139397183Y-33060902D01*
X139299713Y-32777932D01*
X139421865Y-32533062D01*
X139713358Y-32422488D01*
X139731036Y-32422210D01*
X140037450Y-32513443D01*
G37*
G36*
X143529754Y-32525708D02*
G01*
X143631337Y-32771000D01*
X143522507Y-33045163D01*
X143256729Y-33228959D01*
X143004624Y-33198689D01*
X142883669Y-33043405D01*
X142861670Y-32705705D01*
X143040136Y-32474598D01*
X143247879Y-32422210D01*
X143529754Y-32525708D01*
G37*
G36*
X144386121Y-32447039D02*
G01*
X144633344Y-32566868D01*
X144697336Y-32834450D01*
X144603174Y-33130245D01*
X144379761Y-33225227D01*
X144115706Y-33088175D01*
X144082513Y-33051084D01*
X143966193Y-32761266D01*
X144066047Y-32528480D01*
X144337051Y-32442301D01*
X144386121Y-32447039D01*
G37*
G36*
X146732860Y-32447039D02*
G01*
X146980083Y-32566868D01*
X147044075Y-32834450D01*
X146949913Y-33130245D01*
X146726500Y-33225227D01*
X146462445Y-33088175D01*
X146429252Y-33051084D01*
X146312932Y-32761266D01*
X146412786Y-32528480D01*
X146683790Y-32442301D01*
X146732860Y-32447039D01*
G37*
G36*
X149360688Y-32596698D02*
G01*
X149442357Y-32854538D01*
X149346899Y-33092360D01*
X149300864Y-33128283D01*
X148975896Y-33241292D01*
X148757667Y-33099897D01*
X148696186Y-32960488D01*
X148692109Y-32630369D01*
X148893410Y-32450837D01*
X149132990Y-32445360D01*
X149360688Y-32596698D01*
G37*
G36*
X154021058Y-32525708D02*
G01*
X154122641Y-32771000D01*
X154013812Y-33045163D01*
X153748033Y-33228959D01*
X153495929Y-33198689D01*
X153374973Y-33043405D01*
X153352974Y-32705705D01*
X153531441Y-32474598D01*
X153739184Y-32422210D01*
X154021058Y-32525708D01*
G37*
G36*
X159851992Y-32596698D02*
G01*
X159933662Y-32854538D01*
X159838203Y-33092360D01*
X159792168Y-33128283D01*
X159467200Y-33241292D01*
X159248972Y-33099897D01*
X159187491Y-32960488D01*
X159183413Y-32630369D01*
X159384715Y-32450837D01*
X159624294Y-32445360D01*
X159851992Y-32596698D01*
G37*
G36*
X160984727Y-32506043D02*
G01*
X161112122Y-32646772D01*
X161110216Y-32928057D01*
X160941821Y-33151692D01*
X160693859Y-33249757D01*
X160457300Y-33158441D01*
X160384664Y-32960915D01*
X160365271Y-32744311D01*
X160431771Y-32493785D01*
X160678628Y-32422325D01*
X160695610Y-32422210D01*
X160984727Y-32506043D01*
G37*
G36*
X164512363Y-32525708D02*
G01*
X164613945Y-32771000D01*
X164505116Y-33045163D01*
X164239337Y-33228959D01*
X163987233Y-33198689D01*
X163866278Y-33043405D01*
X163844279Y-32705705D01*
X164022745Y-32474598D01*
X164230488Y-32422210D01*
X164512363Y-32525708D01*
G37*
G36*
X165386916Y-32449422D02*
G01*
X165622349Y-32576389D01*
X165679944Y-32834450D01*
X165585949Y-33128039D01*
X165364675Y-33228051D01*
X165107195Y-33099319D01*
X165078183Y-33066822D01*
X164975241Y-32785834D01*
X165076488Y-32544899D01*
X165331413Y-32445031D01*
X165386916Y-32449422D01*
G37*
G36*
X166859102Y-32525708D02*
G01*
X166960684Y-32771000D01*
X166851855Y-33045163D01*
X166586077Y-33228959D01*
X166333972Y-33198689D01*
X166213017Y-33043405D01*
X166191018Y-32705705D01*
X166369484Y-32474598D01*
X166577227Y-32422210D01*
X166859102Y-32525708D01*
G37*
G36*
X167715469Y-32447039D02*
G01*
X167962692Y-32566868D01*
X168026684Y-32834450D01*
X167932522Y-33130245D01*
X167709109Y-33225227D01*
X167445053Y-33088175D01*
X167411860Y-33051084D01*
X167295541Y-32761266D01*
X167395395Y-32528480D01*
X167666399Y-32442301D01*
X167715469Y-32447039D01*
G37*
G36*
X171476032Y-32506043D02*
G01*
X171603427Y-32646772D01*
X171601521Y-32928057D01*
X171433125Y-33151692D01*
X171185164Y-33249757D01*
X170948604Y-33158441D01*
X170875969Y-32960915D01*
X170856575Y-32744311D01*
X170923076Y-32493785D01*
X171169932Y-32422325D01*
X171186914Y-32422210D01*
X171476032Y-32506043D01*
G37*
G36*
X172677273Y-32584104D02*
G01*
X172766365Y-32750777D01*
X172706217Y-33028728D01*
X172490121Y-33222289D01*
X172375053Y-33246243D01*
X172212411Y-33182070D01*
X172119895Y-33128283D01*
X171967693Y-32912442D01*
X172020713Y-32672904D01*
X172238213Y-32511379D01*
X172375053Y-32491231D01*
X172677273Y-32584104D01*
G37*
G36*
X173831585Y-32509743D02*
G01*
X173950166Y-32646772D01*
X173939690Y-32937426D01*
X173755389Y-33178639D01*
X173548423Y-33250470D01*
X173317590Y-33154006D01*
X173217835Y-33060902D01*
X173120547Y-32777818D01*
X173242411Y-32532523D01*
X173533009Y-32422425D01*
X173548423Y-32422210D01*
X173831585Y-32509743D01*
G37*
G36*
X174951916Y-32484755D02*
G01*
X175097674Y-32714515D01*
X175071311Y-32960488D01*
X174898608Y-33211598D01*
X174619801Y-33208128D01*
X174466634Y-33128283D01*
X174329549Y-32911002D01*
X174376198Y-32646832D01*
X174575481Y-32462290D01*
X174634508Y-32445360D01*
X174951916Y-32484755D01*
G37*
G36*
X177350406Y-32525708D02*
G01*
X177451989Y-32771000D01*
X177343159Y-33045163D01*
X177077381Y-33228959D01*
X176825277Y-33198689D01*
X176704321Y-33043405D01*
X176682322Y-32705705D01*
X176860789Y-32474598D01*
X177068531Y-32422210D01*
X177350406Y-32525708D01*
G37*
G36*
X182008438Y-32530852D02*
G01*
X182118277Y-32781612D01*
X182023576Y-33060902D01*
X181762727Y-33233057D01*
X181511726Y-33192930D01*
X181397799Y-33043405D01*
X181375121Y-32709735D01*
X181544152Y-32476515D01*
X181742908Y-32422210D01*
X182008438Y-32530852D01*
G37*
G36*
X191044816Y-32447039D02*
G01*
X191292040Y-32566868D01*
X191356031Y-32834450D01*
X191261870Y-33130245D01*
X191038457Y-33225227D01*
X190774401Y-33088175D01*
X190741208Y-33051084D01*
X190624889Y-32761266D01*
X190724743Y-32528480D01*
X190995746Y-32442301D01*
X191044816Y-32447039D01*
G37*
G36*
X195985023Y-32566207D02*
G01*
X196049510Y-32836340D01*
X195973640Y-33120712D01*
X195738295Y-33225642D01*
X195447106Y-33175501D01*
X195343906Y-33053087D01*
X195313180Y-32711330D01*
X195478557Y-32488439D01*
X195738295Y-32447039D01*
X195985023Y-32566207D01*
G37*
G36*
X199490575Y-32464477D02*
G01*
X199555503Y-32647641D01*
X199544277Y-32800649D01*
X199419740Y-33114550D01*
X199190534Y-33226498D01*
X198933254Y-33104905D01*
X198898836Y-33066822D01*
X198796419Y-32780664D01*
X198918276Y-32536615D01*
X199216494Y-32423018D01*
X199248448Y-32422210D01*
X199490575Y-32464477D01*
G37*
G36*
X200679754Y-32525708D02*
G01*
X200781337Y-32771000D01*
X200672507Y-33045163D01*
X200406729Y-33228959D01*
X200154624Y-33198689D01*
X200033669Y-33043405D01*
X200011670Y-32705705D01*
X200190136Y-32474598D01*
X200397879Y-32422210D01*
X200679754Y-32525708D01*
G37*
G36*
X203026493Y-32525708D02*
G01*
X203128076Y-32771000D01*
X203019246Y-33045163D01*
X202753468Y-33228959D01*
X202501364Y-33198689D01*
X202380408Y-33043405D01*
X202358409Y-32705705D01*
X202536876Y-32474598D01*
X202744618Y-32422210D01*
X203026493Y-32525708D01*
G37*
G36*
X205337786Y-32530852D02*
G01*
X205447625Y-32781612D01*
X205352923Y-33060902D01*
X205092075Y-33233057D01*
X204841074Y-33192930D01*
X204727147Y-33043405D01*
X204704469Y-32709735D01*
X204873500Y-32476515D01*
X205072256Y-32422210D01*
X205337786Y-32530852D01*
G37*
G36*
X209981879Y-32464477D02*
G01*
X210046807Y-32647641D01*
X210035581Y-32800649D01*
X209911044Y-33114550D01*
X209681838Y-33226498D01*
X209424559Y-33104905D01*
X209390140Y-33066822D01*
X209287723Y-32780664D01*
X209409581Y-32536615D01*
X209707799Y-32423018D01*
X209739752Y-32422210D01*
X209981879Y-32464477D01*
G37*
G36*
X213517797Y-32525708D02*
G01*
X213619380Y-32771000D01*
X213510551Y-33045163D01*
X213244772Y-33228959D01*
X212992668Y-33198689D01*
X212871712Y-33043405D01*
X212849714Y-32705705D01*
X213028180Y-32474598D01*
X213235923Y-32422210D01*
X213517797Y-32525708D01*
G37*
G36*
X214374164Y-32447039D02*
G01*
X214621387Y-32566868D01*
X214685379Y-32834450D01*
X214591218Y-33130245D01*
X214367805Y-33225227D01*
X214103749Y-33088175D01*
X214070556Y-33051084D01*
X213954237Y-32761266D01*
X214054090Y-32528480D01*
X214325094Y-32442301D01*
X214374164Y-32447039D01*
G37*
G36*
X216720903Y-32447039D02*
G01*
X216968127Y-32566868D01*
X217032118Y-32834450D01*
X216937957Y-33130245D01*
X216714544Y-33225227D01*
X216450488Y-33088175D01*
X216417295Y-33051084D01*
X216300976Y-32761266D01*
X216400830Y-32528480D01*
X216671833Y-32442301D01*
X216720903Y-32447039D01*
G37*
G36*
X219335969Y-32584104D02*
G01*
X219425060Y-32750777D01*
X219364912Y-33028728D01*
X219148816Y-33222289D01*
X219033749Y-33246243D01*
X218871107Y-33182070D01*
X218778590Y-33128283D01*
X218626389Y-32912442D01*
X218679408Y-32672904D01*
X218896908Y-32511379D01*
X219033749Y-32491231D01*
X219335969Y-32584104D01*
G37*
G36*
X220490281Y-32509743D02*
G01*
X220608861Y-32646772D01*
X220598385Y-32937426D01*
X220414084Y-33178639D01*
X220207118Y-33250470D01*
X219976285Y-33154006D01*
X219876531Y-33060902D01*
X219779242Y-32777818D01*
X219901107Y-32532523D01*
X220191705Y-32422425D01*
X220207118Y-32422210D01*
X220490281Y-32509743D01*
G37*
G36*
X221610611Y-32484755D02*
G01*
X221756369Y-32714515D01*
X221730007Y-32960488D01*
X221557304Y-33211598D01*
X221278497Y-33208128D01*
X221125329Y-33128283D01*
X220988244Y-32911002D01*
X221034893Y-32646832D01*
X221234176Y-32462290D01*
X221293203Y-32445360D01*
X221610611Y-32484755D01*
G37*
G36*
X222819922Y-32464477D02*
G01*
X222884851Y-32647641D01*
X222873624Y-32800649D01*
X222749088Y-33114550D01*
X222519882Y-33226498D01*
X222262602Y-33104905D01*
X222228183Y-33066822D01*
X222125767Y-32780664D01*
X222247624Y-32536615D01*
X222545842Y-32423018D01*
X222577796Y-32422210D01*
X222819922Y-32464477D01*
G37*
G36*
X227212208Y-32447039D02*
G01*
X227459431Y-32566868D01*
X227523423Y-32834450D01*
X227429261Y-33130245D01*
X227205848Y-33225227D01*
X226941793Y-33088175D01*
X226908600Y-33051084D01*
X226792280Y-32761266D01*
X226892134Y-32528480D01*
X227163138Y-32442301D01*
X227212208Y-32447039D01*
G37*
G36*
X228626032Y-32506043D02*
G01*
X228753427Y-32646772D01*
X228751521Y-32928057D01*
X228583125Y-33151692D01*
X228335164Y-33249757D01*
X228098604Y-33158441D01*
X228025969Y-32960915D01*
X228006575Y-32744311D01*
X228073076Y-32493785D01*
X228319932Y-32422325D01*
X228336914Y-32422210D01*
X228626032Y-32506043D01*
G37*
G36*
X229840035Y-32596698D02*
G01*
X229921705Y-32854538D01*
X229826247Y-33092360D01*
X229780212Y-33128283D01*
X229455244Y-33241292D01*
X229237015Y-33099897D01*
X229175534Y-32960488D01*
X229171456Y-32630369D01*
X229372758Y-32450837D01*
X229612338Y-32445360D01*
X229840035Y-32596698D01*
G37*
G36*
X230972771Y-32506043D02*
G01*
X231100166Y-32646772D01*
X231098260Y-32928057D01*
X230929864Y-33151692D01*
X230681903Y-33249757D01*
X230445343Y-33158441D01*
X230372708Y-32960915D01*
X230353314Y-32744311D01*
X230419815Y-32493785D01*
X230666671Y-32422325D01*
X230683654Y-32422210D01*
X230972771Y-32506043D01*
G37*
G36*
X234500406Y-32525708D02*
G01*
X234601989Y-32771000D01*
X234493159Y-33045163D01*
X234227381Y-33228959D01*
X233975277Y-33198689D01*
X233854321Y-33043405D01*
X233832322Y-32705705D01*
X234010789Y-32474598D01*
X234218531Y-32422210D01*
X234500406Y-32525708D01*
G37*
G36*
X235374960Y-32449422D02*
G01*
X235610393Y-32576389D01*
X235667988Y-32834450D01*
X235573992Y-33128039D01*
X235352719Y-33228051D01*
X235095238Y-33099319D01*
X235066227Y-33066822D01*
X234963284Y-32785834D01*
X235064532Y-32544899D01*
X235319457Y-32445031D01*
X235374960Y-32449422D01*
G37*
G36*
X237703512Y-32447039D02*
G01*
X237950735Y-32566868D01*
X238014727Y-32834450D01*
X237920565Y-33130245D01*
X237697153Y-33225227D01*
X237433097Y-33088175D01*
X237399904Y-33051084D01*
X237283585Y-32761266D01*
X237383438Y-32528480D01*
X237654442Y-32442301D01*
X237703512Y-32447039D01*
G37*
G36*
X128157020Y-31272309D02*
G01*
X128378845Y-31459053D01*
X128448465Y-31724602D01*
X128431414Y-31790310D01*
X128241362Y-31963573D01*
X127951431Y-32006227D01*
X127740995Y-31916050D01*
X127647412Y-31659794D01*
X127730894Y-31382437D01*
X127880540Y-31258537D01*
X128157020Y-31272309D01*
G37*
G36*
X137638598Y-31313738D02*
G01*
X137686699Y-31357303D01*
X137832619Y-31640137D01*
X137742273Y-31882648D01*
X137452637Y-32004979D01*
X137385364Y-32008079D01*
X137120757Y-31952965D01*
X137037875Y-31733236D01*
X137035923Y-31658638D01*
X137129505Y-31338422D01*
X137357015Y-31211130D01*
X137638598Y-31313738D01*
G37*
G36*
X142188045Y-31258537D02*
G01*
X142368352Y-31451258D01*
X142419618Y-31677740D01*
X142359864Y-31929202D01*
X142128815Y-32006873D01*
X142070177Y-32008079D01*
X141774525Y-31931068D01*
X141637170Y-31790310D01*
X141655145Y-31519836D01*
X141848999Y-31305315D01*
X142121181Y-31240915D01*
X142188045Y-31258537D01*
G37*
G36*
X145794021Y-31326096D02*
G01*
X145845069Y-31371107D01*
X145980722Y-31645391D01*
X145884309Y-31883802D01*
X145596079Y-32004987D01*
X145529929Y-32008079D01*
X145263926Y-31951591D01*
X145181764Y-31733172D01*
X145180488Y-31677740D01*
X145279473Y-31371830D01*
X145514798Y-31240398D01*
X145794021Y-31326096D01*
G37*
G36*
X146966127Y-31310471D02*
G01*
X147088864Y-31545040D01*
X147085884Y-31646029D01*
X146948814Y-31884698D01*
X146698354Y-31990888D01*
X146448452Y-31941258D01*
X146334364Y-31799992D01*
X146349849Y-31525546D01*
X146448516Y-31371107D01*
X146719467Y-31238168D01*
X146966127Y-31310471D01*
G37*
G36*
X149174024Y-31254228D02*
G01*
X149271647Y-31346599D01*
X149421254Y-31630365D01*
X149351834Y-31880879D01*
X149094909Y-32005854D01*
X149045705Y-32008079D01*
X148776458Y-31914674D01*
X148677388Y-31790310D01*
X148699070Y-31530748D01*
X148819763Y-31346599D01*
X149012818Y-31194724D01*
X149174024Y-31254228D01*
G37*
G36*
X153938586Y-31326096D02*
G01*
X153989634Y-31371107D01*
X154125287Y-31645391D01*
X154028874Y-31883802D01*
X153740644Y-32004987D01*
X153674494Y-32008079D01*
X153408491Y-31951591D01*
X153326329Y-31733172D01*
X153325053Y-31677740D01*
X153424038Y-31371830D01*
X153659364Y-31240398D01*
X153938586Y-31326096D01*
G37*
G36*
X158632064Y-31326096D02*
G01*
X158683112Y-31371107D01*
X158818765Y-31645391D01*
X158722352Y-31883802D01*
X158434123Y-32004987D01*
X158367973Y-32008079D01*
X158101969Y-31951591D01*
X158019807Y-31733172D01*
X158018531Y-31677740D01*
X158117516Y-31371830D01*
X158352842Y-31240398D01*
X158632064Y-31326096D01*
G37*
G36*
X163184458Y-31225631D02*
G01*
X163350290Y-31412841D01*
X163402227Y-31658638D01*
X163347113Y-31923245D01*
X163127384Y-32006127D01*
X163052786Y-32008079D01*
X162757133Y-31931068D01*
X162619779Y-31790310D01*
X162640806Y-31523474D01*
X162832929Y-31296347D01*
X163097516Y-31207557D01*
X163184458Y-31225631D01*
G37*
G36*
X170210871Y-31258537D02*
G01*
X170391178Y-31451258D01*
X170442444Y-31677740D01*
X170382690Y-31929202D01*
X170151641Y-32006873D01*
X170093003Y-32008079D01*
X169797351Y-31931068D01*
X169659996Y-31790310D01*
X169677972Y-31519836D01*
X169871825Y-31305315D01*
X170144007Y-31240915D01*
X170210871Y-31258537D01*
G37*
G36*
X177267934Y-31326096D02*
G01*
X177318982Y-31371107D01*
X177454635Y-31645391D01*
X177358222Y-31883802D01*
X177069992Y-32004987D01*
X177003842Y-32008079D01*
X176737839Y-31951591D01*
X176655677Y-31733172D01*
X176654401Y-31677740D01*
X176753386Y-31371830D01*
X176988711Y-31240398D01*
X177267934Y-31326096D01*
G37*
G36*
X181950555Y-31313738D02*
G01*
X181998656Y-31357303D01*
X182144576Y-31640137D01*
X182054229Y-31882648D01*
X181764593Y-32004979D01*
X181697320Y-32008079D01*
X181432713Y-31952965D01*
X181349831Y-31733236D01*
X181347879Y-31658638D01*
X181441462Y-31338422D01*
X181668972Y-31211130D01*
X181950555Y-31313738D01*
G37*
G36*
X191278084Y-31310471D02*
G01*
X191400820Y-31545040D01*
X191397841Y-31646029D01*
X191260770Y-31884698D01*
X191010311Y-31990888D01*
X190760409Y-31941258D01*
X190646320Y-31799992D01*
X190661806Y-31525546D01*
X190760472Y-31371107D01*
X191031423Y-31238168D01*
X191278084Y-31310471D01*
G37*
G36*
X195832720Y-31254228D02*
G01*
X195930343Y-31346599D01*
X196079950Y-31630365D01*
X196010529Y-31880879D01*
X195753604Y-32005854D01*
X195704401Y-32008079D01*
X195435154Y-31914674D01*
X195336083Y-31790310D01*
X195357766Y-31530748D01*
X195478459Y-31346599D01*
X195671513Y-31194724D01*
X195832720Y-31254228D01*
G37*
G36*
X198179459Y-31254228D02*
G01*
X198277082Y-31346599D01*
X198426689Y-31630365D01*
X198357268Y-31880879D01*
X198100343Y-32005854D01*
X198051140Y-32008079D01*
X197781893Y-31914674D01*
X197682822Y-31790310D01*
X197704505Y-31530748D01*
X197825198Y-31346599D01*
X198018252Y-31194724D01*
X198179459Y-31254228D01*
G37*
G36*
X201684784Y-31258537D02*
G01*
X201865091Y-31451258D01*
X201916358Y-31677740D01*
X201856603Y-31929202D01*
X201625554Y-32006873D01*
X201566916Y-32008079D01*
X201271264Y-31931068D01*
X201133909Y-31790310D01*
X201151885Y-31519836D01*
X201345738Y-31305315D01*
X201617920Y-31240915D01*
X201684784Y-31258537D01*
G37*
G36*
X202944021Y-31326096D02*
G01*
X202995069Y-31371107D01*
X203130722Y-31645391D01*
X203034309Y-31883802D01*
X202746079Y-32004987D01*
X202679929Y-32008079D01*
X202413926Y-31951591D01*
X202331764Y-31733172D01*
X202330488Y-31677740D01*
X202429473Y-31371830D01*
X202664798Y-31240398D01*
X202944021Y-31326096D01*
G37*
G36*
X205279903Y-31313738D02*
G01*
X205328003Y-31357303D01*
X205473923Y-31640137D01*
X205383577Y-31882648D01*
X205093941Y-32004979D01*
X205026668Y-32008079D01*
X204762061Y-31952965D01*
X204679179Y-31733236D01*
X204677227Y-31658638D01*
X204770809Y-31338422D01*
X204998320Y-31211130D01*
X205279903Y-31313738D01*
G37*
G36*
X209843153Y-31225631D02*
G01*
X210008985Y-31412841D01*
X210060923Y-31658638D01*
X210005808Y-31923245D01*
X209786080Y-32006127D01*
X209711482Y-32008079D01*
X209415829Y-31931068D01*
X209278474Y-31790310D01*
X209299502Y-31523474D01*
X209491625Y-31296347D01*
X209756212Y-31207557D01*
X209843153Y-31225631D01*
G37*
G36*
X212176088Y-31258537D02*
G01*
X212356396Y-31451258D01*
X212407662Y-31677740D01*
X212347907Y-31929202D01*
X212116858Y-32006873D01*
X212058221Y-32008079D01*
X211762568Y-31931068D01*
X211625214Y-31790310D01*
X211643189Y-31519836D01*
X211837043Y-31305315D01*
X212109224Y-31240915D01*
X212176088Y-31258537D01*
G37*
G36*
X215782064Y-31326096D02*
G01*
X215833112Y-31371107D01*
X215968765Y-31645391D01*
X215872352Y-31883802D01*
X215584123Y-32004987D01*
X215517973Y-32008079D01*
X215251969Y-31951591D01*
X215169807Y-31733172D01*
X215168531Y-31677740D01*
X215267516Y-31371830D01*
X215502842Y-31240398D01*
X215782064Y-31326096D01*
G37*
G36*
X216869566Y-31258537D02*
G01*
X217049874Y-31451258D01*
X217101140Y-31677740D01*
X217041385Y-31929202D01*
X216810336Y-32006873D01*
X216751699Y-32008079D01*
X216456046Y-31931068D01*
X216318692Y-31790310D01*
X216336667Y-31519836D01*
X216530521Y-31305315D01*
X216802702Y-31240915D01*
X216869566Y-31258537D01*
G37*
G36*
X220382263Y-31266225D02*
G01*
X220581639Y-31509541D01*
X220621249Y-31678015D01*
X220510075Y-31887665D01*
X220254700Y-31991727D01*
X219972346Y-31973399D01*
X219780232Y-31815877D01*
X219773326Y-31799555D01*
X219781048Y-31516678D01*
X219963092Y-31295283D01*
X220227609Y-31215815D01*
X220382263Y-31266225D01*
G37*
G36*
X226273368Y-31326096D02*
G01*
X226324417Y-31371107D01*
X226460069Y-31645391D01*
X226363656Y-31883802D01*
X226075427Y-32004987D01*
X226009277Y-32008079D01*
X225743274Y-31951591D01*
X225661111Y-31733172D01*
X225659836Y-31677740D01*
X225758821Y-31371830D01*
X225994146Y-31240398D01*
X226273368Y-31326096D01*
G37*
G36*
X233172501Y-31225631D02*
G01*
X233338333Y-31412841D01*
X233390271Y-31658638D01*
X233335156Y-31923245D01*
X233115427Y-32006127D01*
X233040829Y-32008079D01*
X232745177Y-31931068D01*
X232607822Y-31790310D01*
X232628850Y-31523474D01*
X232820972Y-31296347D01*
X233085559Y-31207557D01*
X233172501Y-31225631D01*
G37*
G36*
X236764673Y-31326096D02*
G01*
X236815721Y-31371107D01*
X236951374Y-31645391D01*
X236854961Y-31883802D01*
X236566731Y-32004987D01*
X236500581Y-32008079D01*
X236234578Y-31951591D01*
X236152416Y-31733172D01*
X236151140Y-31677740D01*
X236250125Y-31371830D01*
X236485451Y-31240398D01*
X236764673Y-31326096D01*
G37*
G36*
X237852175Y-31258537D02*
G01*
X238032483Y-31451258D01*
X238083749Y-31677740D01*
X238023994Y-31929202D01*
X237792945Y-32006873D01*
X237734308Y-32008079D01*
X237438655Y-31931068D01*
X237301301Y-31790310D01*
X237319276Y-31519836D01*
X237513130Y-31305315D01*
X237785311Y-31240915D01*
X237852175Y-31258537D01*
G37*
G36*
X128345678Y-30239434D02*
G01*
X128428771Y-30489123D01*
X128346268Y-30739009D01*
X128098171Y-30878733D01*
X128096990Y-30878902D01*
X127805801Y-30828762D01*
X127702602Y-30706348D01*
X127671876Y-30364591D01*
X127837253Y-30141700D01*
X128096990Y-30100299D01*
X128345678Y-30239434D01*
G37*
G36*
X137605651Y-30173041D02*
G01*
X137726140Y-30282536D01*
X137828400Y-30503480D01*
X137726140Y-30696666D01*
X137488812Y-30872201D01*
X137359796Y-30903731D01*
X137144707Y-30792342D01*
X137085843Y-30696666D01*
X137060595Y-30383763D01*
X137190735Y-30142268D01*
X137359796Y-30075470D01*
X137605651Y-30173041D01*
G37*
G36*
X142057569Y-30102683D02*
G01*
X142293001Y-30229650D01*
X142350597Y-30487710D01*
X142256601Y-30781299D01*
X142035327Y-30881312D01*
X141777847Y-30752580D01*
X141748836Y-30720083D01*
X141645893Y-30439095D01*
X141747141Y-30198160D01*
X142002066Y-30098291D01*
X142057569Y-30102683D01*
G37*
G36*
X146979588Y-30219468D02*
G01*
X147044075Y-30489601D01*
X146968205Y-30773973D01*
X146732860Y-30878902D01*
X146441671Y-30828762D01*
X146338471Y-30706348D01*
X146307746Y-30364591D01*
X146473122Y-30141700D01*
X146732860Y-30100299D01*
X146979588Y-30219468D01*
G37*
G36*
X149326327Y-30219468D02*
G01*
X149390814Y-30489601D01*
X149314944Y-30773973D01*
X149079599Y-30878902D01*
X148788410Y-30828762D01*
X148685210Y-30706348D01*
X148654485Y-30364591D01*
X148819861Y-30141700D01*
X149079599Y-30100299D01*
X149326327Y-30219468D01*
G37*
G36*
X153966975Y-30179746D02*
G01*
X154104062Y-30415815D01*
X154092740Y-30668540D01*
X153995532Y-30780808D01*
X153661600Y-30895817D01*
X153424250Y-30785905D01*
X153374973Y-30696666D01*
X153352494Y-30361777D01*
X153524283Y-30129171D01*
X153725549Y-30075470D01*
X153966975Y-30179746D01*
G37*
G36*
X158679090Y-30184113D02*
G01*
X158788929Y-30434873D01*
X158694228Y-30714163D01*
X158433379Y-30886318D01*
X158182378Y-30846191D01*
X158068452Y-30696666D01*
X158045773Y-30362996D01*
X158214804Y-30129776D01*
X158413560Y-30075470D01*
X158679090Y-30184113D01*
G37*
G36*
X163268303Y-30174305D02*
G01*
X163382013Y-30417224D01*
X163377398Y-30522084D01*
X163237374Y-30800419D01*
X162986155Y-30868363D01*
X162716330Y-30701796D01*
X162711173Y-30695658D01*
X162602905Y-30487961D01*
X162715191Y-30290045D01*
X162747675Y-30256731D01*
X163026976Y-30108216D01*
X163268303Y-30174305D01*
G37*
G36*
X164511110Y-30219468D02*
G01*
X164575597Y-30489601D01*
X164499727Y-30773973D01*
X164264382Y-30878902D01*
X163973193Y-30828762D01*
X163869993Y-30706348D01*
X163839267Y-30364591D01*
X164004644Y-30141700D01*
X164264382Y-30100299D01*
X164511110Y-30219468D01*
G37*
G36*
X165386916Y-30102683D02*
G01*
X165622349Y-30229650D01*
X165679944Y-30487710D01*
X165585949Y-30781299D01*
X165364675Y-30881312D01*
X165107195Y-30752580D01*
X165078183Y-30720083D01*
X164975241Y-30439095D01*
X165076488Y-30198160D01*
X165331413Y-30098291D01*
X165386916Y-30102683D01*
G37*
G36*
X166805018Y-30179746D02*
G01*
X166942105Y-30415815D01*
X166930783Y-30668540D01*
X166833575Y-30780808D01*
X166499643Y-30895817D01*
X166262294Y-30785905D01*
X166213017Y-30696666D01*
X166190538Y-30361777D01*
X166362327Y-30129171D01*
X166563592Y-30075470D01*
X166805018Y-30179746D01*
G37*
G36*
X167967045Y-30226450D02*
G01*
X168026684Y-30487710D01*
X167929916Y-30785244D01*
X167684004Y-30877821D01*
X167425226Y-30782749D01*
X167292441Y-30571043D01*
X167343940Y-30318343D01*
X167531651Y-30132768D01*
X167727942Y-30101934D01*
X167967045Y-30226450D01*
G37*
G36*
X170292071Y-30202362D02*
G01*
X170372164Y-30428967D01*
X170373423Y-30487710D01*
X170276542Y-30785276D01*
X170030599Y-30877990D01*
X169773155Y-30783484D01*
X169620732Y-30565338D01*
X169674606Y-30325145D01*
X169894048Y-30164154D01*
X170030205Y-30144492D01*
X170292071Y-30202362D01*
G37*
G36*
X171426304Y-30173041D02*
G01*
X171546792Y-30282536D01*
X171649052Y-30503480D01*
X171546792Y-30696666D01*
X171309464Y-30872201D01*
X171180448Y-30903731D01*
X170965359Y-30792342D01*
X170906495Y-30696666D01*
X170881247Y-30383763D01*
X171011387Y-30142268D01*
X171180448Y-30075470D01*
X171426304Y-30173041D01*
G37*
G36*
X172655675Y-30219468D02*
G01*
X172720162Y-30489601D01*
X172644292Y-30773973D01*
X172408947Y-30878902D01*
X172117758Y-30828762D01*
X172014558Y-30706348D01*
X171983833Y-30364591D01*
X172149209Y-30141700D01*
X172408947Y-30100299D01*
X172655675Y-30219468D01*
G37*
G36*
X173775055Y-30172142D02*
G01*
X173893531Y-30282536D01*
X173995791Y-30503480D01*
X173893531Y-30696666D01*
X173667433Y-30871633D01*
X173548423Y-30903731D01*
X173321790Y-30807060D01*
X173203314Y-30696666D01*
X173101054Y-30475722D01*
X173203314Y-30282536D01*
X173429413Y-30107569D01*
X173548423Y-30075470D01*
X173775055Y-30172142D01*
G37*
G36*
X175002414Y-30219468D02*
G01*
X175066901Y-30489601D01*
X174991031Y-30773973D01*
X174755686Y-30878902D01*
X174464497Y-30828762D01*
X174361297Y-30706348D01*
X174330572Y-30364591D01*
X174495948Y-30141700D01*
X174755686Y-30100299D01*
X175002414Y-30219468D01*
G37*
G36*
X177296322Y-30179746D02*
G01*
X177433410Y-30415815D01*
X177422087Y-30668540D01*
X177324880Y-30780808D01*
X176990948Y-30895817D01*
X176753598Y-30785905D01*
X176704321Y-30696666D01*
X176681842Y-30361777D01*
X176853631Y-30129171D01*
X177054897Y-30075470D01*
X177296322Y-30179746D01*
G37*
G36*
X182008438Y-30184113D02*
G01*
X182118277Y-30434873D01*
X182023576Y-30714163D01*
X181762727Y-30886318D01*
X181511726Y-30846191D01*
X181397799Y-30696666D01*
X181375121Y-30362996D01*
X181544152Y-30129776D01*
X181742908Y-30075470D01*
X182008438Y-30184113D01*
G37*
G36*
X191297962Y-30228968D02*
G01*
X191356031Y-30489601D01*
X191261855Y-30754425D01*
X191047574Y-30889217D01*
X190815561Y-30861141D01*
X190687716Y-30703965D01*
X190658670Y-30368596D01*
X190818686Y-30145425D01*
X191063003Y-30102683D01*
X191297962Y-30228968D01*
G37*
G36*
X195985023Y-30219468D02*
G01*
X196049510Y-30489601D01*
X195973640Y-30773973D01*
X195738295Y-30878902D01*
X195447106Y-30828762D01*
X195343906Y-30706348D01*
X195313180Y-30364591D01*
X195478557Y-30141700D01*
X195738295Y-30100299D01*
X195985023Y-30219468D01*
G37*
G36*
X198331762Y-30219468D02*
G01*
X198396249Y-30489601D01*
X198320379Y-30773973D01*
X198085034Y-30878902D01*
X197793845Y-30828762D01*
X197690645Y-30706348D01*
X197659920Y-30364591D01*
X197825296Y-30141700D01*
X198085034Y-30100299D01*
X198331762Y-30219468D01*
G37*
G36*
X202972409Y-30179746D02*
G01*
X203109497Y-30415815D01*
X203098174Y-30668540D01*
X203000967Y-30780808D01*
X202667035Y-30895817D01*
X202429685Y-30785905D01*
X202380408Y-30696666D01*
X202357929Y-30361777D01*
X202529718Y-30129171D01*
X202730983Y-30075470D01*
X202972409Y-30179746D01*
G37*
G36*
X205337786Y-30184113D02*
G01*
X205447625Y-30434873D01*
X205352923Y-30714163D01*
X205092075Y-30886318D01*
X204841074Y-30846191D01*
X204727147Y-30696666D01*
X204704469Y-30362996D01*
X204873500Y-30129776D01*
X205072256Y-30075470D01*
X205337786Y-30184113D01*
G37*
G36*
X209926999Y-30174305D02*
G01*
X210040709Y-30417224D01*
X210036094Y-30522084D01*
X209896070Y-30800419D01*
X209644851Y-30868363D01*
X209375026Y-30701796D01*
X209369869Y-30695658D01*
X209261601Y-30487961D01*
X209373886Y-30290045D01*
X209406370Y-30256731D01*
X209685672Y-30108216D01*
X209926999Y-30174305D01*
G37*
G36*
X212045612Y-30102683D02*
G01*
X212281045Y-30229650D01*
X212338640Y-30487710D01*
X212244644Y-30781299D01*
X212023371Y-30881312D01*
X211765891Y-30752580D01*
X211736879Y-30720083D01*
X211633937Y-30439095D01*
X211735184Y-30198160D01*
X211990109Y-30098291D01*
X212045612Y-30102683D01*
G37*
G36*
X216950766Y-30202362D02*
G01*
X217030860Y-30428967D01*
X217032118Y-30487710D01*
X216935237Y-30785276D01*
X216689295Y-30877990D01*
X216431851Y-30783484D01*
X216279428Y-30565338D01*
X216333302Y-30325145D01*
X216552743Y-30164154D01*
X216688900Y-30144492D01*
X216950766Y-30202362D01*
G37*
G36*
X220433751Y-30172142D02*
G01*
X220552227Y-30282536D01*
X220654487Y-30503480D01*
X220552227Y-30696666D01*
X220326128Y-30871633D01*
X220207118Y-30903731D01*
X219980486Y-30807060D01*
X219862010Y-30696666D01*
X219759750Y-30475722D01*
X219862010Y-30282536D01*
X220088108Y-30107569D01*
X220207118Y-30075470D01*
X220433751Y-30172142D01*
G37*
G36*
X226301757Y-30179746D02*
G01*
X226438845Y-30415815D01*
X226427522Y-30668540D01*
X226330315Y-30780808D01*
X225996382Y-30895817D01*
X225759033Y-30785905D01*
X225709756Y-30696666D01*
X225687277Y-30361777D01*
X225859066Y-30129171D01*
X226060331Y-30075470D01*
X226301757Y-30179746D01*
G37*
G36*
X227463784Y-30226450D02*
G01*
X227523423Y-30487710D01*
X227426656Y-30785244D01*
X227180743Y-30877821D01*
X226921966Y-30782749D01*
X226789180Y-30571043D01*
X226840679Y-30318343D01*
X227028390Y-30132768D01*
X227224681Y-30101934D01*
X227463784Y-30226450D01*
G37*
G36*
X228576304Y-30173041D02*
G01*
X228696792Y-30282536D01*
X228799052Y-30503480D01*
X228696792Y-30696666D01*
X228459464Y-30872201D01*
X228330448Y-30903731D01*
X228115359Y-30792342D01*
X228056495Y-30696666D01*
X228031247Y-30383763D01*
X228161387Y-30142268D01*
X228330448Y-30075470D01*
X228576304Y-30173041D01*
G37*
G36*
X229805675Y-30219468D02*
G01*
X229870162Y-30489601D01*
X229794292Y-30773973D01*
X229558947Y-30878902D01*
X229267758Y-30828762D01*
X229164558Y-30706348D01*
X229133833Y-30364591D01*
X229299209Y-30141700D01*
X229558947Y-30100299D01*
X229805675Y-30219468D01*
G37*
G36*
X230923043Y-30173041D02*
G01*
X231043531Y-30282536D01*
X231145791Y-30503480D01*
X231043531Y-30696666D01*
X230806203Y-30872201D01*
X230677188Y-30903731D01*
X230462098Y-30792342D01*
X230403234Y-30696666D01*
X230377986Y-30383763D01*
X230508127Y-30142268D01*
X230677188Y-30075470D01*
X230923043Y-30173041D01*
G37*
G36*
X233256347Y-30174305D02*
G01*
X233370056Y-30417224D01*
X233365442Y-30522084D01*
X233225418Y-30800419D01*
X232974198Y-30868363D01*
X232704373Y-30701796D01*
X232699217Y-30695658D01*
X232590949Y-30487961D01*
X232703234Y-30290045D01*
X232735718Y-30256731D01*
X233015020Y-30108216D01*
X233256347Y-30174305D01*
G37*
G36*
X237955089Y-30226450D02*
G01*
X238014727Y-30487710D01*
X237917960Y-30785244D01*
X237672047Y-30877821D01*
X237413270Y-30782749D01*
X237280484Y-30571043D01*
X237331984Y-30318343D01*
X237519694Y-30132768D01*
X237715986Y-30101934D01*
X237955089Y-30226450D01*
G37*
G36*
X128270162Y-28971123D02*
G01*
X128461152Y-29251751D01*
X128389622Y-29519188D01*
X128222288Y-29650022D01*
X127933908Y-29705395D01*
X127808157Y-29627270D01*
X127657349Y-29333092D01*
X127780219Y-29042559D01*
X127856031Y-28971123D01*
X128076976Y-28868863D01*
X128270162Y-28971123D01*
G37*
G36*
X129535003Y-29074870D02*
G01*
X129581575Y-29312966D01*
X129486468Y-29622663D01*
X129237771Y-29721212D01*
X128986552Y-29640105D01*
X128777365Y-29409150D01*
X128814019Y-29149482D01*
X128994890Y-28994633D01*
X129329200Y-28919117D01*
X129535003Y-29074870D01*
G37*
G36*
X130514867Y-28925824D02*
G01*
X130755060Y-29117304D01*
X130823966Y-29328277D01*
X130707723Y-29542764D01*
X130445948Y-29691498D01*
X130169073Y-29700495D01*
X130168260Y-29700205D01*
X130024003Y-29526845D01*
X130008589Y-29247238D01*
X130113209Y-28994462D01*
X130220267Y-28914488D01*
X130514867Y-28925824D01*
G37*
G36*
X137531500Y-28890112D02*
G01*
X137749632Y-29076005D01*
X137827014Y-29341868D01*
X137778026Y-29491376D01*
X137537773Y-29718574D01*
X137267515Y-29777820D01*
X137132724Y-29712127D01*
X137037626Y-29466090D01*
X137065788Y-29151900D01*
X137196205Y-28914243D01*
X137253692Y-28878892D01*
X137531500Y-28890112D01*
G37*
G36*
X142373047Y-29074870D02*
G01*
X142419618Y-29312966D01*
X142324511Y-29622663D01*
X142075814Y-29721212D01*
X141824596Y-29640105D01*
X141615409Y-29409150D01*
X141652062Y-29149482D01*
X141832934Y-28994633D01*
X142167244Y-28919117D01*
X142373047Y-29074870D01*
G37*
G36*
X147002784Y-29010220D02*
G01*
X147112882Y-29300818D01*
X147113097Y-29316231D01*
X147017586Y-29623681D01*
X146768350Y-29721061D01*
X146518074Y-29640105D01*
X146307235Y-29404853D01*
X146350679Y-29124323D01*
X146474404Y-28985644D01*
X146757488Y-28888355D01*
X147002784Y-29010220D01*
G37*
G36*
X149317634Y-29010697D02*
G01*
X149432698Y-29243247D01*
X149378612Y-29483160D01*
X149137325Y-29734076D01*
X148893803Y-29712874D01*
X148798953Y-29635457D01*
X148640900Y-29339075D01*
X148758192Y-29048654D01*
X148845568Y-28965373D01*
X149094989Y-28891908D01*
X149317634Y-29010697D01*
G37*
G36*
X153839800Y-28916509D02*
G01*
X154054717Y-29093336D01*
X154120128Y-29352217D01*
X154072090Y-29483160D01*
X153827464Y-29726414D01*
X153526963Y-29718494D01*
X153497608Y-29707355D01*
X153351812Y-29525314D01*
X153339652Y-29240905D01*
X153451224Y-28987602D01*
X153556627Y-28911798D01*
X153839800Y-28916509D01*
G37*
G36*
X158533278Y-28916509D02*
G01*
X158748195Y-29093336D01*
X158813606Y-29352217D01*
X158765568Y-29483160D01*
X158520942Y-29726414D01*
X158220441Y-29718494D01*
X158191086Y-29707355D01*
X158045291Y-29525314D01*
X158033130Y-29240905D01*
X158144702Y-28987602D01*
X158250105Y-28911798D01*
X158533278Y-28916509D01*
G37*
G36*
X163265479Y-28975007D02*
G01*
X163331666Y-29236272D01*
X163333205Y-29314341D01*
X163250913Y-29652537D01*
X163046764Y-29779624D01*
X162784853Y-29667716D01*
X162707320Y-29586668D01*
X162611664Y-29301450D01*
X162729845Y-29041699D01*
X163009421Y-28905813D01*
X163072163Y-28902101D01*
X163265479Y-28975007D01*
G37*
G36*
X167871143Y-28914488D02*
G01*
X168049319Y-29104794D01*
X168085079Y-29394324D01*
X167977374Y-29647688D01*
X167877350Y-29715593D01*
X167664504Y-29787770D01*
X167542898Y-29741291D01*
X167433097Y-29633731D01*
X167295643Y-29352343D01*
X167360115Y-29080090D01*
X167572529Y-28905608D01*
X167871143Y-28914488D01*
G37*
G36*
X170217882Y-28914488D02*
G01*
X170396058Y-29104794D01*
X170431818Y-29394324D01*
X170324113Y-29647688D01*
X170224089Y-29715593D01*
X170011244Y-29787770D01*
X169889638Y-29741291D01*
X169779836Y-29633731D01*
X169642382Y-29352343D01*
X169706854Y-29080090D01*
X169919268Y-28905608D01*
X170217882Y-28914488D01*
G37*
G36*
X174993721Y-29010697D02*
G01*
X175108785Y-29243247D01*
X175054699Y-29483160D01*
X174813412Y-29734076D01*
X174569890Y-29712874D01*
X174475040Y-29635457D01*
X174316987Y-29339075D01*
X174434279Y-29048654D01*
X174521655Y-28965373D01*
X174771076Y-28891908D01*
X174993721Y-29010697D01*
G37*
G36*
X177169148Y-28916509D02*
G01*
X177384065Y-29093336D01*
X177449476Y-29352217D01*
X177401438Y-29483160D01*
X177156812Y-29726414D01*
X176856311Y-29718494D01*
X176826955Y-29707355D01*
X176681160Y-29525314D01*
X176669000Y-29240905D01*
X176780572Y-28987602D01*
X176885975Y-28911798D01*
X177169148Y-28916509D01*
G37*
G36*
X178362448Y-28914488D02*
G01*
X178540623Y-29104794D01*
X178576383Y-29394324D01*
X178468678Y-29647688D01*
X178368654Y-29715593D01*
X178155809Y-29787770D01*
X178034203Y-29741291D01*
X177924401Y-29633731D01*
X177786948Y-29352343D01*
X177851420Y-29080090D01*
X178063834Y-28905608D01*
X178362448Y-28914488D01*
G37*
G36*
X181843457Y-28890112D02*
G01*
X182061588Y-29076005D01*
X182138970Y-29341868D01*
X182089982Y-29491376D01*
X181849729Y-29718574D01*
X181579472Y-29777820D01*
X181444680Y-29712127D01*
X181349582Y-29466090D01*
X181377745Y-29151900D01*
X181508162Y-28914243D01*
X181565649Y-28878892D01*
X181843457Y-28890112D01*
G37*
G36*
X191378482Y-29074870D02*
G01*
X191425053Y-29312966D01*
X191329946Y-29622663D01*
X191081249Y-29721212D01*
X190830031Y-29640105D01*
X190620844Y-29409150D01*
X190657497Y-29149482D01*
X190838368Y-28994633D01*
X191172678Y-28919117D01*
X191378482Y-29074870D01*
G37*
G36*
X192293089Y-28941338D02*
G01*
X192554759Y-29095982D01*
X192667444Y-29316231D01*
X192550978Y-29540108D01*
X192287810Y-29692802D01*
X192011738Y-29700205D01*
X191876846Y-29530023D01*
X191839184Y-29316231D01*
X191904441Y-29041034D01*
X192011738Y-28932258D01*
X192293089Y-28941338D01*
G37*
G36*
X193661479Y-29010220D02*
G01*
X193771577Y-29300818D01*
X193771792Y-29316231D01*
X193676282Y-29623681D01*
X193427046Y-29721061D01*
X193176770Y-29640105D01*
X192965931Y-29404853D01*
X193009375Y-29124323D01*
X193133100Y-28985644D01*
X193416183Y-28888355D01*
X193661479Y-29010220D01*
G37*
G36*
X194639828Y-28941338D02*
G01*
X194901498Y-29095982D01*
X195014184Y-29316231D01*
X194897717Y-29540108D01*
X194634550Y-29692802D01*
X194358477Y-29700205D01*
X194223585Y-29530023D01*
X194185923Y-29316231D01*
X194251180Y-29041034D01*
X194358477Y-28932258D01*
X194639828Y-28941338D01*
G37*
G36*
X198323069Y-29010697D02*
G01*
X198438133Y-29243247D01*
X198384047Y-29483160D01*
X198142760Y-29734076D01*
X197899238Y-29712874D01*
X197804387Y-29635457D01*
X197646335Y-29339075D01*
X197763627Y-29048654D01*
X197851003Y-28965373D01*
X198100424Y-28891908D01*
X198323069Y-29010697D01*
G37*
G36*
X202845235Y-28916509D02*
G01*
X203060152Y-29093336D01*
X203125562Y-29352217D01*
X203077525Y-29483160D01*
X202832899Y-29726414D01*
X202532398Y-29718494D01*
X202503042Y-29707355D01*
X202357247Y-29525314D01*
X202345087Y-29240905D01*
X202456659Y-28987602D01*
X202562062Y-28911798D01*
X202845235Y-28916509D01*
G37*
G36*
X205172804Y-28890112D02*
G01*
X205390936Y-29076005D01*
X205468318Y-29341868D01*
X205419330Y-29491376D01*
X205179077Y-29718574D01*
X204908820Y-29777820D01*
X204774028Y-29712127D01*
X204678930Y-29466090D01*
X204707092Y-29151900D01*
X204837510Y-28914243D01*
X204894996Y-28878892D01*
X205172804Y-28890112D01*
G37*
G36*
X206467634Y-29010697D02*
G01*
X206582698Y-29243247D01*
X206528612Y-29483160D01*
X206287325Y-29734076D01*
X206043803Y-29712874D01*
X205948953Y-29635457D01*
X205790900Y-29339075D01*
X205908192Y-29048654D01*
X205995568Y-28965373D01*
X206244989Y-28891908D01*
X206467634Y-29010697D01*
G37*
G36*
X209924175Y-28975007D02*
G01*
X209990362Y-29236272D01*
X209991901Y-29314341D01*
X209909609Y-29652537D01*
X209705460Y-29779624D01*
X209443548Y-29667716D01*
X209366016Y-29586668D01*
X209270360Y-29301450D01*
X209388541Y-29041699D01*
X209668117Y-28905813D01*
X209730859Y-28902101D01*
X209924175Y-28975007D01*
G37*
G36*
X212183100Y-28914488D02*
G01*
X212361276Y-29104794D01*
X212397035Y-29394324D01*
X212289330Y-29647688D01*
X212189306Y-29715593D01*
X211976461Y-29787770D01*
X211854855Y-29741291D01*
X211745053Y-29633731D01*
X211607600Y-29352343D01*
X211672072Y-29080090D01*
X211884486Y-28905608D01*
X212183100Y-28914488D01*
G37*
G36*
X216876578Y-28914488D02*
G01*
X217054754Y-29104794D01*
X217090514Y-29394324D01*
X216982809Y-29647688D01*
X216882785Y-29715593D01*
X216669939Y-29787770D01*
X216548333Y-29741291D01*
X216438531Y-29633731D01*
X216301078Y-29352343D01*
X216365550Y-29080090D01*
X216577964Y-28905608D01*
X216876578Y-28914488D01*
G37*
G36*
X220344555Y-28903717D02*
G01*
X220526080Y-29023858D01*
X220675567Y-29262168D01*
X220604113Y-29491376D01*
X220337577Y-29735346D01*
X220042101Y-29735657D01*
X219868382Y-29599997D01*
X219753317Y-29307780D01*
X219841863Y-29052683D01*
X220062712Y-28897174D01*
X220344555Y-28903717D01*
G37*
G36*
X221652417Y-29010697D02*
G01*
X221767481Y-29243247D01*
X221713394Y-29483160D01*
X221472108Y-29734076D01*
X221228586Y-29712874D01*
X221133735Y-29635457D01*
X220975683Y-29339075D01*
X221092975Y-29048654D01*
X221180351Y-28965373D01*
X221429772Y-28891908D01*
X221652417Y-29010697D01*
G37*
G36*
X226174583Y-28916509D02*
G01*
X226389500Y-29093336D01*
X226454910Y-29352217D01*
X226406873Y-29483160D01*
X226162247Y-29726414D01*
X225861745Y-29718494D01*
X225832390Y-29707355D01*
X225686595Y-29525314D01*
X225674434Y-29240905D01*
X225786007Y-28987602D01*
X225891409Y-28911798D01*
X226174583Y-28916509D01*
G37*
G36*
X230848891Y-28890112D02*
G01*
X231067023Y-29076005D01*
X231144405Y-29341868D01*
X231095417Y-29491376D01*
X230855164Y-29718574D01*
X230584907Y-29777820D01*
X230450115Y-29712127D01*
X230355017Y-29466090D01*
X230383179Y-29151900D01*
X230513597Y-28914243D01*
X230571083Y-28878892D01*
X230848891Y-28890112D01*
G37*
G36*
X233253523Y-28975007D02*
G01*
X233319709Y-29236272D01*
X233321249Y-29314341D01*
X233238956Y-29652537D01*
X233034808Y-29779624D01*
X232772896Y-29667716D01*
X232695364Y-29586668D01*
X232599707Y-29301450D01*
X232717889Y-29041699D01*
X232997464Y-28905813D01*
X233060207Y-28902101D01*
X233253523Y-28975007D01*
G37*
G36*
X237859187Y-28914488D02*
G01*
X238037363Y-29104794D01*
X238073122Y-29394324D01*
X237965417Y-29647688D01*
X237865393Y-29715593D01*
X237652548Y-29787770D01*
X237530942Y-29741291D01*
X237421140Y-29633731D01*
X237283687Y-29352343D01*
X237348159Y-29080090D01*
X237560573Y-28905608D01*
X237859187Y-28914488D01*
G37*
G36*
X131734667Y-28926351D02*
G01*
X131885021Y-29106802D01*
X131928314Y-29331000D01*
X131868559Y-29582463D01*
X131637510Y-29660134D01*
X131578873Y-29661340D01*
X131275741Y-29579225D01*
X131142313Y-29434313D01*
X131169751Y-29186841D01*
X131369331Y-28982072D01*
X131640556Y-28906187D01*
X131734667Y-28926351D01*
G37*
G36*
X195832720Y-28907489D02*
G01*
X195930343Y-28999860D01*
X196079950Y-29283625D01*
X196010529Y-29534140D01*
X195753604Y-29659115D01*
X195704401Y-29661340D01*
X195435154Y-29567935D01*
X195336083Y-29443571D01*
X195357766Y-29184009D01*
X195478459Y-28999860D01*
X195671513Y-28847985D01*
X195832720Y-28907489D01*
G37*
G36*
X128345678Y-27892695D02*
G01*
X128428771Y-28142384D01*
X128346268Y-28392269D01*
X128098171Y-28531994D01*
X128096990Y-28532163D01*
X127805801Y-28482023D01*
X127702602Y-28359609D01*
X127671876Y-28017852D01*
X127837253Y-27794961D01*
X128096990Y-27753560D01*
X128345678Y-27892695D01*
G37*
G36*
X135349742Y-27837374D02*
G01*
X135459582Y-28088133D01*
X135364880Y-28367424D01*
X135104031Y-28539579D01*
X134853030Y-28499452D01*
X134739104Y-28349927D01*
X134716426Y-28016257D01*
X134885457Y-27783037D01*
X135084212Y-27728731D01*
X135349742Y-27837374D01*
G37*
G36*
X136488284Y-27872729D02*
G01*
X136552771Y-28142862D01*
X136476901Y-28427234D01*
X136241556Y-28532163D01*
X135950366Y-28482023D01*
X135847167Y-28359609D01*
X135816441Y-28017852D01*
X135981818Y-27794961D01*
X136241556Y-27753560D01*
X136488284Y-27872729D01*
G37*
G36*
X137605651Y-27826302D02*
G01*
X137726140Y-27935797D01*
X137828400Y-28156741D01*
X137726140Y-28349927D01*
X137488812Y-28525462D01*
X137359796Y-28556992D01*
X137144707Y-28445603D01*
X137085843Y-28349927D01*
X137060595Y-28037024D01*
X137190735Y-27795529D01*
X137359796Y-27728731D01*
X137605651Y-27826302D01*
G37*
G36*
X143478026Y-27844705D02*
G01*
X143625034Y-28107678D01*
X143608780Y-28390229D01*
X143593751Y-28417713D01*
X143380241Y-28544928D01*
X143095887Y-28524709D01*
X142893403Y-28371633D01*
X142883669Y-28349927D01*
X142861190Y-28015038D01*
X143032979Y-27782432D01*
X143234244Y-27728731D01*
X143478026Y-27844705D01*
G37*
G36*
X144398594Y-27755195D02*
G01*
X144636620Y-27894159D01*
X144715327Y-28145179D01*
X144634544Y-28395195D01*
X144399764Y-28530375D01*
X144123807Y-28504669D01*
X144011234Y-28425608D01*
X143959380Y-28137735D01*
X144087848Y-27876503D01*
X144332664Y-27752630D01*
X144398594Y-27755195D01*
G37*
G36*
X145780791Y-27843692D02*
G01*
X145938788Y-28107498D01*
X145927340Y-28332430D01*
X145739979Y-28516817D01*
X145470837Y-28540713D01*
X145255983Y-28400702D01*
X145230408Y-28349927D01*
X145205160Y-28037024D01*
X145335300Y-27795529D01*
X145504361Y-27728731D01*
X145780791Y-27843692D01*
G37*
G36*
X146979588Y-27872729D02*
G01*
X147044075Y-28142862D01*
X146968205Y-28427234D01*
X146732860Y-28532163D01*
X146441671Y-28482023D01*
X146338471Y-28359609D01*
X146307746Y-28017852D01*
X146473122Y-27794961D01*
X146732860Y-27753560D01*
X146979588Y-27872729D01*
G37*
G36*
X149326327Y-27872729D02*
G01*
X149390814Y-28142862D01*
X149314944Y-28427234D01*
X149079599Y-28532163D01*
X148788410Y-28482023D01*
X148685210Y-28359609D01*
X148654485Y-28017852D01*
X148819861Y-27794961D01*
X149079599Y-27753560D01*
X149326327Y-27872729D01*
G37*
G36*
X150445707Y-27825403D02*
G01*
X150564184Y-27935797D01*
X150666443Y-28156741D01*
X150564184Y-28349927D01*
X150338085Y-28524894D01*
X150219075Y-28556992D01*
X149992443Y-28460321D01*
X149873966Y-28349927D01*
X149771707Y-28128982D01*
X149873966Y-27935797D01*
X150100065Y-27760829D01*
X150219075Y-27728731D01*
X150445707Y-27825403D01*
G37*
G36*
X151673066Y-27872729D02*
G01*
X151737553Y-28142862D01*
X151661683Y-28427234D01*
X151426338Y-28532163D01*
X151135149Y-28482023D01*
X151031949Y-28359609D01*
X151001224Y-28017852D01*
X151166601Y-27794961D01*
X151426338Y-27753560D01*
X151673066Y-27872729D01*
G37*
G36*
X152776999Y-27827566D02*
G01*
X152890709Y-28070485D01*
X152886094Y-28175345D01*
X152746070Y-28453680D01*
X152494851Y-28521624D01*
X152225026Y-28355057D01*
X152219869Y-28348919D01*
X152111601Y-28141221D01*
X152223886Y-27943306D01*
X152256370Y-27909992D01*
X152535672Y-27761477D01*
X152776999Y-27827566D01*
G37*
G36*
X156313714Y-27833007D02*
G01*
X156450801Y-28069076D01*
X156439479Y-28321800D01*
X156342271Y-28434069D01*
X156008339Y-28549078D01*
X155770989Y-28439166D01*
X155721712Y-28349927D01*
X155699233Y-28015038D01*
X155871023Y-27782432D01*
X156072288Y-27728731D01*
X156313714Y-27833007D01*
G37*
G36*
X157475741Y-27879711D02*
G01*
X157535379Y-28140971D01*
X157438612Y-28438504D01*
X157192700Y-28531082D01*
X156933922Y-28436010D01*
X156801137Y-28224304D01*
X156852636Y-27971604D01*
X157040347Y-27786029D01*
X157236638Y-27755195D01*
X157475741Y-27879711D01*
G37*
G36*
X158679090Y-27837374D02*
G01*
X158788929Y-28088133D01*
X158694228Y-28367424D01*
X158433379Y-28539579D01*
X158182378Y-28499452D01*
X158068452Y-28349927D01*
X158045773Y-28016257D01*
X158214804Y-27783037D01*
X158413560Y-27728731D01*
X158679090Y-27837374D01*
G37*
G36*
X159817631Y-27872729D02*
G01*
X159882118Y-28142862D01*
X159806248Y-28427234D01*
X159570903Y-28532163D01*
X159279714Y-28482023D01*
X159176515Y-28359609D01*
X159145789Y-28017852D01*
X159311166Y-27794961D01*
X159570903Y-27753560D01*
X159817631Y-27872729D01*
G37*
G36*
X160934999Y-27826302D02*
G01*
X161055488Y-27935797D01*
X161157747Y-28156741D01*
X161055488Y-28349927D01*
X160818159Y-28525462D01*
X160689144Y-28556992D01*
X160474054Y-28445603D01*
X160415191Y-28349927D01*
X160389943Y-28037024D01*
X160520083Y-27795529D01*
X160689144Y-27728731D01*
X160934999Y-27826302D01*
G37*
G36*
X164511110Y-27872729D02*
G01*
X164575597Y-28142862D01*
X164499727Y-28427234D01*
X164264382Y-28532163D01*
X163973193Y-28482023D01*
X163869993Y-28359609D01*
X163839267Y-28017852D01*
X164004644Y-27794961D01*
X164264382Y-27753560D01*
X164511110Y-27872729D01*
G37*
G36*
X165621875Y-27882229D02*
G01*
X165679944Y-28142862D01*
X165585768Y-28407685D01*
X165371487Y-28542477D01*
X165139474Y-28514402D01*
X165011629Y-28357226D01*
X164982583Y-28021857D01*
X165142599Y-27798686D01*
X165386916Y-27755944D01*
X165621875Y-27882229D01*
G37*
G36*
X166805018Y-27833007D02*
G01*
X166942105Y-28069076D01*
X166930783Y-28321800D01*
X166833575Y-28434069D01*
X166499643Y-28549078D01*
X166262294Y-28439166D01*
X166213017Y-28349927D01*
X166190538Y-28015038D01*
X166362327Y-27782432D01*
X166563592Y-27728731D01*
X166805018Y-27833007D01*
G37*
G36*
X171426304Y-27826302D02*
G01*
X171546792Y-27935797D01*
X171649052Y-28156741D01*
X171546792Y-28349927D01*
X171309464Y-28525462D01*
X171180448Y-28556992D01*
X170965359Y-28445603D01*
X170906495Y-28349927D01*
X170881247Y-28037024D01*
X171011387Y-27795529D01*
X171180448Y-27728731D01*
X171426304Y-27826302D01*
G37*
G36*
X172655675Y-27872729D02*
G01*
X172720162Y-28142862D01*
X172644292Y-28427234D01*
X172408947Y-28532163D01*
X172117758Y-28482023D01*
X172014558Y-28359609D01*
X171983833Y-28017852D01*
X172149209Y-27794961D01*
X172408947Y-27753560D01*
X172655675Y-27872729D01*
G37*
G36*
X173775055Y-27825403D02*
G01*
X173893531Y-27935797D01*
X173995791Y-28156741D01*
X173893531Y-28349927D01*
X173667433Y-28524894D01*
X173548423Y-28556992D01*
X173321790Y-28460321D01*
X173203314Y-28349927D01*
X173101054Y-28128982D01*
X173203314Y-27935797D01*
X173429413Y-27760829D01*
X173548423Y-27728731D01*
X173775055Y-27825403D01*
G37*
G36*
X177296322Y-27833007D02*
G01*
X177433410Y-28069076D01*
X177422087Y-28321800D01*
X177324880Y-28434069D01*
X176990948Y-28549078D01*
X176753598Y-28439166D01*
X176704321Y-28349927D01*
X176681842Y-28015038D01*
X176853631Y-27782432D01*
X177054897Y-27728731D01*
X177296322Y-27833007D01*
G37*
G36*
X179643062Y-27833007D02*
G01*
X179780149Y-28069076D01*
X179768827Y-28321800D01*
X179671619Y-28434069D01*
X179337687Y-28549078D01*
X179100337Y-28439166D01*
X179051060Y-28349927D01*
X179028581Y-28015038D01*
X179200370Y-27782432D01*
X179401636Y-27728731D01*
X179643062Y-27833007D01*
G37*
G36*
X180805089Y-27879711D02*
G01*
X180864727Y-28140971D01*
X180767960Y-28438504D01*
X180522047Y-28531082D01*
X180263270Y-28436010D01*
X180130484Y-28224304D01*
X180181984Y-27971604D01*
X180369694Y-27786029D01*
X180565986Y-27755195D01*
X180805089Y-27879711D01*
G37*
G36*
X191057290Y-27755195D02*
G01*
X191295316Y-27894159D01*
X191374022Y-28145179D01*
X191293239Y-28395195D01*
X191058459Y-28530375D01*
X190782502Y-28504669D01*
X190669929Y-28425608D01*
X190618076Y-28137735D01*
X190746544Y-27876503D01*
X190991360Y-27752630D01*
X191057290Y-27755195D01*
G37*
G36*
X195985023Y-27872729D02*
G01*
X196049510Y-28142862D01*
X195973640Y-28427234D01*
X195738295Y-28532163D01*
X195447106Y-28482023D01*
X195343906Y-28359609D01*
X195313180Y-28017852D01*
X195478557Y-27794961D01*
X195738295Y-27753560D01*
X195985023Y-27872729D01*
G37*
G36*
X198331762Y-27872729D02*
G01*
X198396249Y-28142862D01*
X198320379Y-28427234D01*
X198085034Y-28532163D01*
X197793845Y-28482023D01*
X197690645Y-28359609D01*
X197659920Y-28017852D01*
X197825296Y-27794961D01*
X198085034Y-27753560D01*
X198331762Y-27872729D01*
G37*
G36*
X202972409Y-27833007D02*
G01*
X203109497Y-28069076D01*
X203098174Y-28321800D01*
X203000967Y-28434069D01*
X202667035Y-28549078D01*
X202429685Y-28439166D01*
X202380408Y-28349927D01*
X202357929Y-28015038D01*
X202529718Y-27782432D01*
X202730983Y-27728731D01*
X202972409Y-27833007D01*
G37*
G36*
X205337786Y-27837374D02*
G01*
X205447625Y-28088133D01*
X205352923Y-28367424D01*
X205092075Y-28539579D01*
X204841074Y-28499452D01*
X204727147Y-28349927D01*
X204704469Y-28016257D01*
X204873500Y-27783037D01*
X205072256Y-27728731D01*
X205337786Y-27837374D01*
G37*
G36*
X207593695Y-27826302D02*
G01*
X207714184Y-27935797D01*
X207816443Y-28156741D01*
X207714184Y-28349927D01*
X207476855Y-28525462D01*
X207347840Y-28556992D01*
X207132750Y-28445603D01*
X207073886Y-28349927D01*
X207048638Y-28037024D01*
X207178779Y-27795529D01*
X207347840Y-27728731D01*
X207593695Y-27826302D01*
G37*
G36*
X208823066Y-27872729D02*
G01*
X208887553Y-28142862D01*
X208811683Y-28427234D01*
X208576338Y-28532163D01*
X208285149Y-28482023D01*
X208181949Y-28359609D01*
X208151224Y-28017852D01*
X208316601Y-27794961D01*
X208576338Y-27753560D01*
X208823066Y-27872729D01*
G37*
G36*
X213463714Y-27833007D02*
G01*
X213600801Y-28069076D01*
X213589479Y-28321800D01*
X213492271Y-28434069D01*
X213158339Y-28549078D01*
X212920989Y-28439166D01*
X212871712Y-28349927D01*
X212849233Y-28015038D01*
X213021023Y-27782432D01*
X213222288Y-27728731D01*
X213463714Y-27833007D01*
G37*
G36*
X214625741Y-27879711D02*
G01*
X214685379Y-28140971D01*
X214588612Y-28438504D01*
X214342700Y-28531082D01*
X214083922Y-28436010D01*
X213951137Y-28224304D01*
X214002636Y-27971604D01*
X214190347Y-27786029D01*
X214386638Y-27755195D01*
X214625741Y-27879711D01*
G37*
G36*
X215822648Y-27823351D02*
G01*
X215908669Y-27935797D01*
X215931347Y-28269467D01*
X215762316Y-28502687D01*
X215563560Y-28556992D01*
X215304473Y-28462373D01*
X215218452Y-28349927D01*
X215195773Y-28016257D01*
X215364804Y-27783037D01*
X215563560Y-27728731D01*
X215822648Y-27823351D01*
G37*
G36*
X216967631Y-27872729D02*
G01*
X217032118Y-28142862D01*
X216956248Y-28427234D01*
X216720903Y-28532163D01*
X216429714Y-28482023D01*
X216326515Y-28359609D01*
X216295789Y-28017852D01*
X216461166Y-27794961D01*
X216720903Y-27753560D01*
X216967631Y-27872729D01*
G37*
G36*
X219314371Y-27872729D02*
G01*
X219378858Y-28142862D01*
X219302988Y-28427234D01*
X219067643Y-28532163D01*
X218776453Y-28482023D01*
X218673254Y-28359609D01*
X218642528Y-28017852D01*
X218807905Y-27794961D01*
X219067643Y-27753560D01*
X219314371Y-27872729D01*
G37*
G36*
X220433751Y-27825403D02*
G01*
X220552227Y-27935797D01*
X220654487Y-28156741D01*
X220552227Y-28349927D01*
X220326128Y-28524894D01*
X220207118Y-28556992D01*
X219980486Y-28460321D01*
X219862010Y-28349927D01*
X219759750Y-28128982D01*
X219862010Y-27935797D01*
X220088108Y-27760829D01*
X220207118Y-27728731D01*
X220433751Y-27825403D01*
G37*
G36*
X222765043Y-27827566D02*
G01*
X222878752Y-28070485D01*
X222874137Y-28175345D01*
X222734114Y-28453680D01*
X222482894Y-28521624D01*
X222213069Y-28355057D01*
X222207913Y-28348919D01*
X222099644Y-28141221D01*
X222211930Y-27943306D01*
X222244414Y-27909992D01*
X222523716Y-27761477D01*
X222765043Y-27827566D01*
G37*
G36*
X223955018Y-27833007D02*
G01*
X224092105Y-28069076D01*
X224080783Y-28321800D01*
X223983575Y-28434069D01*
X223649643Y-28549078D01*
X223412294Y-28439166D01*
X223363017Y-28349927D01*
X223340538Y-28015038D01*
X223512327Y-27782432D01*
X223713592Y-27728731D01*
X223955018Y-27833007D01*
G37*
G36*
X227463784Y-27879711D02*
G01*
X227523423Y-28140971D01*
X227426656Y-28438504D01*
X227180743Y-28531082D01*
X226921966Y-28436010D01*
X226789180Y-28224304D01*
X226840679Y-27971604D01*
X227028390Y-27786029D01*
X227224681Y-27755195D01*
X227463784Y-27879711D01*
G37*
G36*
X228576304Y-27826302D02*
G01*
X228696792Y-27935797D01*
X228799052Y-28156741D01*
X228696792Y-28349927D01*
X228459464Y-28525462D01*
X228330448Y-28556992D01*
X228115359Y-28445603D01*
X228056495Y-28349927D01*
X228031247Y-28037024D01*
X228161387Y-27795529D01*
X228330448Y-27728731D01*
X228576304Y-27826302D01*
G37*
G36*
X229805675Y-27872729D02*
G01*
X229870162Y-28142862D01*
X229794292Y-28427234D01*
X229558947Y-28532163D01*
X229267758Y-28482023D01*
X229164558Y-28359609D01*
X229133833Y-28017852D01*
X229299209Y-27794961D01*
X229558947Y-27753560D01*
X229805675Y-27872729D01*
G37*
G36*
X234446322Y-27833007D02*
G01*
X234583410Y-28069076D01*
X234572087Y-28321800D01*
X234474880Y-28434069D01*
X234140948Y-28549078D01*
X233903598Y-28439166D01*
X233854321Y-28349927D01*
X233831842Y-28015038D01*
X234003631Y-27782432D01*
X234204897Y-27728731D01*
X234446322Y-27833007D01*
G37*
G36*
X235609919Y-27882229D02*
G01*
X235667988Y-28142862D01*
X235573811Y-28407685D01*
X235359530Y-28542477D01*
X235127517Y-28514402D01*
X234999673Y-28357226D01*
X234970626Y-28021857D01*
X235130642Y-27798686D01*
X235374960Y-27755944D01*
X235609919Y-27882229D01*
G37*
G36*
X236793062Y-27833007D02*
G01*
X236930149Y-28069076D01*
X236918827Y-28321800D01*
X236821619Y-28434069D01*
X236487687Y-28549078D01*
X236250337Y-28439166D01*
X236201060Y-28349927D01*
X236178581Y-28015038D01*
X236350370Y-27782432D01*
X236551636Y-27728731D01*
X236793062Y-27833007D01*
G37*
G36*
X237955089Y-27879711D02*
G01*
X238014727Y-28140971D01*
X237917960Y-28438504D01*
X237672047Y-28531082D01*
X237413270Y-28436010D01*
X237280484Y-28224304D01*
X237331984Y-27971604D01*
X237519694Y-27786029D01*
X237715986Y-27755195D01*
X237955089Y-27879711D01*
G37*
G36*
X128320921Y-26708381D02*
G01*
X128448102Y-26926410D01*
X128365104Y-27211659D01*
X128337725Y-27247337D01*
X128129983Y-27430002D01*
X127912099Y-27391722D01*
X127807938Y-27330457D01*
X127665874Y-27114284D01*
X127719435Y-26858931D01*
X127932422Y-26675149D01*
X128030613Y-26649212D01*
X128320921Y-26708381D01*
G37*
G36*
X149313319Y-26713830D02*
G01*
X149410590Y-26833207D01*
X149396015Y-27085431D01*
X149247637Y-27337622D01*
X149046236Y-27452643D01*
X149045705Y-27452644D01*
X148880590Y-27358966D01*
X148771077Y-27247337D01*
X148662414Y-26957931D01*
X148774831Y-26717796D01*
X149045705Y-26624384D01*
X149313319Y-26713830D01*
G37*
G36*
X158688273Y-26717896D02*
G01*
X158818345Y-26947334D01*
X158716440Y-27236051D01*
X158707290Y-27247337D01*
X158520603Y-27417163D01*
X158307976Y-27404999D01*
X158191086Y-27361221D01*
X158057657Y-27184712D01*
X158018531Y-26957989D01*
X158077429Y-26704293D01*
X158306407Y-26625713D01*
X158367973Y-26624384D01*
X158688273Y-26717896D01*
G37*
G36*
X191341615Y-26680872D02*
G01*
X191423777Y-26899291D01*
X191425053Y-26954723D01*
X191343609Y-27242834D01*
X191206698Y-27368854D01*
X190981111Y-27441302D01*
X190848790Y-27378281D01*
X190736295Y-27247337D01*
X190624601Y-26957869D01*
X190746495Y-26724721D01*
X191060229Y-26624541D01*
X191075612Y-26624384D01*
X191341615Y-26680872D01*
G37*
G36*
X195972014Y-26713830D02*
G01*
X196069286Y-26833207D01*
X196054711Y-27085431D01*
X195906333Y-27337622D01*
X195704932Y-27452643D01*
X195704401Y-27452644D01*
X195539285Y-27358966D01*
X195429773Y-27247337D01*
X195321110Y-26957931D01*
X195433527Y-26717796D01*
X195704401Y-26624384D01*
X195972014Y-26713830D01*
G37*
G36*
X217017702Y-26680872D02*
G01*
X217099864Y-26899291D01*
X217101140Y-26954723D01*
X217019696Y-27242834D01*
X216882785Y-27368854D01*
X216657198Y-27441302D01*
X216524877Y-27378281D01*
X216412382Y-27247337D01*
X216300688Y-26957869D01*
X216422582Y-26724721D01*
X216736316Y-26624541D01*
X216751699Y-26624384D01*
X217017702Y-26680872D01*
G37*
G36*
X238000311Y-26680872D02*
G01*
X238082473Y-26899291D01*
X238083749Y-26954723D01*
X238002305Y-27242834D01*
X237865393Y-27368854D01*
X237639806Y-27441302D01*
X237507485Y-27378281D01*
X237394990Y-27247337D01*
X237283297Y-26957869D01*
X237405191Y-26724721D01*
X237718924Y-26624541D01*
X237734308Y-26624384D01*
X238000311Y-26680872D01*
G37*
G36*
X128343718Y-25525989D02*
G01*
X128408205Y-25796123D01*
X128332335Y-26080495D01*
X128096990Y-26185424D01*
X127805801Y-26135284D01*
X127702602Y-26012870D01*
X127671876Y-25671113D01*
X127837253Y-25448222D01*
X128096990Y-25406821D01*
X128343718Y-25525989D01*
G37*
G36*
X129373488Y-25431520D02*
G01*
X129546508Y-25629667D01*
X129556746Y-25830016D01*
X129421570Y-26083593D01*
X129179188Y-26190737D01*
X128938444Y-26127933D01*
X128834833Y-25985978D01*
X128845711Y-25702365D01*
X129033432Y-25479798D01*
X129305519Y-25413467D01*
X129373488Y-25431520D01*
G37*
G36*
X130588817Y-25493851D02*
G01*
X130766900Y-25748481D01*
X130774721Y-26001430D01*
X130587966Y-26172832D01*
X130310242Y-26195289D01*
X130082436Y-26068461D01*
X130045625Y-26003188D01*
X130020378Y-25690285D01*
X130150518Y-25448790D01*
X130319579Y-25381992D01*
X130588817Y-25493851D01*
G37*
G36*
X131796183Y-25483037D02*
G01*
X131908244Y-25729071D01*
X131903485Y-25830016D01*
X131767622Y-26079119D01*
X131520323Y-26194363D01*
X131270943Y-26150778D01*
X131149581Y-26002166D01*
X131167534Y-25728241D01*
X131277538Y-25559477D01*
X131555743Y-25413452D01*
X131796183Y-25483037D01*
G37*
G36*
X132935556Y-25493851D02*
G01*
X133113639Y-25748481D01*
X133121460Y-26001430D01*
X132934705Y-26172832D01*
X132656981Y-26195289D01*
X132429175Y-26068461D01*
X132392365Y-26003188D01*
X132367117Y-25690285D01*
X132497257Y-25448790D01*
X132666318Y-25381992D01*
X132935556Y-25493851D01*
G37*
G36*
X137626571Y-25503970D02*
G01*
X137672895Y-25545672D01*
X137805300Y-25822733D01*
X137712361Y-26073697D01*
X137436732Y-26206122D01*
X137366262Y-26210253D01*
X137114800Y-26150498D01*
X137037129Y-25919449D01*
X137035923Y-25860812D01*
X137128668Y-25543573D01*
X137352669Y-25411209D01*
X137626571Y-25503970D01*
G37*
G36*
X149279453Y-25497954D02*
G01*
X149421792Y-25760133D01*
X149408185Y-26039972D01*
X149391577Y-26070974D01*
X149195577Y-26189215D01*
X149045705Y-26210253D01*
X148784425Y-26144352D01*
X148699833Y-26070974D01*
X148661187Y-25798291D01*
X148786885Y-25526537D01*
X149012390Y-25384272D01*
X149045705Y-25381992D01*
X149279453Y-25497954D01*
G37*
G36*
X191292922Y-25483037D02*
G01*
X191404983Y-25729071D01*
X191400224Y-25830016D01*
X191264361Y-26079119D01*
X191017063Y-26194363D01*
X190767682Y-26150778D01*
X190646320Y-26002166D01*
X190664273Y-25728241D01*
X190774277Y-25559477D01*
X191052482Y-25413452D01*
X191292922Y-25483037D01*
G37*
G36*
X195985023Y-25525989D02*
G01*
X196049510Y-25796123D01*
X195973640Y-26080495D01*
X195738295Y-26185424D01*
X195447106Y-26135284D01*
X195343906Y-26012870D01*
X195313180Y-25671113D01*
X195478557Y-25448222D01*
X195738295Y-25406821D01*
X195985023Y-25525989D01*
G37*
G36*
X216969009Y-25483037D02*
G01*
X217081070Y-25729071D01*
X217076311Y-25830016D01*
X216940448Y-26079119D01*
X216693150Y-26194363D01*
X216443769Y-26150778D01*
X216322407Y-26002166D01*
X216340360Y-25728241D01*
X216450364Y-25559477D01*
X216728569Y-25413452D01*
X216969009Y-25483037D01*
G37*
G36*
X237951618Y-25483037D02*
G01*
X238063679Y-25729071D01*
X238058920Y-25830016D01*
X237923057Y-26079119D01*
X237675758Y-26194363D01*
X237426378Y-26150778D01*
X237305016Y-26002166D01*
X237322968Y-25728241D01*
X237432972Y-25559477D01*
X237711178Y-25413452D01*
X237951618Y-25483037D01*
G37*
X21287512Y-72675056D02*
X21287512Y-73675056D01*
X8287512Y-59675056D02*
X7287512Y-59675056D01*
X21287512Y-59675056D02*
X21287512Y-60675056D01*
X21287512Y-59675056D02*
X20287512Y-59675056D01*
X7287512Y-60675056D02*
X7287512Y-59675056D01*
X20287512Y-73675056D02*
X21287512Y-73675056D01*
X7287512Y-73675056D02*
X7287512Y-72675056D01*
X7287512Y-73675056D02*
X8287512Y-73675056D01*
X356140930Y-41625040D02*
X356140930Y-40625040D01*
X370140930Y-53625040D02*
X370140930Y-54625040D01*
X356140930Y-54625040D02*
X356140930Y-53625040D01*
X357140930Y-40625040D02*
X356140930Y-40625040D01*
X356140930Y-54625040D02*
X357140930Y-54625040D01*
X369140930Y-54625040D02*
X370140930Y-54625040D01*
X370140930Y-40625040D02*
X370140930Y-41625040D01*
X370140930Y-40625040D02*
X369140930Y-40625040D01*
X35575024Y-40625040D02*
X34575024Y-40625040D01*
X34575024Y-54625040D02*
X35575024Y-54625040D01*
X22575024Y-40625040D02*
X21575024Y-40625040D01*
X35575024Y-40625040D02*
X35575024Y-41625040D01*
X21575024Y-54625040D02*
X21575024Y-53625040D01*
X35575024Y-53625040D02*
X35575024Y-54625040D01*
X21575024Y-54625040D02*
X22575024Y-54625040D01*
X21575024Y-41625040D02*
X21575024Y-40625040D01*
X59675056Y-41625040D02*
X59675056Y-40625040D01*
X73675056Y-40625040D02*
X72675056Y-40625040D01*
X73675056Y-40625040D02*
X73675056Y-41625040D01*
X72675056Y-54625040D02*
X73675056Y-54625040D01*
X60675056Y-40625040D02*
X59675056Y-40625040D01*
X59675056Y-54625040D02*
X59675056Y-53625040D01*
X59675056Y-54625040D02*
X60675056Y-54625040D01*
X73675056Y-53625040D02*
X73675056Y-54625040D01*
X111775088Y-40625040D02*
X111775088Y-41625040D01*
X97775088Y-41625040D02*
X97775088Y-40625040D01*
X97775088Y-54625040D02*
X97775088Y-53625040D01*
X111775088Y-53625040D02*
X111775088Y-54625040D01*
X97775088Y-54625040D02*
X98775088Y-54625040D01*
X110775088Y-54625040D02*
X111775088Y-54625040D01*
X111775088Y-40625040D02*
X110775088Y-40625040D01*
X98775088Y-40625040D02*
X97775088Y-40625040D01*
X135875120Y-41625040D02*
X135875120Y-40625040D01*
X149875120Y-40625040D02*
X149875120Y-41625040D01*
X149875120Y-40625040D02*
X148875120Y-40625040D01*
X149875120Y-53625040D02*
X149875120Y-54625040D01*
X136875120Y-40625040D02*
X135875120Y-40625040D01*
X135875120Y-54625040D02*
X135875120Y-53625040D01*
X148875120Y-54625040D02*
X149875120Y-54625040D01*
X135875120Y-54625040D02*
X136875120Y-54625040D01*
X186975152Y-54625040D02*
X187975152Y-54625040D01*
X187975152Y-53625040D02*
X187975152Y-54625040D01*
X187975152Y-40625040D02*
X186975152Y-40625040D01*
X187975152Y-40625040D02*
X187975152Y-41625040D01*
X173975152Y-54625040D02*
X174975152Y-54625040D01*
X173975152Y-41625040D02*
X173975152Y-40625040D01*
X173975152Y-54625040D02*
X173975152Y-53625040D01*
X174975152Y-40625040D02*
X173975152Y-40625040D01*
X226075184Y-53625040D02*
X226075184Y-54625040D01*
X226075184Y-40625040D02*
X225075184Y-40625040D01*
X225075184Y-54625040D02*
X226075184Y-54625040D01*
X212075184Y-41625040D02*
X212075184Y-40625040D01*
X212075184Y-54625040D02*
X213075184Y-54625040D01*
X212075184Y-54625040D02*
X212075184Y-53625040D01*
X226075184Y-40625040D02*
X226075184Y-41625040D01*
X213075184Y-40625040D02*
X212075184Y-40625040D01*
X231125200Y-54625040D02*
X232125200Y-54625040D01*
X232125200Y-40625040D02*
X231125200Y-40625040D01*
X231125200Y-41625040D02*
X231125200Y-40625040D01*
X245125200Y-40625040D02*
X245125200Y-41625040D01*
X245125200Y-40625040D02*
X244125200Y-40625040D01*
X245125200Y-53625040D02*
X245125200Y-54625040D01*
X231125200Y-54625040D02*
X231125200Y-53625040D01*
X244125200Y-54625040D02*
X245125200Y-54625040D01*
X299990882Y-59675056D02*
X298990882Y-59675056D01*
X298990882Y-60675056D02*
X298990882Y-59675056D01*
X312990882Y-72675056D02*
X312990882Y-73675056D01*
X312990882Y-59675056D02*
X312990882Y-60675056D01*
X298990882Y-73675056D02*
X299990882Y-73675056D01*
X311990882Y-73675056D02*
X312990882Y-73675056D01*
X312990882Y-59675056D02*
X311990882Y-59675056D01*
X298990882Y-73675056D02*
X298990882Y-72675056D01*
X332040898Y-72675056D02*
X332040898Y-73675056D01*
X332040898Y-59675056D02*
X332040898Y-60675056D01*
X319040898Y-59675056D02*
X318040898Y-59675056D01*
X318040898Y-73675056D02*
X318040898Y-72675056D01*
X318040898Y-73675056D02*
X319040898Y-73675056D01*
X331040898Y-73675056D02*
X332040898Y-73675056D01*
X332040898Y-59675056D02*
X331040898Y-59675056D01*
X318040898Y-60675056D02*
X318040898Y-59675056D01*
X337090914Y-73675056D02*
X337090914Y-72675056D01*
X351090914Y-59675056D02*
X350090914Y-59675056D01*
X337090914Y-73675056D02*
X338090914Y-73675056D01*
X338090914Y-59675056D02*
X337090914Y-59675056D01*
X351090914Y-72675056D02*
X351090914Y-73675056D01*
X337090914Y-60675056D02*
X337090914Y-59675056D01*
X350090914Y-73675056D02*
X351090914Y-73675056D01*
X351090914Y-59675056D02*
X351090914Y-60675056D01*
X370140930Y-72675056D02*
X370140930Y-73675056D01*
X357140930Y-59675056D02*
X356140930Y-59675056D01*
X370140930Y-59675056D02*
X370140930Y-60675056D01*
X356140930Y-73675056D02*
X357140930Y-73675056D01*
X356140930Y-60675056D02*
X356140930Y-59675056D01*
X370140930Y-59675056D02*
X369140930Y-59675056D01*
X356140930Y-73675056D02*
X356140930Y-72675056D01*
X369140930Y-73675056D02*
X370140930Y-73675056D01*
X337090914Y-54625040D02*
X337090914Y-53625040D01*
X337090914Y-54625040D02*
X338090914Y-54625040D01*
X351090914Y-53625040D02*
X351090914Y-54625040D01*
X351090914Y-40625040D02*
X350090914Y-40625040D01*
X351090914Y-40625040D02*
X351090914Y-41625040D01*
X337090914Y-41625040D02*
X337090914Y-40625040D01*
X350090914Y-54625040D02*
X351090914Y-54625040D01*
X338090914Y-40625040D02*
X337090914Y-40625040D01*
X63150048Y-73675056D02*
X64150048Y-73675056D01*
X64150048Y-59675056D02*
X64150048Y-60675056D01*
X50150048Y-60675056D02*
X50150048Y-59675056D01*
X64150048Y-59675056D02*
X63150048Y-59675056D01*
X51150048Y-59675056D02*
X50150048Y-59675056D01*
X64150048Y-72675056D02*
X64150048Y-73675056D01*
X50150048Y-73675056D02*
X50150048Y-72675056D01*
X50150048Y-73675056D02*
X51150048Y-73675056D01*
X88250080Y-73675056D02*
X88250080Y-72675056D01*
X102250080Y-59675056D02*
X101250080Y-59675056D01*
X102250080Y-59675056D02*
X102250080Y-60675056D01*
X88250080Y-60675056D02*
X88250080Y-59675056D01*
X102250080Y-72675056D02*
X102250080Y-73675056D01*
X88250080Y-73675056D02*
X89250080Y-73675056D01*
X101250080Y-73675056D02*
X102250080Y-73675056D01*
X89250080Y-59675056D02*
X88250080Y-59675056D01*
X140350112Y-59675056D02*
X139350112Y-59675056D01*
X127350112Y-59675056D02*
X126350112Y-59675056D01*
X140350112Y-72675056D02*
X140350112Y-73675056D01*
X140350112Y-59675056D02*
X140350112Y-60675056D01*
X139350112Y-73675056D02*
X140350112Y-73675056D01*
X126350112Y-73675056D02*
X126350112Y-72675056D01*
X126350112Y-60675056D02*
X126350112Y-59675056D01*
X126350112Y-73675056D02*
X127350112Y-73675056D01*
X165450144Y-59675056D02*
X164450144Y-59675056D01*
X164450144Y-60675056D02*
X164450144Y-59675056D01*
X164450144Y-73675056D02*
X165450144Y-73675056D01*
X164450144Y-73675056D02*
X164450144Y-72675056D01*
X178450144Y-59675056D02*
X178450144Y-60675056D01*
X178450144Y-59675056D02*
X177450144Y-59675056D01*
X177450144Y-73675056D02*
X178450144Y-73675056D01*
X178450144Y-72675056D02*
X178450144Y-73675056D01*
X202550176Y-60675056D02*
X202550176Y-59675056D01*
X202550176Y-73675056D02*
X202550176Y-72675056D01*
X216550176Y-59675056D02*
X216550176Y-60675056D01*
X202550176Y-73675056D02*
X203550176Y-73675056D01*
X216550176Y-59675056D02*
X215550176Y-59675056D01*
X203550176Y-59675056D02*
X202550176Y-59675056D01*
X215550176Y-73675056D02*
X216550176Y-73675056D01*
X216550176Y-72675056D02*
X216550176Y-73675056D01*
X241650208Y-59675056D02*
X240650208Y-59675056D01*
X240650208Y-73675056D02*
X240650208Y-72675056D01*
X240650208Y-73675056D02*
X241650208Y-73675056D01*
X254650208Y-59675056D02*
X253650208Y-59675056D01*
X254650208Y-72675056D02*
X254650208Y-73675056D01*
X254650208Y-59675056D02*
X254650208Y-60675056D01*
X253650208Y-73675056D02*
X254650208Y-73675056D01*
X240650208Y-60675056D02*
X240650208Y-59675056D01*
X312990882Y-78725072D02*
X311990882Y-78725072D01*
X298990882Y-92725072D02*
X299990882Y-92725072D01*
X298990882Y-79725072D02*
X298990882Y-78725072D01*
X311990882Y-92725072D02*
X312990882Y-92725072D01*
X312990882Y-78725072D02*
X312990882Y-79725072D01*
X299990882Y-78725072D02*
X298990882Y-78725072D01*
X298990882Y-92725072D02*
X298990882Y-91725072D01*
X312990882Y-91725072D02*
X312990882Y-92725072D01*
X332040898Y-78725072D02*
X332040898Y-79725072D01*
X318040898Y-79725072D02*
X318040898Y-78725072D01*
X332040898Y-78725072D02*
X331040898Y-78725072D01*
X318040898Y-92725072D02*
X318040898Y-91725072D01*
X332040898Y-91725072D02*
X332040898Y-92725072D01*
X318040898Y-92725072D02*
X319040898Y-92725072D01*
X319040898Y-78725072D02*
X318040898Y-78725072D01*
X331040898Y-92725072D02*
X332040898Y-92725072D01*
X351090914Y-78725072D02*
X350090914Y-78725072D01*
X350090914Y-92725072D02*
X351090914Y-92725072D01*
X337090914Y-92725072D02*
X337090914Y-91725072D01*
X337090914Y-92725072D02*
X338090914Y-92725072D01*
X351090914Y-78725072D02*
X351090914Y-79725072D01*
X337090914Y-79725072D02*
X337090914Y-78725072D01*
X338090914Y-78725072D02*
X337090914Y-78725072D01*
X351090914Y-91725072D02*
X351090914Y-92725072D01*
X356140930Y-79725072D02*
X356140930Y-78725072D01*
X356140930Y-92725072D02*
X356140930Y-91725072D01*
X369140930Y-92725072D02*
X370140930Y-92725072D01*
X370140930Y-78725072D02*
X369140930Y-78725072D01*
X370140930Y-91725072D02*
X370140930Y-92725072D01*
X357140930Y-78725072D02*
X356140930Y-78725072D01*
X370140930Y-78725072D02*
X370140930Y-79725072D01*
X356140930Y-92725072D02*
X357140930Y-92725072D01*
X31100032Y-73675056D02*
X31100032Y-72675056D01*
X31100032Y-73675056D02*
X32100032Y-73675056D01*
X45100032Y-59675056D02*
X45100032Y-60675056D01*
X45100032Y-72675056D02*
X45100032Y-73675056D01*
X44100032Y-73675056D02*
X45100032Y-73675056D01*
X32100032Y-59675056D02*
X31100032Y-59675056D01*
X45100032Y-59675056D02*
X44100032Y-59675056D01*
X31100032Y-60675056D02*
X31100032Y-59675056D01*
X83200064Y-72675056D02*
X83200064Y-73675056D01*
X69200064Y-73675056D02*
X69200064Y-72675056D01*
X69200064Y-60675056D02*
X69200064Y-59675056D01*
X69200064Y-73675056D02*
X70200064Y-73675056D01*
X70200064Y-59675056D02*
X69200064Y-59675056D01*
X82200064Y-73675056D02*
X83200064Y-73675056D01*
X83200064Y-59675056D02*
X82200064Y-59675056D01*
X83200064Y-59675056D02*
X83200064Y-60675056D01*
X242148635Y-2525008D02*
X242148635Y-3525008D01*
X228148635Y-16525008D02*
X228148635Y-15525008D01*
X228148635Y-3525008D02*
X228148635Y-2525008D01*
X228148635Y-16525008D02*
X229148635Y-16525008D01*
X229148635Y-2525008D02*
X228148635Y-2525008D01*
X242148635Y-15525008D02*
X242148635Y-16525008D01*
X241148635Y-16525008D02*
X242148635Y-16525008D01*
X242148635Y-2525008D02*
X241148635Y-2525008D01*
X165640770Y-3525008D02*
X165640770Y-2525008D01*
X179640770Y-2525008D02*
X178640770Y-2525008D01*
X165640770Y-16525008D02*
X165640770Y-15525008D01*
X165640770Y-16525008D02*
X166640770Y-16525008D01*
X179640770Y-15525008D02*
X179640770Y-16525008D01*
X178640770Y-16525008D02*
X179640770Y-16525008D01*
X166640770Y-2525008D02*
X165640770Y-2525008D01*
X179640770Y-2525008D02*
X179640770Y-3525008D01*
X223098619Y-15525008D02*
X223098619Y-16525008D01*
X209098619Y-16525008D02*
X210098619Y-16525008D01*
X210098619Y-2525008D02*
X209098619Y-2525008D01*
X209098619Y-16525008D02*
X209098619Y-15525008D01*
X209098619Y-3525008D02*
X209098619Y-2525008D01*
X223098619Y-2525008D02*
X223098619Y-3525008D01*
X223098619Y-2525008D02*
X222098619Y-2525008D01*
X222098619Y-16525008D02*
X223098619Y-16525008D01*
X248198651Y-2525008D02*
X247198651Y-2525008D01*
X247198651Y-16525008D02*
X247198651Y-15525008D01*
X247198651Y-16525008D02*
X248198651Y-16525008D01*
X260198651Y-16525008D02*
X261198651Y-16525008D01*
X261198651Y-2525008D02*
X261198651Y-3525008D01*
X261198651Y-15525008D02*
X261198651Y-16525008D01*
X261198651Y-2525008D02*
X260198651Y-2525008D01*
X247198651Y-3525008D02*
X247198651Y-2525008D01*
X298990882Y-16525008D02*
X299990882Y-16525008D01*
X312990882Y-15525008D02*
X312990882Y-16525008D01*
X311990882Y-16525008D02*
X312990882Y-16525008D01*
X299990882Y-2525008D02*
X298990882Y-2525008D01*
X312990882Y-2525008D02*
X311990882Y-2525008D01*
X298990882Y-16525008D02*
X298990882Y-15525008D01*
X298990882Y-3525008D02*
X298990882Y-2525008D01*
X312990882Y-2525008D02*
X312990882Y-3525008D01*
X318040898Y-16525008D02*
X319040898Y-16525008D01*
X318040898Y-3525008D02*
X318040898Y-2525008D01*
X332040898Y-2525008D02*
X331040898Y-2525008D01*
X332040898Y-2525008D02*
X332040898Y-3525008D01*
X318040898Y-16525008D02*
X318040898Y-15525008D01*
X331040898Y-16525008D02*
X332040898Y-16525008D01*
X319040898Y-2525008D02*
X318040898Y-2525008D01*
X332040898Y-15525008D02*
X332040898Y-16525008D01*
X337090914Y-16525008D02*
X337090914Y-15525008D01*
X351090914Y-2525008D02*
X350090914Y-2525008D01*
X337090914Y-3525008D02*
X337090914Y-2525008D01*
X351090914Y-15525008D02*
X351090914Y-16525008D01*
X350090914Y-16525008D02*
X351090914Y-16525008D01*
X337090914Y-16525008D02*
X338090914Y-16525008D01*
X351090914Y-2525008D02*
X351090914Y-3525008D01*
X338090914Y-2525008D02*
X337090914Y-2525008D01*
X369140930Y-16525008D02*
X370140930Y-16525008D01*
X356140930Y-3525008D02*
X356140930Y-2525008D01*
X356140930Y-16525008D02*
X356140930Y-15525008D01*
X370140930Y-2525008D02*
X369140930Y-2525008D01*
X356140930Y-16525008D02*
X357140930Y-16525008D01*
X370140930Y-15525008D02*
X370140930Y-16525008D01*
X370140930Y-2525008D02*
X370140930Y-3525008D01*
X357140930Y-2525008D02*
X356140930Y-2525008D01*
X40932841Y-2525008D02*
X40932841Y-3525008D01*
X26932841Y-16525008D02*
X26932841Y-15525008D01*
X40932841Y-15525008D02*
X40932841Y-16525008D01*
X39932841Y-16525008D02*
X40932841Y-16525008D01*
X26932841Y-16525008D02*
X27932841Y-16525008D01*
X27932841Y-2525008D02*
X26932841Y-2525008D01*
X26932841Y-3525008D02*
X26932841Y-2525008D01*
X40932841Y-2525008D02*
X39932841Y-2525008D01*
X79032873Y-15525008D02*
X79032873Y-16525008D01*
X79032873Y-2525008D02*
X79032873Y-3525008D01*
X65032873Y-16525008D02*
X66032873Y-16525008D01*
X66032873Y-2525008D02*
X65032873Y-2525008D01*
X65032873Y-3525008D02*
X65032873Y-2525008D01*
X78032873Y-16525008D02*
X79032873Y-16525008D01*
X79032873Y-2525008D02*
X78032873Y-2525008D01*
X65032873Y-16525008D02*
X65032873Y-15525008D01*
X108490722Y-3525008D02*
X108490722Y-2525008D01*
X121490722Y-16525008D02*
X122490722Y-16525008D01*
X108490722Y-16525008D02*
X108490722Y-15525008D01*
X122490722Y-15525008D02*
X122490722Y-16525008D01*
X109490722Y-2525008D02*
X108490722Y-2525008D01*
X108490722Y-16525008D02*
X109490722Y-16525008D01*
X122490722Y-2525008D02*
X121490722Y-2525008D01*
X122490722Y-2525008D02*
X122490722Y-3525008D01*
X160590754Y-15525008D02*
X160590754Y-16525008D01*
X146590754Y-16525008D02*
X147590754Y-16525008D01*
X147590754Y-2525008D02*
X146590754Y-2525008D01*
X159590754Y-16525008D02*
X160590754Y-16525008D01*
X146590754Y-16525008D02*
X146590754Y-15525008D01*
X146590754Y-3525008D02*
X146590754Y-2525008D01*
X160590754Y-2525008D02*
X159590754Y-2525008D01*
X160590754Y-2525008D02*
X160590754Y-3525008D01*
X203048603Y-16525008D02*
X204048603Y-16525008D01*
X204048603Y-15525008D02*
X204048603Y-16525008D01*
X190048603Y-16525008D02*
X190048603Y-15525008D01*
X190048603Y-3525008D02*
X190048603Y-2525008D01*
X190048603Y-16525008D02*
X191048603Y-16525008D01*
X204048603Y-2525008D02*
X204048603Y-3525008D01*
X204048603Y-2525008D02*
X203048603Y-2525008D01*
X191048603Y-2525008D02*
X190048603Y-2525008D01*
X107300096Y-73675056D02*
X107300096Y-72675056D01*
X120300096Y-73675056D02*
X121300096Y-73675056D01*
X121300096Y-72675056D02*
X121300096Y-73675056D01*
X107300096Y-60675056D02*
X107300096Y-59675056D01*
X121300096Y-59675056D02*
X121300096Y-60675056D01*
X107300096Y-73675056D02*
X108300096Y-73675056D01*
X108300096Y-59675056D02*
X107300096Y-59675056D01*
X121300096Y-59675056D02*
X120300096Y-59675056D01*
X312990882Y-21575024D02*
X312990882Y-22575024D01*
X311990882Y-35575024D02*
X312990882Y-35575024D01*
X298990882Y-35575024D02*
X299990882Y-35575024D01*
X298990882Y-22575024D02*
X298990882Y-21575024D01*
X299990882Y-21575024D02*
X298990882Y-21575024D01*
X312990882Y-34575024D02*
X312990882Y-35575024D01*
X298990882Y-35575024D02*
X298990882Y-34575024D01*
X312990882Y-21575024D02*
X311990882Y-21575024D01*
X319040898Y-21575024D02*
X318040898Y-21575024D01*
X332040898Y-21575024D02*
X332040898Y-22575024D01*
X332040898Y-34575024D02*
X332040898Y-35575024D01*
X332040898Y-21575024D02*
X331040898Y-21575024D01*
X318040898Y-22575024D02*
X318040898Y-21575024D01*
X331040898Y-35575024D02*
X332040898Y-35575024D01*
X318040898Y-35575024D02*
X318040898Y-34575024D01*
X318040898Y-35575024D02*
X319040898Y-35575024D01*
X337090914Y-35575024D02*
X338090914Y-35575024D01*
X337090914Y-22575024D02*
X337090914Y-21575024D01*
X337090914Y-35575024D02*
X337090914Y-34575024D01*
X351090914Y-34575024D02*
X351090914Y-35575024D01*
X338090914Y-21575024D02*
X337090914Y-21575024D01*
X350090914Y-35575024D02*
X351090914Y-35575024D01*
X351090914Y-21575024D02*
X350090914Y-21575024D01*
X351090914Y-21575024D02*
X351090914Y-22575024D01*
X356140930Y-35575024D02*
X357140930Y-35575024D01*
X370140930Y-21575024D02*
X370140930Y-22575024D01*
X370140930Y-34575024D02*
X370140930Y-35575024D01*
X356140930Y-35575024D02*
X356140930Y-34575024D01*
X369140930Y-35575024D02*
X370140930Y-35575024D01*
X356140930Y-22575024D02*
X356140930Y-21575024D01*
X357140930Y-21575024D02*
X356140930Y-21575024D01*
X370140930Y-21575024D02*
X369140930Y-21575024D01*
X16525008Y-53625040D02*
X16525008Y-54625040D01*
X2525008Y-54625040D02*
X2525008Y-53625040D01*
X2525008Y-54625040D02*
X3525008Y-54625040D01*
X3525008Y-40625040D02*
X2525008Y-40625040D01*
X2525008Y-41625040D02*
X2525008Y-40625040D01*
X16525008Y-40625040D02*
X15525008Y-40625040D01*
X16525008Y-40625040D02*
X16525008Y-41625040D01*
X15525008Y-54625040D02*
X16525008Y-54625040D01*
X54625040Y-53625040D02*
X54625040Y-54625040D01*
X54625040Y-40625040D02*
X53625040Y-40625040D01*
X41625040Y-40625040D02*
X40625040Y-40625040D01*
X40625040Y-54625040D02*
X41625040Y-54625040D01*
X40625040Y-41625040D02*
X40625040Y-40625040D01*
X54625040Y-40625040D02*
X54625040Y-41625040D01*
X40625040Y-54625040D02*
X40625040Y-53625040D01*
X53625040Y-54625040D02*
X54625040Y-54625040D01*
X78725072Y-41625040D02*
X78725072Y-40625040D01*
X79725072Y-40625040D02*
X78725072Y-40625040D01*
X91725072Y-54625040D02*
X92725072Y-54625040D01*
X78725072Y-54625040D02*
X79725072Y-54625040D01*
X92725072Y-53625040D02*
X92725072Y-54625040D01*
X92725072Y-40625040D02*
X92725072Y-41625040D01*
X92725072Y-40625040D02*
X91725072Y-40625040D01*
X78725072Y-54625040D02*
X78725072Y-53625040D01*
X116825104Y-54625040D02*
X116825104Y-53625040D01*
X129825104Y-54625040D02*
X130825104Y-54625040D01*
X117825104Y-40625040D02*
X116825104Y-40625040D01*
X116825104Y-41625040D02*
X116825104Y-40625040D01*
X130825104Y-40625040D02*
X130825104Y-41625040D01*
X130825104Y-53625040D02*
X130825104Y-54625040D01*
X116825104Y-54625040D02*
X117825104Y-54625040D01*
X130825104Y-40625040D02*
X129825104Y-40625040D01*
X154925136Y-54625040D02*
X155925136Y-54625040D01*
X155925136Y-40625040D02*
X154925136Y-40625040D01*
X168925136Y-40625040D02*
X167925136Y-40625040D01*
X168925136Y-53625040D02*
X168925136Y-54625040D01*
X154925136Y-54625040D02*
X154925136Y-53625040D01*
X168925136Y-40625040D02*
X168925136Y-41625040D01*
X167925136Y-54625040D02*
X168925136Y-54625040D01*
X154925136Y-41625040D02*
X154925136Y-40625040D01*
X193025168Y-41625040D02*
X193025168Y-40625040D01*
X207025168Y-40625040D02*
X207025168Y-41625040D01*
X207025168Y-40625040D02*
X206025168Y-40625040D01*
X193025168Y-54625040D02*
X193025168Y-53625040D01*
X206025168Y-54625040D02*
X207025168Y-54625040D01*
X207025168Y-53625040D02*
X207025168Y-54625040D01*
X193025168Y-54625040D02*
X194025168Y-54625040D01*
X194025168Y-40625040D02*
X193025168Y-40625040D01*
X298990882Y-54625040D02*
X299990882Y-54625040D01*
X312990882Y-40625040D02*
X312990882Y-41625040D01*
X298990882Y-41625040D02*
X298990882Y-40625040D01*
X312990882Y-40625040D02*
X311990882Y-40625040D01*
X312990882Y-53625040D02*
X312990882Y-54625040D01*
X299990882Y-40625040D02*
X298990882Y-40625040D01*
X311990882Y-54625040D02*
X312990882Y-54625040D01*
X298990882Y-54625040D02*
X298990882Y-53625040D01*
X318040898Y-54625040D02*
X318040898Y-53625040D01*
X332040898Y-53625040D02*
X332040898Y-54625040D01*
X331040898Y-54625040D02*
X332040898Y-54625040D01*
X319040898Y-40625040D02*
X318040898Y-40625040D01*
X318040898Y-41625040D02*
X318040898Y-40625040D01*
X332040898Y-40625040D02*
X332040898Y-41625040D01*
X332040898Y-40625040D02*
X331040898Y-40625040D01*
X318040898Y-54625040D02*
X319040898Y-54625040D01*
X102537592Y-98775088D02*
X102537592Y-97775088D01*
X116537592Y-110775088D02*
X116537592Y-111775088D01*
X116537592Y-97775088D02*
X116537592Y-98775088D01*
X102537592Y-111775088D02*
X102537592Y-110775088D01*
X102537592Y-111775088D02*
X103537592Y-111775088D01*
X115537592Y-111775088D02*
X116537592Y-111775088D01*
X116537592Y-97775088D02*
X115537592Y-97775088D01*
X103537592Y-97775088D02*
X102537592Y-97775088D01*
X54625040Y-116825104D02*
X53625040Y-116825104D01*
X40625040Y-130825104D02*
X40625040Y-129825104D01*
X40625040Y-130825104D02*
X41625040Y-130825104D01*
X40625040Y-117825104D02*
X40625040Y-116825104D01*
X53625040Y-130825104D02*
X54625040Y-130825104D01*
X54625040Y-129825104D02*
X54625040Y-130825104D01*
X41625040Y-116825104D02*
X40625040Y-116825104D01*
X54625040Y-116825104D02*
X54625040Y-117825104D01*
X226075184Y-116825104D02*
X225075184Y-116825104D01*
X212075184Y-130825104D02*
X212075184Y-129825104D01*
X225075184Y-130825104D02*
X226075184Y-130825104D01*
X212075184Y-130825104D02*
X213075184Y-130825104D01*
X226075184Y-129825104D02*
X226075184Y-130825104D01*
X212075184Y-117825104D02*
X212075184Y-116825104D01*
X213075184Y-116825104D02*
X212075184Y-116825104D01*
X226075184Y-116825104D02*
X226075184Y-117825104D01*
X59387544Y-97775088D02*
X58387544Y-97775088D01*
X59387544Y-110775088D02*
X59387544Y-111775088D01*
X58387544Y-111775088D02*
X59387544Y-111775088D01*
X45387544Y-111775088D02*
X46387544Y-111775088D01*
X45387544Y-98775088D02*
X45387544Y-97775088D01*
X45387544Y-111775088D02*
X45387544Y-110775088D01*
X59387544Y-97775088D02*
X59387544Y-98775088D01*
X46387544Y-97775088D02*
X45387544Y-97775088D01*
X97487576Y-110775088D02*
X97487576Y-111775088D01*
X97487576Y-97775088D02*
X97487576Y-98775088D01*
X83487576Y-98775088D02*
X83487576Y-97775088D01*
X83487576Y-111775088D02*
X84487576Y-111775088D01*
X97487576Y-97775088D02*
X96487576Y-97775088D01*
X83487576Y-111775088D02*
X83487576Y-110775088D01*
X96487576Y-111775088D02*
X97487576Y-111775088D01*
X84487576Y-97775088D02*
X83487576Y-97775088D01*
X135587608Y-110775088D02*
X135587608Y-111775088D01*
X121587608Y-98775088D02*
X121587608Y-97775088D01*
X121587608Y-111775088D02*
X122587608Y-111775088D01*
X134587608Y-111775088D02*
X135587608Y-111775088D01*
X122587608Y-97775088D02*
X121587608Y-97775088D01*
X135587608Y-97775088D02*
X135587608Y-98775088D01*
X135587608Y-97775088D02*
X134587608Y-97775088D01*
X121587608Y-111775088D02*
X121587608Y-110775088D01*
X173687640Y-97775088D02*
X172687640Y-97775088D01*
X159687640Y-111775088D02*
X160687640Y-111775088D01*
X160687640Y-97775088D02*
X159687640Y-97775088D01*
X159687640Y-98775088D02*
X159687640Y-97775088D01*
X173687640Y-97775088D02*
X173687640Y-98775088D01*
X172687640Y-111775088D02*
X173687640Y-111775088D01*
X173687640Y-110775088D02*
X173687640Y-111775088D01*
X159687640Y-111775088D02*
X159687640Y-110775088D01*
X197787672Y-111775088D02*
X198787672Y-111775088D01*
X197787672Y-98775088D02*
X197787672Y-97775088D01*
X197787672Y-111775088D02*
X197787672Y-110775088D01*
X211787672Y-110775088D02*
X211787672Y-111775088D01*
X210787672Y-111775088D02*
X211787672Y-111775088D01*
X211787672Y-97775088D02*
X210787672Y-97775088D01*
X198787672Y-97775088D02*
X197787672Y-97775088D01*
X211787672Y-97775088D02*
X211787672Y-98775088D01*
X243031460Y-111775088D02*
X244031460Y-111775088D01*
X243031460Y-111775088D02*
X243031460Y-110775088D01*
X257031460Y-110775088D02*
X257031460Y-111775088D01*
X257031460Y-97775088D02*
X257031460Y-98775088D01*
X257031460Y-97775088D02*
X256031460Y-97775088D01*
X243031460Y-98775088D02*
X243031460Y-97775088D01*
X256031460Y-111775088D02*
X257031460Y-111775088D01*
X244031460Y-97775088D02*
X243031460Y-97775088D01*
X34575024Y-130825104D02*
X35575024Y-130825104D01*
X22575024Y-116825104D02*
X21575024Y-116825104D01*
X35575024Y-116825104D02*
X35575024Y-117825104D01*
X21575024Y-130825104D02*
X22575024Y-130825104D01*
X35575024Y-129825104D02*
X35575024Y-130825104D01*
X35575024Y-116825104D02*
X34575024Y-116825104D01*
X21575024Y-117825104D02*
X21575024Y-116825104D01*
X21575024Y-130825104D02*
X21575024Y-129825104D01*
X193025168Y-130825104D02*
X194025168Y-130825104D01*
X193025168Y-117825104D02*
X193025168Y-116825104D01*
X193025168Y-130825104D02*
X193025168Y-129825104D01*
X206025168Y-130825104D02*
X207025168Y-130825104D01*
X207025168Y-129825104D02*
X207025168Y-130825104D01*
X207025168Y-116825104D02*
X206025168Y-116825104D01*
X194025168Y-116825104D02*
X193025168Y-116825104D01*
X207025168Y-116825104D02*
X207025168Y-117825104D01*
X231125200Y-117825104D02*
X231125200Y-116825104D01*
X244125200Y-130825104D02*
X245125200Y-130825104D01*
X245125200Y-129825104D02*
X245125200Y-130825104D01*
X245125200Y-116825104D02*
X244125200Y-116825104D01*
X245125200Y-116825104D02*
X245125200Y-117825104D01*
X231125200Y-130825104D02*
X231125200Y-129825104D01*
X232125200Y-116825104D02*
X231125200Y-116825104D01*
X231125200Y-130825104D02*
X232125200Y-130825104D01*
X64437560Y-98775088D02*
X64437560Y-97775088D01*
X64437560Y-111775088D02*
X65437560Y-111775088D01*
X78437560Y-97775088D02*
X77437560Y-97775088D01*
X65437560Y-97775088D02*
X64437560Y-97775088D01*
X78437560Y-97775088D02*
X78437560Y-98775088D01*
X78437560Y-110775088D02*
X78437560Y-111775088D01*
X64437560Y-111775088D02*
X64437560Y-110775088D01*
X77437560Y-111775088D02*
X78437560Y-111775088D01*
X173975152Y-117825104D02*
X173975152Y-116825104D01*
X173975152Y-130825104D02*
X174975152Y-130825104D01*
X186975152Y-130825104D02*
X187975152Y-130825104D01*
X187975152Y-116825104D02*
X187975152Y-117825104D01*
X173975152Y-130825104D02*
X173975152Y-129825104D01*
X187975152Y-129825104D02*
X187975152Y-130825104D01*
X174975152Y-116825104D02*
X173975152Y-116825104D01*
X187975152Y-116825104D02*
X186975152Y-116825104D01*
X154637624Y-97775088D02*
X154637624Y-98775088D01*
X140637624Y-98775088D02*
X140637624Y-97775088D01*
X140637624Y-111775088D02*
X141637624Y-111775088D01*
X154637624Y-97775088D02*
X153637624Y-97775088D01*
X141637624Y-97775088D02*
X140637624Y-97775088D01*
X140637624Y-111775088D02*
X140637624Y-110775088D01*
X153637624Y-111775088D02*
X154637624Y-111775088D01*
X154637624Y-110775088D02*
X154637624Y-111775088D01*
X191737656Y-111775088D02*
X192737656Y-111775088D01*
X179737656Y-97775088D02*
X178737656Y-97775088D01*
X192737656Y-97775088D02*
X192737656Y-98775088D01*
X192737656Y-97775088D02*
X191737656Y-97775088D01*
X178737656Y-111775088D02*
X179737656Y-111775088D01*
X192737656Y-110775088D02*
X192737656Y-111775088D01*
X178737656Y-111775088D02*
X178737656Y-110775088D01*
X178737656Y-98775088D02*
X178737656Y-97775088D01*
X230837688Y-97775088D02*
X229837688Y-97775088D01*
X216837688Y-111775088D02*
X217837688Y-111775088D01*
X217837688Y-97775088D02*
X216837688Y-97775088D01*
X216837688Y-98775088D02*
X216837688Y-97775088D01*
X230837688Y-97775088D02*
X230837688Y-98775088D01*
X230837688Y-110775088D02*
X230837688Y-111775088D01*
X216837688Y-111775088D02*
X216837688Y-110775088D01*
X229837688Y-111775088D02*
X230837688Y-111775088D01*
X274583049Y-117132905D02*
X275583049Y-117132905D01*
X288583049Y-103132905D02*
X287583049Y-103132905D01*
X288583049Y-116132905D02*
X288583049Y-117132905D01*
X274583049Y-104132905D02*
X274583049Y-103132905D01*
X288583049Y-103132905D02*
X288583049Y-104132905D01*
X274583049Y-117132905D02*
X274583049Y-116132905D01*
X275583049Y-103132905D02*
X274583049Y-103132905D01*
X287583049Y-117132905D02*
X288583049Y-117132905D01*
X255533033Y-136182921D02*
X255533033Y-135182921D01*
X269533033Y-122182921D02*
X268533033Y-122182921D01*
X255533033Y-136182921D02*
X256533033Y-136182921D01*
X255533033Y-123182921D02*
X255533033Y-122182921D01*
X269533033Y-122182921D02*
X269533033Y-123182921D01*
X268533033Y-136182921D02*
X269533033Y-136182921D01*
X269533033Y-135182921D02*
X269533033Y-136182921D01*
X256533033Y-122182921D02*
X255533033Y-122182921D01*
X287583049Y-136182921D02*
X288583049Y-136182921D01*
X288583049Y-122182921D02*
X288583049Y-123182921D01*
X274583049Y-123182921D02*
X274583049Y-122182921D01*
X274583049Y-136182921D02*
X274583049Y-135182921D01*
X275583049Y-122182921D02*
X274583049Y-122182921D01*
X274583049Y-136182921D02*
X275583049Y-136182921D01*
X288583049Y-122182921D02*
X287583049Y-122182921D01*
X288583049Y-135182921D02*
X288583049Y-136182921D01*
X307633065Y-135182921D02*
X307633065Y-136182921D01*
X293633065Y-136182921D02*
X293633065Y-135182921D01*
X293633065Y-123182921D02*
X293633065Y-122182921D01*
X293633065Y-136182921D02*
X294633065Y-136182921D01*
X307633065Y-122182921D02*
X307633065Y-123182921D01*
X294633065Y-122182921D02*
X293633065Y-122182921D01*
X307633065Y-122182921D02*
X306633065Y-122182921D01*
X306633065Y-136182921D02*
X307633065Y-136182921D01*
X127540738Y-3525008D02*
X127540738Y-2525008D01*
X140540738Y-16525008D02*
X141540738Y-16525008D01*
X127540738Y-16525008D02*
X127540738Y-15525008D01*
X127540738Y-16525008D02*
X128540738Y-16525008D01*
X141540738Y-15525008D02*
X141540738Y-16525008D01*
X128540738Y-2525008D02*
X127540738Y-2525008D01*
X141540738Y-2525008D02*
X141540738Y-3525008D01*
X141540738Y-2525008D02*
X140540738Y-2525008D01*
X84082889Y-3525008D02*
X84082889Y-2525008D01*
X84082889Y-16525008D02*
X84082889Y-15525008D01*
X97082889Y-16525008D02*
X98082889Y-16525008D01*
X84082889Y-16525008D02*
X85082889Y-16525008D01*
X98082889Y-2525008D02*
X98082889Y-3525008D01*
X98082889Y-2525008D02*
X97082889Y-2525008D01*
X98082889Y-15525008D02*
X98082889Y-16525008D01*
X85082889Y-2525008D02*
X84082889Y-2525008D01*
X59982857Y-2525008D02*
X58982857Y-2525008D01*
X45982857Y-16525008D02*
X46982857Y-16525008D01*
X59982857Y-2525008D02*
X59982857Y-3525008D01*
X46982857Y-2525008D02*
X45982857Y-2525008D01*
X45982857Y-3525008D02*
X45982857Y-2525008D01*
X45982857Y-16525008D02*
X45982857Y-15525008D01*
X59982857Y-15525008D02*
X59982857Y-16525008D01*
X58982857Y-16525008D02*
X59982857Y-16525008D01*
X2525008Y-3525008D02*
X2525008Y-2525008D01*
X16525008Y-2525008D02*
X16525008Y-3525008D01*
X2525008Y-16525008D02*
X2525008Y-15525008D01*
X16525008Y-15525008D02*
X16525008Y-16525008D01*
X16525008Y-2525008D02*
X15525008Y-2525008D01*
X3525008Y-2525008D02*
X2525008Y-2525008D01*
X15525008Y-16525008D02*
X16525008Y-16525008D01*
X2525008Y-16525008D02*
X3525008Y-16525008D01*
X146400128Y-59675056D02*
X145400128Y-59675056D01*
X159400128Y-59675056D02*
X159400128Y-60675056D01*
X145400128Y-73675056D02*
X145400128Y-72675056D01*
X158400128Y-73675056D02*
X159400128Y-73675056D01*
X159400128Y-59675056D02*
X158400128Y-59675056D01*
X145400128Y-73675056D02*
X146400128Y-73675056D01*
X145400128Y-60675056D02*
X145400128Y-59675056D01*
X159400128Y-72675056D02*
X159400128Y-73675056D01*
X183500160Y-73675056D02*
X184500160Y-73675056D01*
X183500160Y-60675056D02*
X183500160Y-59675056D01*
X184500160Y-59675056D02*
X183500160Y-59675056D01*
X183500160Y-73675056D02*
X183500160Y-72675056D01*
X197500160Y-59675056D02*
X196500160Y-59675056D01*
X196500160Y-73675056D02*
X197500160Y-73675056D01*
X197500160Y-72675056D02*
X197500160Y-73675056D01*
X197500160Y-59675056D02*
X197500160Y-60675056D01*
X235600192Y-59675056D02*
X235600192Y-60675056D01*
X235600192Y-72675056D02*
X235600192Y-73675056D01*
X221600192Y-73675056D02*
X221600192Y-72675056D01*
X221600192Y-60675056D02*
X221600192Y-59675056D01*
X234600192Y-73675056D02*
X235600192Y-73675056D01*
X222600192Y-59675056D02*
X221600192Y-59675056D01*
X235600192Y-59675056D02*
X234600192Y-59675056D01*
X221600192Y-73675056D02*
X222600192Y-73675056D01*
X264462728Y-73675056D02*
X264462728Y-72675056D01*
X278462728Y-59675056D02*
X278462728Y-60675056D01*
X265462728Y-59675056D02*
X264462728Y-59675056D01*
X264462728Y-73675056D02*
X265462728Y-73675056D01*
X277462728Y-73675056D02*
X278462728Y-73675056D01*
X278462728Y-72675056D02*
X278462728Y-73675056D01*
X264462728Y-60675056D02*
X264462728Y-59675056D01*
X278462728Y-59675056D02*
X277462728Y-59675056D01*
X298990882Y-111775088D02*
X298990882Y-110775088D01*
X311990882Y-111775088D02*
X312990882Y-111775088D01*
X312990882Y-97775088D02*
X312990882Y-98775088D01*
X312990882Y-97775088D02*
X311990882Y-97775088D01*
X298990882Y-98775088D02*
X298990882Y-97775088D01*
X312990882Y-110775088D02*
X312990882Y-111775088D01*
X299990882Y-97775088D02*
X298990882Y-97775088D01*
X298990882Y-111775088D02*
X299990882Y-111775088D01*
X319040898Y-97775088D02*
X318040898Y-97775088D01*
X331040898Y-111775088D02*
X332040898Y-111775088D01*
X332040898Y-110775088D02*
X332040898Y-111775088D01*
X332040898Y-97775088D02*
X332040898Y-98775088D01*
X332040898Y-97775088D02*
X331040898Y-97775088D01*
X318040898Y-111775088D02*
X318040898Y-110775088D01*
X318040898Y-111775088D02*
X319040898Y-111775088D01*
X318040898Y-98775088D02*
X318040898Y-97775088D01*
X350090914Y-111775088D02*
X351090914Y-111775088D01*
X337090914Y-98775088D02*
X337090914Y-97775088D01*
X337090914Y-111775088D02*
X337090914Y-110775088D01*
X351090914Y-97775088D02*
X351090914Y-98775088D01*
X351090914Y-97775088D02*
X350090914Y-97775088D01*
X337090914Y-111775088D02*
X338090914Y-111775088D01*
X351090914Y-110775088D02*
X351090914Y-111775088D01*
X338090914Y-97775088D02*
X337090914Y-97775088D01*
X22668764Y-92725072D02*
X23668764Y-92725072D01*
X23668764Y-78725072D02*
X23668764Y-79725072D01*
X23668764Y-91725072D02*
X23668764Y-92725072D01*
X9668764Y-92725072D02*
X10668764Y-92725072D01*
X9668764Y-92725072D02*
X9668764Y-91725072D01*
X9668764Y-79725072D02*
X9668764Y-78725072D01*
X23668764Y-78725072D02*
X22668764Y-78725072D01*
X10668764Y-78725072D02*
X9668764Y-78725072D01*
X54912552Y-92725072D02*
X54912552Y-91725072D01*
X54912552Y-92725072D02*
X55912552Y-92725072D01*
X68912552Y-78725072D02*
X67912552Y-78725072D01*
X68912552Y-91725072D02*
X68912552Y-92725072D01*
X54912552Y-79725072D02*
X54912552Y-78725072D01*
X55912552Y-78725072D02*
X54912552Y-78725072D01*
X67912552Y-92725072D02*
X68912552Y-92725072D01*
X68912552Y-78725072D02*
X68912552Y-79725072D01*
X107012584Y-91725072D02*
X107012584Y-92725072D01*
X93012584Y-92725072D02*
X93012584Y-91725072D01*
X93012584Y-79725072D02*
X93012584Y-78725072D01*
X93012584Y-92725072D02*
X94012584Y-92725072D01*
X107012584Y-78725072D02*
X106012584Y-78725072D01*
X106012584Y-92725072D02*
X107012584Y-92725072D01*
X94012584Y-78725072D02*
X93012584Y-78725072D01*
X107012584Y-78725072D02*
X107012584Y-79725072D01*
X145112616Y-91725072D02*
X145112616Y-92725072D01*
X131112616Y-92725072D02*
X132112616Y-92725072D01*
X145112616Y-78725072D02*
X144112616Y-78725072D01*
X131112616Y-79725072D02*
X131112616Y-78725072D01*
X144112616Y-92725072D02*
X145112616Y-92725072D01*
X132112616Y-78725072D02*
X131112616Y-78725072D01*
X131112616Y-92725072D02*
X131112616Y-91725072D01*
X145112616Y-78725072D02*
X145112616Y-79725072D01*
X183212648Y-78725072D02*
X183212648Y-79725072D01*
X169212648Y-79725072D02*
X169212648Y-78725072D01*
X183212648Y-91725072D02*
X183212648Y-92725072D01*
X169212648Y-92725072D02*
X169212648Y-91725072D01*
X182212648Y-92725072D02*
X183212648Y-92725072D01*
X183212648Y-78725072D02*
X182212648Y-78725072D01*
X169212648Y-92725072D02*
X170212648Y-92725072D01*
X170212648Y-78725072D02*
X169212648Y-78725072D01*
X221312680Y-78725072D02*
X220312680Y-78725072D01*
X208312680Y-78725072D02*
X207312680Y-78725072D01*
X221312680Y-78725072D02*
X221312680Y-79725072D01*
X221312680Y-91725072D02*
X221312680Y-92725072D01*
X207312680Y-79725072D02*
X207312680Y-78725072D01*
X207312680Y-92725072D02*
X207312680Y-91725072D01*
X220312680Y-92725072D02*
X221312680Y-92725072D01*
X207312680Y-92725072D02*
X208312680Y-92725072D01*
X3525008Y-116825104D02*
X2525008Y-116825104D01*
X16525008Y-116825104D02*
X16525008Y-117825104D01*
X15525008Y-130825104D02*
X16525008Y-130825104D01*
X16525008Y-116825104D02*
X15525008Y-116825104D01*
X16525008Y-129825104D02*
X16525008Y-130825104D01*
X2525008Y-117825104D02*
X2525008Y-116825104D01*
X2525008Y-130825104D02*
X3525008Y-130825104D01*
X2525008Y-130825104D02*
X2525008Y-129825104D01*
X318040898Y-130825104D02*
X318040898Y-129825104D01*
X332040898Y-129825104D02*
X332040898Y-130825104D01*
X331040898Y-130825104D02*
X332040898Y-130825104D01*
X332040898Y-116825104D02*
X331040898Y-116825104D01*
X332040898Y-116825104D02*
X332040898Y-117825104D01*
X319040898Y-116825104D02*
X318040898Y-116825104D01*
X318040898Y-130825104D02*
X319040898Y-130825104D01*
X318040898Y-117825104D02*
X318040898Y-116825104D01*
X351090914Y-129825104D02*
X351090914Y-130825104D01*
X338090914Y-116825104D02*
X337090914Y-116825104D01*
X351090914Y-116825104D02*
X350090914Y-116825104D01*
X350090914Y-130825104D02*
X351090914Y-130825104D01*
X337090914Y-130825104D02*
X338090914Y-130825104D01*
X337090914Y-130825104D02*
X337090914Y-129825104D01*
X337090914Y-117825104D02*
X337090914Y-116825104D01*
X351090914Y-116825104D02*
X351090914Y-117825104D01*
X49862536Y-78725072D02*
X48862536Y-78725072D01*
X48862536Y-92725072D02*
X49862536Y-92725072D01*
X49862536Y-91725072D02*
X49862536Y-92725072D01*
X36862536Y-78725072D02*
X35862536Y-78725072D01*
X49862536Y-78725072D02*
X49862536Y-79725072D01*
X35862536Y-92725072D02*
X36862536Y-92725072D01*
X35862536Y-92725072D02*
X35862536Y-91725072D01*
X35862536Y-79725072D02*
X35862536Y-78725072D01*
X86962568Y-92725072D02*
X87962568Y-92725072D01*
X87962568Y-78725072D02*
X86962568Y-78725072D01*
X73962568Y-79725072D02*
X73962568Y-78725072D01*
X87962568Y-78725072D02*
X87962568Y-79725072D01*
X87962568Y-91725072D02*
X87962568Y-92725072D01*
X74962568Y-78725072D02*
X73962568Y-78725072D01*
X73962568Y-92725072D02*
X74962568Y-92725072D01*
X73962568Y-92725072D02*
X73962568Y-91725072D01*
X113062600Y-78725072D02*
X112062600Y-78725072D01*
X126062600Y-78725072D02*
X125062600Y-78725072D01*
X126062600Y-91725072D02*
X126062600Y-92725072D01*
X125062600Y-92725072D02*
X126062600Y-92725072D01*
X112062600Y-92725072D02*
X113062600Y-92725072D01*
X112062600Y-79725072D02*
X112062600Y-78725072D01*
X112062600Y-92725072D02*
X112062600Y-91725072D01*
X126062600Y-78725072D02*
X126062600Y-79725072D01*
X150162632Y-79725072D02*
X150162632Y-78725072D01*
X164162632Y-78725072D02*
X163162632Y-78725072D01*
X163162632Y-92725072D02*
X164162632Y-92725072D01*
X151162632Y-78725072D02*
X150162632Y-78725072D01*
X150162632Y-92725072D02*
X151162632Y-92725072D01*
X164162632Y-78725072D02*
X164162632Y-79725072D01*
X150162632Y-92725072D02*
X150162632Y-91725072D01*
X164162632Y-91725072D02*
X164162632Y-92725072D01*
X202262664Y-78725072D02*
X201262664Y-78725072D01*
X188262664Y-92725072D02*
X189262664Y-92725072D01*
X188262664Y-92725072D02*
X188262664Y-91725072D01*
X202262664Y-78725072D02*
X202262664Y-79725072D01*
X201262664Y-92725072D02*
X202262664Y-92725072D01*
X188262664Y-79725072D02*
X188262664Y-78725072D01*
X189262664Y-78725072D02*
X188262664Y-78725072D01*
X202262664Y-91725072D02*
X202262664Y-92725072D01*
X226362696Y-92725072D02*
X227362696Y-92725072D01*
X226362696Y-79725072D02*
X226362696Y-78725072D01*
X240362696Y-91725072D02*
X240362696Y-92725072D01*
X240362696Y-78725072D02*
X240362696Y-79725072D01*
X239362696Y-92725072D02*
X240362696Y-92725072D01*
X240362696Y-78725072D02*
X239362696Y-78725072D01*
X227362696Y-78725072D02*
X226362696Y-78725072D01*
X226362696Y-92725072D02*
X226362696Y-91725072D01*
D14*
X107750000Y-122575000D02*
X107750000Y-125075000D01*
X102250000Y-122575000D02*
X102250000Y-125075000D01*
X106000000Y-126575000D02*
X104000000Y-126575000D01*
X102700000Y-125525000D02*
X102250000Y-125075000D01*
X106000000Y-121075000D02*
X104000000Y-121075000D01*
X107300000Y-125525000D02*
X107750000Y-125075000D01*
X102700000Y-122125000D02*
X102250000Y-122575000D01*
X107300000Y-122125000D02*
X107750000Y-122575000D01*
X271093000Y-13646800D02*
X271093000Y-13802800D01*
X271093000Y-15962800D02*
X271093000Y-16118800D01*
X274325335Y-13804192D02*
G75*
G03*
X271093000Y-13647284I-1672335J-1078608D01*
G01*
X274325335Y-15961408D02*
G75*
G02*
X271093000Y-16118316I-1672335J1078608D01*
G01*
X278237000Y-15962800D02*
X278237000Y-16118800D01*
X278237000Y-13646800D02*
X278237000Y-13802800D01*
X281469335Y-15961408D02*
G75*
G02*
X278237000Y-16118316I-1672335J1078608D01*
G01*
X281469335Y-13804192D02*
G75*
G03*
X278237000Y-13647284I-1672335J-1078608D01*
G01*
X285381000Y-13646800D02*
X285381000Y-13802800D01*
X285381000Y-15962800D02*
X285381000Y-16118800D01*
X288613335Y-15961408D02*
G75*
G02*
X285381000Y-16118316I-1672335J1078608D01*
G01*
X288613335Y-13804192D02*
G75*
G03*
X285381000Y-13647284I-1672335J-1078608D01*
G01*
X92400000Y-127695000D02*
X97600000Y-127695000D01*
X92400000Y-122555000D02*
X95000000Y-122555000D01*
X97600000Y-119955000D02*
X97600000Y-127695000D01*
X92400000Y-122555000D02*
X92400000Y-127695000D01*
X95000000Y-122555000D02*
X95000000Y-119955000D01*
X92400000Y-119955000D02*
X93730000Y-119955000D01*
X92400000Y-121285000D02*
X92400000Y-119955000D01*
X95000000Y-119955000D02*
X97600000Y-119955000D01*
D12*
X273700224Y-40625040D02*
X273700224Y-41625040D01*
X273700224Y-53625040D02*
X273700224Y-54625040D01*
X259700224Y-54625040D02*
X259700224Y-53625040D01*
X272700224Y-54625040D02*
X273700224Y-54625040D01*
X259700224Y-54625040D02*
X260700224Y-54625040D01*
X273700224Y-40625040D02*
X272700224Y-40625040D01*
X259700224Y-41625040D02*
X259700224Y-40625040D01*
X260700224Y-40625040D02*
X259700224Y-40625040D01*
X370140930Y-107300096D02*
X369140930Y-107300096D01*
X356140930Y-121300096D02*
X356140930Y-120300096D01*
X370140930Y-120300096D02*
X370140930Y-121300096D01*
X357140930Y-107300096D02*
X356140930Y-107300096D01*
X356140930Y-108300096D02*
X356140930Y-107300096D01*
X356140930Y-121300096D02*
X357140930Y-121300096D01*
X369140930Y-121300096D02*
X370140930Y-121300096D01*
X370140930Y-107300096D02*
X370140930Y-108300096D01*
X270318972Y-92725072D02*
X271318972Y-92725072D01*
X271318972Y-78725072D02*
X270318972Y-78725072D01*
X257318972Y-79725072D02*
X257318972Y-78725072D01*
X257318972Y-92725072D02*
X257318972Y-91725072D01*
X258318972Y-78725072D02*
X257318972Y-78725072D01*
X271318972Y-91725072D02*
X271318972Y-92725072D01*
X257318972Y-92725072D02*
X258318972Y-92725072D01*
X271318972Y-78725072D02*
X271318972Y-79725072D01*
X27431268Y-111775088D02*
X28431268Y-111775088D01*
X14431268Y-111775088D02*
X14431268Y-110775088D01*
X15431268Y-97775088D02*
X14431268Y-97775088D01*
X14431268Y-98775088D02*
X14431268Y-97775088D01*
X14431268Y-111775088D02*
X15431268Y-111775088D01*
X28431268Y-110775088D02*
X28431268Y-111775088D01*
X28431268Y-97775088D02*
X27431268Y-97775088D01*
X28431268Y-97775088D02*
X28431268Y-98775088D01*
X130825096Y-116825104D02*
X130825096Y-117825104D01*
X116825096Y-117825104D02*
X116825096Y-116825104D01*
X130825096Y-116825104D02*
X129825096Y-116825104D01*
X116825096Y-130825104D02*
X116825096Y-129825104D01*
X116825096Y-130825104D02*
X117825096Y-130825104D01*
X130825096Y-129825104D02*
X130825096Y-130825104D01*
X117825096Y-116825104D02*
X116825096Y-116825104D01*
X129825096Y-130825104D02*
X130825096Y-130825104D01*
M02*
