G04 #@! TF.GenerationSoftware,KiCad,Pcbnew,(5.99.0-7511-ga134567838)*
G04 #@! TF.CreationDate,2021-01-07T19:50:22-08:00*
G04 #@! TF.ProjectId,gh80-1800_Plate,67683830-2d31-4383-9030-5f506c617465,rev?*
G04 #@! TF.SameCoordinates,Original*
G04 #@! TF.FileFunction,Legend,Top*
G04 #@! TF.FilePolarity,Positive*
%FSLAX46Y46*%
G04 Gerber Fmt 4.6, Leading zero omitted, Abs format (unit mm)*
G04 Created by KiCad (PCBNEW (5.99.0-7511-ga134567838)) date 2021-01-07 19:50:22*
%MOMM*%
%LPD*%
G01*
G04 APERTURE LIST*
%ADD10C,0.300000*%
G04 APERTURE END LIST*
D10*
X137046171Y-124530128D02*
X136546171Y-123815842D01*
X136189028Y-124530128D02*
X136189028Y-123030128D01*
X136760456Y-123030128D01*
X136903314Y-123101557D01*
X136974742Y-123172985D01*
X137046171Y-123315842D01*
X137046171Y-123530128D01*
X136974742Y-123672985D01*
X136903314Y-123744414D01*
X136760456Y-123815842D01*
X136189028Y-123815842D01*
X138260456Y-124458699D02*
X138117599Y-124530128D01*
X137831885Y-124530128D01*
X137689028Y-124458699D01*
X137617599Y-124315842D01*
X137617599Y-123744414D01*
X137689028Y-123601557D01*
X137831885Y-123530128D01*
X138117599Y-123530128D01*
X138260456Y-123601557D01*
X138331885Y-123744414D01*
X138331885Y-123887271D01*
X137617599Y-124030128D01*
X138760456Y-123530128D02*
X139331885Y-123530128D01*
X138974742Y-123030128D02*
X138974742Y-124315842D01*
X139046171Y-124458699D01*
X139189028Y-124530128D01*
X139331885Y-124530128D01*
X140046171Y-124530128D02*
X139903314Y-124458699D01*
X139831885Y-124387271D01*
X139760456Y-124244414D01*
X139760456Y-123815842D01*
X139831885Y-123672985D01*
X139903314Y-123601557D01*
X140046171Y-123530128D01*
X140260456Y-123530128D01*
X140403314Y-123601557D01*
X140474742Y-123672985D01*
X140546171Y-123815842D01*
X140546171Y-124244414D01*
X140474742Y-124387271D01*
X140403314Y-124458699D01*
X140260456Y-124530128D01*
X140046171Y-124530128D01*
X141189028Y-124530128D02*
X141189028Y-123530128D01*
X141189028Y-123030128D02*
X141117599Y-123101557D01*
X141189028Y-123172985D01*
X141260456Y-123101557D01*
X141189028Y-123030128D01*
X141189028Y-123172985D01*
X142546171Y-124530128D02*
X142546171Y-123030128D01*
X142546171Y-124458699D02*
X142403314Y-124530128D01*
X142117599Y-124530128D01*
X141974742Y-124458699D01*
X141903314Y-124387271D01*
X141831885Y-124244414D01*
X141831885Y-123815842D01*
X141903314Y-123672985D01*
X141974742Y-123601557D01*
X142117599Y-123530128D01*
X142403314Y-123530128D01*
X142546171Y-123601557D01*
X143831885Y-124458699D02*
X143689028Y-124530128D01*
X143403314Y-124530128D01*
X143260456Y-124458699D01*
X143189028Y-124315842D01*
X143189028Y-123744414D01*
X143260456Y-123601557D01*
X143403314Y-123530128D01*
X143689028Y-123530128D01*
X143831885Y-123601557D01*
X143903314Y-123744414D01*
X143903314Y-123887271D01*
X143189028Y-124030128D01*
X145189028Y-124530128D02*
X145189028Y-123030128D01*
X145189028Y-124458699D02*
X145046171Y-124530128D01*
X144760456Y-124530128D01*
X144617599Y-124458699D01*
X144546171Y-124387271D01*
X144474742Y-124244414D01*
X144474742Y-123815842D01*
X144546171Y-123672985D01*
X144617599Y-123601557D01*
X144760456Y-123530128D01*
X145046171Y-123530128D01*
X145189028Y-123601557D01*
X147831885Y-124530128D02*
X146974742Y-124530128D01*
X147403314Y-124530128D02*
X147403314Y-123030128D01*
X147260456Y-123244414D01*
X147117599Y-123387271D01*
X146974742Y-123458699D01*
X148689028Y-123672985D02*
X148546171Y-123601557D01*
X148474742Y-123530128D01*
X148403314Y-123387271D01*
X148403314Y-123315842D01*
X148474742Y-123172985D01*
X148546171Y-123101557D01*
X148689028Y-123030128D01*
X148974742Y-123030128D01*
X149117599Y-123101557D01*
X149189028Y-123172985D01*
X149260456Y-123315842D01*
X149260456Y-123387271D01*
X149189028Y-123530128D01*
X149117599Y-123601557D01*
X148974742Y-123672985D01*
X148689028Y-123672985D01*
X148546171Y-123744414D01*
X148474742Y-123815842D01*
X148403314Y-123958699D01*
X148403314Y-124244414D01*
X148474742Y-124387271D01*
X148546171Y-124458699D01*
X148689028Y-124530128D01*
X148974742Y-124530128D01*
X149117599Y-124458699D01*
X149189028Y-124387271D01*
X149260456Y-124244414D01*
X149260456Y-123958699D01*
X149189028Y-123815842D01*
X149117599Y-123744414D01*
X148974742Y-123672985D01*
X150189028Y-123030128D02*
X150331885Y-123030128D01*
X150474742Y-123101557D01*
X150546171Y-123172985D01*
X150617599Y-123315842D01*
X150689028Y-123601557D01*
X150689028Y-123958699D01*
X150617599Y-124244414D01*
X150546171Y-124387271D01*
X150474742Y-124458699D01*
X150331885Y-124530128D01*
X150189028Y-124530128D01*
X150046171Y-124458699D01*
X149974742Y-124387271D01*
X149903314Y-124244414D01*
X149831885Y-123958699D01*
X149831885Y-123601557D01*
X149903314Y-123315842D01*
X149974742Y-123172985D01*
X150046171Y-123101557D01*
X150189028Y-123030128D01*
X151617599Y-123030128D02*
X151760456Y-123030128D01*
X151903314Y-123101557D01*
X151974742Y-123172985D01*
X152046171Y-123315842D01*
X152117599Y-123601557D01*
X152117599Y-123958699D01*
X152046171Y-124244414D01*
X151974742Y-124387271D01*
X151903314Y-124458699D01*
X151760456Y-124530128D01*
X151617599Y-124530128D01*
X151474742Y-124458699D01*
X151403314Y-124387271D01*
X151331885Y-124244414D01*
X151260456Y-123958699D01*
X151260456Y-123601557D01*
X151331885Y-123315842D01*
X151403314Y-123172985D01*
X151474742Y-123101557D01*
X151617599Y-123030128D01*
M02*
