<?xml version="1.0" standalone="no"?>
 <!DOCTYPE svg PUBLIC "-//W3C//DTD SVG 1.1//EN" 
 "http://www.w3.org/Graphics/SVG/1.1/DTD/svg11.dtd"> 
<svg
  xmlns:svg="http://www.w3.org/2000/svg"
  xmlns="http://www.w3.org/2000/svg"
  xmlns:xlink="http://www.w3.org/1999/xlink"
  version="1.1"
  width="43.180000cm" height="27.940000cm" viewBox="0 0 431800000 279400000">
<title>SVG Picture created as gh80-1800_Plate-Edge_Cuts.svg date 2021/01/07 08:43:07 </title>
  <desc>Picture generated by PCBNEW </desc>
<g style="fill:#000000; fill-opacity:1.000000;stroke:#000000; stroke-opacity:1.000000;
stroke-linecap:round; stroke-linejoin:round;"
 transform="translate(0 0) scale(1 1)">
</g>
<g style="fill:#000000; fill-opacity:0.0; 
stroke:#000000; stroke-width:0.000000; stroke-opacity:1; 
stroke-linecap:round; stroke-linejoin:round;">
</g>
<g style="fill:#000000; fill-opacity:0.0; 
stroke:#000000; stroke-width:309.000000; stroke-opacity:1; 
stroke-linecap:round; stroke-linejoin:round;">
<path d="M397151127.000000 125741708.000000 A299999.000000 299999.000000 0.0 0 0 397451126.000000 125441709.000000" />
<path d="M181637058 130792348
L168237535 130792348
" />
<path d="M55432685 130791448
L42033162 130791448
" />
<path d="M106038909 35543538
L92639386 35543538
" />
<path d="M229849661.000000 106393197.000000 A300000.000000 300000.000000 0.0 0 0 230149661.000000 106693197.000000" />
<path d="M36970647 112043185
L36970647 125443158
" />
<path d="M157824605 73643262
L144425082 73643262
" />
<path d="M398949673.000000 132418261.000000 A999998.000000 999998.000000 0.0 0 0 397949675.000000 131418263.000000" />
<path d="M383750604.000000 140317604.000000 A299999.000000 299999.000000 0.0 0 0 383450605.000000 140617603.000000" />
<path d="M258136655 144492321
L258136655 131092347
" />
<path d="M301001006.000000 73943566.000000 A299999.000000 299999.000000 0.0 0 0 300701007.000000 73643567.000000" />
<path d="M397949675 131418263
L382951505 131415513
" />
<path d="M267661336.000000 112043185.000000 A300000.000000 300000.000000 0.0 0 0 267361336.000000 111743185.000000" />
<path d="M359351202 144492321
L359351202 131092347
" />
<path d="M302901758.000000 72142915.000000 A999998.000000 999998.000000 0.0 0 0 301901760.000000 73142913.000000" />
<path d="M75062787 70326851
L88062761 65326861
" />
<path d="M26626969.000000 165041419.000000 A1999995.000000 1999995.000000 0.0 0 0 28626964.000000 167041414.000000" />
<path d="M281650808.000000 106693196.000000 A299999.000000 299999.000000 0.0 0 0 281950807.000000 106393197.000000" />
<path d="M186989497.000000 144492321.000000 A300000.000000 300000.000000 0.0 0 0 187289497.000000 144792321.000000" />
<path d="M274513822 35843538
L274513822 49243511
" />
<path d="M158124605 87343235
L158124605 73943262
" />
<path d="M187901545.000000 35843538.000000 A299999.000000 299999.000000 0.0 0 0 187601546.000000 35543539.000000" />
<path d="M139362892 112043185
L139362892 125443159
" />
<path d="M398949673 138418265
L398949673 132418261
" />
<path d="M182526156.000000 73643262.000000 A300000.000000 300000.000000 0.0 0 0 182226156.000000 73943262.000000" />
<path d="M258726303 163842342
L272125827 163842342
" />
<path d="M281638808 172405285
L336138699 172405285
" />
<path d="M270632830 144792320
L284032353 144792320
" />
<path d="M168551584.000000 49543510.000000 A299999.000000 299999.000000 0.0 0 0 168851583.000000 49243511.000000" />
<path d="M177764516 125743158
L191164039 125743158
" />
<path d="M243849183 106393197
L243849183 92993224
" />
<path d="M168237535.000000 130792348.000000 A299999.000000 299999.000000 0.0 0 0 167937536.000000 131092347.000000" />
<path d="M124488872.000000 144792320.000000 A299999.000000 299999.000000 0.0 0 0 124788871.000000 144492321.000000" />
<path d="M30126961 87643234
L43526484 87643234
" />
<path d="M381951507 156216464
L381951507 162216468
" />
<path d="M397150577.000000 154317126.000000 A299999.000000 299999.000000 0.0 0 0 397450576.000000 154017127.000000" />
<path d="M326601718.000000 111743186.000000 A299999.000000 299999.000000 0.0 0 0 326301719.000000 112043185.000000" />
<path d="M302188767 150155559
L315588290 150155559
" />
<path d="M364401642.000000 144492321.000000 A300000.000000 300000.000000 0.0 0 0 364701642.000000 144792321.000000" />
<path d="M340001241 92693224
L326601718 92693224
" />
<path d="M143538834.000000 144792320.000000 A299999.000000 299999.000000 0.0 0 0 143838833.000000 144492321.000000" />
<path d="M364401642.000000 125443159.000000 A300000.000000 300000.000000 0.0 0 0 364701642.000000 125743159.000000" />
<path d="M210801100 92993224
L210801100 106393197
" />
<path d="M90102533 149343731
L90099783 164341901
" />
<path d="M34889461.000000 92693224.000000 A300000.000000 300000.000000 0.0 0 0 34589461.000000 92993224.000000" />
<path d="M144425082.000000 149841680.000000 A299999.000000 299999.000000 0.0 0 0 144125083.000000 150141679.000000" />
<path d="M210213151 111743186
L196813627 111743186
" />
<path d="M157824605.000000 163841652.000000 A299999.000000 299999.000000 0.0 0 0 158124604.000000 163541653.000000" />
<path d="M144425082 87643234
L157824605 87643234
" />
<path d="M125075421 73943262
L125075421 87343235
" />
<path d="M182226157.000000 87343235.000000 A299999.000000 299999.000000 0.0 0 0 182526156.000000 87643234.000000" />
<path d="M382951505 163216466
L397949675 163219216
" />
<path d="M29826961 73943262
L29826961 87343235
" />
<path d="M275646248 65090108
L284646230 70090098
" />
<path d="M29826962.000000 163542343.000000 A299999.000000 299999.000000 0.0 0 0 30126961.000000 163842342.000000" />
<path d="M67926962 150142369
L67926962 163542343
" />
<path d="M96801877 106693196
L110201401 106693196
" />
<path d="M62876495.000000 73943262.000000 A299999.000000 299999.000000 0.0 0 0 62576496.000000 73643263.000000" />
<path d="M67926962.000000 163542343.000000 A299999.000000 299999.000000 0.0 0 0 68226961.000000 163842342.000000" />
<path d="M364401642 73943262
L364401642 87343235
" />
<path d="M345651680 125743158
L359051203 125743158
" />
<path d="M255763860.000000 35543538.000000 A300000.000000 300000.000000 0.0 0 0 255463860.000000 35843538.000000" />
<path d="M285098059.000000 89141081.000000 A999998.000000 999998.000000 0.0 0 0 286098057.000000 88141083.000000" />
<path d="M154852061 35843538
L154852061 49243511
" />
<path d="M106326858.000000 73643262.000000 A300000.000000 300000.000000 0.0 0 0 106026858.000000 73943262.000000" />
<path d="M200058101 59593490
L210124849 59593490
" />
<path d="M196513628 112043185
L196513628 125443159
" />
<path d="M378401164 87343235
L378401164 73943262
" />
<path d="M186701548 106393197
L186701548 92993224
" />
<path d="M139074943 87343235
L139074943 73943262
" />
<path d="M359051203.000000 49543510.000000 A299999.000000 299999.000000 0.0 0 0 359351202.000000 49243511.000000" />
<path d="M383452604.000000 87343235.000000 A300000.000000 300000.000000 0.0 0 0 383752604.000000 87643235.000000" />
<path d="M340301240.000000 92993224.000000 A299999.000000 299999.000000 0.0 0 0 340001241.000000 92693225.000000" />
<path d="M110201401 92693224
L96801877 92693224
" />
<path d="M72689426 131092347
L72689426 144492321
" />
<path d="M173902023 35843538
L173902023 49243511
" />
<path d="M125375420.000000 73643262.000000 A300000.000000 300000.000000 0.0 0 0 125075420.000000 73943262.000000" />
<path d="M100976419.000000 73943262.000000 A299999.000000 299999.000000 0.0 0 0 100676420.000000 73643263.000000" />
<path d="M217663936.000000 35543538.000000 A300000.000000 300000.000000 0.0 0 0 217363936.000000 35843538.000000" />
<path d="M283138805.000000 155205559.000000 A300000.000000 300000.000000 0.0 0 0 282838805.000000 155505559.000000" />
<path d="M272125827 73643262
L258726304 73643262
" />
<path d="M258136655.000000 131092347.000000 A300000.000000 300000.000000 0.0 0 0 257836655.000000 130792347.000000" />
<path d="M225088571 131092347
L225088571 144492321
" />
<path d="M378401164.000000 92993224.000000 A299999.000000 299999.000000 0.0 0 0 378101165.000000 92693225.000000" />
<path d="M285100809 72142915
L279100805 72142915
" />
<path d="M234612152 112043185
L234612152 125443159
" />
<path d="M338138695 170405289
L338136484 169048535
" />
<path d="M91099781 165341899
L97099785 165341899
" />
<path d="M326301718.000000 125443159.000000 A300000.000000 300000.000000 0.0 0 0 326601718.000000 125743159.000000" />
<path d="M172112077.000000 125743158.000000 A299999.000000 299999.000000 0.0 0 0 172412076.000000 125443159.000000" />
<path d="M217363936.000000 49243511.000000 A300000.000000 300000.000000 0.0 0 0 217663936.000000 49543511.000000" />
<path d="M301899010.000000 88141083.000000 A999998.000000 999998.000000 0.0 0 0 302899008.000000 89141081.000000" />
<path d="M200989019 144492321
L200989019 131092347
" />
<path d="M110501400 106393197
L110501400 92993224
" />
<path d="M224500622.000000 106693196.000000 A299999.000000 299999.000000 0.0 0 0 224800621.000000 106393197.000000" />
<path d="M381951507.000000 138415515.000000 A999998.000000 999998.000000 0.0 0 0 382951505.000000 139415513.000000" />
<path d="M364401642.000000 68293473.000000 A300000.000000 300000.000000 0.0 0 0 364701642.000000 68593473.000000" />
<path d="M153650064.000000 106393197.000000 A299999.000000 299999.000000 0.0 0 0 153950063.000000 106693196.000000" />
<path d="M276721060.000000 110243389.000000 A999998.000000 999998.000000 0.0 0 0 275721062.000000 111243387.000000" />
<path d="M267361336.000000 125743158.000000 A299999.000000 299999.000000 0.0 0 0 267661335.000000 125443159.000000" />
<path d="M139074943.000000 73943262.000000 A299999.000000 299999.000000 0.0 0 0 138774944.000000 73643263.000000" />
<path d="M62876006 163542343
L62876006 150142369
" />
<path d="M192098395.000000 165341899.000000 A999998.000000 999998.000000 0.0 0 0 193098393.000000 164341901.000000" />
<path d="M321238729.000000 155205559.000000 A300000.000000 300000.000000 0.0 0 0 320938729.000000 155505559.000000" />
<path d="M300701007.000000 87643538.000000 A299999.000000 299999.000000 0.0 0 0 301001006.000000 87343539.000000" />
<path d="M34589462.000000 106393197.000000 A299999.000000 299999.000000 0.0 0 0 34889461.000000 106693196.000000" />
<path d="M359051203.000000 68593472.000000 A299999.000000 299999.000000 0.0 0 0 359351202.000000 68293473.000000" />
<path d="M238788094.000000 144792320.000000 A299999.000000 299999.000000 0.0 0 0 239088093.000000 144492321.000000" />
<path d="M359051203 73643262
L345651680 73643262
" />
<path d="M215863589.000000 111743186.000000 A299999.000000 299999.000000 0.0 0 0 215563590.000000 112043185.000000" />
<path d="M383751604 125741708
L397151127 125741708
" />
<path d="M284032353 130792348
L270632830 130792348
" />
<path d="M383752604.000000 35543538.000000 A300000.000000 300000.000000 0.0 0 0 383452604.000000 35843538.000000" />
<path d="M234024203 73643262
L220624680 73643262
" />
<path d="M191164039.000000 125743158.000000 A299999.000000 299999.000000 0.0 0 0 191464038.000000 125443159.000000" />
<path d="M130139311.000000 130792348.000000 A299999.000000 299999.000000 0.0 0 0 129839312.000000 131092347.000000" />
<path d="M301901760 73142913
L301899010 88141083
" />
<path d="M117301562.000000 163342343.000000 A999998.000000 999998.000000 0.0 0 0 118301560.000000 164342341.000000" />
<path d="M340001241.000000 125743158.000000 A299999.000000 299999.000000 0.0 0 0 340301240.000000 125443159.000000" />
<path d="M378101165.000000 106693196.000000 A299999.000000 299999.000000 0.0 0 0 378401164.000000 106393197.000000" />
<path d="M186401548 92693224
L173002025 92693224
" />
<path d="M258726304.000000 73643262.000000 A300000.000000 300000.000000 0.0 0 0 258426304.000000 73943262.000000" />
<path d="M317088737.000000 42543524.000000 A1999996.000000 1999996.000000 0.0 0 0 319088733.000000 40543528.000000" />
<path d="M397152127 35543538
L383752604 35543538
" />
<path d="M276718310 127241555
L282718314 127241555
" />
<path d="M378401164 125443159
L378401164 112043185
" />
<path d="M43526484 35543538
L30126961 35543538
" />
<path d="M340301240 144492321
L340301240 131092347
" />
<path d="M98102533.000000 149343731.000000 A999998.000000 999998.000000 0.0 0 0 97102535.000000 148343733.000000" />
<path d="M400641195.000000 34343541.000000 A1999996.000000 1999996.000000 0.0 0 0 398641199.000000 32343545.000000" />
<path d="M201276119 73943262
L201276119 87343235
" />
<path d="M230149661 106693196
L243549184 106693196
" />
<path d="M274124721 63593482
L268124733 63593482
" />
<path d="M326301718.000000 68293473.000000 A300000.000000 300000.000000 0.0 0 0 326601718.000000 68593473.000000" />
<path d="M134313852 125443159
L134313852 112043185
" />
<path d="M193098393 164341901
L193101143 149343731
" />
<path d="M77163967.000000 112043185.000000 A300000.000000 300000.000000 0.0 0 0 76863967.000000 111743185.000000" />
<path d="M315888289.000000 155505559.000000 A299999.000000 299999.000000 0.0 0 0 315588290.000000 155205560.000000" />
<path d="M326601718 106693196
L340001241 106693196
" />
<path d="M158124604.000000 150141679.000000 A299999.000000 299999.000000 0.0 0 0 157824605.000000 149841680.000000" />
<path d="M126301544.000000 164342341.000000 A999998.000000 999998.000000 0.0 0 0 127301542.000000 163342343.000000" />
<path d="M262898845 106393197
L262898845 92993224
" />
<path d="M268124733.000000 59593490.000000 A1999996.000000 1999996.000000 0.0 0 0 268124733.000000 63593482.000000" />
<path d="M106026859.000000 87343235.000000 A299999.000000 299999.000000 0.0 0 0 106326858.000000 87643234.000000" />
<path d="M87288947 49243511
L87288947 35843538
" />
<path d="M244437132.000000 130792348.000000 A299999.000000 299999.000000 0.0 0 0 244137133.000000 131092347.000000" />
<path d="M134900401.000000 92693224.000000 A300000.000000 300000.000000 0.0 0 0 134600401.000000 92993224.000000" />
<path d="M236713898.000000 35543538.000000 A300000.000000 300000.000000 0.0 0 0 236413898.000000 35843538.000000" />
<path d="M230149661.000000 92693224.000000 A300000.000000 300000.000000 0.0 0 0 229849661.000000 92993224.000000" />
<path d="M229263113 111743186
L215863589 111743186
" />
<path d="M284620402 112042485
L284620402 125442459
" />
<path d="M168851583 49243511
L168851583 35843538
" />
<path d="M272425826 163542343
L272425826 150142369
" />
<path d="M54539462.000000 35543538.000000 A300000.000000 300000.000000 0.0 0 0 54239462.000000 35843538.000000" />
<path d="M193101143.000000 149343731.000000 A999998.000000 999998.000000 0.0 0 0 192101145.000000 148343733.000000" />
<path d="M136102099 49543510
L149501622 49543510
" />
<path d="M39854236 129292351
L33854232 129292351
" />
<path d="M87288947.000000 35843538.000000 A300000.000000 300000.000000 0.0 0 0 86988947.000000 35543538.000000" />
<path d="M253073865 73643262
L239674342 73643262
" />
<path d="M287301484.000000 73643566.000000 A300000.000000 300000.000000 0.0 0 0 287001484.000000 73943566.000000" />
<path d="M378101165.000000 87643234.000000 A299999.000000 299999.000000 0.0 0 0 378401164.000000 87343235.000000" />
<path d="M359051203 111743186
L345651680 111743186
" />
<path d="M224800622.000000 92993224.000000 A300000.000000 300000.000000 0.0 0 0 224500622.000000 92693224.000000" />
<path d="M206338608.000000 130792348.000000 A299999.000000 299999.000000 0.0 0 0 206038609.000000 131092347.000000" />
<path d="M37270646 125743157
L50670170 125743157
" />
<path d="M315588290 155205559
L302188767 155205559
" />
<path d="M239088093 144492321
L239088093 131092347
" />
<path d="M248311674.000000 125743158.000000 A299999.000000 299999.000000 0.0 0 0 248611673.000000 125443159.000000" />
<path d="M82514406.000000 111743186.000000 A299999.000000 299999.000000 0.0 0 0 82214407.000000 112043185.000000" />
<path d="M397450425 106392747
L397450425 92992773
" />
<path d="M54239463 35843538
L54239463 49243511
" />
<path d="M186101141.000000 148343733.000000 A999998.000000 999998.000000 0.0 0 0 185101143.000000 149343731.000000" />
<path d="M173002025 106693196
L186401548 106693196
" />
<path d="M340001241 111743186
L326601718 111743186
" />
<path d="M138774944.000000 87643234.000000 A299999.000000 299999.000000 0.0 0 0 139074943.000000 87343235.000000" />
<path d="M300522012.000000 110243389.000000 A999998.000000 999998.000000 0.0 0 0 299522014.000000 111243387.000000" />
<path d="M274124721.234799 63593481.864439 A3999992.000000 3999992.000000 0.0 0 0 275646248.023538 65090108.035178" />
<path d="M336138699.000000 172405285.000000 A1999996.000000 1999996.000000 0.0 0 0 338138695.000000 170405289.000000" />
<path d="M258726303.000000 149842370.000000 A299999.000000 299999.000000 0.0 0 0 258426304.000000 150142369.000000" />
<path d="M239676483 163843512
L253076006 163843512
" />
<path d="M298319924 111742486
L284920401 111742486
" />
<path d="M340001241.000000 49543510.000000 A299999.000000 299999.000000 0.0 0 0 340301240.000000 49243511.000000" />
<path d="M284646229.990618 70090098.016888 A3999992.000000 3999992.000000 0.0 0 0 290588790.000000 66593476.194193" />
<path d="M279531384.009382 58096863.983112 A3999992.000000 3999992.000000 0.0 0 0 274124721.409813 59593489.832429" />
<path d="M364701642 125743158
L378101165 125743158
" />
<path d="M154852061.000000 49243511.000000 A300000.000000 300000.000000 0.0 0 0 155152061.000000 49543511.000000" />
<path d="M196513628.000000 125443159.000000 A299999.000000 299999.000000 0.0 0 0 196813627.000000 125743158.000000" />
<path d="M326301718 35843538
L326301718 49243511
" />
<path d="M397150426 92692774
L383750903 92692774
" />
<path d="M345651680.000000 149842370.000000 A299999.000000 299999.000000 0.0 0 0 345351681.000000 150142369.000000" />
<path d="M345651680.000000 111743186.000000 A299999.000000 299999.000000 0.0 0 0 345351681.000000 112043185.000000" />
<path d="M397450576.000000 140617603.000000 A299999.000000 299999.000000 0.0 0 0 397150577.000000 140317604.000000" />
<path d="M72101477.000000 106693196.000000 A299999.000000 299999.000000 0.0 0 0 72401476.000000 106393197.000000" />
<path d="M383752604.000000 73643262.000000 A300000.000000 300000.000000 0.0 0 0 383452604.000000 73943262.000000" />
<path d="M101564368.000000 111743186.000000 A299999.000000 299999.000000 0.0 0 0 101264369.000000 112043185.000000" />
<path d="M87276897.000000 73643262.000000 A300000.000000 300000.000000 0.0 0 0 86976897.000000 73943262.000000" />
<path d="M56632025.000000 145290519.000000 A999998.000000 999998.000000 0.0 0 0 57632023.000000 146290517.000000" />
<path d="M364401642.000000 49243511.000000 A300000.000000 300000.000000 0.0 0 0 364701642.000000 49543511.000000" />
<path d="M248311674 111743186
L234912151 111743186
" />
<path d="M291762238.000000 106393197.000000 A299999.000000 299999.000000 0.0 0 0 292062237.000000 106693196.000000" />
<path d="M181937057.000000 131092347.000000 A299999.000000 299999.000000 0.0 0 0 181637058.000000 130792348.000000" />
<path d="M118301560 149342371
L126301544 149342371
" />
<path d="M248611674 125443159
L248611674 112043185
" />
<path d="M326601718.000000 35543538.000000 A300000.000000 300000.000000 0.0 0 0 326301718.000000 35843538.000000" />
<path d="M87276897 87643234
L100676420 87643234
" />
<path d="M340301240.000000 73943262.000000 A299999.000000 299999.000000 0.0 0 0 340001241.000000 73643263.000000" />
<path d="M60088439 65285787
L72088415 70285777
" />
<path d="M43526484.000000 49543510.000000 A299999.000000 299999.000000 0.0 0 0 43826483.000000 49243511.000000" />
<path d="M214976491 149841680
L201576968 149841680
" />
<path d="M120614330 125743158
L134013853 125743158
" />
<path d="M345351680 73943262
L345351680 87343235
" />
<path d="M86988947 35543538
L73589424 35543538
" />
<path d="M158412554 112043185
L158412554 125443159
" />
<path d="M253073865.000000 87643234.000000 A299999.000000 299999.000000 0.0 0 0 253373864.000000 87343235.000000" />
<path d="M144425082.000000 73643262.000000 A300000.000000 300000.000000 0.0 0 0 144125082.000000 73943262.000000" />
<path d="M274813821 49543510
L288213345 49543510
" />
<path d="M397151127 111741736
L383751604 111741736
" />
<path d="M267951285 92993224
L267951285 106393197
" />
<path d="M143838833.000000 131092347.000000 A299999.000000 299999.000000 0.0 0 0 143538834.000000 130792348.000000" />
<path d="M284332352.000000 131092347.000000 A299999.000000 299999.000000 0.0 0 0 284032353.000000 130792348.000000" />
<path d="M49176973.000000 73643262.000000 A300000.000000 300000.000000 0.0 0 0 48876973.000000 73943262.000000" />
<path d="M43526484 149842370
L30126961 149842370
" />
<path d="M210124849.234799 63593481.864439 A3999992.000000 3999992.000000 0.0 0 0 217053038.608668 63593482.135561" />
<path d="M134900401 106693196
L148299925 106693196
" />
<path d="M281950807 106393197
L281950807 92993224
" />
<path d="M288513344 49243511
L288513344 35843538
" />
<path d="M345351680 150142369
L345351680 163542342
" />
<path d="M41733163 131091447
L41733163 144491421
" />
<path d="M105738910.000000 131092347.000000 A300000.000000 300000.000000 0.0 0 0 105438910.000000 130792347.000000" />
<path d="M158712554 125743158
L172112077 125743158
" />
<path d="M296538328.000000 169205531.000000 A299999.000000 299999.000000 0.0 0 0 296838327.000000 168905532.000000" />
<path d="M62876495 87343235
L62876495 73943262
" />
<path d="M359351202 125443159
L359351202 112043185
" />
<path d="M191164039 111743186
L177764516 111743186
" />
<path d="M91451438.000000 92993224.000000 A299999.000000 299999.000000 0.0 0 0 91151439.000000 92693225.000000" />
<path d="M92039387.000000 130792348.000000 A299999.000000 299999.000000 0.0 0 0 91739388.000000 131092347.000000" />
<path d="M115551840 92993224
L115551840 106393197
" />
<path d="M253376006.000000 150143539.000000 A300000.000000 300000.000000 0.0 0 0 253076006.000000 149843539.000000" />
<path d="M340301240 68293473
L340301240 54893500
" />
<path d="M345651680 68593472
L359051203 68593472
" />
<path d="M284620402.000000 125442459.000000 A299999.000000 299999.000000 0.0 0 0 284920401.000000 125742458.000000" />
<path d="M359351202.000000 54893500.000000 A299999.000000 299999.000000 0.0 0 0 359051203.000000 54593501.000000" />
<path d="M32851484.000000 145290519.000000 A999998.000000 999998.000000 0.0 0 0 33851482.000000 146290517.000000" />
<path d="M383452604.000000 68293473.000000 A300000.000000 300000.000000 0.0 0 0 383752604.000000 68593473.000000" />
<path d="M172112077 111743186
L158712554 111743186
" />
<path d="M267361336 111743186
L253961813 111743186
" />
<path d="M155152061 49543510
L168551584 49543510
" />
<path d="M149801621.000000 35843538.000000 A299999.000000 299999.000000 0.0 0 0 149501622.000000 35543539.000000" />
<path d="M55732685.000000 131091447.000000 A300000.000000 300000.000000 0.0 0 0 55432685.000000 130791447.000000" />
<path d="M267661336 125443159
L267661336 112043185
" />
<path d="M279098055 89141081
L285098059 89141081
" />
<path d="M298619924 125442459
L298619924 112042485
" />
<path d="M143538834 130792348
L130139311 130792348
" />
<path d="M234024203.000000 87643234.000000 A299999.000000 299999.000000 0.0 0 0 234324202.000000 87343235.000000" />
<path d="M106338908 49243511
L106338908 35843538
" />
<path d="M272125827.000000 87643234.000000 A299999.000000 299999.000000 0.0 0 0 272425826.000000 87343235.000000" />
<path d="M48876973 73943262
L48876973 87343235
" />
<path d="M239376484 150143539
L239376484 163543513
" />
<path d="M383750604 154317126
L397150577 154317126
" />
<path d="M64634775.000000 130292349.000000 A999998.000000 999998.000000 0.0 0 0 63634777.000000 129292351.000000" />
<path d="M134600402.000000 106393197.000000 A299999.000000 299999.000000 0.0 0 0 134900401.000000 106693196.000000" />
<path d="M326301718 112043185
L326301718 125443159
" />
<path d="M383752604 87643234
L397152127 87643234
" />
<path d="M340301240 106393197
L340301240 92993224
" />
<path d="M381951507 132415511
L381951507 138415515
" />
<path d="M82514406 125743158
L95913929 125743158
" />
<path d="M321238729 169205531
L334638252 169205531
" />
<path d="M234326453.000000 150142369.000000 A300000.000000 300000.000000 0.0 0 0 234026453.000000 149842369.000000" />
<path d="M359351202.000000 73943262.000000 A299999.000000 299999.000000 0.0 0 0 359051203.000000 73643263.000000" />
<path d="M191751138 92993224
L191751138 106393197
" />
<path d="M378401164 163542342
L378401164 150142369
" />
<path d="M243549184.000000 106693196.000000 A299999.000000 299999.000000 0.0 0 0 243849183.000000 106393197.000000" />
<path d="M326601718.000000 130792348.000000 A299999.000000 299999.000000 0.0 0 0 326301719.000000 131092347.000000" />
<path d="M72401476 106393197
L72401476 92993224
" />
<path d="M115263891.000000 112043185.000000 A300000.000000 300000.000000 0.0 0 0 114963891.000000 111743185.000000" />
<path d="M378401164.000000 150142369.000000 A299999.000000 299999.000000 0.0 0 0 378101165.000000 149842370.000000" />
<path d="M319088733 40543528
L319088733 38343533
" />
<path d="M162887395 144492321
L162887395 131092347
" />
<path d="M95913929 111743186
L82514406 111743186
" />
<path d="M229263113.000000 125743158.000000 A299999.000000 299999.000000 0.0 0 0 229563112.000000 125443159.000000" />
<path d="M279531384 58096864
L282225311 59593490
" />
<path d="M92039387 144792320
L105438910 144792320
" />
<path d="M302188767 169205531
L315588290 169205531
" />
<path d="M340001241.000000 68593472.000000 A299999.000000 299999.000000 0.0 0 0 340301240.000000 68293473.000000" />
<path d="M129839311.000000 144492321.000000 A300000.000000 300000.000000 0.0 0 0 130139311.000000 144792321.000000" />
<path d="M120614330.000000 111743186.000000 A299999.000000 299999.000000 0.0 0 0 120314331.000000 112043185.000000" />
<path d="M29826961.000000 49243511.000000 A300000.000000 300000.000000 0.0 0 0 30126961.000000 49543511.000000" />
<path d="M378401164 68293473
L378401164 54893500
" />
<path d="M383450604.000000 154017127.000000 A300000.000000 300000.000000 0.0 0 0 383750604.000000 154317127.000000" />
<path d="M340001241.000000 87643234.000000 A299999.000000 299999.000000 0.0 0 0 340301240.000000 87343235.000000" />
<path d="M72088414.940828 70285777.142012 A3999993.000000 3999993.000000 0.0 0 0 75062787.588769 70326851.974321" />
<path d="M73289425.000000 49243511.000000 A299999.000000 299999.000000 0.0 0 0 73589424.000000 49543510.000000" />
<path d="M326301718.000000 144492321.000000 A300000.000000 300000.000000 0.0 0 0 326601718.000000 144792321.000000" />
<path d="M114963891.000000 125743158.000000 A299999.000000 299999.000000 0.0 0 0 115263890.000000 125443159.000000" />
<path d="M177464516 112043185
L177464516 125443159
" />
<path d="M111389348 35843538
L111389348 49243511
" />
<path d="M39851486.000000 146290517.000000 A999998.000000 999998.000000 0.0 0 0 40851484.000000 145290519.000000" />
<path d="M305461760.000000 106693196.000000 A299999.000000 299999.000000 0.0 0 0 305761759.000000 106393197.000000" />
<path d="M185098393.000000 164341901.000000 A999998.000000 999998.000000 0.0 0 0 186098391.000000 165341899.000000" />
<path d="M284032353.000000 144792320.000000 A299999.000000 299999.000000 0.0 0 0 284332352.000000 144492321.000000" />
<path d="M172702026.000000 106393197.000000 A299999.000000 299999.000000 0.0 0 0 173002025.000000 106693196.000000" />
<path d="M43526484.000000 87643234.000000 A299999.000000 299999.000000 0.0 0 0 43826483.000000 87343235.000000" />
<path d="M111389348.000000 49243511.000000 A300000.000000 300000.000000 0.0 0 0 111689348.000000 49543511.000000" />
<path d="M144125082 150141679
L144125082 163541653
" />
<path d="M315888289 149855560
L315888289 136455587
" />
<path d="M187601546 35543538
L174202023 35543538
" />
<path d="M34589462 92993224
L34589462 106393197
" />
<path d="M153950063.000000 92693224.000000 A300000.000000 300000.000000 0.0 0 0 153650063.000000 92993224.000000" />
<path d="M378401164 106393197
L378401164 92993224
" />
<path d="M258426304.000000 163542343.000000 A299999.000000 299999.000000 0.0 0 0 258726303.000000 163842342.000000" />
<path d="M55432685.000000 144791420.000000 A299999.000000 299999.000000 0.0 0 0 55732684.000000 144491421.000000" />
<path d="M284332352 144492321
L284332352 131092347
" />
<path d="M217053038.765201 59593490.135561 A3999992.000000 3999992.000000 0.0 0 0 210124849.391332 59593489.864439" />
<path d="M43826483.000000 73943262.000000 A299999.000000 299999.000000 0.0 0 0 43526484.000000 73643263.000000" />
<path d="M359351202 68293473
L359351202 54893500
" />
<path d="M205450660.000000 106693196.000000 A299999.000000 299999.000000 0.0 0 0 205750659.000000 106393197.000000" />
<path d="M383450903 92992773
L383450903 106392747
" />
<path d="M364401642 54893500
L364401642 68293473
" />
<path d="M345351680 112043185
L345351680 125443159
" />
<path d="M272125827 149842370
L258726303 149842370
" />
<path d="M236413898.000000 49243511.000000 A300000.000000 300000.000000 0.0 0 0 236713898.000000 49543511.000000" />
<path d="M320938729.000000 168905532.000000 A300000.000000 300000.000000 0.0 0 0 321238729.000000 169205532.000000" />
<path d="M397152127.000000 68593472.000000 A299999.000000 299999.000000 0.0 0 0 397452126.000000 68293473.000000" />
<path d="M100976419 87343235
L100976419 73943262
" />
<path d="M269163383 35543538
L255763860 35543538
" />
<path d="M163477044.000000 73643262.000000 A300000.000000 300000.000000 0.0 0 0 163177044.000000 73943262.000000" />
<path d="M378401164.000000 35843538.000000 A299999.000000 299999.000000 0.0 0 0 378101165.000000 35543539.000000" />
<path d="M334638252.000000 169205531.000000 A299999.000000 299999.000000 0.0 0 0 334938251.000000 168905532.000000" />
<path d="M148599924.000000 92993224.000000 A299999.000000 299999.000000 0.0 0 0 148299925.000000 92693225.000000" />
<path d="M124488872 130792348
L111089349 130792348
" />
<path d="M220038131 144492321
L220038131 131092347
" />
<path d="M48588984.000000 92993224.000000 A299999.000000 299999.000000 0.0 0 0 48288985.000000 92693225.000000" />
<path d="M58701954.000000 92693224.000000 A300000.000000 300000.000000 0.0 0 0 58401954.000000 92993224.000000" />
<path d="M34889461 106693196
L48288985 106693196
" />
<path d="M381951507.000000 162216468.000000 A999998.000000 999998.000000 0.0 0 0 382951505.000000 163216466.000000" />
<path d="M49176483.000000 149842370.000000 A299999.000000 299999.000000 0.0 0 0 48876484.000000 150142369.000000" />
<path d="M36970647.000000 125443158.000000 A299999.000000 299999.000000 0.0 0 0 37270646.000000 125743157.000000" />
<path d="M120314330 112043185
L120314330 125443159
" />
<path d="M139662892 125743158
L153062415 125743158
" />
<path d="M155152061.000000 35543538.000000 A300000.000000 300000.000000 0.0 0 0 154852061.000000 35843538.000000" />
<path d="M190058121.000000 63593482.000000 A1999996.000000 1999996.000000 0.0 0 0 190058121.000000 59593490.000000" />
<path d="M37270646.000000 111743185.000000 A300000.000000 300000.000000 0.0 0 0 36970646.000000 112043185.000000" />
<path d="M98099783 164341901
L98102533 149343731
" />
<path d="M217363936 35843538
L217363936 49243511
" />
<path d="M92339386 35843538
L92339386 49243511
" />
<path d="M397452126.000000 73943262.000000 A299999.000000 299999.000000 0.0 0 0 397152127.000000 73643263.000000" />
<path d="M291588788.000000 65593478.000000 A999998.000000 999998.000000 0.0 0 0 290588790.000000 66593476.000000" />
<path d="M250113421.000000 49543510.000000 A299999.000000 299999.000000 0.0 0 0 250413420.000000 49243511.000000" />
<path d="M283138805 169205531
L296538328 169205531
" />
<path d="M200989019.000000 131092347.000000 A299999.000000 299999.000000 0.0 0 0 200689020.000000 130792348.000000" />
<path d="M100676420.000000 87643234.000000 A299999.000000 299999.000000 0.0 0 0 100976419.000000 87343235.000000" />
<path d="M383752604.000000 54593500.000000 A300000.000000 300000.000000 0.0 0 0 383452604.000000 54893500.000000" />
<path d="M153650064 92993224
L153650064 106393197
" />
<path d="M163177045 73943262
L163177045 87343235
" />
<path d="M214975641.000000 87643234.000000 A299999.000000 299999.000000 0.0 0 0 215275640.000000 87343235.000000" />
<path d="M253076006 149843540
L239676483 149843540
" />
<path d="M86688948.000000 131092347.000000 A300000.000000 300000.000000 0.0 0 0 86388948.000000 130792347.000000" />
<path d="M139362892.000000 125443159.000000 A300000.000000 300000.000000 0.0 0 0 139662892.000000 125743159.000000" />
<path d="M127301542.000000 150342369.000000 A999998.000000 999998.000000 0.0 0 0 126301544.000000 149342371.000000" />
<path d="M326301718 92993224
L326301718 106393197
" />
<path d="M397450576 154017127
L397450576 140617603
" />
<circle cx="132301532.000000" cy="156838296.000000" r="1999996.000000" /> 
<path d="M272425826.000000 150142369.000000 A299999.000000 299999.000000 0.0 0 0 272125827.000000 149842370.000000" />
<path d="M397452126 68293473
L397452126 54893500
" />
<path d="M63164445.000000 125443159.000000 A299999.000000 299999.000000 0.0 0 0 63464444.000000 125743158.000000" />
<path d="M345651680 106693196
L359051203 106693196
" />
<path d="M296838327 168905532
L296838327 155505559
" />
<path d="M63464444.000000 111743186.000000 A299999.000000 299999.000000 0.0 0 0 63164445.000000 112043185.000000" />
<path d="M100157691.000000 63593482.000000 A1999996.000000 1999996.000000 0.0 0 0 100157691.000000 59593490.000000" />
<path d="M364401642 150142369
L364401642 163542342
" />
<path d="M275721062 111243387
L275718312 126241557
" />
<path d="M364701642.000000 73643262.000000 A300000.000000 300000.000000 0.0 0 0 364401642.000000 73943262.000000" />
<path d="M100157691 63593482
L90090943 63593482
" />
<path d="M307519264 126241557
L307522014 111243387
" />
<path d="M250113421 35543538
L236713898 35543538
" />
<path d="M48876484 150142369
L48876484 163542343
" />
<path d="M305461760 92693224
L292062237 92693224
" />
<path d="M125088871 35543538
L111689348 35543538
" />
<path d="M106338908.000000 35843538.000000 A299999.000000 299999.000000 0.0 0 0 106038909.000000 35543539.000000" />
<path d="M397451126 125441709
L397451126 112041735
" />
<path d="M269463382 49243511
L269463382 35843538
" />
<path d="M305761760 106393197
L305761760 92993224
" />
<path d="M205750660.000000 92993224.000000 A300000.000000 300000.000000 0.0 0 0 205450660.000000 92693224.000000" />
<path d="M296838327.000000 155505559.000000 A299999.000000 299999.000000 0.0 0 0 296538328.000000 155205560.000000" />
<path d="M378401164 144492321
L378401164 131092347
" />
<path d="M187289497 144792320
L200689020 144792320
" />
<path d="M174202023.000000 35543538.000000 A300000.000000 300000.000000 0.0 0 0 173902023.000000 35843538.000000" />
<path d="M42033162 144791420
L55432685 144791420
" />
<path d="M100676420 73643262
L87276897 73643262
" />
<path d="M174202023 49543510
L187601546 49543510
" />
<path d="M248611674.000000 112043185.000000 A300000.000000 300000.000000 0.0 0 0 248311674.000000 111743185.000000" />
<path d="M29826961.000000 87343235.000000 A300000.000000 300000.000000 0.0 0 0 30126961.000000 87643235.000000" />
<path d="M63632027.000000 146290517.000000 A999998.000000 999998.000000 0.0 0 0 64632025.000000 145290519.000000" />
<path d="M115263891 125443159
L115263891 112043185
" />
<path d="M201576968 163841652
L214976491 163841652
" />
<path d="M248899323.000000 106393197.000000 A300000.000000 300000.000000 0.0 0 0 249199323.000000 106693197.000000" />
<path d="M281950807.000000 92993224.000000 A299999.000000 299999.000000 0.0 0 0 281650808.000000 92693225.000000" />
<path d="M315888289.000000 136455587.000000 A299999.000000 299999.000000 0.0 0 0 315588290.000000 136155588.000000" />
<path d="M345351680.000000 125443159.000000 A300000.000000 300000.000000 0.0 0 0 345651680.000000 125743159.000000" />
<path d="M258426304 150142369
L258426304 163542343
" />
<path d="M43826483 87343235
L43826483 73943262
" />
<path d="M307522014.000000 111243387.000000 A999998.000000 999998.000000 0.0 0 0 306522016.000000 110243389.000000" />
<path d="M326601718 68593472
L340001241 68593472
" />
<path d="M364701642.000000 111743186.000000 A299999.000000 299999.000000 0.0 0 0 364401643.000000 112043185.000000" />
<path d="M73589424.000000 35543538.000000 A300000.000000 300000.000000 0.0 0 0 73289424.000000 35843538.000000" />
<path d="M321096488.000000 65598535.000000 A1999996.000000 1999996.000000 0.0 0 0 323096484.000000 63598539.000000" />
<path d="M67938985.000000 49543510.000000 A299999.000000 299999.000000 0.0 0 0 68238984.000000 49243511.000000" />
<path d="M153062415.000000 125743158.000000 A299999.000000 299999.000000 0.0 0 0 153362414.000000 125443159.000000" />
<path d="M315588290 136155587
L302188767 136155587
" />
<path d="M129839311 131092347
L129839311 144492321
" />
<path d="M105738910 144492321
L105738910 131092347
" />
<path d="M210124849 63593482
L200058101 63593482
" />
<path d="M378101165 54593500
L364701642 54593500
" />
<path d="M279636480.000000 169041411.000000 A1999996.000000 1999996.000000 0.0 0 0 277636484.000000 167041415.000000" />
<path d="M302188767.000000 155205559.000000 A300000.000000 300000.000000 0.0 0 0 301888767.000000 155505559.000000" />
<path d="M176876567 73643262
L163477044 73643262
" />
<path d="M291588788 65593478
L321096488 65598535
" />
<path d="M253661814.000000 125443159.000000 A299999.000000 299999.000000 0.0 0 0 253961813.000000 125743158.000000" />
<path d="M215563590.000000 125443159.000000 A299999.000000 299999.000000 0.0 0 0 215863589.000000 125743158.000000" />
<path d="M345651680.000000 35543538.000000 A300000.000000 300000.000000 0.0 0 0 345351680.000000 35843538.000000" />
<path d="M340301240.000000 54893500.000000 A299999.000000 299999.000000 0.0 0 0 340001241.000000 54593501.000000" />
<path d="M364401642 35843538
L364401642 49243511
" />
<path d="M308901762 72142915
L302901758 72142915
" />
<path d="M63164445 112043185
L63164445 125443159
" />
<path d="M378401164.000000 112043185.000000 A299999.000000 299999.000000 0.0 0 0 378101165.000000 111743186.000000" />
<path d="M257836655.000000 144792320.000000 A299999.000000 299999.000000 0.0 0 0 258136654.000000 144492321.000000" />
<path d="M101264369.000000 125443159.000000 A299999.000000 299999.000000 0.0 0 0 101564368.000000 125743158.000000" />
<path d="M238788094 130792348
L225388570 130792348
" />
<path d="M359051203 149842370
L345651680 149842370
" />
<path d="M86388948 130792348
L72989425 130792348
" />
<path d="M398949673.000000 156219214.000000 A999998.000000 999998.000000 0.0 0 0 397949675.000000 155219216.000000" />
<path d="M278098057.000000 88141083.000000 A999998.000000 999998.000000 0.0 0 0 279098055.000000 89141081.000000" />
<path d="M148599924 106393197
L148599924 92993224
" />
<path d="M28626964.000000 32343546.000000 A1999995.000000 1999995.000000 0.0 0 0 26626969.000000 34343541.000000" />
<path d="M282838805.000000 168905532.000000 A300000.000000 300000.000000 0.0 0 0 283138805.000000 169205532.000000" />
<path d="M63464444 125743158
L76863967 125743158
" />
<path d="M192101145 148343733
L186101141 148343733
" />
<path d="M364701642.000000 149842370.000000 A299999.000000 299999.000000 0.0 0 0 364401643.000000 150142369.000000" />
<path d="M359351202 87343235
L359351202 73943262
" />
<path d="M320938729 155505559
L320938729 168905532
" />
<path d="M326301718 73943262
L326301718 87343235
" />
<path d="M196813627 125743158
L210213151 125743158
" />
<path d="M229563112 125443159
L229563112 112043185
" />
<path d="M186401548.000000 106693196.000000 A299999.000000 299999.000000 0.0 0 0 186701547.000000 106393197.000000" />
<path d="M397451126.000000 112041735.000000 A299999.000000 299999.000000 0.0 0 0 397151127.000000 111741736.000000" />
<path d="M287301484 87643538
L300701007 87643538
" />
<path d="M62576496.000000 87643234.000000 A299999.000000 299999.000000 0.0 0 0 62876495.000000 87343235.000000" />
<path d="M258426304 73943262
L258426304 87343235
" />
<path d="M43826483 49243511
L43826483 35843538
" />
<path d="M163477044 87643234
L176876567 87643234
" />
<path d="M134600402 92993224
L134600402 106393197
" />
<path d="M90099783.000000 164341901.000000 A999998.000000 999998.000000 0.0 0 0 91099781.000000 165341899.000000" />
<path d="M42033162.000000 130791448.000000 A299999.000000 299999.000000 0.0 0 0 41733163.000000 131091447.000000" />
<path d="M397452126.000000 54893500.000000 A299999.000000 299999.000000 0.0 0 0 397152127.000000 54593501.000000" />
<path d="M244437132 144792320
L257836655 144792320
" />
<path d="M359051203.000000 163842342.000000 A300000.000000 300000.000000 0.0 0 0 359351203.000000 163542342.000000" />
<path d="M219738132.000000 144792320.000000 A299999.000000 299999.000000 0.0 0 0 220038131.000000 144492321.000000" />
<path d="M268251285.000000 92693224.000000 A300000.000000 300000.000000 0.0 0 0 267951285.000000 92993224.000000" />
<path d="M124788872 144492321
L124788872 131092347
" />
<path d="M67926935.000000 87343235.000000 A300000.000000 300000.000000 0.0 0 0 68226935.000000 87643235.000000" />
<path d="M58401954.000000 106393197.000000 A300000.000000 300000.000000 0.0 0 0 58701954.000000 106693197.000000" />
<path d="M234026453.000000 163842342.000000 A299999.000000 299999.000000 0.0 0 0 234326452.000000 163542343.000000" />
<path d="M220626930 163842342
L234026453 163842342
" />
<path d="M234026453 149842370
L220626930 149842370
" />
<path d="M215275641.000000 73943262.000000 A300000.000000 300000.000000 0.0 0 0 214975641.000000 73643262.000000" />
<path d="M253373864.000000 73943262.000000 A299999.000000 299999.000000 0.0 0 0 253073865.000000 73643263.000000" />
<path d="M239674342.000000 73643262.000000 A300000.000000 300000.000000 0.0 0 0 239374342.000000 73943262.000000" />
<path d="M72989425 144792320
L86388948 144792320
" />
<path d="M92639386 49543510
L106038909 49543510
" />
<path d="M50670170 111743185
L37270646 111743185
" />
<path d="M211101099.000000 92693224.000000 A300000.000000 300000.000000 0.0 0 0 210801099.000000 92993224.000000" />
<path d="M153950063 106693196
L167349586 106693196
" />
<path d="M68226935 87643234
L81626458 87643234
" />
<path d="M345351680.000000 68293473.000000 A300000.000000 300000.000000 0.0 0 0 345651680.000000 68593473.000000" />
<path d="M90090943 59593490
L100157691 59593490
" />
<path d="M168851583.000000 35843538.000000 A299999.000000 299999.000000 0.0 0 0 168551584.000000 35543539.000000" />
<path d="M91102531.000000 148343733.000000 A999998.000000 999998.000000 0.0 0 0 90102533.000000 149343731.000000" />
<path d="M215863589 125743158
L229263113 125743158
" />
<path d="M129551362 106393197
L129551362 92993224
" />
<path d="M120026381 87343235
L120026381 73943262
" />
<path d="M397452126 49243511
L397452126 35843538
" />
<path d="M129251363 92693224
L115851839 92693224
" />
<path d="M239374342 73943262
L239374342 87343235
" />
<path d="M67926935 73943262
L67926935 87343235
" />
<path d="M186701548.000000 92993224.000000 A300000.000000 300000.000000 0.0 0 0 186401548.000000 92693224.000000" />
<path d="M167649586 106393197
L167649586 92993224
" />
<path d="M191464038 125443159
L191464038 112043185
" />
<path d="M383752604 49543510
L397152127 49543510
" />
<path d="M340301240.000000 112043185.000000 A299999.000000 299999.000000 0.0 0 0 340001241.000000 111743186.000000" />
<path d="M95913929.000000 125743158.000000 A299999.000000 299999.000000 0.0 0 0 96213928.000000 125443159.000000" />
<path d="M244137133.000000 144492321.000000 A299999.000000 299999.000000 0.0 0 0 244437132.000000 144792320.000000" />
<path d="M253376006 163543513
L253376006 150143539
" />
<path d="M43526484.000000 163842342.000000 A299999.000000 299999.000000 0.0 0 0 43826483.000000 163542343.000000" />
<path d="M239676483.000000 149843540.000000 A299999.000000 299999.000000 0.0 0 0 239376484.000000 150143539.000000" />
<path d="M185101143 149343731
L185098393 164341901
" />
<path d="M117301562 150342369
L117301562 163342343
" />
<path d="M291699725 44543520
L291699725 57593494
" />
<path d="M283718312 126241557
L283721062 111243387
" />
<path d="M364701642 144792320
L378101165 144792320
" />
<path d="M291762238 92993224
L291762238 106393197
" />
<path d="M182226157 73943262
L182226157 87343235
" />
<path d="M125375420 87643234
L138774944 87643234
" />
<path d="M162887395.000000 131092347.000000 A299999.000000 299999.000000 0.0 0 0 162587396.000000 130792348.000000" />
<path d="M205450660 92693224
L192051137 92693224
" />
<path d="M289699729.000000 59593490.000000 A1999996.000000 1999996.000000 0.0 0 0 291699725.000000 57593494.000000" />
<path d="M162587396 130792348
L149187873 130792348
" />
<path d="M91151439 92693224
L77751916 92693224
" />
<path d="M43526484 73643262
L30126961 73643262
" />
<path d="M181937057 144492321
L181937057 131092347
" />
<path d="M326601718 125743158
L340001241 125743158
" />
<path d="M378101165 111743186
L364701642 111743186
" />
<path d="M397949675.000000 163219216.000000 A999998.000000 999998.000000 0.0 0 0 398949673.000000 162219218.000000" />
<path d="M205750660 106393197
L205750660 92993224
" />
<path d="M110789350 131092347
L110789350 144492321
" />
<path d="M206951507.000000 35843538.000000 A299999.000000 299999.000000 0.0 0 0 206651508.000000 35543539.000000" />
<path d="M110201401.000000 106693196.000000 A299999.000000 299999.000000 0.0 0 0 110501400.000000 106393197.000000" />
<path d="M397452126.000000 35843538.000000 A299999.000000 299999.000000 0.0 0 0 397152127.000000 35543539.000000" />
<path d="M359351202 163542342
L359351202 150142369
" />
<path d="M334638252 155205559
L321238729 155205559
" />
<path d="M308899012.000000 89141081.000000 A999998.000000 999998.000000 0.0 0 0 309899010.000000 88141083.000000" />
<path d="M345651680 49543510
L359051203 49543510
" />
<path d="M81626484.000000 163842342.000000 A299999.000000 299999.000000 0.0 0 0 81926483.000000 163542343.000000" />
<path d="M364401642 131092347
L364401642 144492321
" />
<path d="M30126961.000000 35543538.000000 A300000.000000 300000.000000 0.0 0 0 29826961.000000 35843538.000000" />
<path d="M143838833 144492321
L143838833 131092347
" />
<path d="M82214407.000000 125443159.000000 A299999.000000 299999.000000 0.0 0 0 82514406.000000 125743158.000000" />
<path d="M81926484 163542343
L81926484 150142369
" />
<path d="M299522014 111243387
L299519264 126241557
" />
<path d="M364401642 112043185
L364401642 125443159
" />
<path d="M86688948 144492321
L86688948 131092347
" />
<path d="M77751916 106693196
L91151439 106693196
" />
<path d="M258726304 87643234
L272125827 87643234
" />
<path d="M306522016 110243389
L300522012 110243389
" />
<path d="M298619924.000000 112042485.000000 A300000.000000 300000.000000 0.0 0 0 298319924.000000 111742485.000000" />
<path d="M383750903.000000 92692774.000000 A299999.000000 299999.000000 0.0 0 0 383450904.000000 92992773.000000" />
<path d="M118301560.000000 149342371.000000 A999998.000000 999998.000000 0.0 0 0 117301562.000000 150342369.000000" />
<path d="M101264369 112043185
L101264369 125443159
" />
<path d="M397150426.000000 106692746.000000 A299999.000000 299999.000000 0.0 0 0 397450425.000000 106392747.000000" />
<path d="M253961813 125743158
L267361336 125743158
" />
<path d="M206951507 49243511
L206951507 35843538
" />
<path d="M383451604 112041735
L383451604 125441709
" />
<path d="M26626969 34343541
L26626969 165041419
" />
<path d="M236413898 35843538
L236413898 49243511
" />
<path d="M378101165 130792348
L364701642 130792348
" />
<path d="M214976491.000000 163841652.000000 A300000.000000 300000.000000 0.0 0 0 215276491.000000 163541652.000000" />
<path d="M105438910.000000 144792320.000000 A299999.000000 299999.000000 0.0 0 0 105738909.000000 144492321.000000" />
<path d="M41733163.000000 144491421.000000 A299999.000000 299999.000000 0.0 0 0 42033162.000000 144791420.000000" />
<path d="M111089349 144792320
L124488872 144792320
" />
<path d="M86388948.000000 144792320.000000 A299999.000000 299999.000000 0.0 0 0 86688947.000000 144492321.000000" />
<path d="M359351202.000000 92993224.000000 A299999.000000 299999.000000 0.0 0 0 359051203.000000 92693225.000000" />
<path d="M177464516.000000 125443159.000000 A300000.000000 300000.000000 0.0 0 0 177764516.000000 125743159.000000" />
<path d="M288213345.000000 49543510.000000 A299999.000000 299999.000000 0.0 0 0 288513344.000000 49243511.000000" />
<path d="M196813627.000000 111743186.000000 A299999.000000 299999.000000 0.0 0 0 196513628.000000 112043185.000000" />
<path d="M326601718.000000 54593500.000000 A300000.000000 300000.000000 0.0 0 0 326301718.000000 54893500.000000" />
<path d="M345351680.000000 106393197.000000 A300000.000000 300000.000000 0.0 0 0 345651680.000000 106693197.000000" />
<path d="M129551362.000000 92993224.000000 A299999.000000 299999.000000 0.0 0 0 129251363.000000 92693225.000000" />
<path d="M364701642 106693196
L378101165 106693196
" />
<path d="M49176973 87643234
L62576496 87643234
" />
<path d="M220324680.000000 87343235.000000 A300000.000000 300000.000000 0.0 0 0 220624680.000000 87643235.000000" />
<path d="M215563590 112043185
L215563590 125443159
" />
<path d="M148299925.000000 106693196.000000 A299999.000000 299999.000000 0.0 0 0 148599924.000000 106393197.000000" />
<path d="M262898845.000000 92993224.000000 A299999.000000 299999.000000 0.0 0 0 262598846.000000 92693225.000000" />
<path d="M299519264.000000 126241557.000000 A999998.000000 999998.000000 0.0 0 0 300519262.000000 127241555.000000" />
<path d="M345351680.000000 87343235.000000 A300000.000000 300000.000000 0.0 0 0 345651680.000000 87643235.000000" />
<path d="M279638812 170405289
L279636480 169041411
" />
<path d="M48876973.000000 87343235.000000 A300000.000000 300000.000000 0.0 0 0 49176973.000000 87643235.000000" />
<path d="M34626952 63593482
L58162803 63593482
" />
<path d="M149501622.000000 49543510.000000 A299999.000000 299999.000000 0.0 0 0 149801621.000000 49243511.000000" />
<path d="M326301718.000000 49243511.000000 A300000.000000 300000.000000 0.0 0 0 326601718.000000 49543511.000000" />
<path d="M225088571.000000 144492321.000000 A299999.000000 299999.000000 0.0 0 0 225388570.000000 144792320.000000" />
<path d="M82214407 112043185
L82214407 125443159
" />
<path d="M359051203 92693224
L345651680 92693224
" />
<path d="M81626484 149842370
L68226961 149842370
" />
<path d="M72989425.000000 130792348.000000 A299999.000000 299999.000000 0.0 0 0 72689426.000000 131092347.000000" />
<path d="M286098057 88141083
L286100807 73142913
" />
<path d="M359051203.000000 125743158.000000 A299999.000000 299999.000000 0.0 0 0 359351202.000000 125443159.000000" />
<path d="M279638812.000000 170405289.000000 A1999996.000000 1999996.000000 0.0 0 0 281638808.000000 172405285.000000" />
<path d="M306519266.000000 127241555.000000 A999998.000000 999998.000000 0.0 0 0 307519264.000000 126241557.000000" />
<path d="M340001241.000000 144792320.000000 A299999.000000 299999.000000 0.0 0 0 340301240.000000 144492321.000000" />
<path d="M30126961 49543510
L43526484 49543510
" />
<path d="M192951985 35843538
L192951985 49243511
" />
<path d="M397450425.000000 92992773.000000 A299999.000000 299999.000000 0.0 0 0 397150426.000000 92692774.000000" />
<path d="M58701954 106693196
L72101477 106693196
" />
<path d="M73589424 49543510
L86988947 49543510
" />
<path d="M293699721.000000 42543524.000000 A1999996.000000 1999996.000000 0.0 0 0 291699725.000000 44543520.000000" />
<path d="M192051137 106693196
L205450660 106693196
" />
<path d="M30126961 163842342
L43526484 163842342
" />
<path d="M68238985 49243511
L68238985 35843538
" />
<path d="M301888767 155505559
L301888767 168905532
" />
<path d="M50970169 125443158
L50970169 112043185
" />
<path d="M234912151 125743158
L248311674 125743158
" />
<path d="M61626898.000000 57593494.000000 A3999992.000000 3999992.000000 0.0 0 0 58162803.313065 59593490.000000" />
<path d="M309899010 88141083
L309901760 73142913
" />
<path d="M96501878 92993224
L96501878 106393197
" />
<path d="M345651680 144792320
L359051203 144792320
" />
<path d="M88062761.043341 65326861.112687 A3999992.000000 3999992.000000 0.0 0 0 90090942.471736 63593482.372734" />
<path d="M383450903.000000 106392747.000000 A300000.000000 300000.000000 0.0 0 0 383750903.000000 106692747.000000" />
<path d="M281650808 92693224
L268251285 92693224
" />
<path d="M397949675.000000 139418263.000000 A999998.000000 999998.000000 0.0 0 0 398949673.000000 138418265.000000" />
<path d="M282838805 155505559
L282838805 168905532
" />
<path d="M359351202.000000 112043185.000000 A299999.000000 299999.000000 0.0 0 0 359051203.000000 111743186.000000" />
<path d="M149187873.000000 130792348.000000 A299999.000000 299999.000000 0.0 0 0 148887874.000000 131092347.000000" />
<path d="M340001241 130792348
L326601718 130792348
" />
<path d="M54539462 49543510
L67938985 49543510
" />
<path d="M90090942.765201 59593490.135561 A3999992.000000 3999992.000000 0.0 0 0 86626848.156533 57593494.000000" />
<path d="M106038909.000000 49543510.000000 A299999.000000 299999.000000 0.0 0 0 106338908.000000 49243511.000000" />
<path d="M359051203.000000 87643234.000000 A299999.000000 299999.000000 0.0 0 0 359351202.000000 87343235.000000" />
<path d="M378401164.000000 54893500.000000 A299999.000000 299999.000000 0.0 0 0 378101165.000000 54593501.000000" />
<path d="M196225679 87343235
L196225679 73943262
" />
<path d="M62576006.000000 163842342.000000 A299999.000000 299999.000000 0.0 0 0 62876005.000000 163542343.000000" />
<path d="M219738132 130792348
L206338608 130792348
" />
<path d="M86976897.000000 87343235.000000 A300000.000000 300000.000000 0.0 0 0 87276897.000000 87643235.000000" />
<path d="M91451438 106393197
L91451438 92993224
" />
<path d="M167649586.000000 92993224.000000 A300000.000000 300000.000000 0.0 0 0 167349586.000000 92693224.000000" />
<path d="M57632023 146290517
L63632027 146290517
" />
<path d="M173902023.000000 49243511.000000 A300000.000000 300000.000000 0.0 0 0 174202023.000000 49543511.000000" />
<path d="M125388870.000000 35843538.000000 A299999.000000 299999.000000 0.0 0 0 125088871.000000 35543539.000000" />
<path d="M326301718.000000 106393197.000000 A300000.000000 300000.000000 0.0 0 0 326601718.000000 106693197.000000" />
<path d="M30126961.000000 73643262.000000 A300000.000000 300000.000000 0.0 0 0 29826961.000000 73943262.000000" />
<path d="M43826484 163542343
L43826484 150142369
" />
<path d="M172412076 125443159
L172412076 112043185
" />
<path d="M77751916.000000 92693224.000000 A300000.000000 300000.000000 0.0 0 0 77451916.000000 92993224.000000" />
<path d="M48288985.000000 106693196.000000 A299999.000000 299999.000000 0.0 0 0 48588984.000000 106393197.000000" />
<path d="M359351202.000000 150142369.000000 A299999.000000 299999.000000 0.0 0 0 359051203.000000 149842370.000000" />
<path d="M48588984 106393197
L48588984 92993224
" />
<path d="M383452604 54893500
L383452604 68293473
" />
<path d="M144425082 163841652
L157824605 163841652
" />
<path d="M234324202 87343235
L234324202 73943262
" />
<path d="M260124749 63593482
L217053039 63593482
" />
<path d="M253661814 112043185
L253661814 125443159
" />
<path d="M340301240.000000 131092347.000000 A299999.000000 299999.000000 0.0 0 0 340001241.000000 130792348.000000" />
<path d="M378101165.000000 68593472.000000 A299999.000000 299999.000000 0.0 0 0 378401164.000000 68293473.000000" />
<path d="M326601718.000000 92693224.000000 A300000.000000 300000.000000 0.0 0 0 326301718.000000 92993224.000000" />
<path d="M334938251 168905532
L334938251 155505559
" />
<path d="M76863967.000000 125743158.000000 A299999.000000 299999.000000 0.0 0 0 77163966.000000 125443159.000000" />
<path d="M364701642.000000 35543538.000000 A300000.000000 300000.000000 0.0 0 0 364401642.000000 35843538.000000" />
<path d="M364701642 49543510
L378101165 49543510
" />
<path d="M378101165.000000 125743158.000000 A299999.000000 299999.000000 0.0 0 0 378401164.000000 125443159.000000" />
<path d="M249199323.000000 92693224.000000 A300000.000000 300000.000000 0.0 0 0 248899323.000000 92993224.000000" />
<path d="M138774944 73643262
L125375420 73643262
" />
<path d="M345351680 54893500
L345351680 68293473
" />
<path d="M345651680.000000 92693224.000000 A300000.000000 300000.000000 0.0 0 0 345351680.000000 92993224.000000" />
<path d="M118301560 164342341
L126301544 164342341
" />
<path d="M96213929.000000 112043185.000000 A300000.000000 300000.000000 0.0 0 0 95913929.000000 111743185.000000" />
<path d="M110157671.000000 59593490.000000 A1999996.000000 1999996.000000 0.0 0 0 110157671.000000 63593482.000000" />
<path d="M378401164.000000 73943262.000000 A299999.000000 299999.000000 0.0 0 0 378101165.000000 73643263.000000" />
<path d="M255763860 49543510
L269163383 49543510
" />
<path d="M309901760.000000 73142913.000000 A999998.000000 999998.000000 0.0 0 0 308901762.000000 72142915.000000" />
<path d="M86988947.000000 49543510.000000 A299999.000000 299999.000000 0.0 0 0 87288946.000000 49243511.000000" />
<path d="M364401642.000000 163542342.000000 A300000.000000 300000.000000 0.0 0 0 364701642.000000 163842342.000000" />
<path d="M270632830.000000 130792348.000000 A299999.000000 299999.000000 0.0 0 0 270332831.000000 131092347.000000" />
<path d="M187289497.000000 130792348.000000 A299999.000000 299999.000000 0.0 0 0 186989498.000000 131092347.000000" />
<path d="M345651680 87643234
L359051203 87643234
" />
<path d="M383452604 35843538
L383452604 49243511
" />
<path d="M43826484.000000 150142369.000000 A300000.000000 300000.000000 0.0 0 0 43526484.000000 149842369.000000" />
<path d="M86976897 73943262
L86976897 87343235
" />
<path d="M397152127 73643262
L383752604 73643262
" />
<path d="M378101165 73643262
L364701642 73643262
" />
<path d="M398641199 32343546
L28626964 32343546
" />
<path d="M359051203 130792348
L345651680 130792348
" />
<path d="M167937535.000000 144492321.000000 A300000.000000 300000.000000 0.0 0 0 168237535.000000 144792321.000000" />
<path d="M57634773.000000 129292351.000000 A999998.000000 999998.000000 0.0 0 0 56634775.000000 130292349.000000" />
<path d="M201276969.000000 163541653.000000 A299999.000000 299999.000000 0.0 0 0 201576968.000000 163841652.000000" />
<path d="M110789350.000000 144492321.000000 A299999.000000 299999.000000 0.0 0 0 111089349.000000 144792320.000000" />
<path d="M225388570 144792320
L238788094 144792320
" />
<path d="M54239463.000000 49243511.000000 A299999.000000 299999.000000 0.0 0 0 54539462.000000 49543510.000000" />
<path d="M383752604 68593472
L397152127 68593472
" />
<path d="M398641199.000000 167042795.000000 A1999996.000000 1999996.000000 0.0 0 0 400641195.000000 165042799.000000" />
<path d="M96801877.000000 92693224.000000 A300000.000000 300000.000000 0.0 0 0 96501877.000000 92993224.000000" />
<path d="M64632025 145290519
L64634775 130292349
" />
<path d="M167349586.000000 106693196.000000 A299999.000000 299999.000000 0.0 0 0 167649585.000000 106393197.000000" />
<path d="M96213929 125443159
L96213929 112043185
" />
<path d="M364701642 68593472
L378101165 68593472
" />
<path d="M364401642.000000 106393197.000000 A300000.000000 300000.000000 0.0 0 0 364701642.000000 106693197.000000" />
<path d="M326601718 87643234
L340001241 87643234
" />
<path d="M323088725.000000 38343533.000000 A1999996.000000 1999996.000000 0.0 0 0 319088733.000000 38343533.000000" />
<path d="M262598846 92693224
L249199323 92693224
" />
<path d="M302899008 89141081
L308899012 89141081
" />
<path d="M282721064 110243389
L276721060 110243389
" />
<path d="M359051203.000000 144792320.000000 A299999.000000 299999.000000 0.0 0 0 359351202.000000 144492321.000000" />
<path d="M277636484 167041415
L28626964 167041415
" />
<path d="M260124749.000000 63593482.000000 A1999996.000000 1999996.000000 0.0 0 0 260124749.000000 59593490.000000" />
<path d="M345351680.000000 163542342.000000 A300000.000000 300000.000000 0.0 0 0 345651680.000000 163842342.000000" />
<path d="M135802099 35843538
L135802099 49243511
" />
<path d="M250413420 49243511
L250413420 35843538
" />
<path d="M383450604 140617603
L383450604 154017127
" />
<path d="M382951505 139415513
L397949675 139418263
" />
<path d="M110157671 59593490
L190058121 59593490
" />
<path d="M236713898 49543510
L250113421 49543510
" />
<path d="M191751138.000000 106393197.000000 A299999.000000 299999.000000 0.0 0 0 192051137.000000 106693196.000000" />
<path d="M139662892.000000 111743186.000000 A299999.000000 299999.000000 0.0 0 0 139362893.000000 112043185.000000" />
<path d="M34626952 59593490
L58162803 59593490
" />
<path d="M220624680.000000 73643262.000000 A300000.000000 300000.000000 0.0 0 0 220324680.000000 73943262.000000" />
<path d="M383750903 106692746
L397150426 106692746
" />
<path d="M272125827.000000 163842342.000000 A299999.000000 299999.000000 0.0 0 0 272425826.000000 163542343.000000" />
<path d="M268124733 59593490
L274124721 59593490
" />
<path d="M262598846.000000 106693196.000000 A299999.000000 299999.000000 0.0 0 0 262898845.000000 106393197.000000" />
<path d="M200058101.000000 59593490.000000 A1999996.000000 1999996.000000 0.0 0 0 200058101.000000 63593482.000000" />
<path d="M243549184 92693224
L230149661 92693224
" />
<path d="M234324202.000000 73943262.000000 A299999.000000 299999.000000 0.0 0 0 234024203.000000 73643263.000000" />
<path d="M153062415 111743186
L139662892 111743186
" />
<path d="M220326931.000000 163542343.000000 A299999.000000 299999.000000 0.0 0 0 220626930.000000 163842342.000000" />
<path d="M364701642.000000 130792348.000000 A299999.000000 299999.000000 0.0 0 0 364401643.000000 131092347.000000" />
<path d="M300701007 73643566
L287301484 73643566
" />
<path d="M167349586 92693224
L153950063 92693224
" />
<path d="M201576118 87643234
L214975641 87643234
" />
<path d="M275718312.000000 126241557.000000 A999998.000000 999998.000000 0.0 0 0 276718310.000000 127241555.000000" />
<path d="M136102099.000000 35543538.000000 A300000.000000 300000.000000 0.0 0 0 135802099.000000 35843538.000000" />
<path d="M217053039 59593490
L260124749 59593490
" />
<path d="M111689348.000000 35543538.000000 A300000.000000 300000.000000 0.0 0 0 111389348.000000 35843538.000000" />
<path d="M158412554.000000 125443159.000000 A300000.000000 300000.000000 0.0 0 0 158712554.000000 125743159.000000" />
<path d="M167937535 131092347
L167937535 144492321
" />
<path d="M210213151.000000 125743158.000000 A299999.000000 299999.000000 0.0 0 0 210513150.000000 125443159.000000" />
<path d="M345351680 35843538
L345351680 49243511
" />
<path d="M49176483 163842342
L62576006 163842342
" />
<path d="M340301240 87343235
L340301240 73943262
" />
<path d="M345651680 163842342
L359051203 163842342
" />
<path d="M162587396.000000 144792320.000000 A299999.000000 299999.000000 0.0 0 0 162887395.000000 144492321.000000" />
<path d="M148887873 131092347
L148887873 144492321
" />
<path d="M234912151.000000 111743186.000000 A299999.000000 299999.000000 0.0 0 0 234612152.000000 112043185.000000" />
<path d="M144125083.000000 87343235.000000 A299999.000000 299999.000000 0.0 0 0 144425082.000000 87643234.000000" />
<path d="M345651680.000000 73643262.000000 A300000.000000 300000.000000 0.0 0 0 345351680.000000 73943262.000000" />
<path d="M253076006.000000 163843512.000000 A299999.000000 299999.000000 0.0 0 0 253376005.000000 163543513.000000" />
<path d="M149501622 35543538
L136102099 35543538
" />
<path d="M50670170.000000 125743157.000000 A299999.000000 299999.000000 0.0 0 0 50970169.000000 125443158.000000" />
<path d="M158712554.000000 111743186.000000 A299999.000000 299999.000000 0.0 0 0 158412555.000000 112043185.000000" />
<path d="M340001241 73643262
L326601718 73643262
" />
<path d="M92639386.000000 35543538.000000 A300000.000000 300000.000000 0.0 0 0 92339386.000000 35843538.000000" />
<path d="M282225311 59593490
L289699729 59593490
" />
<path d="M130139311 144792320
L143538834 144792320
" />
<path d="M383452604 73943262
L383452604 87343235
" />
<path d="M398949673 162219218
L398949673 156219214
" />
<path d="M359051203.000000 106693196.000000 A299999.000000 299999.000000 0.0 0 0 359351202.000000 106393197.000000" />
<path d="M148887873.000000 144492321.000000 A300000.000000 300000.000000 0.0 0 0 149187873.000000 144792321.000000" />
<path d="M114963891 111743186
L101564368 111743186
" />
<path d="M206651508.000000 49543510.000000 A299999.000000 299999.000000 0.0 0 0 206951507.000000 49243511.000000" />
<path d="M382951505.000000 155216466.000000 A999998.000000 999998.000000 0.0 0 0 381951507.000000 156216464.000000" />
<path d="M58401954 92993224
L58401954 106393197
" />
<path d="M119726382.000000 87643234.000000 A299999.000000 299999.000000 0.0 0 0 120026381.000000 87343235.000000" />
<path d="M378401164.000000 131092347.000000 A299999.000000 299999.000000 0.0 0 0 378101165.000000 130792348.000000" />
<path d="M300519262 127241555
L306519266 127241555
" />
<path d="M206038609 131092347
L206038609 144492321
" />
<path d="M144125082.000000 163541653.000000 A300000.000000 300000.000000 0.0 0 0 144425082.000000 163841653.000000" />
<path d="M292062237.000000 92693224.000000 A300000.000000 300000.000000 0.0 0 0 291762237.000000 92993224.000000" />
<path d="M301888767 136455587
L301888767 149855560
" />
<path d="M153362414 125443159
L153362414 112043185
" />
<path d="M67938985 35543538
L54539462 35543538
" />
<path d="M106326858 87643234
L119726382 87643234
" />
<path d="M111089349.000000 130792348.000000 A299999.000000 299999.000000 0.0 0 0 110789350.000000 131092347.000000" />
<path d="M149801621 49243511
L149801621 35843538
" />
<path d="M340301240 49243511
L340301240 35843538
" />
<path d="M224500622 92693224
L211101099 92693224
" />
<path d="M68226935.000000 73643262.000000 A300000.000000 300000.000000 0.0 0 0 67926935.000000 73943262.000000" />
<path d="M257836655 130792348
L244437132 130792348
" />
<path d="M397150577 140317604
L383750604 140317604
" />
<path d="M272425826.000000 73943262.000000 A299999.000000 299999.000000 0.0 0 0 272125827.000000 73643263.000000" />
<path d="M30126961.000000 149842370.000000 A299999.000000 299999.000000 0.0 0 0 29826962.000000 150142369.000000" />
<path d="M315588290.000000 150155559.000000 A299999.000000 299999.000000 0.0 0 0 315888289.000000 149855560.000000" />
<path d="M214975641 73643262
L201576118 73643262
" />
<path d="M378401164 49243511
L378401164 35843538
" />
<path d="M177764516.000000 111743186.000000 A299999.000000 299999.000000 0.0 0 0 177464517.000000 112043185.000000" />
<path d="M288213345 35543538
L274813821 35543538
" />
<path d="M120026381.000000 73943262.000000 A299999.000000 299999.000000 0.0 0 0 119726382.000000 73643263.000000" />
<path d="M287001484.000000 87343539.000000 A300000.000000 300000.000000 0.0 0 0 287301484.000000 87643539.000000" />
<path d="M378101165 35543538
L364701642 35543538
" />
<path d="M193251985 49543510
L206651508 49543510
" />
<path d="M229563112.000000 112043185.000000 A299999.000000 299999.000000 0.0 0 0 229263113.000000 111743186.000000" />
<path d="M359351202 49243511
L359351202 35843538
" />
<path d="M134013853 111743186
L120614330 111743186
" />
<path d="M286100807.000000 73142913.000000 A999998.000000 999998.000000 0.0 0 0 285100809.000000 72142915.000000" />
<path d="M58162803.234799 63593481.864439 A3999992.000000 3999992.000000 0.0 0 0 60088439.393844 65285786.247435" />
<path d="M48288985 92693224
L34889461 92693224
" />
<path d="M340136480 167048539
L398641199 167042795
" />
<path d="M56634775 130292349
L56632025 145290519
" />
<path d="M378101165 92693224
L364701642 92693224
" />
<path d="M239674342 87643234
L253073865 87643234
" />
<path d="M253373864 87343235
L253373864 73943262
" />
<path d="M255463860 35843538
L255463860 49243511
" />
<path d="M92339386.000000 49243511.000000 A300000.000000 300000.000000 0.0 0 0 92639386.000000 49543511.000000" />
<path d="M186098391 165341899
L192098395 165341899
" />
<path d="M345351680.000000 49243511.000000 A300000.000000 300000.000000 0.0 0 0 345651680.000000 49543511.000000" />
<path d="M239374342.000000 87343235.000000 A300000.000000 300000.000000 0.0 0 0 239674342.000000 87643235.000000" />
<path d="M345351680 92993224
L345351680 106393197
" />
<path d="M359051203 35543538
L345651680 35543538
" />
<path d="M326301718 54893500
L326301718 68293473
" />
<path d="M119726382 73643262
L106326858 73643262
" />
<path d="M383451604.000000 125441709.000000 A300000.000000 300000.000000 0.0 0 0 383751604.000000 125741709.000000" />
<path d="M340301240.000000 35843538.000000 A299999.000000 299999.000000 0.0 0 0 340001241.000000 35543539.000000" />
<path d="M359351202.000000 35843538.000000 A299999.000000 299999.000000 0.0 0 0 359051203.000000 35543539.000000" />
<path d="M231363458 49243511
L231363458 35843538
" />
<path d="M378101165.000000 49543510.000000 A299999.000000 299999.000000 0.0 0 0 378401164.000000 49243511.000000" />
<path d="M305761760.000000 92993224.000000 A300000.000000 300000.000000 0.0 0 0 305461760.000000 92693224.000000" />
<path d="M158124605.000000 73943262.000000 A300000.000000 300000.000000 0.0 0 0 157824605.000000 73643262.000000" />
<path d="M298319924.000000 125742458.000000 A299999.000000 299999.000000 0.0 0 0 298619923.000000 125442459.000000" />
<path d="M97099785.000000 165341899.000000 A999998.000000 999998.000000 0.0 0 0 98099783.000000 164341901.000000" />
<path d="M345351680 131092347
L345351680 144492321
" />
<path d="M210513150 125443159
L210513150 112043185
" />
<path d="M115851839 106693196
L129251363 106693196
" />
<path d="M364401642 92993224
L364401642 106393197
" />
<path d="M91739388.000000 144492321.000000 A299999.000000 299999.000000 0.0 0 0 92039387.000000 144792320.000000" />
<path d="M72401476.000000 92993224.000000 A299999.000000 299999.000000 0.0 0 0 72101477.000000 92693225.000000" />
<path d="M177176567.000000 73943262.000000 A300000.000000 300000.000000 0.0 0 0 176876567.000000 73643262.000000" />
<path d="M220626930.000000 149842370.000000 A299999.000000 299999.000000 0.0 0 0 220326931.000000 150142369.000000" />
<path d="M364401642.000000 87343235.000000 A300000.000000 300000.000000 0.0 0 0 364701642.000000 87643235.000000" />
<path d="M234326453 163542343
L234326453 150142369
" />
<path d="M287001484 73943566
L287001484 87343539
" />
<path d="M177176567 87343235
L177176567 73943262
" />
<path d="M225388570.000000 130792348.000000 A299999.000000 299999.000000 0.0 0 0 225088571.000000 131092347.000000" />
<path d="M105438910 130792348
L92039387 130792348
" />
<path d="M383452604.000000 49243511.000000 A300000.000000 300000.000000 0.0 0 0 383752604.000000 49543511.000000" />
<path d="M292062237 106693196
L305461760 106693196
" />
<path d="M215276491.000000 150141679.000000 A300000.000000 300000.000000 0.0 0 0 214976491.000000 149841679.000000" />
<path d="M345651680.000000 54593500.000000 A300000.000000 300000.000000 0.0 0 0 345351680.000000 54893500.000000" />
<path d="M302188767.000000 136155587.000000 A300000.000000 300000.000000 0.0 0 0 301888767.000000 136455587.000000" />
<path d="M61626898 57593494
L86626848 57593494
" />
<path d="M77451916.000000 106393197.000000 A300000.000000 300000.000000 0.0 0 0 77751916.000000 106693197.000000" />
<path d="M211101099 106693196
L224500622 106693196
" />
<path d="M68226961 163842342
L81626484 163842342
" />
<path d="M326301718.000000 87343235.000000 A300000.000000 300000.000000 0.0 0 0 326601718.000000 87643235.000000" />
<path d="M201276969 150141679
L201276969 163541653
" />
<path d="M382951505.000000 131415513.000000 A999998.000000 999998.000000 0.0 0 0 381951507.000000 132415511.000000" />
<path d="M144125083 73943262
L144125083 87343235
" />
<path d="M181637058.000000 144792320.000000 A299999.000000 299999.000000 0.0 0 0 181937057.000000 144492321.000000" />
<path d="M81626458.000000 87643234.000000 A299999.000000 299999.000000 0.0 0 0 81926457.000000 87343235.000000" />
<path d="M55732685 144491421
L55732685 131091447
" />
<path d="M182526156 87643234
L195925679 87643234
" />
<path d="M115551840.000000 106393197.000000 A299999.000000 299999.000000 0.0 0 0 115851839.000000 106693196.000000" />
<path d="M111689348 49543510
L125088871 49543510
" />
<path d="M340001241 35543538
L326601718 35543538
" />
<path d="M195925679.000000 87643234.000000 A299999.000000 299999.000000 0.0 0 0 196225678.000000 87343235.000000" />
<path d="M77451916 92993224
L77451916 106393197
" />
<path d="M210801100.000000 106393197.000000 A299999.000000 299999.000000 0.0 0 0 211101099.000000 106693196.000000" />
<path d="M267951285.000000 106393197.000000 A300000.000000 300000.000000 0.0 0 0 268251285.000000 106693197.000000" />
<path d="M29826962 150142369
L29826962 163542343
" />
<path d="M326301718 131092347
L326301718 144492321
" />
<path d="M206038609.000000 144492321.000000 A299999.000000 299999.000000 0.0 0 0 206338608.000000 144792320.000000" />
<path d="M283721062.000000 111243387.000000 A999998.000000 999998.000000 0.0 0 0 282721064.000000 110243389.000000" />
<path d="M29826961 35843538
L29826961 49243511
" />
<path d="M148299925 92693224
L134900401 92693224
" />
<path d="M397152127 54593500
L383752604 54593500
" />
<path d="M268251285 106693196
L281650808 106693196
" />
<path d="M81626458 73643262
L68226935 73643262
" />
<path d="M125075421.000000 87343235.000000 A299999.000000 299999.000000 0.0 0 0 125375420.000000 87643234.000000" />
<path d="M50970169.000000 112043185.000000 A299999.000000 299999.000000 0.0 0 0 50670170.000000 111743186.000000" />
<path d="M120314330.000000 125443159.000000 A300000.000000 300000.000000 0.0 0 0 120614330.000000 125743159.000000" />
<path d="M134313852.000000 112043185.000000 A299999.000000 299999.000000 0.0 0 0 134013853.000000 111743186.000000" />
<path d="M244137133 131092347
L244137133 144492321
" />
<path d="M243849183.000000 92993224.000000 A299999.000000 299999.000000 0.0 0 0 243549184.000000 92693225.000000" />
<path d="M168237535 144792320
L181637058 144792320
" />
<path d="M258426304.000000 87343235.000000 A300000.000000 300000.000000 0.0 0 0 258726304.000000 87643235.000000" />
<path d="M157824605 149841680
L144425082 149841680
" />
<path d="M77163967 125443159
L77163967 112043185
" />
<path d="M234612152.000000 125443159.000000 A299999.000000 299999.000000 0.0 0 0 234912151.000000 125743158.000000" />
<path d="M359351202.000000 131092347.000000 A299999.000000 299999.000000 0.0 0 0 359051203.000000 130792348.000000" />
<path d="M224800622 106393197
L224800622 92993224
" />
<path d="M397152127.000000 87643234.000000 A299999.000000 299999.000000 0.0 0 0 397452126.000000 87343235.000000" />
<path d="M326601718 144792320
L340001241 144792320
" />
<path d="M81926484.000000 150142369.000000 A300000.000000 300000.000000 0.0 0 0 81626484.000000 149842369.000000" />
<path d="M279100805.000000 72142915.000000 A999998.000000 999998.000000 0.0 0 0 278100807.000000 73142913.000000" />
<path d="M301001006 87343539
L301001006 73943566
" />
<path d="M326601718.000000 73643262.000000 A300000.000000 300000.000000 0.0 0 0 326301718.000000 73943262.000000" />
<path d="M272425826 87343235
L272425826 73943262
" />
<path d="M397452126 87343235
L397452126 73943262
" />
<path d="M157824605.000000 87643234.000000 A299999.000000 299999.000000 0.0 0 0 158124604.000000 87343235.000000" />
<path d="M32854234 130292349
L32851484 145290519
" />
<path d="M220324680 73943262
L220324680 87343235
" />
<path d="M274813821.000000 35543538.000000 A300000.000000 300000.000000 0.0 0 0 274513821.000000 35843538.000000" />
<path d="M345651680.000000 130792348.000000 A299999.000000 299999.000000 0.0 0 0 345351681.000000 131092347.000000" />
<path d="M274513822.000000 49243511.000000 A299999.000000 299999.000000 0.0 0 0 274813821.000000 49543510.000000" />
<path d="M326601718 49543510
L340001241 49543510
" />
<path d="M359051203 54593500
L345651680 54593500
" />
<path d="M62876006.000000 150142369.000000 A300000.000000 300000.000000 0.0 0 0 62576006.000000 149842369.000000" />
<path d="M72689426.000000 144492321.000000 A299999.000000 299999.000000 0.0 0 0 72989425.000000 144792320.000000" />
<path d="M364701642.000000 92693224.000000 A300000.000000 300000.000000 0.0 0 0 364401642.000000 92993224.000000" />
<path d="M62576006 149842370
L49176483 149842370
" />
<path d="M315888289 168905532
L315888289 155505559
" />
<path d="M62576496 73643262
L49176973 73643262
" />
<path d="M33851482 146290517
L39851486 146290517
" />
<path d="M301888767.000000 168905532.000000 A300000.000000 300000.000000 0.0 0 0 302188767.000000 169205532.000000" />
<path d="M293699721 42543524
L317088737 42543524
" />
<path d="M96501878.000000 106393197.000000 A299999.000000 299999.000000 0.0 0 0 96801877.000000 106693196.000000" />
<path d="M215276491 163541653
L215276491 150141679
" />
<path d="M215275641 87343235
L215275641 73943262
" />
<path d="M334938251.000000 155505559.000000 A299999.000000 299999.000000 0.0 0 0 334638252.000000 155205560.000000" />
<path d="M186989497 131092347
L186989497 144492321
" />
<path d="M81926457 87343235
L81926457 73943262
" />
<path d="M270332830 131092347
L270332830 144492321
" />
<path d="M288513344.000000 35843538.000000 A299999.000000 299999.000000 0.0 0 0 288213345.000000 35543539.000000" />
<path d="M270332830.000000 144492321.000000 A300000.000000 300000.000000 0.0 0 0 270632830.000000 144792321.000000" />
<path d="M33854232.000000 129292351.000000 A999998.000000 999998.000000 0.0 0 0 32854234.000000 130292349.000000" />
<path d="M284920401.000000 111742486.000000 A299999.000000 299999.000000 0.0 0 0 284620402.000000 112042485.000000" />
<path d="M301888767.000000 149855560.000000 A300000.000000 300000.000000 0.0 0 0 302188767.000000 150155560.000000" />
<path d="M106026859 73943262
L106026859 87343235
" />
<path d="M40851484 145290519
L40854234 130292349
" />
<path d="M72101477 92693224
L58701954 92693224
" />
<path d="M172702026 92993224
L172702026 106393197
" />
<path d="M201576118.000000 73643262.000000 A300000.000000 300000.000000 0.0 0 0 201276118.000000 73943262.000000" />
<path d="M397152127.000000 49543510.000000 A299999.000000 299999.000000 0.0 0 0 397452126.000000 49243511.000000" />
<path d="M340001241 54593500
L326601718 54593500
" />
<path d="M400641195 165042799
L400641195 34343541
" />
<path d="M48876484.000000 163542343.000000 A299999.000000 299999.000000 0.0 0 0 49176483.000000 163842342.000000" />
<path d="M323088725 38343533
L323096484 63598539
" />
<path d="M282718314.000000 127241555.000000 A999998.000000 999998.000000 0.0 0 0 283718312.000000 126241557.000000" />
<path d="M210513150.000000 112043185.000000 A299999.000000 299999.000000 0.0 0 0 210213151.000000 111743186.000000" />
<path d="M269163383.000000 49543510.000000 A299999.000000 299999.000000 0.0 0 0 269463382.000000 49243511.000000" />
<path d="M193251985.000000 35543538.000000 A300000.000000 300000.000000 0.0 0 0 192951985.000000 35843538.000000" />
<path d="M253961813.000000 111743186.000000 A299999.000000 299999.000000 0.0 0 0 253661814.000000 112043185.000000" />
<path d="M383751604.000000 111741736.000000 A299999.000000 299999.000000 0.0 0 0 383451605.000000 112041735.000000" />
<path d="M345351680.000000 144492321.000000 A300000.000000 300000.000000 0.0 0 0 345651680.000000 144792321.000000" />
<path d="M220326931 150142369
L220326931 163542343
" />
<path d="M176876567.000000 87643234.000000 A299999.000000 299999.000000 0.0 0 0 177176566.000000 87343235.000000" />
<path d="M34626952.000000 59593490.000000 A1999996.000000 1999996.000000 0.0 0 0 34626952.000000 63593482.000000" />
<path d="M364701642 163842342
L378101165 163842342
" />
<path d="M40854234.000000 130292349.000000 A999998.000000 999998.000000 0.0 0 0 39854236.000000 129292351.000000" />
<path d="M229849661 92993224
L229849661 106393197
" />
<path d="M278100807 73142913
L278098057 88141083
" />
<path d="M231063459 35543538
L217663936 35543538
" />
<path d="M364701642 87643234
L378101165 87643234
" />
<path d="M217663936 49543510
L231063459 49543510
" />
<path d="M340136480.000000 167048539.000000 A1999996.000000 1999996.000000 0.0 0 0 338136484.000000 169048535.000000" />
<path d="M192051137.000000 92693224.000000 A300000.000000 300000.000000 0.0 0 0 191751137.000000 92993224.000000" />
<path d="M187901545 49243511
L187901545 35843538
" />
<path d="M340301240 125443159
L340301240 112043185
" />
<path d="M190058121 63593482
L110157671 63593482
" />
<path d="M315588290.000000 169205531.000000 A299999.000000 299999.000000 0.0 0 0 315888289.000000 168905532.000000" />
<path d="M231363458.000000 35843538.000000 A299999.000000 299999.000000 0.0 0 0 231063459.000000 35543539.000000" />
<path d="M115851839.000000 92693224.000000 A300000.000000 300000.000000 0.0 0 0 115551839.000000 92993224.000000" />
<path d="M378101165.000000 144792320.000000 A299999.000000 299999.000000 0.0 0 0 378401164.000000 144492321.000000" />
<path d="M269463382.000000 35843538.000000 A299999.000000 299999.000000 0.0 0 0 269163383.000000 35543539.000000" />
<path d="M149187873 144792320
L162587396 144792320
" />
<path d="M239376484.000000 163543513.000000 A299999.000000 299999.000000 0.0 0 0 239676483.000000 163843512.000000" />
<path d="M153362414.000000 112043185.000000 A299999.000000 299999.000000 0.0 0 0 153062415.000000 111743186.000000" />
<path d="M68238985.000000 35843538.000000 A300000.000000 300000.000000 0.0 0 0 67938985.000000 35543538.000000" />
<path d="M200689020.000000 144792320.000000 A299999.000000 299999.000000 0.0 0 0 200989019.000000 144492321.000000" />
<path d="M43826483.000000 35843538.000000 A299999.000000 299999.000000 0.0 0 0 43526484.000000 35543539.000000" />
<path d="M63634777 129292351
L57634773 129292351
" />
<path d="M206338608 144792320
L219738132 144792320
" />
<path d="M68226961.000000 149842370.000000 A299999.000000 299999.000000 0.0 0 0 67926962.000000 150142369.000000" />
<path d="M125088871.000000 49543510.000000 A299999.000000 299999.000000 0.0 0 0 125388870.000000 49243511.000000" />
<path d="M187601546.000000 49543510.000000 A299999.000000 299999.000000 0.0 0 0 187901545.000000 49243511.000000" />
<path d="M220624680 87643234
L234024203 87643234
" />
<path d="M127301542 150342369
L127301542 163342343
" />
<path d="M250413420.000000 35843538.000000 A299999.000000 299999.000000 0.0 0 0 250113421.000000 35543539.000000" />
<path d="M191464038.000000 112043185.000000 A299999.000000 299999.000000 0.0 0 0 191164039.000000 111743186.000000" />
<path d="M168551584 35543538
L155152061 35543538
" />
<path d="M97102535 148343733
L91102531 148343733
" />
<path d="M340001241.000000 106693196.000000 A299999.000000 299999.000000 0.0 0 0 340301240.000000 106393197.000000" />
<path d="M201276119.000000 87343235.000000 A299999.000000 299999.000000 0.0 0 0 201576118.000000 87643234.000000" />
<path d="M135802099.000000 49243511.000000 A300000.000000 300000.000000 0.0 0 0 136102099.000000 49543511.000000" />
<path d="M220038131.000000 131092347.000000 A299999.000000 299999.000000 0.0 0 0 219738132.000000 130792348.000000" />
<path d="M296538328 155205559
L283138805 155205559
" />
<path d="M172412076.000000 112043185.000000 A299999.000000 299999.000000 0.0 0 0 172112077.000000 111743186.000000" />
<path d="M134013853.000000 125743158.000000 A299999.000000 299999.000000 0.0 0 0 134313852.000000 125443159.000000" />
<path d="M91739388 131092347
L91739388 144492321
" />
<path d="M163177045.000000 87343235.000000 A299999.000000 299999.000000 0.0 0 0 163477044.000000 87643234.000000" />
<path d="M378101165.000000 163842342.000000 A300000.000000 300000.000000 0.0 0 0 378401165.000000 163542342.000000" />
<path d="M201576968.000000 149841680.000000 A299999.000000 299999.000000 0.0 0 0 201276969.000000 150141679.000000" />
<path d="M284920401 125742458
L298319924 125742458
" />
<path d="M124788872.000000 131092347.000000 A300000.000000 300000.000000 0.0 0 0 124488872.000000 130792347.000000" />
<path d="M249199323 106693196
L262598846 106693196
" />
<path d="M101564368 125743158
L114963891 125743158
" />
<path d="M76863967 111743186
L63464444 111743186
" />
<path d="M129251363.000000 106693196.000000 A299999.000000 299999.000000 0.0 0 0 129551362.000000 106393197.000000" />
<path d="M173002025.000000 92693224.000000 A300000.000000 300000.000000 0.0 0 0 172702025.000000 92993224.000000" />
<path d="M255463860.000000 49243511.000000 A300000.000000 300000.000000 0.0 0 0 255763860.000000 49543511.000000" />
<path d="M91151439.000000 106693196.000000 A299999.000000 299999.000000 0.0 0 0 91451438.000000 106393197.000000" />
<path d="M195925679 73643262
L182526156 73643262
" />
<path d="M397949675 155219216
L382951505 155216466
" />
<path d="M248899323 92993224
L248899323 106393197
" />
<path d="M239088093.000000 131092347.000000 A299999.000000 299999.000000 0.0 0 0 238788094.000000 130792348.000000" />
<path d="M158124604 163541653
L158124604 150141679
" />
<path d="M231063459.000000 49543510.000000 A299999.000000 299999.000000 0.0 0 0 231363458.000000 49243511.000000" />
<path d="M200689020 130792348
L187289497 130792348
" />
<path d="M192951985.000000 49243511.000000 A300000.000000 300000.000000 0.0 0 0 193251985.000000 49543511.000000" />
<path d="M359351202 106393197
L359351202 92993224
" />
<path d="M81926457.000000 73943262.000000 A299999.000000 299999.000000 0.0 0 0 81626458.000000 73643263.000000" />
<path d="M364701642.000000 54593500.000000 A300000.000000 300000.000000 0.0 0 0 364401642.000000 54893500.000000" />
<path d="M73289425 35843538
L73289425 49243511
" />
<path d="M206651508 35543538
L193251985 35543538
" />
<path d="M378101165 149842370
L364701642 149842370
" />
<path d="M196225679.000000 73943262.000000 A300000.000000 300000.000000 0.0 0 0 195925679.000000 73643262.000000" />
<path d="M110501400.000000 92993224.000000 A299999.000000 299999.000000 0.0 0 0 110201401.000000 92693225.000000" />
<path d="M125388870 49243511
L125388870 35843538
" />
<g >
</g>
<g >
</g>
<g >
</g>
</g> 
</svg>
