G04 #@! TF.GenerationSoftware,KiCad,Pcbnew,(5.99.0-7511-ga134567838)*
G04 #@! TF.CreationDate,2021-01-29T23:33:35-08:00*
G04 #@! TF.ProjectId,GH80-1800_PlateV1.1,47483830-2d31-4383-9030-5f506c617465,rev?*
G04 #@! TF.SameCoordinates,Original*
G04 #@! TF.FileFunction,Profile,NP*
%FSLAX46Y46*%
G04 Gerber Fmt 4.6, Leading zero omitted, Abs format (unit mm)*
G04 Created by KiCad (PCBNEW (5.99.0-7511-ga134567838)) date 2021-01-29 23:33:35*
%MOMM*%
%LPD*%
G01*
G04 APERTURE LIST*
G04 #@! TA.AperFunction,Profile*
%ADD10C,0.000309*%
G04 #@! TD*
G04 APERTURE END LIST*
D10*
X351102994Y-73376215D02*
G75*
G02*
X350802995Y-73676214I-299999J0D01*
G01*
X337403472Y-73676215D02*
G75*
G02*
X337103472Y-73376215I0J300000D01*
G01*
X356452733Y-73675764D02*
X369852256Y-73675764D01*
X350802995Y-59676242D02*
X337403472Y-59676242D01*
X332053032Y-73376215D02*
G75*
G02*
X331753033Y-73676214I-299999J0D01*
G01*
X318053510Y-59976242D02*
X318053510Y-73376215D01*
X337103472Y-59976242D02*
X337103472Y-73376215D01*
X313003070Y-73376215D02*
G75*
G02*
X312703071Y-73676214I-299999J0D01*
G01*
X332053032Y-73376215D02*
X332053032Y-59976242D01*
X337103472Y-59976242D02*
G75*
G02*
X337403472Y-59676242I300000J0D01*
G01*
X299303548Y-73676214D02*
X312703071Y-73676214D01*
X350802995Y-59676243D02*
G75*
G02*
X351102994Y-59976242I0J-299999D01*
G01*
X312703071Y-59676243D02*
G75*
G02*
X313003070Y-59976242I0J-299999D01*
G01*
X312703071Y-59676242D02*
X299303548Y-59676242D01*
X369852256Y-59675792D02*
X356452733Y-59675792D01*
X370152255Y-73375765D02*
X370152255Y-59975791D01*
X313003070Y-73376215D02*
X313003070Y-59976242D01*
X356152733Y-59975791D02*
X356152733Y-73375765D01*
X351102994Y-73376215D02*
X351102994Y-59976242D01*
X318353510Y-73676214D02*
X331753033Y-73676214D01*
X299003548Y-59976242D02*
X299003548Y-73376215D01*
X356152734Y-59975791D02*
G75*
G02*
X356452733Y-59675792I299999J0D01*
G01*
X370152255Y-73375765D02*
G75*
G02*
X369852256Y-73675764I-299999J0D01*
G01*
X331753033Y-59676243D02*
G75*
G02*
X332053032Y-59976242I0J-299999D01*
G01*
X318353510Y-73676215D02*
G75*
G02*
X318053510Y-73376215I0J300000D01*
G01*
X337403472Y-73676214D02*
X350802995Y-73676214D01*
X331753033Y-59676242D02*
X318353510Y-59676242D01*
X369852256Y-59675792D02*
G75*
G02*
X370152255Y-59975791I0J-299999D01*
G01*
X356452733Y-73675765D02*
G75*
G02*
X356152733Y-73375765I0J300000D01*
G01*
X299303548Y-73676215D02*
G75*
G02*
X299003548Y-73376215I0J300000D01*
G01*
X299003548Y-59976242D02*
G75*
G02*
X299303548Y-59676242I300000J0D01*
G01*
X318053510Y-59976242D02*
G75*
G02*
X318353510Y-59676242I300000J0D01*
G01*
X299303548Y-54626252D02*
X312703071Y-54626252D01*
X313003070Y-54326253D02*
X313003070Y-40926280D01*
X318053510Y-40926280D02*
G75*
G02*
X318353510Y-40626280I300000J0D01*
G01*
X356154434Y-40926280D02*
X356154434Y-54326253D01*
X312703071Y-40626280D02*
X299303548Y-40626280D01*
X337403472Y-54626253D02*
G75*
G02*
X337103472Y-54326253I0J300000D01*
G01*
X299303548Y-54626253D02*
G75*
G02*
X299003548Y-54326253I0J300000D01*
G01*
X370153956Y-54326253D02*
G75*
G02*
X369853957Y-54626252I-299999J0D01*
G01*
X370153956Y-54326253D02*
X370153956Y-40926280D01*
X299003548Y-40926280D02*
G75*
G02*
X299303548Y-40626280I300000J0D01*
G01*
X337403472Y-54626252D02*
X350802995Y-54626252D01*
X356454434Y-54626253D02*
G75*
G02*
X356154434Y-54326253I0J300000D01*
G01*
X351102994Y-54326253D02*
X351102994Y-40926280D01*
X331753033Y-40626280D02*
X318353510Y-40626280D01*
X351102994Y-54326253D02*
G75*
G02*
X350802995Y-54626252I-299999J0D01*
G01*
X312703071Y-40626281D02*
G75*
G02*
X313003070Y-40926280I0J-299999D01*
G01*
X356154434Y-40926280D02*
G75*
G02*
X356454434Y-40626280I300000J0D01*
G01*
X318053510Y-40926280D02*
X318053510Y-54326253D01*
X331753033Y-40626281D02*
G75*
G02*
X332053032Y-40926280I0J-299999D01*
G01*
X356454434Y-54626252D02*
X369853957Y-54626252D01*
X313003070Y-54326253D02*
G75*
G02*
X312703071Y-54626252I-299999J0D01*
G01*
X337103472Y-40926280D02*
G75*
G02*
X337403472Y-40626280I300000J0D01*
G01*
X369853957Y-40626281D02*
G75*
G02*
X370153956Y-40926280I0J-299999D01*
G01*
X299003548Y-40926280D02*
X299003548Y-54326253D01*
X332053032Y-54326253D02*
X332053032Y-40926280D01*
X318353510Y-54626253D02*
G75*
G02*
X318053510Y-54326253I0J300000D01*
G01*
X332053032Y-54326253D02*
G75*
G02*
X331753033Y-54626252I-299999J0D01*
G01*
X369853957Y-40626280D02*
X356454434Y-40626280D01*
X350802995Y-40626280D02*
X337403472Y-40626280D01*
X350802995Y-40626281D02*
G75*
G02*
X351102994Y-40926280I0J-299999D01*
G01*
X318353510Y-54626252D02*
X331753033Y-54626252D01*
X337103472Y-40926280D02*
X337103472Y-54326253D01*
X369853957Y-2526556D02*
X356454434Y-2526556D01*
X356154434Y-2826556D02*
G75*
G02*
X356454434Y-2526556I300000J0D01*
G01*
X318053510Y-2826556D02*
X318053510Y-16226529D01*
X356454434Y-35576490D02*
X369853957Y-35576490D01*
X337403472Y-35576490D02*
X350802995Y-35576490D01*
X351102994Y-16226529D02*
X351102994Y-2826556D01*
X318353510Y-16526529D02*
G75*
G02*
X318053510Y-16226529I0J300000D01*
G01*
X332053032Y-16226529D02*
X332053032Y-2826556D01*
X350802995Y-2526556D02*
X337403472Y-2526556D01*
X331753033Y-2526556D02*
X318353510Y-2526556D01*
X313003070Y-16226529D02*
X313003070Y-2826556D01*
X299003548Y-21876518D02*
X299003548Y-35276491D01*
X351102994Y-16226529D02*
G75*
G02*
X350802995Y-16526528I-299999J0D01*
G01*
X312703071Y-2526556D02*
X299303548Y-2526556D01*
X356454434Y-16526529D02*
G75*
G02*
X356154434Y-16226529I0J300000D01*
G01*
X318053510Y-21876518D02*
G75*
G02*
X318353510Y-21576518I300000J0D01*
G01*
X312703071Y-2526557D02*
G75*
G02*
X313003070Y-2826556I0J-299999D01*
G01*
X331753033Y-2526557D02*
G75*
G02*
X332053032Y-2826556I0J-299999D01*
G01*
X337103472Y-21876518D02*
G75*
G02*
X337403472Y-21576518I300000J0D01*
G01*
X369853957Y-21576518D02*
X356454434Y-21576518D01*
X299303548Y-16526528D02*
X312703071Y-16526528D01*
X331753033Y-21576518D02*
X318353510Y-21576518D01*
X370153956Y-16226529D02*
G75*
G02*
X369853957Y-16526528I-299999J0D01*
G01*
X312703071Y-21576518D02*
X299303548Y-21576518D01*
X299303548Y-35576491D02*
G75*
G02*
X299003548Y-35276491I0J300000D01*
G01*
X332053032Y-16226529D02*
G75*
G02*
X331753033Y-16526528I-299999J0D01*
G01*
X337403472Y-35576491D02*
G75*
G02*
X337103472Y-35276491I0J300000D01*
G01*
X332053032Y-35276491D02*
G75*
G02*
X331753033Y-35576490I-299999J0D01*
G01*
X299003548Y-2826556D02*
X299003548Y-16226529D01*
X313003070Y-16226529D02*
G75*
G02*
X312703071Y-16526528I-299999J0D01*
G01*
X299003548Y-2826556D02*
G75*
G02*
X299303548Y-2526556I300000J0D01*
G01*
X337403472Y-16526529D02*
G75*
G02*
X337103472Y-16226529I0J300000D01*
G01*
X313003070Y-35276491D02*
X313003070Y-21876518D01*
X318353510Y-35576490D02*
X331753033Y-35576490D01*
X331753033Y-21576519D02*
G75*
G02*
X332053032Y-21876518I0J-299999D01*
G01*
X356454434Y-35576491D02*
G75*
G02*
X356154434Y-35276491I0J300000D01*
G01*
X313003070Y-35276491D02*
G75*
G02*
X312703071Y-35576490I-299999J0D01*
G01*
X337103472Y-21876518D02*
X337103472Y-35276491D01*
X332053032Y-35276491D02*
X332053032Y-21876518D01*
X351102994Y-35276491D02*
X351102994Y-21876518D01*
X356154434Y-21876518D02*
G75*
G02*
X356454434Y-21576518I300000J0D01*
G01*
X370153956Y-35276491D02*
X370153956Y-21876518D01*
X350802995Y-2526557D02*
G75*
G02*
X351102994Y-2826556I0J-299999D01*
G01*
X370153956Y-35276491D02*
G75*
G02*
X369853957Y-35576490I-299999J0D01*
G01*
X299303548Y-35576490D02*
X312703071Y-35576490D01*
X312703071Y-21576519D02*
G75*
G02*
X313003070Y-21876518I0J-299999D01*
G01*
X318053510Y-2826556D02*
G75*
G02*
X318353510Y-2526556I300000J0D01*
G01*
X337103472Y-2826556D02*
X337103472Y-16226529D01*
X369853957Y-21576519D02*
G75*
G02*
X370153956Y-21876518I0J-299999D01*
G01*
X350802995Y-21576518D02*
X337403472Y-21576518D01*
X370153956Y-16226529D02*
X370153956Y-2826556D01*
X318353510Y-35576491D02*
G75*
G02*
X318053510Y-35276491I0J300000D01*
G01*
X356454434Y-16526528D02*
X369853957Y-16526528D01*
X318353510Y-16526528D02*
X331753033Y-16526528D01*
X369853957Y-2526557D02*
G75*
G02*
X370153956Y-2826556I0J-299999D01*
G01*
X299003548Y-21876518D02*
G75*
G02*
X299303548Y-21576518I300000J0D01*
G01*
X299303548Y-16526529D02*
G75*
G02*
X299003548Y-16226529I0J300000D01*
G01*
X356154434Y-21876518D02*
X356154434Y-35276491D01*
X351102994Y-35276491D02*
G75*
G02*
X350802995Y-35576490I-299999J0D01*
G01*
X350802995Y-21576519D02*
G75*
G02*
X351102994Y-21876518I0J-299999D01*
G01*
X356154434Y-2826556D02*
X356154434Y-16226529D01*
X318053510Y-21876518D02*
X318053510Y-35276491D01*
X337403472Y-16526528D02*
X350802995Y-16526528D01*
X337103472Y-2826556D02*
G75*
G02*
X337403472Y-2526556I300000J0D01*
G01*
X370152956Y-92424727D02*
G75*
G02*
X369852957Y-92724726I-299999J0D01*
G01*
X351102994Y-92426177D02*
X351102994Y-79026203D01*
X356453434Y-92724726D02*
X369852957Y-92724726D01*
X313003070Y-92426177D02*
G75*
G02*
X312703071Y-92726176I-299999J0D01*
G01*
X356453434Y-92724727D02*
G75*
G02*
X356153434Y-92424727I0J300000D01*
G01*
X313003070Y-92426177D02*
X313003070Y-79026203D01*
X356153435Y-79024753D02*
G75*
G02*
X356453434Y-78724754I299999J0D01*
G01*
X299303548Y-92726177D02*
G75*
G02*
X299003548Y-92426177I0J300000D01*
G01*
X337403472Y-92726177D02*
G75*
G02*
X337103472Y-92426177I0J300000D01*
G01*
X299003549Y-79026203D02*
G75*
G02*
X299303548Y-78726204I299999J0D01*
G01*
X337403472Y-92726176D02*
X350802995Y-92726176D01*
X331753033Y-78726204D02*
X318353510Y-78726204D01*
X312703071Y-78726204D02*
X299303548Y-78726204D01*
X318053511Y-79026203D02*
G75*
G02*
X318353510Y-78726204I299999J0D01*
G01*
X369852957Y-78724754D02*
X356453434Y-78724754D01*
X332053032Y-92426177D02*
X332053032Y-79026203D01*
X299003548Y-79026203D02*
X299003548Y-92426177D01*
X318053510Y-79026203D02*
X318053510Y-92426177D01*
X370152956Y-92424727D02*
X370152956Y-79024753D01*
X318353510Y-92726177D02*
G75*
G02*
X318053510Y-92426177I0J300000D01*
G01*
X337103473Y-79026203D02*
G75*
G02*
X337403472Y-78726204I299999J0D01*
G01*
X350802995Y-78726204D02*
G75*
G02*
X351102994Y-79026203I0J-299999D01*
G01*
X369852957Y-78724754D02*
G75*
G02*
X370152956Y-79024753I0J-299999D01*
G01*
X312703071Y-78726204D02*
G75*
G02*
X313003070Y-79026203I0J-299999D01*
G01*
X337103472Y-79026203D02*
X337103472Y-92426177D01*
X299303548Y-92726176D02*
X312703071Y-92726176D01*
X356153434Y-79024753D02*
X356153434Y-92424727D01*
X350802995Y-78726204D02*
X337403472Y-78726204D01*
X332053032Y-92426177D02*
G75*
G02*
X331753033Y-92726176I-299999J0D01*
G01*
X331753033Y-78726204D02*
G75*
G02*
X332053032Y-79026203I0J-299999D01*
G01*
X351102994Y-92426177D02*
G75*
G02*
X350802995Y-92726176I-299999J0D01*
G01*
X318353510Y-92726176D02*
X331753033Y-92726176D01*
X154338888Y-97775366D02*
X140939365Y-97775366D01*
X9672477Y-79026203D02*
X9672477Y-92426176D01*
X254652637Y-73376215D02*
G75*
G02*
X254352638Y-73676214I-299999J0D01*
G01*
X274679689Y-40125931D02*
G75*
G02*
X275679687Y-39125933I999998J0D01*
G01*
X130826435Y-54326253D02*
X130826435Y-40926280D01*
X240063166Y-78726203D02*
G75*
G02*
X240363166Y-79026203I0J-300000D01*
G01*
X28134515Y-97774466D02*
X14734992Y-97774466D01*
X130526435Y-40626280D02*
X117126912Y-40626280D01*
X159991327Y-111775339D02*
G75*
G02*
X159691327Y-111475339I0J300000D01*
G01*
X247215652Y-2826556D02*
X247215652Y-16226529D01*
X160303376Y-2526557D02*
G75*
G02*
X160603375Y-2826556I0J-299999D01*
G01*
X112064722Y-79026203D02*
X112064722Y-92426177D01*
X230838485Y-111475339D02*
X230838485Y-98075365D01*
X78740739Y-2526556D02*
X65341216Y-2526556D01*
X202851491Y-73676215D02*
G75*
G02*
X202551491Y-73376215I0J300000D01*
G01*
X273402837Y-40626585D02*
G75*
G02*
X273702836Y-40926584I0J-299999D01*
G01*
X249351937Y-94224573D02*
X255351941Y-94224573D01*
X91003390Y-131325359D02*
G75*
G02*
X90003392Y-130325361I0J999998D01*
G01*
X16228314Y-2526556D02*
X2828791Y-2526556D01*
X173977949Y-40926280D02*
X173977949Y-54326253D01*
X188265420Y-79026203D02*
G75*
G02*
X188565419Y-78726204I299999J0D01*
G01*
X159103378Y-59676242D02*
X145703855Y-59676242D01*
X83898316Y-115326751D02*
G75*
G02*
X84898314Y-116326749I0J-999998D01*
G01*
X256734183Y-97775366D02*
X243334660Y-97775366D01*
X206726033Y-40626280D02*
X193326510Y-40626280D01*
X164165868Y-92426177D02*
G75*
G02*
X163865869Y-92726176I-299999J0D01*
G01*
X102541142Y-98075365D02*
G75*
G02*
X102841141Y-97775366I299999J0D01*
G01*
X231128134Y-40926280D02*
G75*
G02*
X231428134Y-40626280I300000J0D01*
G01*
X274679689Y-40125931D02*
X274676939Y-55124101D01*
X140051416Y-59676242D02*
X126651893Y-59676242D01*
X174277948Y-54626252D02*
X187677471Y-54626252D01*
X249351937Y-94224573D02*
G75*
G02*
X248351939Y-93224575I0J999998D01*
G01*
X235600675Y-73376215D02*
G75*
G02*
X235300676Y-73676214I-299999J0D01*
G01*
X140351415Y-73376215D02*
G75*
G02*
X140051416Y-73676214I-299999J0D01*
G01*
X37426939Y-112273537D02*
X37429689Y-97275367D01*
X164752967Y-73676214D02*
G75*
G02*
X164452968Y-73376215I0J299999D01*
G01*
X108503929Y-2826556D02*
G75*
G02*
X108803929Y-2526556I300000J0D01*
G01*
X275676937Y-56124099D02*
X281676941Y-56124099D01*
X223115250Y-16226529D02*
X223115250Y-2826556D01*
X84091178Y-2826556D02*
G75*
G02*
X84391178Y-2526556I300000J0D01*
G01*
X131414384Y-92726177D02*
G75*
G02*
X131114384Y-92426177I0J300000D01*
G01*
X28978313Y-130825360D02*
X42377836Y-130825360D01*
X135589225Y-111475339D02*
G75*
G02*
X135289226Y-111775338I-299999J0D01*
G01*
X183214980Y-92426177D02*
G75*
G02*
X182914981Y-92726176I-299999J0D01*
G01*
X121589703Y-98075365D02*
X121589703Y-111475339D01*
X207313982Y-79026203D02*
G75*
G02*
X207613981Y-78726204I299999J0D01*
G01*
X235300676Y-59676242D02*
X221901153Y-59676242D01*
X255354691Y-77226407D02*
X249354687Y-77226407D01*
X108503929Y-2826556D02*
X108503929Y-16226529D01*
X140639365Y-98075365D02*
X140639365Y-111475339D01*
X117126912Y-54626252D02*
G75*
G02*
X116826913Y-54326253I0J299999D01*
G01*
X245127656Y-130525361D02*
G75*
G02*
X244827657Y-130825360I-299999J0D01*
G01*
X226077835Y-130526531D02*
G75*
G02*
X225777836Y-130826530I-299999J0D01*
G01*
X83791179Y-111775338D02*
G75*
G02*
X83491180Y-111475339I0J299999D01*
G01*
X27241292Y-16526528D02*
G75*
G02*
X26941293Y-16226529I0J299999D01*
G01*
X68915759Y-92426177D02*
X68915759Y-79026203D01*
X198090400Y-111775338D02*
X211489924Y-111775338D01*
X209415728Y-16526528D02*
X222815251Y-16526528D01*
X112064723Y-79026203D02*
G75*
G02*
X112364722Y-78726204I299999J0D01*
G01*
X193328760Y-130825360D02*
G75*
G02*
X193028761Y-130525361I0J299999D01*
G01*
X140939365Y-111775339D02*
G75*
G02*
X140639365Y-111475339I0J300000D01*
G01*
X69203707Y-59976242D02*
G75*
G02*
X69503707Y-59676242I300000J0D01*
G01*
X193026510Y-40926280D02*
G75*
G02*
X193326510Y-40626280I300000J0D01*
G01*
X29429689Y-97275367D02*
G75*
G02*
X30429687Y-96275369I999998J0D01*
G01*
X206726033Y-40626281D02*
G75*
G02*
X207026032Y-40926280I0J-299999D01*
G01*
X216251014Y-59676242D02*
X202851491Y-59676242D01*
X125764245Y-78726204D02*
X112364722Y-78726204D01*
X273402837Y-40626584D02*
X260003314Y-40626584D01*
X92728211Y-54326253D02*
G75*
G02*
X92428212Y-54626252I-299999J0D01*
G01*
X226075694Y-54326253D02*
X226075694Y-40926280D01*
X187677471Y-40626280D02*
X174277948Y-40626280D01*
X102841141Y-111775338D02*
X116240664Y-111775338D01*
X40640815Y-2526556D02*
X27241292Y-2526556D01*
X65341216Y-16526529D02*
G75*
G02*
X65041216Y-16226529I0J300000D01*
G01*
X179653337Y-16226529D02*
G75*
G02*
X179353338Y-16526528I-299999J0D01*
G01*
X31103784Y-59976242D02*
X31103784Y-73376215D01*
X201964943Y-78726204D02*
G75*
G02*
X202264942Y-79026203I0J-299999D01*
G01*
X260915175Y-2526556D02*
X247515651Y-2526556D01*
X65041216Y-2826556D02*
G75*
G02*
X65341216Y-2526556I300000J0D01*
G01*
X87665721Y-78726204D02*
X74266198Y-78726204D01*
X264464067Y-59976242D02*
G75*
G02*
X264764067Y-59676242I300000J0D01*
G01*
X257729691Y-39125933D02*
G75*
G02*
X258729689Y-40125931I0J-999998D01*
G01*
X23671999Y-92426176D02*
G75*
G02*
X23372000Y-92726175I-299999J0D01*
G01*
X121889703Y-111775339D02*
G75*
G02*
X121589703Y-111475339I0J300000D01*
G01*
X124228552Y-130824671D02*
G75*
G02*
X123928552Y-130524671I0J300000D01*
G01*
X83491180Y-98075365D02*
G75*
G02*
X83791179Y-97775366I299999J0D01*
G01*
X122503451Y-16226529D02*
X122503451Y-2826556D01*
X244827657Y-40626281D02*
G75*
G02*
X245127656Y-40926280I0J-299999D01*
G01*
X92428212Y-40626281D02*
G75*
G02*
X92728211Y-40926280I0J-299999D01*
G01*
X273301937Y-94225640D02*
X279301941Y-94225640D01*
X197202452Y-59676242D02*
X183802929Y-59676242D01*
X165953815Y-16526528D02*
X179353338Y-16526528D01*
X40628765Y-40926280D02*
G75*
G02*
X40928765Y-40626280I300000J0D01*
G01*
X29429689Y-97275367D02*
X29426939Y-112273537D01*
X228165690Y-2826556D02*
X228165690Y-16226529D01*
X212376172Y-54626253D02*
G75*
G02*
X212076172Y-54326253I0J300000D01*
G01*
X122203452Y-2526556D02*
X108803929Y-2526556D01*
X178740439Y-98075365D02*
X178740439Y-111475339D01*
X126064244Y-92426177D02*
X126064244Y-79026203D01*
X230538485Y-97775366D02*
X217138962Y-97775366D01*
X106715683Y-78726204D02*
X93316160Y-78726204D01*
X131114385Y-79026203D02*
G75*
G02*
X131414384Y-78726204I299999J0D01*
G01*
X4878314Y-117125387D02*
G75*
G02*
X5178313Y-116825388I299999J0D01*
G01*
X92428212Y-40626280D02*
X79028688Y-40626280D01*
X260003314Y-54626557D02*
G75*
G02*
X259703314Y-54326557I0J300000D01*
G01*
X20990815Y-59676242D02*
X7591291Y-59676242D01*
X212376172Y-54626252D02*
X225775695Y-54626252D01*
X150166347Y-79026203D02*
G75*
G02*
X150466346Y-78726204I299999J0D01*
G01*
X177955562Y-132319723D02*
X183955566Y-132319723D01*
X79028688Y-54626252D02*
X92428212Y-54626252D01*
X116826913Y-40926280D02*
X116826913Y-54326253D01*
X259703314Y-40926584D02*
X259703314Y-54326557D01*
X154638887Y-111475339D02*
G75*
G02*
X154338888Y-111775338I-299999J0D01*
G01*
X183802929Y-73676214D02*
X197202452Y-73676214D01*
X88553669Y-73676214D02*
G75*
G02*
X88253670Y-73376215I0J299999D01*
G01*
X44803307Y-59676243D02*
G75*
G02*
X45103306Y-59976242I0J-299999D01*
G01*
X84391178Y-16526528D02*
X97790701Y-16526528D01*
X193028761Y-117125387D02*
G75*
G02*
X193328760Y-116825388I299999J0D01*
G01*
X64741217Y-111775338D02*
G75*
G02*
X64441218Y-111475339I0J299999D01*
G01*
X149878397Y-54326253D02*
X149878397Y-40926280D01*
X28434515Y-111474439D02*
X28434515Y-98074465D01*
X155227986Y-54626252D02*
X168627509Y-54626252D01*
X183214980Y-92426177D02*
X183214980Y-79026203D01*
X88553669Y-73676214D02*
X101953193Y-73676214D01*
X54628287Y-54326253D02*
G75*
G02*
X54328288Y-54626252I-299999J0D01*
G01*
X52798313Y-130821543D02*
X66197836Y-130821543D01*
X168927508Y-54326253D02*
G75*
G02*
X168627509Y-54626252I-299999J0D01*
G01*
X50153746Y-59976242D02*
X50153746Y-73376215D01*
X271321753Y-92425477D02*
G75*
G02*
X271021754Y-92725476I-299999J0D01*
G01*
X207028283Y-130525361D02*
X207028283Y-117125387D01*
X78140740Y-97775366D02*
X64741217Y-97775366D01*
X130526435Y-40626280D02*
G75*
G02*
X130826435Y-40926280I0J-300000D01*
G01*
X149578397Y-40626280D02*
G75*
G02*
X149878397Y-40926280I0J-300000D01*
G01*
X197790401Y-98075365D02*
G75*
G02*
X198090400Y-97775366I299999J0D01*
G01*
X84895564Y-131324919D02*
G75*
G02*
X83895566Y-132324917I-999998J0D01*
G01*
X278163590Y-59676242D02*
G75*
G02*
X278463590Y-59976242I0J-300000D01*
G01*
X204065288Y-16226529D02*
X204065288Y-2826556D01*
X264764067Y-73676214D02*
X278163590Y-73676214D01*
X50453746Y-73676215D02*
G75*
G02*
X50153746Y-73376215I0J300000D01*
G01*
X98090700Y-16226529D02*
X98090700Y-2826556D01*
X221601153Y-59976242D02*
X221601153Y-73376215D01*
X192439962Y-97775366D02*
G75*
G02*
X192739961Y-98075365I0J-299999D01*
G01*
X168627509Y-40626280D02*
X155227986Y-40626280D01*
X98090700Y-16226529D02*
G75*
G02*
X97790701Y-16526528I-299999J0D01*
G01*
X228465690Y-16526529D02*
G75*
G02*
X228165690Y-16226529I0J300000D01*
G01*
X54328288Y-40626281D02*
G75*
G02*
X54628287Y-40926280I0J-299999D01*
G01*
X102253192Y-73376215D02*
G75*
G02*
X101953193Y-73676214I-299999J0D01*
G01*
X193326510Y-54626252D02*
X206726033Y-54626252D01*
X100003372Y-117325387D02*
X100003372Y-130325361D01*
X145403855Y-59976242D02*
G75*
G02*
X145703855Y-59676242I300000J0D01*
G01*
X107015682Y-92426177D02*
G75*
G02*
X106715683Y-92726176I-299999J0D01*
G01*
X74266198Y-92726176D02*
X87665721Y-92726176D01*
X108803929Y-16526529D02*
G75*
G02*
X108503929Y-16226529I0J300000D01*
G01*
X163865869Y-78726204D02*
G75*
G02*
X164165868Y-79026203I0J-299999D01*
G01*
X49565797Y-78726204D02*
X36166274Y-78726204D01*
X141253414Y-2526556D02*
X127853891Y-2526556D01*
X64153268Y-73376215D02*
G75*
G02*
X63853269Y-73676214I-299999J0D01*
G01*
X211489924Y-97775366D02*
G75*
G02*
X211789923Y-98075365I0J-299999D01*
G01*
X165953815Y-16526529D02*
G75*
G02*
X165653815Y-16226529I0J300000D01*
G01*
X45991255Y-2826556D02*
X45991255Y-16226529D01*
X168627509Y-40626280D02*
G75*
G02*
X168927509Y-40926280I0J-300000D01*
G01*
X83898316Y-115326751D02*
X77898312Y-115326751D01*
X52498314Y-117121570D02*
G75*
G02*
X52798313Y-116821571I299999J0D01*
G01*
X222815251Y-2526557D02*
G75*
G02*
X223115250Y-2826556I0J-299999D01*
G01*
X97190702Y-97775365D02*
G75*
G02*
X97490702Y-98075365I0J-300000D01*
G01*
X64441218Y-98075365D02*
X64441218Y-111475339D01*
X174277948Y-54626252D02*
G75*
G02*
X173977949Y-54326253I0J299999D01*
G01*
X257622231Y-92725476D02*
X271021754Y-92725476D01*
X136178874Y-54626252D02*
G75*
G02*
X135878875Y-54326253I0J299999D01*
G01*
X221901153Y-73676214D02*
X235300676Y-73676214D01*
X82903231Y-59676243D02*
G75*
G02*
X83203230Y-59976242I0J-299999D01*
G01*
X179353338Y-2526556D02*
X165953815Y-2526556D01*
X204065288Y-16226529D02*
G75*
G02*
X203765289Y-16526528I-299999J0D01*
G01*
X144813907Y-78726204D02*
G75*
G02*
X145113906Y-79026203I0J-299999D01*
G01*
X173390850Y-97775366D02*
X159991327Y-97775366D01*
X137928074Y-130524671D02*
X137928074Y-117124697D01*
X160603375Y-16226529D02*
G75*
G02*
X160303376Y-16526528I-299999J0D01*
G01*
X45691255Y-111775338D02*
G75*
G02*
X45391256Y-111475339I0J299999D01*
G01*
X5454689Y-97275367D02*
G75*
G02*
X6454687Y-96275369I999998J0D01*
G01*
X54328288Y-40626280D02*
X40928765Y-40626280D01*
X207613981Y-92726176D02*
G75*
G02*
X207313982Y-92426177I0J299999D01*
G01*
X49865797Y-92426177D02*
X49865797Y-79026203D01*
X240953115Y-73676214D02*
X254352638Y-73676214D01*
X179040438Y-111775338D02*
G75*
G02*
X178740439Y-111475339I0J299999D01*
G01*
X245127656Y-54326253D02*
X245127656Y-40926280D01*
X193026510Y-40926280D02*
X193026510Y-54326253D01*
X247215651Y-2826556D02*
G75*
G02*
X247515651Y-2526556I300000J0D01*
G01*
X240953115Y-73676215D02*
G75*
G02*
X240653115Y-73376215I0J300000D01*
G01*
X273702836Y-54326557D02*
X273702836Y-40926584D01*
X42377836Y-116825387D02*
G75*
G02*
X42677836Y-117125387I0J-300000D01*
G01*
X4878314Y-117125387D02*
X4878314Y-130525361D01*
X66197836Y-116821570D02*
G75*
G02*
X66497836Y-117121570I0J-300000D01*
G01*
X6451937Y-113273535D02*
X12451941Y-113273535D01*
X130826434Y-54326253D02*
G75*
G02*
X130526435Y-54626252I-299999J0D01*
G01*
X69503707Y-73676214D02*
G75*
G02*
X69203708Y-73376215I0J299999D01*
G01*
X187977471Y-54326253D02*
X187977471Y-40926280D01*
X250729689Y-40125931D02*
G75*
G02*
X251729687Y-39125933I999998J0D01*
G01*
X159691327Y-98075365D02*
X159691327Y-111475339D01*
X42377836Y-116825388D02*
X28978313Y-116825388D01*
X35278326Y-40626280D02*
X21878803Y-40626280D01*
X247515651Y-16526528D02*
G75*
G02*
X247215652Y-16226529I0J299999D01*
G01*
X243034660Y-98075365D02*
X243034660Y-111475339D01*
X260915175Y-2526557D02*
G75*
G02*
X261215174Y-2826556I0J-299999D01*
G01*
X255354691Y-77226407D02*
G75*
G02*
X256354689Y-78226405I0J-999998D01*
G01*
X106715683Y-78726204D02*
G75*
G02*
X107015682Y-79026203I0J-299999D01*
G01*
X216251014Y-59676243D02*
G75*
G02*
X216551013Y-59976242I0J-299999D01*
G01*
X216838963Y-98075365D02*
X216838963Y-111475339D01*
X231428134Y-54626253D02*
G75*
G02*
X231128134Y-54326253I0J300000D01*
G01*
X54628287Y-54326253D02*
X54628287Y-40926280D01*
X243334660Y-111775339D02*
G75*
G02*
X243034660Y-111475339I0J300000D01*
G01*
X183802929Y-73676214D02*
G75*
G02*
X183502930Y-73376215I0J299999D01*
G01*
X121001755Y-59676242D02*
X107602231Y-59676242D01*
X2528791Y-2826556D02*
X2528791Y-16226529D01*
X23372000Y-78726204D02*
G75*
G02*
X23671999Y-79026203I0J-299999D01*
G01*
X140939365Y-111775338D02*
X154338888Y-111775338D01*
X137628075Y-116824698D02*
X124228552Y-116824698D01*
X93316160Y-92726177D02*
G75*
G02*
X93016160Y-92426177I0J300000D01*
G01*
X197502452Y-73376215D02*
X197502452Y-59976242D01*
X98077250Y-54626252D02*
G75*
G02*
X97777251Y-54326253I0J299999D01*
G01*
X5454689Y-97275367D02*
X5451939Y-112273537D01*
X212378313Y-130826530D02*
G75*
G02*
X212078314Y-130526531I0J299999D01*
G01*
X78728689Y-40926280D02*
X78728689Y-54326253D01*
X149878396Y-54326253D02*
G75*
G02*
X149578397Y-54626252I-299999J0D01*
G01*
X242165212Y-16226529D02*
G75*
G02*
X241865213Y-16526528I-299999J0D01*
G01*
X256351939Y-93224575D02*
G75*
G02*
X255351941Y-94224573I-999998J0D01*
G01*
X165653815Y-2826556D02*
G75*
G02*
X165953815Y-2526556I300000J0D01*
G01*
X125764245Y-78726204D02*
G75*
G02*
X126064244Y-79026203I0J-299999D01*
G01*
X173690849Y-111475339D02*
G75*
G02*
X173390850Y-111775338I-299999J0D01*
G01*
X179040438Y-111775338D02*
X192439962Y-111775338D01*
X28978313Y-130825360D02*
G75*
G02*
X28678314Y-130525361I0J299999D01*
G01*
X250729689Y-40125931D02*
X250726939Y-55124101D01*
X160603375Y-16226529D02*
X160603375Y-2826556D01*
X12454691Y-96275369D02*
G75*
G02*
X13454689Y-97275367I0J-999998D01*
G01*
X203765289Y-2526556D02*
X190365766Y-2526556D01*
X121889703Y-111775338D02*
X135289226Y-111775338D01*
X44803307Y-59676242D02*
X31403784Y-59676242D01*
X226363644Y-79026203D02*
G75*
G02*
X226663643Y-78726204I299999J0D01*
G01*
X202551491Y-59976242D02*
X202551491Y-73376215D01*
X88253669Y-59976242D02*
G75*
G02*
X88553669Y-59676242I300000J0D01*
G01*
X145403856Y-59976242D02*
X145403856Y-73376215D01*
X190365766Y-16526528D02*
X203765289Y-16526528D01*
X203765289Y-2526557D02*
G75*
G02*
X204065288Y-2826556I0J-299999D01*
G01*
X182914981Y-78726204D02*
G75*
G02*
X183214980Y-79026203I0J-299999D01*
G01*
X40640815Y-2526556D02*
G75*
G02*
X40940815Y-2826556I0J-300000D01*
G01*
X241865213Y-2526557D02*
G75*
G02*
X242165212Y-2826556I0J-299999D01*
G01*
X16228314Y-2526557D02*
G75*
G02*
X16528313Y-2826556I0J-299999D01*
G01*
X36429691Y-96275369D02*
X30429687Y-96275369D01*
X193028761Y-117125387D02*
X193028761Y-130525361D01*
X164452967Y-59976242D02*
G75*
G02*
X164752967Y-59676242I300000J0D01*
G01*
X257322232Y-79025503D02*
G75*
G02*
X257622231Y-78725504I299999J0D01*
G01*
X13451939Y-112273537D02*
X13454689Y-97275367D01*
X173977948Y-40926280D02*
G75*
G02*
X174277948Y-40626280I300000J0D01*
G01*
X202551491Y-59976242D02*
G75*
G02*
X202851491Y-59676242I300000J0D01*
G01*
X201964943Y-78726204D02*
X188565419Y-78726204D01*
X209115728Y-2826556D02*
G75*
G02*
X209415728Y-2526556I300000J0D01*
G01*
X137628075Y-116824698D02*
G75*
G02*
X137928074Y-117124697I0J-299999D01*
G01*
X107015682Y-92426177D02*
X107015682Y-79026203D01*
X235600675Y-73376215D02*
X235600675Y-59976242D01*
X79028688Y-54626252D02*
G75*
G02*
X78728689Y-54326253I0J299999D01*
G01*
X49565797Y-78726203D02*
G75*
G02*
X49865797Y-79026203I0J-300000D01*
G01*
X59990777Y-16226529D02*
X59990777Y-2826556D01*
X216838963Y-98075365D02*
G75*
G02*
X217138962Y-97775366I299999J0D01*
G01*
X184955564Y-131319725D02*
X184958314Y-116321555D01*
X100003372Y-130325361D02*
G75*
G02*
X99003374Y-131325359I-999998J0D01*
G01*
X202851491Y-73676214D02*
X216251014Y-73676214D01*
X107302231Y-59976242D02*
G75*
G02*
X107602231Y-59676242I300000J0D01*
G01*
X82903231Y-59676242D02*
X69503707Y-59676242D01*
X97777250Y-40926280D02*
G75*
G02*
X98077250Y-40626280I300000J0D01*
G01*
X190065766Y-2826556D02*
G75*
G02*
X190365766Y-2526556I300000J0D01*
G01*
X207313982Y-79026203D02*
X207313982Y-92426177D01*
X197790401Y-98075365D02*
X197790401Y-111475339D01*
X169215458Y-79026203D02*
X169215458Y-92426177D01*
X257729691Y-39125933D02*
X251729687Y-39125933D01*
X45391256Y-98075365D02*
X45391256Y-111475339D01*
X159403378Y-73376215D02*
X159403378Y-59976242D01*
X146603853Y-2826556D02*
X146603853Y-16226529D01*
X230538485Y-97775365D02*
G75*
G02*
X230838485Y-98075365I0J-300000D01*
G01*
X244827657Y-40626280D02*
X231428134Y-40626280D01*
X73378250Y-40626281D02*
G75*
G02*
X73678249Y-40926280I0J-299999D01*
G01*
X111776773Y-54326253D02*
X111776773Y-40926280D01*
X184955564Y-131319725D02*
G75*
G02*
X183955566Y-132319723I-999998J0D01*
G01*
X77895562Y-132324917D02*
X83895566Y-132324917D01*
X240363165Y-92426177D02*
G75*
G02*
X240063166Y-92726176I-299999J0D01*
G01*
X126651893Y-73676214D02*
G75*
G02*
X126351894Y-73376215I0J299999D01*
G01*
X248354689Y-78226405D02*
G75*
G02*
X249354687Y-77226407I999998J0D01*
G01*
X111476774Y-40626281D02*
G75*
G02*
X111776773Y-40926280I0J-299999D01*
G01*
X42677836Y-130525361D02*
X42677836Y-117125387D01*
X273702836Y-54326557D02*
G75*
G02*
X273402837Y-54626556I-299999J0D01*
G01*
X83203230Y-73376215D02*
X83203230Y-59976242D01*
X275676937Y-56124099D02*
G75*
G02*
X274676939Y-55124101I0J999998D01*
G01*
X7591291Y-73676214D02*
G75*
G02*
X7291292Y-73376215I0J299999D01*
G01*
X173690849Y-111475339D02*
X173690849Y-98075365D01*
X190365766Y-16526529D02*
G75*
G02*
X190065766Y-16226529I0J300000D01*
G01*
X197502451Y-73376215D02*
G75*
G02*
X197202452Y-73676214I-299999J0D01*
G01*
X211789923Y-111475339D02*
G75*
G02*
X211489924Y-111775338I-299999J0D01*
G01*
X145113906Y-92426177D02*
G75*
G02*
X144813907Y-92726176I-299999J0D01*
G01*
X183502930Y-59976242D02*
X183502930Y-73376215D01*
X140639366Y-98075365D02*
G75*
G02*
X140939365Y-97775366I299999J0D01*
G01*
X97490701Y-111475339D02*
G75*
G02*
X97190702Y-111775338I-299999J0D01*
G01*
X141553413Y-16226529D02*
G75*
G02*
X141253414Y-16526528I-299999J0D01*
G01*
X116540663Y-111475339D02*
G75*
G02*
X116240664Y-111775338I-299999J0D01*
G01*
X76898314Y-116326749D02*
X76895564Y-131324919D01*
X216551013Y-73376215D02*
X216551013Y-59976242D01*
X7291291Y-59976242D02*
G75*
G02*
X7591291Y-59676242I300000J0D01*
G01*
X154927986Y-40926280D02*
G75*
G02*
X155227986Y-40626280I300000J0D01*
G01*
X2828791Y-54626252D02*
X16228314Y-54626252D01*
X243334660Y-111775338D02*
X256734183Y-111775338D01*
X150466346Y-92726176D02*
X163865869Y-92726176D01*
X231428133Y-130825360D02*
X244827657Y-130825360D01*
X212378313Y-130826530D02*
X225777836Y-130826530D01*
X245127656Y-130525361D02*
X245127656Y-117125387D01*
X178740439Y-98075365D02*
G75*
G02*
X179040438Y-97775366I299999J0D01*
G01*
X176958314Y-116321555D02*
G75*
G02*
X177958312Y-115321557I999998J0D01*
G01*
X26941292Y-2826556D02*
G75*
G02*
X27241292Y-2526556I300000J0D01*
G01*
X211789923Y-111475339D02*
X211789923Y-98075365D01*
X12454691Y-96275369D02*
X6454687Y-96275369D01*
X225775695Y-40626280D02*
X212376172Y-40626280D01*
X259703314Y-40926584D02*
G75*
G02*
X260003314Y-40626584I300000J0D01*
G01*
X221313503Y-92426177D02*
G75*
G02*
X221013504Y-92726176I-299999J0D01*
G01*
X183958316Y-115321557D02*
G75*
G02*
X184958314Y-116321555I0J-999998D01*
G01*
X197202452Y-59676242D02*
G75*
G02*
X197502452Y-59976242I0J-300000D01*
G01*
X9972476Y-92726175D02*
X23372000Y-92726175D01*
X54916237Y-79026203D02*
G75*
G02*
X55216236Y-78726204I299999J0D01*
G01*
X145703855Y-73676214D02*
X159103378Y-73676214D01*
X108803929Y-16526528D02*
X122203452Y-16526528D01*
X257322232Y-79025503D02*
X257322232Y-92425477D01*
X45103306Y-73376215D02*
G75*
G02*
X44803307Y-73676214I-299999J0D01*
G01*
X59690777Y-2526556D02*
G75*
G02*
X59990777Y-2826556I0J-300000D01*
G01*
X26941293Y-2826556D02*
X26941293Y-16226529D01*
X271021754Y-78725504D02*
X257622231Y-78725504D01*
X141553413Y-16226529D02*
X141553413Y-2826556D01*
X127853891Y-16526529D02*
G75*
G02*
X127553891Y-16226529I0J300000D01*
G01*
X231128134Y-117125387D02*
G75*
G02*
X231428133Y-116825388I299999J0D01*
G01*
X169515457Y-92726176D02*
G75*
G02*
X169215458Y-92426177I0J299999D01*
G01*
X272304689Y-78227472D02*
G75*
G02*
X273304687Y-77227474I999998J0D01*
G01*
X111776773Y-54326253D02*
G75*
G02*
X111476774Y-54626252I-299999J0D01*
G01*
X59690777Y-2526556D02*
X46291254Y-2526556D01*
X18577836Y-116825388D02*
X5178313Y-116825388D01*
X116826912Y-40926280D02*
G75*
G02*
X117126912Y-40626280I300000J0D01*
G01*
X107602231Y-73676214D02*
X121001755Y-73676214D01*
X59978727Y-54626252D02*
X73378250Y-54626252D01*
X35578325Y-54326253D02*
X35578325Y-40926280D01*
X240653115Y-59976242D02*
X240653115Y-73376215D01*
X16528313Y-16226529D02*
G75*
G02*
X16228314Y-16526528I-299999J0D01*
G01*
X93316160Y-92726176D02*
X106715683Y-92726176D01*
X14434993Y-98074465D02*
X14434993Y-111474439D01*
X116240664Y-97775366D02*
G75*
G02*
X116540663Y-98075365I0J-299999D01*
G01*
X131414384Y-92726176D02*
X144813907Y-92726176D01*
X30426937Y-113273535D02*
G75*
G02*
X29426939Y-112273537I0J999998D01*
G01*
X256734183Y-97775366D02*
G75*
G02*
X257034182Y-98075365I0J-299999D01*
G01*
X254652637Y-73376215D02*
X254652637Y-59976242D01*
X261215174Y-16226529D02*
X261215174Y-2826556D01*
X59678727Y-40926280D02*
G75*
G02*
X59978727Y-40626280I300000J0D01*
G01*
X73966199Y-79026203D02*
G75*
G02*
X74266198Y-78726204I299999J0D01*
G01*
X226075694Y-54326253D02*
G75*
G02*
X225775695Y-54626252I-299999J0D01*
G01*
X247515651Y-16526528D02*
X260915175Y-16526528D01*
X21578803Y-40926280D02*
G75*
G02*
X21878803Y-40626280I300000J0D01*
G01*
X163865869Y-78726204D02*
X150466346Y-78726204D01*
X78140740Y-97775365D02*
G75*
G02*
X78440740Y-98075365I0J-300000D01*
G01*
X63853269Y-59676243D02*
G75*
G02*
X64153268Y-59976242I0J-299999D01*
G01*
X64441218Y-98075365D02*
G75*
G02*
X64741217Y-97775366I299999J0D01*
G01*
X154338888Y-97775366D02*
G75*
G02*
X154638887Y-98075365I0J-299999D01*
G01*
X221013504Y-78726204D02*
X207613981Y-78726204D01*
X131114384Y-79026203D02*
X131114384Y-92426177D01*
X264764067Y-73676214D02*
G75*
G02*
X264464068Y-73376215I0J299999D01*
G01*
X91003390Y-116325389D02*
X99003374Y-116325389D01*
X221313504Y-92426177D02*
X221313504Y-79026203D01*
X28134515Y-97774465D02*
G75*
G02*
X28434515Y-98074465I0J-300000D01*
G01*
X251726937Y-56124099D02*
X257726941Y-56124099D01*
X271321754Y-92425477D02*
X271321754Y-79025503D01*
X127853891Y-16526528D02*
X141253414Y-16526528D01*
X245127656Y-54326253D02*
G75*
G02*
X244827657Y-54626252I-299999J0D01*
G01*
X21578803Y-40926280D02*
X21578803Y-54326253D01*
X144813907Y-78726204D02*
X131414384Y-78726204D01*
X240063166Y-78726204D02*
X226663643Y-78726204D01*
X240363166Y-92426177D02*
X240363166Y-79026203D01*
X212078314Y-117126557D02*
X212078314Y-130526531D01*
X36429691Y-96275369D02*
G75*
G02*
X37429689Y-97275367I0J-999998D01*
G01*
X55216236Y-92726176D02*
X68615759Y-92726176D01*
X206728283Y-116825387D02*
G75*
G02*
X207028283Y-117125387I0J-300000D01*
G01*
X164452968Y-59976242D02*
X164452968Y-73376215D01*
X216551013Y-73376215D02*
G75*
G02*
X216251014Y-73676214I-299999J0D01*
G01*
X107602231Y-73676214D02*
G75*
G02*
X107302232Y-73376215I0J299999D01*
G01*
X116240664Y-97775366D02*
X102841141Y-97775366D01*
X207026032Y-54326253D02*
G75*
G02*
X206726033Y-54626252I-299999J0D01*
G01*
X225777836Y-116826557D02*
G75*
G02*
X226077836Y-117126557I0J-300000D01*
G01*
X88253670Y-59976242D02*
X88253670Y-73376215D01*
X45103306Y-73376215D02*
X45103306Y-59976242D01*
X122203452Y-2526557D02*
G75*
G02*
X122503451Y-2826556I0J-299999D01*
G01*
X6451937Y-113273535D02*
G75*
G02*
X5451939Y-112273537I0J999998D01*
G01*
X79040738Y-16226529D02*
X79040738Y-2826556D01*
X257622231Y-92725476D02*
G75*
G02*
X257322232Y-92425477I0J299999D01*
G01*
X87665721Y-78726203D02*
G75*
G02*
X87965721Y-79026203I0J-300000D01*
G01*
X126351893Y-59976242D02*
G75*
G02*
X126651893Y-59676242I300000J0D01*
G01*
X7291292Y-59976242D02*
X7291292Y-73376215D01*
X150166346Y-79026203D02*
X150166346Y-92426177D01*
X257034182Y-111475339D02*
X257034182Y-98075365D01*
X244827657Y-116825388D02*
X231428133Y-116825388D01*
X28434514Y-111474439D02*
G75*
G02*
X28134515Y-111774438I-299999J0D01*
G01*
X46291254Y-16526528D02*
G75*
G02*
X45991255Y-16226529I0J299999D01*
G01*
X13451939Y-112273537D02*
G75*
G02*
X12451941Y-113273535I-999998J0D01*
G01*
X68615759Y-78726204D02*
X55216236Y-78726204D01*
X64741217Y-111775338D02*
X78140740Y-111775338D01*
X278463589Y-73376215D02*
G75*
G02*
X278163590Y-73676214I-299999J0D01*
G01*
X257034182Y-111475339D02*
G75*
G02*
X256734183Y-111775338I-299999J0D01*
G01*
X145703855Y-73676214D02*
G75*
G02*
X145403856Y-73376215I0J299999D01*
G01*
X84391178Y-16526529D02*
G75*
G02*
X84091178Y-16226529I0J300000D01*
G01*
X160303376Y-2526556D02*
X146903853Y-2526556D01*
X231428133Y-130825360D02*
G75*
G02*
X231128134Y-130525361I0J299999D01*
G01*
X93016161Y-79026203D02*
G75*
G02*
X93316160Y-78726204I299999J0D01*
G01*
X16528313Y-54326253D02*
G75*
G02*
X16228314Y-54626252I-299999J0D01*
G01*
X87965720Y-92426177D02*
G75*
G02*
X87665721Y-92726176I-299999J0D01*
G01*
X177955562Y-132319723D02*
G75*
G02*
X176955564Y-131319725I0J999998D01*
G01*
X102841141Y-111775339D02*
G75*
G02*
X102541141Y-111475339I0J300000D01*
G01*
X16228314Y-40626281D02*
G75*
G02*
X16528313Y-40926280I0J-299999D01*
G01*
X135589225Y-111475339D02*
X135589225Y-98075365D01*
X178452489Y-73376215D02*
G75*
G02*
X178152490Y-73676214I-299999J0D01*
G01*
X202264942Y-92426177D02*
G75*
G02*
X201964943Y-92726176I-299999J0D01*
G01*
X123928552Y-117124697D02*
X123928552Y-130524671D01*
X2828791Y-16526529D02*
G75*
G02*
X2528791Y-16226529I0J300000D01*
G01*
X84091178Y-2826556D02*
X84091178Y-16226529D01*
X187977470Y-54326253D02*
G75*
G02*
X187677471Y-54626252I-299999J0D01*
G01*
X241865213Y-2526556D02*
X228465690Y-2526556D01*
X97190702Y-97775366D02*
X83791179Y-97775366D01*
X248354689Y-78226405D02*
X248351939Y-93224575D01*
X126351894Y-59976242D02*
X126351894Y-73376215D01*
X135878875Y-40926280D02*
X135878875Y-54326253D01*
X225777836Y-116826558D02*
X212378313Y-116826558D01*
X209415728Y-16526529D02*
G75*
G02*
X209115728Y-16226529I0J300000D01*
G01*
X59090778Y-97775365D02*
G75*
G02*
X59390778Y-98075365I0J-300000D01*
G01*
X73678249Y-54326253D02*
X73678249Y-40926280D01*
X20990815Y-59676243D02*
G75*
G02*
X21290814Y-59976242I0J-299999D01*
G01*
X135878874Y-40926280D02*
G75*
G02*
X136178874Y-40626280I300000J0D01*
G01*
X99003374Y-116325389D02*
G75*
G02*
X100003372Y-117325387I0J-999998D01*
G01*
X35866275Y-79026203D02*
G75*
G02*
X36166274Y-78726204I299999J0D01*
G01*
X28678314Y-117125387D02*
X28678314Y-130525361D01*
X84895564Y-131324919D02*
X84898314Y-116326749D01*
X31103784Y-59976242D02*
G75*
G02*
X31403784Y-59676242I300000J0D01*
G01*
X127553891Y-2826556D02*
G75*
G02*
X127853891Y-2526556I300000J0D01*
G01*
X93016160Y-79026203D02*
X93016160Y-92426177D01*
X28678314Y-117125387D02*
G75*
G02*
X28978313Y-116825388I299999J0D01*
G01*
X244827657Y-116825388D02*
G75*
G02*
X245127656Y-117125387I0J-299999D01*
G01*
X36166274Y-92726176D02*
G75*
G02*
X35866275Y-92426177I0J299999D01*
G01*
X65041216Y-2826556D02*
X65041216Y-16226529D01*
X280301939Y-93225642D02*
X280304689Y-78227472D01*
X222815251Y-2526556D02*
X209415728Y-2526556D01*
X97790701Y-2526556D02*
X84391178Y-2526556D01*
X78740739Y-2526557D02*
G75*
G02*
X79040738Y-2826556I0J-299999D01*
G01*
X9972476Y-92726175D02*
G75*
G02*
X9672477Y-92426176I0J299999D01*
G01*
X190065766Y-2826556D02*
X190065766Y-16226529D01*
X121001755Y-59676243D02*
G75*
G02*
X121301754Y-59976242I0J-299999D01*
G01*
X7591291Y-73676214D02*
X20990815Y-73676214D01*
X278163590Y-59676242D02*
X264764067Y-59676242D01*
X173390850Y-97775366D02*
G75*
G02*
X173690849Y-98075365I0J-299999D01*
G01*
X242165212Y-16226529D02*
X242165212Y-2826556D01*
X223115250Y-16226529D02*
G75*
G02*
X222815251Y-16526528I-299999J0D01*
G01*
X112364722Y-92726177D02*
G75*
G02*
X112064722Y-92426177I0J300000D01*
G01*
X107003358Y-123821314D02*
G75*
G03*
X107003358Y-123821314I-1999996J0D01*
G01*
X112364722Y-92726176D02*
X125764245Y-92726176D01*
X9672476Y-79026203D02*
G75*
G02*
X9972476Y-78726203I300000J0D01*
G01*
X73678249Y-54326253D02*
G75*
G02*
X73378250Y-54626252I-299999J0D01*
G01*
X192739961Y-111475339D02*
X192739961Y-98075365D01*
X73378250Y-40626280D02*
X59978727Y-40626280D01*
X221013504Y-78726203D02*
G75*
G02*
X221313504Y-79026203I0J-300000D01*
G01*
X278463590Y-73376215D02*
X278463590Y-59976242D01*
X221901153Y-73676215D02*
G75*
G02*
X221601153Y-73376215I0J300000D01*
G01*
X178152490Y-59676242D02*
G75*
G02*
X178452490Y-59976242I0J-300000D01*
G01*
X231128134Y-117125387D02*
X231128134Y-130525361D01*
X279304691Y-77227474D02*
G75*
G02*
X280304689Y-78227472I0J-999998D01*
G01*
X2828791Y-54626253D02*
G75*
G02*
X2528791Y-54326253I0J300000D01*
G01*
X87965721Y-92426177D02*
X87965721Y-79026203D01*
X45991254Y-2826556D02*
G75*
G02*
X46291254Y-2526556I300000J0D01*
G01*
X37426939Y-112273537D02*
G75*
G02*
X36426941Y-113273535I-999998J0D01*
G01*
X254352638Y-59676243D02*
G75*
G02*
X254652637Y-59976242I0J-299999D01*
G01*
X16528313Y-54326253D02*
X16528313Y-40926280D01*
X159991327Y-111775338D02*
X173390850Y-111775338D01*
X14734992Y-111774438D02*
X28134515Y-111774438D01*
X146603853Y-2826556D02*
G75*
G02*
X146903853Y-2526556I300000J0D01*
G01*
X146903853Y-16526528D02*
X160303376Y-16526528D01*
X281679691Y-39125933D02*
X275679687Y-39125933D01*
X31403784Y-73676215D02*
G75*
G02*
X31103784Y-73376215I0J300000D01*
G01*
X207028282Y-130525361D02*
G75*
G02*
X206728283Y-130825360I-299999J0D01*
G01*
X240653115Y-59976242D02*
G75*
G02*
X240953115Y-59676242I300000J0D01*
G01*
X136178874Y-54626252D02*
X149578397Y-54626252D01*
X193328760Y-130825360D02*
X206728283Y-130825360D01*
X35578325Y-54326253D02*
G75*
G02*
X35278326Y-54626252I-299999J0D01*
G01*
X187677471Y-40626280D02*
G75*
G02*
X187977471Y-40926280I0J-300000D01*
G01*
X159403377Y-73376215D02*
G75*
G02*
X159103378Y-73676214I-299999J0D01*
G01*
X231128134Y-40926280D02*
X231128134Y-54326253D01*
X188565419Y-92726176D02*
G75*
G02*
X188265420Y-92426177I0J299999D01*
G01*
X14434993Y-98074465D02*
G75*
G02*
X14734992Y-97774466I299999J0D01*
G01*
X40928765Y-54626253D02*
G75*
G02*
X40628765Y-54326253I0J300000D01*
G01*
X260003314Y-54626556D02*
X273402837Y-54626556D01*
X226663643Y-92726176D02*
G75*
G02*
X226363644Y-92426177I0J299999D01*
G01*
X149578397Y-40626280D02*
X136178874Y-40626280D01*
X77895562Y-132324917D02*
G75*
G02*
X76895564Y-131324919I0J999998D01*
G01*
X211489924Y-97775366D02*
X198090400Y-97775366D01*
X206728283Y-116825388D02*
X193328760Y-116825388D01*
X16528313Y-16226529D02*
X16528313Y-2826556D01*
X217138962Y-111775338D02*
X230538485Y-111775338D01*
X107302232Y-59976242D02*
X107302232Y-73376215D01*
X74266198Y-92726176D02*
G75*
G02*
X73966199Y-92426177I0J299999D01*
G01*
X97490702Y-111475339D02*
X97490702Y-98075365D01*
X202264942Y-92426177D02*
X202264942Y-79026203D01*
X36166274Y-92726176D02*
X49565797Y-92726176D01*
X40940814Y-16226529D02*
G75*
G02*
X40640815Y-16526528I-299999J0D01*
G01*
X230838484Y-111475339D02*
G75*
G02*
X230538485Y-111775338I-299999J0D01*
G01*
X225775695Y-40626281D02*
G75*
G02*
X226075694Y-40926280I0J-299999D01*
G01*
X183958316Y-115321557D02*
X177958312Y-115321557D01*
X169515457Y-92726176D02*
X182914981Y-92726176D01*
X102541141Y-98075365D02*
X102541141Y-111475339D01*
X251726937Y-56124099D02*
G75*
G02*
X250726939Y-55124101I0J999998D01*
G01*
X192739961Y-111475339D02*
G75*
G02*
X192439962Y-111775338I-299999J0D01*
G01*
X212076172Y-40926280D02*
G75*
G02*
X212376172Y-40626280I300000J0D01*
G01*
X59090778Y-97775366D02*
X45691255Y-97775366D01*
X126064244Y-92426177D02*
G75*
G02*
X125764245Y-92726176I-299999J0D01*
G01*
X45691255Y-111775338D02*
X59090778Y-111775338D01*
X35866275Y-79026203D02*
X35866275Y-92426177D01*
X121301754Y-73376215D02*
X121301754Y-59976242D01*
X78440740Y-111475339D02*
X78440740Y-98075365D01*
X212076172Y-40926280D02*
X212076172Y-54326253D01*
X76898314Y-116326749D02*
G75*
G02*
X77898312Y-115326751I999998J0D01*
G01*
X183502929Y-59976242D02*
G75*
G02*
X183802929Y-59676242I300000J0D01*
G01*
X101953193Y-59676242D02*
X88553669Y-59676242D01*
X102253192Y-73376215D02*
X102253192Y-59976242D01*
X92728211Y-54326253D02*
X92728211Y-40926280D01*
X159103378Y-59676242D02*
G75*
G02*
X159403378Y-59976242I0J-300000D01*
G01*
X140351416Y-73376215D02*
X140351416Y-59976242D01*
X40628765Y-40926280D02*
X40628765Y-54326253D01*
X141253414Y-2526557D02*
G75*
G02*
X141553413Y-2826556I0J-299999D01*
G01*
X65341216Y-16526528D02*
X78740739Y-16526528D01*
X23372000Y-78726203D02*
X9972476Y-78726203D01*
X126651893Y-73676214D02*
X140051416Y-73676214D01*
X188565419Y-92726176D02*
X201964943Y-92726176D01*
X40928765Y-54626252D02*
X54328288Y-54626252D01*
X164165868Y-92426177D02*
X164165868Y-79026203D01*
X50453746Y-73676214D02*
X63853269Y-73676214D01*
X178152490Y-59676242D02*
X164752967Y-59676242D01*
X59390778Y-111475339D02*
X59390778Y-98075365D01*
X73966199Y-79026203D02*
X73966199Y-92426177D01*
X226663643Y-92726176D02*
X240063166Y-92726176D01*
X68915758Y-92426177D02*
G75*
G02*
X68615759Y-92726176I-299999J0D01*
G01*
X179653337Y-16226529D02*
X179653337Y-2826556D01*
X83791179Y-111775338D02*
X97190702Y-111775338D01*
X217138962Y-111775338D02*
G75*
G02*
X216838963Y-111475339I0J299999D01*
G01*
X2528791Y-2826556D02*
G75*
G02*
X2828791Y-2526556I300000J0D01*
G01*
X55216236Y-92726176D02*
G75*
G02*
X54916237Y-92426177I0J299999D01*
G01*
X231428134Y-54626252D02*
X244827657Y-54626252D01*
X264464068Y-59976242D02*
X264464068Y-73376215D01*
X279304691Y-77227474D02*
X273304687Y-77227474D01*
X256351939Y-93224575D02*
X256354689Y-78226405D01*
X90003392Y-117325387D02*
G75*
G02*
X91003390Y-116325389I999998J0D01*
G01*
X226077836Y-130526531D02*
X226077836Y-117126557D01*
X116540663Y-111475339D02*
X116540663Y-98075365D01*
X282676939Y-55124101D02*
G75*
G02*
X281676941Y-56124099I-999998J0D01*
G01*
X154927987Y-40926280D02*
X154927987Y-54326253D01*
X78440739Y-111475339D02*
G75*
G02*
X78140740Y-111775338I-299999J0D01*
G01*
X18877835Y-130525361D02*
G75*
G02*
X18577836Y-130825360I-299999J0D01*
G01*
X179353338Y-2526557D02*
G75*
G02*
X179653337Y-2826556I0J-299999D01*
G01*
X209115728Y-2826556D02*
X209115728Y-16226529D01*
X16228314Y-40626280D02*
X2828791Y-40626280D01*
X83491180Y-98075365D02*
X83491180Y-111475339D01*
X271021754Y-78725503D02*
G75*
G02*
X271321754Y-79025503I0J-300000D01*
G01*
X14734992Y-111774438D02*
G75*
G02*
X14434993Y-111474439I0J299999D01*
G01*
X176958314Y-116321555D02*
X176955564Y-131319725D01*
X154638887Y-111475339D02*
X154638887Y-98075365D01*
X66497836Y-130521544D02*
X66497836Y-117121570D01*
X59390777Y-111475339D02*
G75*
G02*
X59090778Y-111775338I-299999J0D01*
G01*
X98077250Y-54626252D02*
X111476774Y-54626252D01*
X150466346Y-92726177D02*
G75*
G02*
X150166346Y-92426177I0J300000D01*
G01*
X212078314Y-117126557D02*
G75*
G02*
X212378313Y-116826558I299999J0D01*
G01*
X90003392Y-117325387D02*
X90003392Y-130325361D01*
X83203230Y-73376215D02*
G75*
G02*
X82903231Y-73676214I-299999J0D01*
G01*
X135289226Y-97775366D02*
G75*
G02*
X135589225Y-98075365I0J-299999D01*
G01*
X178452490Y-73376215D02*
X178452490Y-59976242D01*
X135289226Y-97775366D02*
X121889703Y-97775366D01*
X63853269Y-59676242D02*
X50453746Y-59676242D01*
X66497835Y-130521544D02*
G75*
G02*
X66197836Y-130821543I-299999J0D01*
G01*
X272304689Y-78227472D02*
X272301939Y-93225642D01*
X261215174Y-16226529D02*
G75*
G02*
X260915175Y-16526528I-299999J0D01*
G01*
X21878803Y-54626253D02*
G75*
G02*
X21578803Y-54326253I0J300000D01*
G01*
X21878803Y-54626252D02*
X35278326Y-54626252D01*
X273301937Y-94225640D02*
G75*
G02*
X272301939Y-93225642I0J999998D01*
G01*
X101953193Y-59676243D02*
G75*
G02*
X102253192Y-59976242I0J-299999D01*
G01*
X188265420Y-79026203D02*
X188265420Y-92426177D01*
X121301754Y-73376215D02*
G75*
G02*
X121001755Y-73676214I-299999J0D01*
G01*
X235300676Y-59676243D02*
G75*
G02*
X235600675Y-59976242I0J-299999D01*
G01*
X193326510Y-54626253D02*
G75*
G02*
X193026510Y-54326253I0J300000D01*
G01*
X169215458Y-79026203D02*
G75*
G02*
X169515457Y-78726204I299999J0D01*
G01*
X122503451Y-16226529D02*
G75*
G02*
X122203452Y-16526528I-299999J0D01*
G01*
X198090400Y-111775338D02*
G75*
G02*
X197790401Y-111475339I0J299999D01*
G01*
X54916237Y-79026203D02*
X54916237Y-92426177D01*
X66197836Y-116821571D02*
X52798313Y-116821571D01*
X45391256Y-98075365D02*
G75*
G02*
X45691255Y-97775366I299999J0D01*
G01*
X50153746Y-59976242D02*
G75*
G02*
X50453746Y-59676242I300000J0D01*
G01*
X5178313Y-130825360D02*
X18577836Y-130825360D01*
X30426937Y-113273535D02*
X36426941Y-113273535D01*
X69203708Y-59976242D02*
X69203708Y-73376215D01*
X27241292Y-16526528D02*
X40640815Y-16526528D01*
X168927509Y-54326253D02*
X168927509Y-40926280D01*
X42677835Y-130525361D02*
G75*
G02*
X42377836Y-130825360I-299999J0D01*
G01*
X59978727Y-54626253D02*
G75*
G02*
X59678727Y-54326253I0J300000D01*
G01*
X97790701Y-2526557D02*
G75*
G02*
X98090700Y-2826556I0J-299999D01*
G01*
X280301939Y-93225642D02*
G75*
G02*
X279301941Y-94225640I-999998J0D01*
G01*
X18877836Y-130525361D02*
X18877836Y-117125387D01*
X121589704Y-98075365D02*
G75*
G02*
X121889703Y-97775366I299999J0D01*
G01*
X140051416Y-59676242D02*
G75*
G02*
X140351416Y-59976242I0J-300000D01*
G01*
X23671999Y-92426176D02*
X23671999Y-79026203D01*
X145113906Y-92426177D02*
X145113906Y-79026203D01*
X40940815Y-16226529D02*
X40940815Y-2826556D01*
X146903853Y-16526529D02*
G75*
G02*
X146603853Y-16226529I0J300000D01*
G01*
X21290814Y-73376215D02*
G75*
G02*
X20990815Y-73676214I-299999J0D01*
G01*
X31403784Y-73676214D02*
X44803307Y-73676214D01*
X282676939Y-55124101D02*
X282679689Y-40125931D01*
X258726939Y-55124101D02*
X258729689Y-40125931D01*
X124228552Y-130824670D02*
X137628075Y-130824670D01*
X207026032Y-54326253D02*
X207026032Y-40926280D01*
X254352638Y-59676242D02*
X240953115Y-59676242D01*
X21290814Y-73376215D02*
X21290814Y-59976242D01*
X79040738Y-16226529D02*
G75*
G02*
X78740739Y-16526528I-299999J0D01*
G01*
X164752967Y-73676214D02*
X178152490Y-73676214D01*
X226363644Y-79026203D02*
X226363644Y-92426177D01*
X2828791Y-16526528D02*
X16228314Y-16526528D01*
X207613981Y-92726176D02*
X221013504Y-92726176D01*
X2528791Y-40926280D02*
G75*
G02*
X2828791Y-40626280I300000J0D01*
G01*
X49865796Y-92426177D02*
G75*
G02*
X49565797Y-92726176I-299999J0D01*
G01*
X165653815Y-2826556D02*
X165653815Y-16226529D01*
X192439962Y-97775366D02*
X179040438Y-97775366D01*
X46291254Y-16526528D02*
X59690777Y-16526528D01*
X64153268Y-73376215D02*
X64153268Y-59976242D01*
X281679691Y-39125933D02*
G75*
G02*
X282679689Y-40125931I0J-999998D01*
G01*
X18577836Y-116825387D02*
G75*
G02*
X18877836Y-117125387I0J-300000D01*
G01*
X228465690Y-16526528D02*
X241865213Y-16526528D01*
X243034661Y-98075365D02*
G75*
G02*
X243334660Y-97775366I299999J0D01*
G01*
X59678727Y-40926280D02*
X59678727Y-54326253D01*
X111476774Y-40626280D02*
X98077250Y-40626280D01*
X91003390Y-131325359D02*
X99003374Y-131325359D01*
X68615759Y-78726203D02*
G75*
G02*
X68915759Y-79026203I0J-300000D01*
G01*
X59990776Y-16226529D02*
G75*
G02*
X59690777Y-16526528I-299999J0D01*
G01*
X221601153Y-59976242D02*
G75*
G02*
X221901153Y-59676242I300000J0D01*
G01*
X159691328Y-98075365D02*
G75*
G02*
X159991327Y-97775366I299999J0D01*
G01*
X97777251Y-40926280D02*
X97777251Y-54326253D01*
X69503707Y-73676214D02*
X82903231Y-73676214D01*
X52498314Y-117121570D02*
X52498314Y-130521544D01*
X35278326Y-40626281D02*
G75*
G02*
X35578325Y-40926280I0J-299999D01*
G01*
X52798313Y-130821543D02*
G75*
G02*
X52498314Y-130521544I0J299999D01*
G01*
X2528791Y-40926280D02*
X2528791Y-54326253D01*
X228165690Y-2826556D02*
G75*
G02*
X228465690Y-2526556I300000J0D01*
G01*
X117126912Y-54626252D02*
X130526435Y-54626252D01*
X5178313Y-130825360D02*
G75*
G02*
X4878314Y-130525361I0J299999D01*
G01*
X155227986Y-54626252D02*
G75*
G02*
X154927987Y-54326253I0J299999D01*
G01*
X258726939Y-55124101D02*
G75*
G02*
X257726941Y-56124099I-999998J0D01*
G01*
X127553891Y-2826556D02*
X127553891Y-16226529D01*
X123928553Y-117124697D02*
G75*
G02*
X124228552Y-116824698I299999J0D01*
G01*
X78728688Y-40926280D02*
G75*
G02*
X79028688Y-40626280I300000J0D01*
G01*
X137928074Y-130524671D02*
G75*
G02*
X137628075Y-130824670I-299999J0D01*
G01*
X182914981Y-78726204D02*
X169515457Y-78726204D01*
X370651505Y-98327932D02*
X355653335Y-98325182D01*
X332053032Y-111475339D02*
X332053032Y-98075365D01*
X356152435Y-107600621D02*
G75*
G02*
X356452434Y-107300622I299999J0D01*
G01*
X370651505Y-98327932D02*
G75*
G02*
X371651503Y-99327930I0J-999998D01*
G01*
X371651503Y-105327934D02*
X371651503Y-99327930D01*
X355653335Y-106325182D02*
X370651505Y-106327932D01*
X318353510Y-130825360D02*
G75*
G02*
X318053510Y-130525360I0J300000D01*
G01*
X356152434Y-107600621D02*
X356152434Y-121000145D01*
X318353510Y-130825360D02*
X331753033Y-130825360D01*
X332053032Y-111475339D02*
G75*
G02*
X331753033Y-111775338I-299999J0D01*
G01*
X337103473Y-98075365D02*
G75*
G02*
X337403472Y-97775366I299999J0D01*
G01*
X354653337Y-123275180D02*
G75*
G02*
X355653335Y-122275182I999998J0D01*
G01*
X371651503Y-129277934D02*
X371651503Y-123277930D01*
X369852407Y-107300622D02*
X356452434Y-107300622D01*
X350802995Y-97775366D02*
G75*
G02*
X351102994Y-98075365I0J-299999D01*
G01*
X354653337Y-99325180D02*
G75*
G02*
X355653335Y-98325182I999998J0D01*
G01*
X318053510Y-98075365D02*
X318053510Y-111475339D01*
X350802995Y-116825388D02*
X337403472Y-116825388D01*
X351102995Y-130525360D02*
G75*
G02*
X350802995Y-130825360I-300000J0D01*
G01*
X370651505Y-122277932D02*
X355653335Y-122275182D01*
X318053511Y-98075365D02*
G75*
G02*
X318353510Y-97775366I299999J0D01*
G01*
X331753033Y-97775366D02*
G75*
G02*
X332053032Y-98075365I0J-299999D01*
G01*
X337403472Y-130825360D02*
X350802995Y-130825360D01*
X351102994Y-111475339D02*
G75*
G02*
X350802995Y-111775338I-299999J0D01*
G01*
X318353510Y-111775339D02*
G75*
G02*
X318053510Y-111475339I0J300000D01*
G01*
X355653335Y-106325182D02*
G75*
G02*
X354653337Y-105325184I0J999998D01*
G01*
X354653337Y-123275180D02*
X354653337Y-129275184D01*
X370152406Y-121000145D02*
G75*
G02*
X369852407Y-121300144I-299999J0D01*
G01*
X337403472Y-111775339D02*
G75*
G02*
X337103472Y-111475339I0J300000D01*
G01*
X318053511Y-117125387D02*
G75*
G02*
X318353510Y-116825388I299999J0D01*
G01*
X369852407Y-107300622D02*
G75*
G02*
X370152406Y-107600621I0J-299999D01*
G01*
X318053510Y-117125387D02*
X318053510Y-130525360D01*
X356452434Y-121300144D02*
X369852407Y-121300144D01*
X354653337Y-99325180D02*
X354653337Y-105325184D01*
X351102994Y-130525360D02*
X351102994Y-117125387D01*
X350802995Y-116825388D02*
G75*
G02*
X351102994Y-117125387I0J-299999D01*
G01*
X356452434Y-121300145D02*
G75*
G02*
X356152434Y-121000145I0J300000D01*
G01*
X370152406Y-121000145D02*
X370152406Y-107600621D01*
X337103472Y-117125387D02*
X337103472Y-130525360D01*
X355653335Y-130275182D02*
G75*
G02*
X354653337Y-129275184I0J999998D01*
G01*
X351102994Y-111475339D02*
X351102994Y-98075365D01*
X337103473Y-117125387D02*
G75*
G02*
X337403472Y-116825388I299999J0D01*
G01*
X332053033Y-130525360D02*
G75*
G02*
X331753033Y-130825360I-300000J0D01*
G01*
X331753033Y-116825388D02*
X318353510Y-116825388D01*
X370651505Y-122277932D02*
G75*
G02*
X371651503Y-123277930I0J-999998D01*
G01*
X332053032Y-130525360D02*
X332053032Y-117125387D01*
X337403472Y-111775338D02*
X350802995Y-111775338D01*
X350802995Y-97775366D02*
X337403472Y-97775366D01*
X371651503Y-129277934D02*
G75*
G02*
X370651505Y-130277932I-999998J0D01*
G01*
X337103472Y-98075365D02*
X337103472Y-111475339D01*
X371651503Y-105327934D02*
G75*
G02*
X370651505Y-106327932I-999998J0D01*
G01*
X331753033Y-116825388D02*
G75*
G02*
X332053032Y-117125387I0J-299999D01*
G01*
X318353510Y-111775338D02*
X331753033Y-111775338D01*
X331753033Y-97775366D02*
X318353510Y-97775366D01*
X337403472Y-130825360D02*
G75*
G02*
X337103472Y-130525360I0J300000D01*
G01*
X355653335Y-130275182D02*
X370651505Y-130277932D01*
X313003070Y-111475339D02*
X313003070Y-98075365D01*
X299303548Y-111775338D02*
X312703071Y-111775338D01*
X299003548Y-98075365D02*
X299003548Y-111475339D01*
X299003549Y-98075365D02*
G75*
G02*
X299303548Y-97775366I299999J0D01*
G01*
X299303548Y-111775339D02*
G75*
G02*
X299003548Y-111475339I0J300000D01*
G01*
X313003070Y-111475339D02*
G75*
G02*
X312703071Y-111775338I-299999J0D01*
G01*
X312703071Y-97775366D02*
X299303548Y-97775366D01*
X312703071Y-97775366D02*
G75*
G02*
X313003070Y-98075365I0J-299999D01*
G01*
X47764617Y-37309869D02*
X60764591Y-32309879D01*
X1328794Y-134024432D02*
G75*
G02*
X-671201Y-132024437I0J1999995D01*
G01*
X310840525Y-122506636D02*
X310840525Y-120988820D01*
X254340638Y-139388303D02*
X308840529Y-139388303D01*
X274890597Y-117138577D02*
X288290120Y-117138577D01*
X248348078Y-32073126D02*
X257348060Y-37073116D01*
X314840517Y-132025817D02*
X314840517Y-130506620D01*
X172759931Y-26576508D02*
X182826679Y-26576508D01*
X255540635Y-122488577D02*
G75*
G02*
X255840635Y-122188577I300000J0D01*
G01*
X310840525Y-137388307D02*
X310840525Y-130506620D01*
X293640559Y-122488577D02*
G75*
G02*
X293940559Y-122188577I300000J0D01*
G01*
X291790563Y-7526546D02*
G75*
G02*
X289790567Y-9526542I-1999996J0D01*
G01*
X371343029Y673437D02*
G75*
G02*
X373343025Y-1326559I0J-1999996D01*
G01*
X246826551Y-30576500D02*
X240826563Y-30576500D01*
X252340642Y-122506636D02*
G75*
G02*
X248340650Y-122506636I-1999996J0D01*
G01*
X288290120Y-122188578D02*
G75*
G02*
X288590119Y-122488577I0J-299999D01*
G01*
X248340650Y-116988828D02*
G75*
G02*
X250340646Y-114988832I1999996J0D01*
G01*
X240826563Y-30576500D02*
G75*
G02*
X240826563Y-26576508I0J1999996D01*
G01*
X312840521Y-114988832D02*
G75*
G02*
X314840517Y-116988828I0J-1999996D01*
G01*
X248340650Y-130506620D02*
G75*
G02*
X252340642Y-130506620I1999996J0D01*
G01*
X288290120Y-122188577D02*
X274890597Y-122188577D01*
X248348078Y-32073126D02*
G75*
G02*
X246826551Y-30576500I1942568J3496622D01*
G01*
X310840525Y-137388307D02*
G75*
G02*
X308840529Y-139388303I-1999996J0D01*
G01*
X263290620Y-33576494D02*
G75*
G02*
X257348060Y-37073116I-3999992J0D01*
G01*
X246826551Y-26576508D02*
G75*
G02*
X252233214Y-25079882I3464095J-1999996D01*
G01*
X32790269Y-32268805D02*
X44790245Y-37268795D01*
X269390608Y-95938870D02*
X277590591Y-95938870D01*
X189754869Y-30576500D02*
G75*
G02*
X182826679Y-30576500I-3464095J1999996D01*
G01*
X269540157Y-135888550D02*
G75*
G02*
X269240158Y-136188549I-299999J0D01*
G01*
X273390600Y-99938862D02*
X277590591Y-99938862D01*
X269390608Y-118988824D02*
X254340638Y-118988824D01*
X297790551Y-114988832D02*
G75*
G02*
X295790555Y-112988836I0J1999996D01*
G01*
X293940559Y-136188549D02*
X307340082Y-136188549D01*
X248340650Y-130506620D02*
X248340650Y-132024437D01*
X291790563Y-7526546D02*
X291790563Y-5326551D01*
X252233214Y-25079882D02*
X254927141Y-26576508D01*
X274890597Y-136188549D02*
X288290120Y-136188549D01*
X47764618Y-37309870D02*
G75*
G02*
X44790245Y-37268795I-1435914J3733376D01*
G01*
X288590119Y-116838578D02*
X288590119Y-103438605D01*
X182826679Y-26576508D02*
G75*
G02*
X189754869Y-26576508I3464095J-1999996D01*
G01*
X293940559Y-136188550D02*
G75*
G02*
X293640559Y-135888550I0J300000D01*
G01*
X307640081Y-135888550D02*
G75*
G02*
X307340082Y-136188549I-299999J0D01*
G01*
X310840525Y-130506620D02*
G75*
G02*
X314840517Y-130506620I1999996J0D01*
G01*
X162759951Y-26576508D02*
G75*
G02*
X162759951Y-30576500I0J-1999996D01*
G01*
X263290620Y-33576494D02*
G75*
G02*
X264290618Y-32576496I999998J0D01*
G01*
X255840635Y-136188549D02*
X269240158Y-136188549D01*
X269540157Y-135888550D02*
X269540157Y-122488577D01*
X72859521Y-26576508D02*
G75*
G02*
X72859521Y-30576500I0J-1999996D01*
G01*
X72859521Y-30576500D02*
X62792773Y-30576500D01*
X291790563Y-116988828D02*
X291790563Y-101938858D01*
X271390604Y-116988828D02*
G75*
G02*
X269390608Y-118988824I-1999996J0D01*
G01*
X269240158Y-122188578D02*
G75*
G02*
X269540157Y-122488577I0J-299999D01*
G01*
X288290120Y-103138606D02*
G75*
G02*
X288590119Y-103438605I0J-299999D01*
G01*
X289790567Y-32576496D02*
G75*
G02*
X291790563Y-34576492I0J-1999996D01*
G01*
X288290120Y-103138605D02*
X274890597Y-103138605D01*
X182826679Y-30576500D02*
X172759931Y-30576500D01*
X248340650Y-132024437D02*
G75*
G02*
X246340654Y-134024433I-1999996J0D01*
G01*
X274590597Y-122488577D02*
G75*
G02*
X274890597Y-122188577I300000J0D01*
G01*
X264290618Y-32576496D02*
X289790567Y-32576496D01*
X-671201Y-1326559D02*
G75*
G02*
X1328794Y673436I1999995J0D01*
G01*
X255840635Y-136188550D02*
G75*
G02*
X255540635Y-135888550I0J300000D01*
G01*
X293640559Y-122488577D02*
X293640559Y-135888550D01*
X291790563Y-66757678D02*
G75*
G02*
X295790555Y-66757678I1999996J0D01*
G01*
X285590575Y-99938862D02*
G75*
G02*
X285590575Y-95938870I0J1999996D01*
G01*
X62792773Y-26576508D02*
X72859521Y-26576508D01*
X295790555Y-58757694D02*
G75*
G02*
X291790563Y-58757694I-1999996J0D01*
G01*
X314840517Y-122506636D02*
X314840517Y-116988828D01*
X264401555Y-11526538D02*
X264401555Y-24576512D01*
X264401555Y-24576512D02*
G75*
G02*
X262401559Y-26576508I-1999996J0D01*
G01*
X252340642Y-120988820D02*
X252340642Y-122506636D01*
X307340082Y-122188577D02*
X293940559Y-122188577D01*
X-671201Y-1326559D02*
X-671201Y-132024437D01*
X285590575Y-95938870D02*
X289790567Y-95938870D01*
X297790551Y-114988832D02*
X312840521Y-114988832D01*
X252340642Y-137388307D02*
X252340642Y-130506620D01*
X7328782Y-30576500D02*
X30864633Y-30576500D01*
X248340650Y-116988828D02*
X248340650Y-122506636D01*
X254340638Y-139388303D02*
G75*
G02*
X252340642Y-137388307I0J1999996D01*
G01*
X264401555Y-11526538D02*
G75*
G02*
X266401551Y-9526542I1999996J0D01*
G01*
X274590597Y-122488577D02*
X274590597Y-135888550D01*
X30864633Y-26576508D02*
G75*
G02*
X34328728Y-24576512I3464095J-1999996D01*
G01*
X62792772Y-30576500D02*
G75*
G02*
X60764591Y-32309879I-3464094J1999996D01*
G01*
X255540635Y-122488577D02*
X255540635Y-135888550D01*
X277590591Y-95938870D02*
G75*
G02*
X277590591Y-99938862I0J-1999996D01*
G01*
X59328678Y-24576512D02*
G75*
G02*
X62792773Y-26576508I0J-3999992D01*
G01*
X232826579Y-30576500D02*
X189754869Y-30576500D01*
X307640081Y-135888550D02*
X307640081Y-122488577D01*
X82859501Y-30576500D02*
G75*
G02*
X82859501Y-26576508I0J1999996D01*
G01*
X373343025Y-132025817D02*
G75*
G02*
X371343029Y-134025813I-1999996J0D01*
G01*
X291790563Y-5326551D02*
G75*
G02*
X295790555Y-5326551I1999996J0D01*
G01*
X246340654Y-134024433D02*
X1328794Y-134024433D01*
X232826579Y-26576508D02*
G75*
G02*
X232826579Y-30576500I0J-1999996D01*
G01*
X291790563Y-93938874D02*
G75*
G02*
X289790567Y-95938870I-1999996J0D01*
G01*
X82859501Y-26576508D02*
X162759951Y-26576508D01*
X7328782Y-26576508D02*
X30864633Y-26576508D01*
X240826563Y-26576508D02*
X246826551Y-26576508D01*
X172759931Y-30576500D02*
G75*
G02*
X172759931Y-26576508I0J1999996D01*
G01*
X308840529Y-118988824D02*
X293790559Y-118988824D01*
X189754869Y-26576508D02*
X232826579Y-26576508D01*
X295790555Y-112988836D02*
X295790555Y-66757678D01*
X254927141Y-26576508D02*
X262401559Y-26576508D01*
X274590597Y-103438605D02*
X274590597Y-116838578D01*
X288590119Y-116838578D02*
G75*
G02*
X288290120Y-117138577I-299999J0D01*
G01*
X32790269Y-32268804D02*
G75*
G02*
X30864633Y-30576500I1538459J3692300D01*
G01*
X316840513Y-134025813D02*
X371343029Y-134025813D01*
X293790559Y-118988824D02*
G75*
G02*
X291790563Y-116988828I0J1999996D01*
G01*
X289790567Y-99938862D02*
G75*
G02*
X291790563Y-101938858I0J-1999996D01*
G01*
X308840529Y-118988824D02*
G75*
G02*
X310840525Y-120988820I0J-1999996D01*
G01*
X291790563Y-66757678D02*
X291790563Y-93938874D01*
X271390604Y-101938858D02*
G75*
G02*
X273390600Y-99938862I1999996J0D01*
G01*
X274590597Y-103438605D02*
G75*
G02*
X274890597Y-103138605I300000J0D01*
G01*
X34328728Y-24576512D02*
X59328678Y-24576512D01*
X267390612Y-97938866D02*
X267390612Y-112988836D01*
X267390612Y-112988836D02*
G75*
G02*
X265390616Y-114988832I-1999996J0D01*
G01*
X288590119Y-135888550D02*
X288590119Y-122488577D01*
X265390616Y-114988832D02*
X250340646Y-114988832D01*
X274890597Y-136188550D02*
G75*
G02*
X274590597Y-135888550I0J300000D01*
G01*
X266401551Y-9526542D02*
X289790567Y-9526542D01*
X314840517Y-122506636D02*
G75*
G02*
X310840525Y-122506636I-1999996J0D01*
G01*
X307340082Y-122188578D02*
G75*
G02*
X307640081Y-122488577I0J-299999D01*
G01*
X267390612Y-97938866D02*
G75*
G02*
X269390608Y-95938870I1999996J0D01*
G01*
X274890597Y-117138578D02*
G75*
G02*
X274590597Y-116838578I0J300000D01*
G01*
X373343025Y-132025817D02*
X373343025Y-1326559D01*
X295790555Y-5326551D02*
X295790555Y-58757694D01*
X271390604Y-116988828D02*
X271390604Y-101938858D01*
X7328782Y-30576500D02*
G75*
G02*
X7328782Y-26576508I0J1999996D01*
G01*
X316840513Y-134025813D02*
G75*
G02*
X314840517Y-132025817I0J1999996D01*
G01*
X162759951Y-30576500D02*
X82859501Y-30576500D01*
X288590119Y-135888550D02*
G75*
G02*
X288290120Y-136188549I-299999J0D01*
G01*
X291790563Y-34576492D02*
X291790563Y-58757694D01*
X252340642Y-120988820D02*
G75*
G02*
X254340638Y-118988824I1999996J0D01*
G01*
X269240158Y-122188577D02*
X255840635Y-122188577D01*
X285590575Y-99938862D02*
X289790567Y-99938862D01*
X371343029Y673436D02*
X1328794Y673436D01*
M02*
